<?xml version="1.0" encoding="UTF-8" standalone="no"?>
<svg
   id="Livello_1"
   data-name="Livello 1"
   viewBox="0 0 451.69 279.45"
   version="1.1"
   sodipodi:docname="time_bench.svg"
   inkscape:version="1.1.1 (3bf5ae0d25, 2021-09-20)"
   xmlns:inkscape="http://www.inkscape.org/namespaces/inkscape"
   xmlns:sodipodi="http://sodipodi.sourceforge.net/DTD/sodipodi-0.dtd"
   xmlns="http://www.w3.org/2000/svg"
   xmlns:svg="http://www.w3.org/2000/svg">
  <sodipodi:namedview
     id="namedview109"
     pagecolor="#ffffff"
     bordercolor="#666666"
     borderopacity="1.0"
     inkscape:pageshadow="2"
     inkscape:pageopacity="0.0"
     inkscape:pagecheckerboard="0"
     showgrid="false"
     inkscape:zoom="2.6478337"
     inkscape:cx="135.3937"
     inkscape:cy="139.54804"
     inkscape:window-width="1409"
     inkscape:window-height="1081"
     inkscape:window-x="2049"
     inkscape:window-y="181"
     inkscape:window-maximized="0"
     inkscape:current-layer="Livello_1" />
  <defs
     id="defs4">
    <style
       id="style2">.cls-1,.cls-10,.cls-3,.cls-5,.cls-9{fill:none;}.cls-1,.cls-10,.cls-5{stroke:#262626;}.cls-1,.cls-5{stroke-linejoin:round;}.cls-1,.cls-10,.cls-5,.cls-9{stroke-width:0.5px;}.cls-2{fill:#0072bd;}.cls-3,.cls-9{stroke:#000;}.cls-10,.cls-3,.cls-9{stroke-miterlimit:10;}.cls-3{stroke-width:0.25px;}.cls-4{fill:#d95319;}.cls-5{stroke-linecap:square;}.cls-6{font-size:10px;}.cls-6,.cls-7{fill:#262626;}.cls-6,.cls-7,.cls-8{font-family:ArialMT, Arial;}.cls-7{font-size:11px;}.cls-8{font-size:9px;}</style>
  </defs>
  <line
     class="cls-1"
     x1="36.69"
     y1="261.71"
     x2="451.44"
     y2="261.71"
     id="line6" />
  <path
     class="cls-2"
     d="M441.31,543.94V319.67h-31.6V543.94Zm-138.25,0v-1.41h-31.6v1.41Zm-138.25,0v-5.83h-31.6v5.83Z"
     transform="translate(-62.95 -282.24)"
     id="path8"
     style="fill:#0072bd;fill-opacity:0.85000002" />
  <rect
     class="cls-3"
     x="70.26"
     y="255.87"
     width="31.6"
     height="5.83"
     id="rect10" />
  <rect
     class="cls-3"
     x="208.51"
     y="260.3"
     width="31.6"
     height="1.41"
     id="rect12" />
  <rect
     class="cls-3"
     x="346.76"
     y="37.43"
     width="31.6"
     height="224.28"
     id="rect14" />
  <path
     class="cls-4"
     d="M480.81,543.94V492.72h-31.6v51.22Zm-138.25,0v-3.21H311v3.21Zm-138.25,0v-1.43h-31.6v1.43Z"
     transform="translate(-62.95 -282.24)"
     id="path16"
     style="fill:#d95319;fill-opacity:0.85000002" />
  <rect
     class="cls-3"
     x="109.76"
     y="260.27"
     width="31.6"
     height="1.43"
     id="rect18" />
  <rect
     class="cls-3"
     x="248.01"
     y="258.49"
     width="31.6"
     height="3.22"
     id="rect20" />
  <rect
     class="cls-3"
     x="386.26"
     y="210.48"
     width="31.6"
     height="51.23"
     id="rect22" />
  <line
     class="cls-5"
     x1="36.69"
     y1="261.71"
     x2="451.44"
     y2="261.71"
     id="line24" />
  <line
     class="cls-5"
     x1="36.69"
     y1="4.46"
     x2="451.44"
     y2="4.46"
     id="line26" />
  <line
     class="cls-5"
     x1="105.81"
     y1="261.71"
     x2="105.81"
     y2="257.56"
     id="line28" />
  <line
     class="cls-5"
     x1="244.06"
     y1="261.71"
     x2="244.06"
     y2="257.56"
     id="line30" />
  <line
     class="cls-5"
     x1="382.31"
     y1="261.71"
     x2="382.31"
     y2="257.56"
     id="line32" />
  <line
     class="cls-5"
     x1="105.81"
     y1="4.46"
     x2="105.81"
     y2="8.6"
     id="line34" />
  <line
     class="cls-5"
     x1="244.06"
     y1="4.46"
     x2="244.06"
     y2="8.6"
     id="line36" />
  <line
     class="cls-5"
     x1="382.31"
     y1="4.46"
     x2="382.31"
     y2="8.6"
     id="line38" />
  <text
     class="cls-6"
     transform="translate(70.56 276.21)"
     id="text40">antenna pattern</text>
  <text
     class="cls-6"
     transform="translate(215.56 276.21)"
     id="text42">array pattern</text>
  <text
     class="cls-6"
     transform="translate(354.56 276.21)"
     id="text44">sparameters</text>
  <line
     class="cls-5"
     x1="36.69"
     y1="261.71"
     x2="36.69"
     y2="4.46"
     id="line46" />
  <line
     class="cls-5"
     x1="451.44"
     y1="261.71"
     x2="451.44"
     y2="4.46"
     id="line48" />
  <line
     class="cls-5"
     x1="36.69"
     y1="261.71"
     x2="40.84"
     y2="261.71"
     id="line50" />
  <line
     class="cls-5"
     x1="36.69"
     y1="218.83"
     x2="40.84"
     y2="218.83"
     id="line52" />
  <line
     class="cls-5"
     x1="36.69"
     y1="175.96"
     x2="40.84"
     y2="175.96"
     id="line54" />
  <line
     class="cls-5"
     x1="36.69"
     y1="133.08"
     x2="40.84"
     y2="133.08"
     id="line56" />
  <line
     class="cls-5"
     x1="36.69"
     y1="90.21"
     x2="40.84"
     y2="90.21"
     id="line58" />
  <line
     class="cls-5"
     x1="36.69"
     y1="47.33"
     x2="40.84"
     y2="47.33"
     id="line60" />
  <line
     class="cls-5"
     x1="36.69"
     y1="4.46"
     x2="40.84"
     y2="4.46"
     id="line62" />
  <line
     class="cls-5"
     x1="451.44"
     y1="261.71"
     x2="447.29"
     y2="261.71"
     id="line64" />
  <line
     class="cls-5"
     x1="451.44"
     y1="218.83"
     x2="447.29"
     y2="218.83"
     id="line66" />
  <line
     class="cls-5"
     x1="451.44"
     y1="175.96"
     x2="447.29"
     y2="175.96"
     id="line68" />
  <line
     class="cls-5"
     x1="451.44"
     y1="133.08"
     x2="447.29"
     y2="133.08"
     id="line70" />
  <line
     class="cls-5"
     x1="451.44"
     y1="90.21"
     x2="447.29"
     y2="90.21"
     id="line72" />
  <line
     class="cls-5"
     x1="451.44"
     y1="47.33"
     x2="447.29"
     y2="47.33"
     id="line74" />
  <line
     class="cls-5"
     x1="451.44"
     y1="4.46"
     x2="447.29"
     y2="4.46"
     id="line76" />
  <text
     class="cls-6"
     transform="translate(26.69 265.83)"
     id="text78">0</text>
  <text
     class="cls-6"
     transform="translate(21.44 222.96)"
     id="text80">50</text>
  <text
     class="cls-6"
     transform="translate(15.44 180.08)"
     id="text82">100</text>
  <text
     class="cls-6"
     transform="translate(15.44 137.21)"
     id="text84">150</text>
  <text
     class="cls-6"
     transform="translate(15.44 94.33)"
     id="text86">200</text>
  <text
     class="cls-6"
     transform="translate(15.44 51.46)"
     id="text88">250</text>
  <text
     class="cls-6"
     transform="translate(15.44 8.58)"
     id="text90">300</text>
  <text
     class="cls-7"
     transform="rotate(-90,79.7,70.26)"
     id="text92">time (s)</text>
  <text
     class="cls-8"
     transform="translate(97.59 32.28)"
     id="text94">PCB</text>
  <rect
     class="cls-2"
     x="65.34"
     y="24.09"
     width="30"
     height="8.88"
     id="rect96"
     style="fill:#0072bd;fill-opacity:0.85000002" />
  <rect
     class="cls-9"
     x="65.34"
     y="24.09"
     width="30"
     height="8.88"
     id="rect98" />
  <text
     class="cls-8"
     transform="translate(97.59 47.28)"
     id="text100">PIFA</text>
  <rect
     class="cls-4"
     x="65.34"
     y="39.09"
     width="30"
     height="8.88"
     id="rect102"
     style="fill:#d95319;fill-opacity:0.85000002" />
  <rect
     class="cls-9"
     x="65.34"
     y="39.09"
     width="30"
     height="8.88"
     id="rect104" />
  <rect
     class="cls-10"
     x="62.324665"
     y="19.114664"
     width="66.386658"
     height="31.830671"
     id="rect106" />
</svg>
