<svg id="Livello_1" data-name="Livello 1" xmlns="http://www.w3.org/2000/svg" viewBox="0 0 472.96 390.2"><defs><style>.cls-1{fill:#fff;}.cls-12,.cls-2{fill:none;stroke-linejoin:round;stroke-width:0.5px;}.cls-2{stroke:#262626;stroke-linecap:square;}.cls-3{font-size:10px;}.cls-10,.cls-11,.cls-3,.cls-9{fill:#262626;}.cls-11,.cls-3,.cls-9{font-family:Helvetica;}.cls-4{letter-spacing:7.69em;}.cls-5{letter-spacing:7.72em;}.cls-6{letter-spacing:7.69em;}.cls-7{letter-spacing:7.72em;}.cls-8{letter-spacing:7.69em;}.cls-9{font-size:11px;}.cls-11{font-size:8px;}.cls-12{stroke:#d95319;}</style></defs><rect class="cls-1" x="38.71" y="14.2" width="434" height="342.5"/><line class="cls-2" x1="38.71" y1="356.7" x2="472.71" y2="356.7"/><line class="cls-2" x1="38.71" y1="14.2" x2="472.71" y2="14.2"/><line class="cls-2" x1="38.71" y1="356.7" x2="38.71" y2="352.36"/><line class="cls-2" x1="125.51" y1="356.7" x2="125.51" y2="352.36"/><line class="cls-2" x1="212.31" y1="356.7" x2="212.31" y2="352.36"/><line class="cls-2" x1="299.11" y1="356.7" x2="299.11" y2="352.36"/><line class="cls-2" x1="385.91" y1="356.7" x2="385.91" y2="352.36"/><line class="cls-2" x1="472.71" y1="356.7" x2="472.71" y2="352.36"/><line class="cls-2" x1="38.71" y1="14.2" x2="38.71" y2="18.54"/><line class="cls-2" x1="125.51" y1="14.2" x2="125.51" y2="18.54"/><line class="cls-2" x1="212.31" y1="14.2" x2="212.31" y2="18.54"/><line class="cls-2" x1="299.11" y1="14.2" x2="299.11" y2="18.54"/><line class="cls-2" x1="385.91" y1="14.2" x2="385.91" y2="18.54"/><line class="cls-2" x1="472.71" y1="14.2" x2="472.71" y2="18.54"/><text class="cls-3" transform="translate(31.71 370.7)">2.<tspan class="cls-4" x="7.2" y="0">5</tspan><tspan class="cls-5" x="89.23" y="0">3</tspan><tspan x="171.6" y="0">3.</tspan><tspan class="cls-6" x="178.8" y="0">5</tspan><tspan class="cls-7" x="260.82" y="0">4</tspan><tspan x="343.19" y="0">4.</tspan><tspan class="cls-8" x="350.39" y="0">5</tspan><tspan x="432.42" y="0">5</tspan></text><text class="cls-9" transform="translate(229.21 385.2)">mesh level</text><path class="cls-10" d="M480.47,403.72a.33.33,0,0,1,0-.16l2.07-2.06-2.07-2.08a.2.2,0,0,1,0-.14.17.17,0,0,1,.06-.12.17.17,0,0,1,.14-.07.3.3,0,0,1,.16.07l2.06,2.06,2.06-2.06a.21.21,0,0,1,.14-.07.18.18,0,0,1,.15.06.16.16,0,0,1,.06.13.2.2,0,0,1-.05.14l-2.08,2.08,2.08,2.06a.33.33,0,0,1,.05.16.16.16,0,0,1-.06.13.18.18,0,0,1-.15.06.21.21,0,0,1-.14-.07l-2.06-2.06-2.06,2.06a.23.23,0,0,1-.16.07.17.17,0,0,1-.14-.07.17.17,0,0,1-.06-.12" transform="translate(-34.29 -16.3)"/><text class="cls-3" transform="translate(452.71 387.7)">10</text><text class="cls-11" transform="translate(464.71 382.7)">-3</text><line class="cls-2" x1="38.71" y1="356.7" x2="38.71" y2="14.2"/><line class="cls-2" x1="472.71" y1="356.7" x2="472.71" y2="14.2"/><line class="cls-2" x1="38.71" y1="356.7" x2="43.05" y2="356.7"/><line class="cls-2" x1="38.71" y1="307.77" x2="43.05" y2="307.77"/><line class="cls-2" x1="38.71" y1="258.84" x2="43.05" y2="258.84"/><line class="cls-2" x1="38.71" y1="209.91" x2="43.05" y2="209.91"/><line class="cls-2" x1="38.71" y1="160.98" x2="43.05" y2="160.98"/><line class="cls-2" x1="38.71" y1="112.05" x2="43.05" y2="112.05"/><line class="cls-2" x1="38.71" y1="63.13" x2="43.05" y2="63.13"/><line class="cls-2" x1="38.71" y1="14.2" x2="43.05" y2="14.2"/><line class="cls-2" x1="472.71" y1="356.7" x2="468.37" y2="356.7"/><line class="cls-2" x1="472.71" y1="307.77" x2="468.37" y2="307.77"/><line class="cls-2" x1="472.71" y1="258.84" x2="468.37" y2="258.84"/><line class="cls-2" x1="472.71" y1="209.91" x2="468.37" y2="209.91"/><line class="cls-2" x1="472.71" y1="160.98" x2="468.37" y2="160.98"/><line class="cls-2" x1="472.71" y1="112.05" x2="468.37" y2="112.05"/><line class="cls-2" x1="472.71" y1="63.13" x2="468.37" y2="63.13"/><line class="cls-2" x1="472.71" y1="14.2" x2="468.37" y2="14.2"/><text class="cls-3" transform="translate(14.71 360.2)">2.05</text><text class="cls-3" transform="translate(20.71 311.27)">2.1</text><text class="cls-3" transform="translate(14.71 262.34)">2.15</text><text class="cls-3" transform="translate(20.71 213.41)">2.2</text><text class="cls-3" transform="translate(14.71 164.48)">2.25</text><text class="cls-3" transform="translate(20.71 115.55)">2.3</text><text class="cls-3" transform="translate(14.71 66.63)">2.35</text><text class="cls-3" transform="translate(20.71 17.7)">2.4</text><text class="cls-9" transform="translate(9.21 187.45) rotate(-90)">f</text><path class="cls-10" d="M74.47,27.72a.25.25,0,0,1,0-.16l2.07-2.06-2.07-2.08a.16.16,0,0,1,0-.14.17.17,0,0,1,.06-.12.17.17,0,0,1,.14-.07.27.27,0,0,1,.16.07l2.06,2.06L79,23.16a.23.23,0,0,1,.14-.07.21.21,0,0,1,.21.19.2.2,0,0,1,0,.14L77.17,25.5l2.08,2.06a.33.33,0,0,1,0,.16.16.16,0,0,1-.06.13.18.18,0,0,1-.15.06.23.23,0,0,1-.14-.07l-2.06-2.06-2.06,2.06a.23.23,0,0,1-.16.07.17.17,0,0,1-.14-.07.17.17,0,0,1-.06-.12" transform="translate(-34.29 -16.3)"/><text class="cls-3" transform="translate(46.71 11.7)">10</text><text class="cls-11" transform="translate(58.71 6.7)">9</text><polyline class="cls-12" points="38.71 337.5 45 326.35 76.45 326.35 82.74 315.2 89.03 315.2 95.32 326.35 101.61 326.35 107.89 315.2 114.19 315.2 120.47 315.2 126.77 304.05 133.06 14.2 139.34 304.05 145.63 292.9 151.92 315.2 158.21 292.9 164.5 292.9 170.79 304.05 177.08 292.9 183.37 292.9 189.66 292.9 195.95 292.9 202.24 292.9 208.53 292.9 214.82 292.9 221.11 292.9 227.4 281.75 233.69 292.9 239.98 292.9 246.27 292.9 252.56 292.9 258.85 270.61 265.14 270.61 271.43 281.75 277.72 281.75 284.01 281.75 290.3 270.61 296.59 270.61 302.88 270.61 309.17 270.61 315.46 248.31 321.75 259.46 328.04 259.46 334.33 259.46 340.62 248.31 346.91 259.46 353.2 237.16 359.49 248.31 365.78 226.01 372.07 14.2 378.36 226.01 384.65 214.87 390.94 214.87 397.23 214.87 403.52 214.87 409.81 214.87 416.1 214.87 422.39 226.01 428.68 203.72 434.97 203.72 441.26 214.87 447.55 214.87 453.84 226.01 460.13 226.01 466.42 14.2 472.71 214.87"/></svg>