<svg id="Livello_1" data-name="Livello 1" xmlns="http://www.w3.org/2000/svg" viewBox="0 0 315 315"><defs><style>.cls-1{fill:#fff;}.cls-10,.cls-11,.cls-16,.cls-2,.cls-3,.cls-4,.cls-5,.cls-6,.cls-7,.cls-8{fill:none;}.cls-2,.cls-3,.cls-4,.cls-5,.cls-6{stroke:#ccc;}.cls-11,.cls-2,.cls-4{stroke-linecap:square;}.cls-16,.cls-2,.cls-3,.cls-4{stroke-miterlimit:10;}.cls-10,.cls-11,.cls-16,.cls-2,.cls-3{stroke-width:0.5px;}.cls-10,.cls-3,.cls-5,.cls-7{stroke-linecap:round;}.cls-4,.cls-5,.cls-6{stroke-width:1.5px;}.cls-10,.cls-11,.cls-5,.cls-6,.cls-7,.cls-8{stroke-linejoin:round;}.cls-10,.cls-11,.cls-7,.cls-8{stroke:#0072bd;}.cls-7,.cls-8{stroke-width:2px;}.cls-12,.cls-9{fill:#0072bd;}.cls-12,.cls-14{font-size:10px;}.cls-12,.cls-13,.cls-14{font-family:ArialMT, Arial;}.cls-13{font-size:9px;}.cls-15{font-size:11px;font-family:Arial-BoldMT, Arial;font-weight:700;}.cls-16{stroke:#262626;}</style></defs><polygon class="cls-1" points="68.85 226.76 71.32 229.81 73.9 232.78 76.57 235.65 79.35 238.43 82.22 241.1 85.19 243.68 88.24 246.15 91.37 248.51 94.59 250.77 97.88 252.91 101.25 254.93 104.68 256.83 108.18 258.61 111.74 260.27 115.36 261.81 119.02 263.21 122.74 264.49 126.49 265.64 130.28 266.66 134.11 267.54 137.97 268.29 141.84 268.9 145.74 269.38 149.65 269.73 153.57 269.93 157.5 270 161.43 269.93 165.35 269.73 169.26 269.38 173.16 268.9 177.03 268.29 180.89 267.54 184.72 266.66 188.51 265.64 192.26 264.49 195.98 263.21 199.64 261.81 203.26 260.27 206.82 258.61 210.32 256.83 213.75 254.93 217.12 252.91 220.41 250.77 223.63 248.51 226.76 246.15 229.81 243.68 232.78 241.1 235.65 238.43 238.43 235.65 241.1 232.78 243.68 229.81 246.15 226.76 248.51 223.63 250.77 220.41 252.91 217.12 254.93 213.75 256.83 210.32 258.61 206.82 260.27 203.26 261.81 199.64 263.21 195.98 264.49 192.26 265.64 188.51 266.66 184.72 267.54 180.89 268.29 177.03 268.9 173.16 269.38 169.26 269.73 165.35 269.93 161.43 270 157.5 269.93 153.57 269.73 149.65 269.38 145.74 268.9 141.84 268.29 137.97 267.54 134.11 266.66 130.28 265.64 126.49 264.49 122.74 263.21 119.02 261.81 115.36 260.27 111.74 258.61 108.18 256.83 104.68 254.93 101.25 252.91 97.88 250.77 94.59 248.51 91.37 246.15 88.24 243.68 85.19 241.1 82.22 238.43 79.35 235.65 76.57 232.78 73.9 229.81 71.32 226.76 68.85 223.63 66.49 220.41 64.23 217.12 62.09 213.75 60.07 210.32 58.17 206.82 56.39 203.26 54.73 199.64 53.19 195.98 51.78 192.26 50.51 188.51 49.36 184.72 48.34 180.89 47.46 177.03 46.71 173.16 46.09 169.26 45.62 165.35 45.27 161.43 45.07 157.5 45 153.57 45.07 149.65 45.27 145.74 45.62 141.84 46.09 137.97 46.71 134.11 47.46 130.28 48.34 126.49 49.36 122.74 50.51 119.02 51.78 115.36 53.19 111.74 54.73 108.18 56.39 104.68 58.17 101.25 60.07 97.88 62.09 94.59 64.23 91.37 66.49 88.24 68.85 85.19 71.32 82.22 73.9 79.35 76.57 76.57 79.35 73.9 82.22 71.32 85.19 68.85 88.24 66.49 91.37 64.23 94.59 62.09 97.88 60.07 101.25 58.17 104.68 56.39 108.18 54.73 111.74 53.19 115.36 51.78 119.02 50.51 122.74 49.36 126.49 48.34 130.28 47.46 134.11 46.71 137.97 46.09 141.84 45.62 145.74 45.27 149.65 45.07 153.57 45 157.5 45.07 161.43 45.27 165.35 45.62 169.26 46.09 173.16 46.71 177.03 47.46 180.89 48.34 184.72 49.36 188.51 50.51 192.26 51.78 195.98 53.19 199.64 54.73 203.26 56.39 206.82 58.17 210.32 60.07 213.75 62.09 217.12 64.23 220.41 66.49 223.63 68.85 226.76"/><line class="cls-2" x1="270" y1="157.5" x2="269.93" y2="153.57"/><line class="cls-3" x1="269.93" y1="153.57" x2="269.73" y2="149.65"/><line class="cls-3" x1="269.73" y1="149.65" x2="269.38" y2="145.74"/><line class="cls-3" x1="269.38" y1="145.74" x2="268.91" y2="141.84"/><line class="cls-3" x1="268.91" y1="141.84" x2="268.29" y2="137.96"/><line class="cls-3" x1="268.29" y1="137.96" x2="267.54" y2="134.11"/><line class="cls-3" x1="267.54" y1="134.11" x2="266.66" y2="130.28"/><line class="cls-3" x1="266.66" y1="130.28" x2="265.64" y2="126.49"/><line class="cls-3" x1="265.64" y1="126.49" x2="264.49" y2="122.74"/><line class="cls-3" x1="264.49" y1="122.74" x2="263.22" y2="119.02"/><line class="cls-3" x1="263.22" y1="119.02" x2="261.81" y2="115.36"/><line class="cls-3" x1="261.81" y1="115.36" x2="260.27" y2="111.74"/><line class="cls-3" x1="260.27" y1="111.74" x2="258.61" y2="108.18"/><line class="cls-3" x1="258.61" y1="108.18" x2="256.83" y2="104.68"/><line class="cls-3" x1="256.83" y1="104.68" x2="254.93" y2="101.25"/><line class="cls-3" x1="254.93" y1="101.25" x2="252.91" y2="97.88"/><line class="cls-3" x1="252.91" y1="97.88" x2="250.77" y2="94.59"/><line class="cls-3" x1="250.77" y1="94.59" x2="248.51" y2="91.37"/><line class="cls-3" x1="248.51" y1="91.37" x2="246.15" y2="88.24"/><line class="cls-3" x1="246.15" y1="88.24" x2="243.68" y2="85.19"/><line class="cls-3" x1="243.68" y1="85.19" x2="241.1" y2="82.22"/><line class="cls-3" x1="241.1" y1="82.22" x2="238.43" y2="79.35"/><line class="cls-3" x1="238.43" y1="79.35" x2="235.65" y2="76.57"/><line class="cls-3" x1="235.65" y1="76.57" x2="232.78" y2="73.9"/><line class="cls-3" x1="232.78" y1="73.9" x2="229.81" y2="71.32"/><line class="cls-3" x1="229.81" y1="71.32" x2="226.76" y2="68.85"/><line class="cls-3" x1="226.76" y1="68.85" x2="223.63" y2="66.49"/><line class="cls-3" x1="223.63" y1="66.49" x2="220.41" y2="64.23"/><line class="cls-3" x1="220.41" y1="64.23" x2="217.12" y2="62.09"/><line class="cls-3" x1="217.12" y1="62.09" x2="213.75" y2="60.07"/><line class="cls-3" x1="213.75" y1="60.07" x2="210.32" y2="58.17"/><line class="cls-3" x1="210.32" y1="58.17" x2="206.82" y2="56.39"/><line class="cls-3" x1="206.82" y1="56.39" x2="203.26" y2="54.73"/><line class="cls-3" x1="203.26" y1="54.73" x2="199.64" y2="53.19"/><line class="cls-3" x1="199.64" y1="53.19" x2="195.98" y2="51.78"/><line class="cls-3" x1="195.98" y1="51.78" x2="192.26" y2="50.51"/><line class="cls-3" x1="192.26" y1="50.51" x2="188.51" y2="49.36"/><line class="cls-3" x1="188.51" y1="49.36" x2="184.72" y2="48.34"/><line class="cls-3" x1="184.72" y1="48.34" x2="180.89" y2="47.46"/><line class="cls-3" x1="180.89" y1="47.46" x2="177.04" y2="46.71"/><line class="cls-3" x1="177.04" y1="46.71" x2="173.16" y2="46.09"/><line class="cls-3" x1="173.16" y1="46.09" x2="169.26" y2="45.62"/><line class="cls-3" x1="169.26" y1="45.62" x2="165.35" y2="45.27"/><line class="cls-3" x1="165.35" y1="45.27" x2="161.43" y2="45.07"/><line class="cls-3" x1="161.43" y1="45.07" x2="157.5" y2="45"/><line class="cls-3" x1="157.5" y1="45" x2="153.57" y2="45.07"/><line class="cls-3" x1="153.57" y1="45.07" x2="149.65" y2="45.27"/><line class="cls-3" x1="149.65" y1="45.27" x2="145.74" y2="45.62"/><line class="cls-3" x1="145.74" y1="45.62" x2="141.84" y2="46.09"/><line class="cls-3" x1="141.84" y1="46.09" x2="137.96" y2="46.71"/><line class="cls-3" x1="137.96" y1="46.71" x2="134.11" y2="47.46"/><line class="cls-3" x1="134.11" y1="47.46" x2="130.28" y2="48.34"/><line class="cls-3" x1="130.28" y1="48.34" x2="126.49" y2="49.36"/><line class="cls-3" x1="126.49" y1="49.36" x2="122.74" y2="50.51"/><line class="cls-3" x1="122.74" y1="50.51" x2="119.02" y2="51.78"/><line class="cls-3" x1="119.02" y1="51.78" x2="115.36" y2="53.19"/><line class="cls-3" x1="115.36" y1="53.19" x2="111.74" y2="54.73"/><line class="cls-3" x1="111.74" y1="54.73" x2="108.18" y2="56.39"/><line class="cls-3" x1="108.18" y1="56.39" x2="104.68" y2="58.17"/><line class="cls-3" x1="104.68" y1="58.17" x2="101.25" y2="60.07"/><line class="cls-3" x1="101.25" y1="60.07" x2="97.88" y2="62.09"/><line class="cls-3" x1="97.88" y1="62.09" x2="94.59" y2="64.23"/><line class="cls-3" x1="94.59" y1="64.23" x2="91.37" y2="66.49"/><line class="cls-3" x1="91.37" y1="66.49" x2="88.24" y2="68.85"/><line class="cls-3" x1="88.24" y1="68.85" x2="85.19" y2="71.32"/><line class="cls-3" x1="85.19" y1="71.32" x2="82.22" y2="73.9"/><line class="cls-3" x1="82.22" y1="73.9" x2="79.35" y2="76.57"/><line class="cls-3" x1="79.35" y1="76.57" x2="76.57" y2="79.35"/><line class="cls-3" x1="76.57" y1="79.35" x2="73.9" y2="82.22"/><line class="cls-3" x1="73.9" y1="82.22" x2="71.32" y2="85.19"/><line class="cls-3" x1="71.32" y1="85.19" x2="68.85" y2="88.24"/><line class="cls-3" x1="68.85" y1="88.24" x2="66.49" y2="91.37"/><line class="cls-3" x1="66.49" y1="91.37" x2="64.23" y2="94.59"/><line class="cls-3" x1="64.23" y1="94.59" x2="62.09" y2="97.88"/><line class="cls-3" x1="62.09" y1="97.88" x2="60.07" y2="101.25"/><line class="cls-3" x1="60.07" y1="101.25" x2="58.17" y2="104.68"/><line class="cls-3" x1="58.17" y1="104.68" x2="56.39" y2="108.18"/><line class="cls-3" x1="56.39" y1="108.18" x2="54.73" y2="111.74"/><line class="cls-3" x1="54.73" y1="111.74" x2="53.19" y2="115.36"/><line class="cls-3" x1="53.19" y1="115.36" x2="51.78" y2="119.02"/><line class="cls-3" x1="51.78" y1="119.02" x2="50.51" y2="122.74"/><line class="cls-3" x1="50.51" y1="122.74" x2="49.36" y2="126.49"/><line class="cls-3" x1="49.36" y1="126.49" x2="48.34" y2="130.28"/><line class="cls-3" x1="48.34" y1="130.28" x2="47.46" y2="134.11"/><line class="cls-3" x1="47.46" y1="134.11" x2="46.71" y2="137.96"/><line class="cls-3" x1="46.71" y1="137.96" x2="46.09" y2="141.84"/><line class="cls-3" x1="46.09" y1="141.84" x2="45.62" y2="145.74"/><line class="cls-3" x1="45.62" y1="145.74" x2="45.27" y2="149.65"/><line class="cls-3" x1="45.27" y1="149.65" x2="45.07" y2="153.57"/><line class="cls-3" x1="45.07" y1="153.57" x2="45" y2="157.5"/><line class="cls-3" x1="45" y1="157.5" x2="45.07" y2="161.43"/><line class="cls-3" x1="45.07" y1="161.43" x2="45.27" y2="165.35"/><line class="cls-3" x1="45.27" y1="165.35" x2="45.62" y2="169.26"/><line class="cls-3" x1="45.62" y1="169.26" x2="46.09" y2="173.16"/><line class="cls-3" x1="46.09" y1="173.16" x2="46.71" y2="177.04"/><line class="cls-3" x1="46.71" y1="177.04" x2="47.46" y2="180.89"/><line class="cls-3" x1="47.46" y1="180.89" x2="48.34" y2="184.72"/><line class="cls-3" x1="48.34" y1="184.72" x2="49.36" y2="188.51"/><line class="cls-3" x1="49.36" y1="188.51" x2="50.51" y2="192.26"/><line class="cls-3" x1="50.51" y1="192.26" x2="51.78" y2="195.98"/><line class="cls-3" x1="51.78" y1="195.98" x2="53.19" y2="199.64"/><line class="cls-3" x1="53.19" y1="199.64" x2="54.73" y2="203.26"/><line class="cls-3" x1="54.73" y1="203.26" x2="56.39" y2="206.82"/><line class="cls-3" x1="56.39" y1="206.82" x2="58.17" y2="210.32"/><line class="cls-3" x1="58.17" y1="210.32" x2="60.07" y2="213.75"/><line class="cls-3" x1="60.07" y1="213.75" x2="62.09" y2="217.12"/><line class="cls-3" x1="62.09" y1="217.12" x2="64.23" y2="220.41"/><line class="cls-3" x1="64.23" y1="220.41" x2="66.49" y2="223.63"/><line class="cls-3" x1="66.49" y1="223.63" x2="68.85" y2="226.76"/><line class="cls-3" x1="68.85" y1="226.76" x2="71.32" y2="229.81"/><line class="cls-3" x1="71.32" y1="229.81" x2="73.9" y2="232.78"/><line class="cls-3" x1="73.9" y1="232.78" x2="76.57" y2="235.65"/><line class="cls-3" x1="76.57" y1="235.65" x2="79.35" y2="238.43"/><line class="cls-3" x1="79.35" y1="238.43" x2="82.22" y2="241.1"/><line class="cls-3" x1="82.22" y1="241.1" x2="85.19" y2="243.68"/><line class="cls-3" x1="85.19" y1="243.68" x2="88.24" y2="246.15"/><line class="cls-3" x1="88.24" y1="246.15" x2="91.37" y2="248.51"/><line class="cls-3" x1="91.37" y1="248.51" x2="94.59" y2="250.77"/><line class="cls-3" x1="94.59" y1="250.77" x2="97.88" y2="252.91"/><line class="cls-3" x1="97.88" y1="252.91" x2="101.25" y2="254.93"/><line class="cls-3" x1="101.25" y1="254.93" x2="104.68" y2="256.83"/><line class="cls-3" x1="104.68" y1="256.83" x2="108.18" y2="258.61"/><line class="cls-3" x1="108.18" y1="258.61" x2="111.74" y2="260.27"/><line class="cls-3" x1="111.74" y1="260.27" x2="115.36" y2="261.81"/><line class="cls-3" x1="115.36" y1="261.81" x2="119.02" y2="263.22"/><line class="cls-3" x1="119.02" y1="263.22" x2="122.74" y2="264.49"/><line class="cls-3" x1="122.74" y1="264.49" x2="126.49" y2="265.64"/><line class="cls-3" x1="126.49" y1="265.64" x2="130.28" y2="266.66"/><line class="cls-3" x1="130.28" y1="266.66" x2="134.11" y2="267.54"/><line class="cls-3" x1="134.11" y1="267.54" x2="137.96" y2="268.29"/><line class="cls-3" x1="137.96" y1="268.29" x2="141.84" y2="268.91"/><line class="cls-3" x1="141.84" y1="268.91" x2="145.74" y2="269.38"/><line class="cls-3" x1="145.74" y1="269.38" x2="149.65" y2="269.73"/><line class="cls-3" x1="149.65" y1="269.73" x2="153.57" y2="269.93"/><line class="cls-3" x1="153.57" y1="269.93" x2="157.5" y2="270"/><line class="cls-3" x1="157.5" y1="270" x2="161.43" y2="269.93"/><line class="cls-3" x1="161.43" y1="269.93" x2="165.35" y2="269.73"/><line class="cls-3" x1="165.35" y1="269.73" x2="169.26" y2="269.38"/><line class="cls-3" x1="169.26" y1="269.38" x2="173.16" y2="268.91"/><line class="cls-3" x1="173.16" y1="268.91" x2="177.04" y2="268.29"/><line class="cls-3" x1="177.04" y1="268.29" x2="180.89" y2="267.54"/><line class="cls-3" x1="180.89" y1="267.54" x2="184.72" y2="266.66"/><line class="cls-3" x1="184.72" y1="266.66" x2="188.51" y2="265.64"/><line class="cls-3" x1="188.51" y1="265.64" x2="192.26" y2="264.49"/><line class="cls-3" x1="192.26" y1="264.49" x2="195.98" y2="263.22"/><line class="cls-3" x1="195.98" y1="263.22" x2="199.64" y2="261.81"/><line class="cls-3" x1="199.64" y1="261.81" x2="203.26" y2="260.27"/><line class="cls-3" x1="203.26" y1="260.27" x2="206.82" y2="258.61"/><line class="cls-3" x1="206.82" y1="258.61" x2="210.32" y2="256.83"/><line class="cls-3" x1="210.32" y1="256.83" x2="213.75" y2="254.93"/><line class="cls-3" x1="213.75" y1="254.93" x2="217.12" y2="252.91"/><line class="cls-3" x1="217.12" y1="252.91" x2="220.41" y2="250.77"/><line class="cls-3" x1="220.41" y1="250.77" x2="223.63" y2="248.51"/><line class="cls-3" x1="223.63" y1="248.51" x2="226.76" y2="246.15"/><line class="cls-3" x1="226.76" y1="246.15" x2="229.81" y2="243.68"/><line class="cls-3" x1="229.81" y1="243.68" x2="232.78" y2="241.1"/><line class="cls-3" x1="232.78" y1="241.1" x2="235.65" y2="238.43"/><line class="cls-3" x1="235.65" y1="238.43" x2="238.43" y2="235.65"/><line class="cls-3" x1="238.43" y1="235.65" x2="241.1" y2="232.78"/><line class="cls-3" x1="241.1" y1="232.78" x2="243.68" y2="229.81"/><line class="cls-3" x1="243.68" y1="229.81" x2="246.15" y2="226.76"/><line class="cls-3" x1="246.15" y1="226.76" x2="248.51" y2="223.63"/><line class="cls-3" x1="248.51" y1="223.63" x2="250.77" y2="220.41"/><line class="cls-3" x1="250.77" y1="220.41" x2="252.91" y2="217.12"/><line class="cls-3" x1="252.91" y1="217.12" x2="254.93" y2="213.75"/><line class="cls-3" x1="254.93" y1="213.75" x2="256.83" y2="210.32"/><line class="cls-3" x1="256.83" y1="210.32" x2="258.61" y2="206.82"/><line class="cls-3" x1="258.61" y1="206.82" x2="260.27" y2="203.26"/><line class="cls-3" x1="260.27" y1="203.26" x2="261.81" y2="199.64"/><line class="cls-3" x1="261.81" y1="199.64" x2="263.22" y2="195.98"/><line class="cls-3" x1="263.22" y1="195.98" x2="264.49" y2="192.26"/><line class="cls-3" x1="264.49" y1="192.26" x2="265.64" y2="188.51"/><line class="cls-3" x1="265.64" y1="188.51" x2="266.66" y2="184.72"/><line class="cls-3" x1="266.66" y1="184.72" x2="267.54" y2="180.89"/><line class="cls-3" x1="267.54" y1="180.89" x2="268.29" y2="177.04"/><line class="cls-3" x1="268.29" y1="177.04" x2="268.91" y2="173.16"/><line class="cls-3" x1="268.91" y1="173.16" x2="269.38" y2="169.26"/><line class="cls-3" x1="269.38" y1="169.26" x2="269.73" y2="165.35"/><line class="cls-3" x1="269.73" y1="165.35" x2="269.93" y2="161.43"/><line class="cls-3" x1="269.93" y1="161.43" x2="270" y2="157.5"/><line class="cls-3" x1="270" y1="157.5" x2="270" y2="157.5"/><line class="cls-2" x1="270" y1="157.5" x2="270" y2="157.5"/><line class="cls-4" x1="185.63" y1="157.5" x2="185.35" y2="153.59"/><line class="cls-5" x1="185.35" y1="153.59" x2="184.54" y2="149.75"/><line class="cls-5" x1="184.54" y1="149.75" x2="183.19" y2="146.06"/><line class="cls-5" x1="183.19" y1="146.06" x2="181.35" y2="142.6"/><line class="cls-5" x1="181.35" y1="142.6" x2="179.04" y2="139.42"/><line class="cls-5" x1="179.04" y1="139.42" x2="176.32" y2="136.6"/><line class="cls-5" x1="176.32" y1="136.6" x2="173.23" y2="134.18"/><line class="cls-5" x1="173.23" y1="134.18" x2="169.83" y2="132.22"/><line class="cls-5" x1="169.83" y1="132.22" x2="166.19" y2="130.75"/><line class="cls-5" x1="166.19" y1="130.75" x2="162.38" y2="129.8"/><line class="cls-5" x1="162.38" y1="129.8" x2="158.48" y2="129.39"/><line class="cls-5" x1="158.48" y1="129.39" x2="154.56" y2="129.53"/><line class="cls-5" x1="154.56" y1="129.53" x2="150.7" y2="130.21"/><line class="cls-5" x1="150.7" y1="130.21" x2="146.96" y2="131.42"/><line class="cls-5" x1="146.96" y1="131.42" x2="143.44" y2="133.14"/><line class="cls-5" x1="143.44" y1="133.14" x2="140.18" y2="135.34"/><line class="cls-5" x1="140.18" y1="135.34" x2="137.27" y2="137.96"/><line class="cls-5" x1="137.27" y1="137.96" x2="134.75" y2="140.97"/><line class="cls-5" x1="134.75" y1="140.97" x2="132.67" y2="144.3"/><line class="cls-5" x1="132.67" y1="144.3" x2="131.07" y2="147.88"/><line class="cls-5" x1="131.07" y1="147.88" x2="129.99" y2="151.65"/><line class="cls-5" x1="129.99" y1="151.65" x2="129.44" y2="155.54"/><line class="cls-5" x1="129.44" y1="155.54" x2="129.44" y2="159.46"/><line class="cls-5" x1="129.44" y1="159.46" x2="129.99" y2="163.35"/><line class="cls-5" x1="129.99" y1="163.35" x2="131.07" y2="167.12"/><line class="cls-5" x1="131.07" y1="167.12" x2="132.67" y2="170.7"/><line class="cls-5" x1="132.67" y1="170.7" x2="134.75" y2="174.03"/><line class="cls-5" x1="134.75" y1="174.03" x2="137.27" y2="177.04"/><line class="cls-5" x1="137.27" y1="177.04" x2="140.18" y2="179.66"/><line class="cls-5" x1="140.18" y1="179.66" x2="143.44" y2="181.86"/><line class="cls-5" x1="143.44" y1="181.86" x2="146.96" y2="183.58"/><line class="cls-5" x1="146.96" y1="183.58" x2="150.7" y2="184.79"/><line class="cls-5" x1="150.7" y1="184.79" x2="154.56" y2="185.47"/><line class="cls-5" x1="154.56" y1="185.47" x2="158.48" y2="185.61"/><line class="cls-5" x1="158.48" y1="185.61" x2="162.38" y2="185.2"/><line class="cls-5" x1="162.38" y1="185.2" x2="166.19" y2="184.25"/><line class="cls-5" x1="166.19" y1="184.25" x2="169.83" y2="182.78"/><line class="cls-5" x1="169.83" y1="182.78" x2="173.23" y2="180.82"/><line class="cls-5" x1="173.23" y1="180.82" x2="176.32" y2="178.4"/><line class="cls-5" x1="176.32" y1="178.4" x2="179.04" y2="175.58"/><line class="cls-5" x1="179.04" y1="175.58" x2="181.35" y2="172.4"/><line class="cls-5" x1="181.35" y1="172.4" x2="183.19" y2="168.94"/><line class="cls-5" x1="183.19" y1="168.94" x2="184.54" y2="165.25"/><line class="cls-5" x1="184.54" y1="165.25" x2="185.35" y2="161.41"/><line class="cls-5" x1="185.35" y1="161.41" x2="185.63" y2="157.5"/><line class="cls-6" x1="185.63" y1="157.5" x2="185.63" y2="157.5"/><line class="cls-6" x1="213.75" y1="157.5" x2="213.61" y2="153.58"/><line class="cls-5" x1="213.61" y1="153.58" x2="213.2" y2="149.67"/><line class="cls-5" x1="213.2" y1="149.67" x2="212.52" y2="145.8"/><line class="cls-5" x1="212.52" y1="145.8" x2="211.57" y2="142"/><line class="cls-5" x1="211.57" y1="142" x2="210.36" y2="138.26"/><line class="cls-5" x1="210.36" y1="138.26" x2="208.89" y2="134.62"/><line class="cls-5" x1="208.89" y1="134.62" x2="207.17" y2="131.09"/><line class="cls-5" x1="207.17" y1="131.09" x2="205.2" y2="127.69"/><line class="cls-5" x1="205.2" y1="127.69" x2="203.01" y2="124.44"/><line class="cls-5" x1="203.01" y1="124.44" x2="200.59" y2="121.34"/><line class="cls-5" x1="200.59" y1="121.34" x2="197.96" y2="118.43"/><line class="cls-5" x1="197.96" y1="118.43" x2="195.14" y2="115.7"/><line class="cls-5" x1="195.14" y1="115.7" x2="192.13" y2="113.17"/><line class="cls-5" x1="192.13" y1="113.17" x2="188.95" y2="110.87"/><line class="cls-5" x1="188.95" y1="110.87" x2="185.63" y2="108.79"/><line class="cls-5" x1="185.63" y1="108.79" x2="182.16" y2="106.94"/><line class="cls-5" x1="182.16" y1="106.94" x2="178.57" y2="105.35"/><line class="cls-5" x1="178.57" y1="105.35" x2="174.88" y2="104"/><line class="cls-5" x1="174.88" y1="104" x2="171.11" y2="102.92"/><line class="cls-5" x1="171.11" y1="102.92" x2="167.27" y2="102.1"/><line class="cls-5" x1="167.27" y1="102.1" x2="163.38" y2="101.56"/><line class="cls-5" x1="163.38" y1="101.56" x2="159.46" y2="101.28"/><line class="cls-5" x1="159.46" y1="101.28" x2="155.54" y2="101.28"/><line class="cls-5" x1="155.54" y1="101.28" x2="151.62" y2="101.56"/><line class="cls-5" x1="151.62" y1="101.56" x2="147.73" y2="102.1"/><line class="cls-5" x1="147.73" y1="102.1" x2="143.89" y2="102.92"/><line class="cls-5" x1="143.89" y1="102.92" x2="140.12" y2="104"/><line class="cls-5" x1="140.12" y1="104" x2="136.43" y2="105.35"/><line class="cls-5" x1="136.43" y1="105.35" x2="132.84" y2="106.94"/><line class="cls-5" x1="132.84" y1="106.94" x2="129.38" y2="108.79"/><line class="cls-5" x1="129.38" y1="108.79" x2="126.05" y2="110.87"/><line class="cls-5" x1="126.05" y1="110.87" x2="122.87" y2="113.17"/><line class="cls-5" x1="122.87" y1="113.17" x2="119.86" y2="115.7"/><line class="cls-5" x1="119.86" y1="115.7" x2="117.04" y2="118.43"/><line class="cls-5" x1="117.04" y1="118.43" x2="114.41" y2="121.34"/><line class="cls-5" x1="114.41" y1="121.34" x2="111.99" y2="124.44"/><line class="cls-5" x1="111.99" y1="124.44" x2="109.8" y2="127.69"/><line class="cls-5" x1="109.8" y1="127.69" x2="107.83" y2="131.09"/><line class="cls-5" x1="107.83" y1="131.09" x2="106.11" y2="134.62"/><line class="cls-5" x1="106.11" y1="134.62" x2="104.64" y2="138.26"/><line class="cls-5" x1="104.64" y1="138.26" x2="103.43" y2="142"/><line class="cls-5" x1="103.43" y1="142" x2="102.48" y2="145.8"/><line class="cls-5" x1="102.48" y1="145.8" x2="101.8" y2="149.67"/><line class="cls-5" x1="101.8" y1="149.67" x2="101.39" y2="153.58"/><line class="cls-5" x1="101.39" y1="153.58" x2="101.25" y2="157.5"/><line class="cls-5" x1="101.25" y1="157.5" x2="101.39" y2="161.42"/><line class="cls-5" x1="101.39" y1="161.42" x2="101.8" y2="165.33"/><line class="cls-5" x1="101.8" y1="165.33" x2="102.48" y2="169.2"/><line class="cls-5" x1="102.48" y1="169.2" x2="103.43" y2="173"/><line class="cls-5" x1="103.43" y1="173" x2="104.64" y2="176.74"/><line class="cls-5" x1="104.64" y1="176.74" x2="106.11" y2="180.38"/><line class="cls-5" x1="106.11" y1="180.38" x2="107.83" y2="183.91"/><line class="cls-5" x1="107.83" y1="183.91" x2="109.8" y2="187.31"/><line class="cls-5" x1="109.8" y1="187.31" x2="111.99" y2="190.56"/><line class="cls-5" x1="111.99" y1="190.56" x2="114.41" y2="193.66"/><line class="cls-5" x1="114.41" y1="193.66" x2="117.04" y2="196.57"/><line class="cls-5" x1="117.04" y1="196.57" x2="119.86" y2="199.3"/><line class="cls-5" x1="119.86" y1="199.3" x2="122.87" y2="201.83"/><line class="cls-5" x1="122.87" y1="201.83" x2="126.05" y2="204.13"/><line class="cls-5" x1="126.05" y1="204.13" x2="129.38" y2="206.21"/><line class="cls-5" x1="129.38" y1="206.21" x2="132.84" y2="208.06"/><line class="cls-5" x1="132.84" y1="208.06" x2="136.43" y2="209.65"/><line class="cls-5" x1="136.43" y1="209.65" x2="140.12" y2="211"/><line class="cls-5" x1="140.12" y1="211" x2="143.89" y2="212.08"/><line class="cls-5" x1="143.89" y1="212.08" x2="147.73" y2="212.9"/><line class="cls-5" x1="147.73" y1="212.9" x2="151.62" y2="213.44"/><line class="cls-5" x1="151.62" y1="213.44" x2="155.54" y2="213.72"/><line class="cls-5" x1="155.54" y1="213.72" x2="159.46" y2="213.72"/><line class="cls-5" x1="159.46" y1="213.72" x2="163.38" y2="213.44"/><line class="cls-5" x1="163.38" y1="213.44" x2="167.27" y2="212.9"/><line class="cls-5" x1="167.27" y1="212.9" x2="171.11" y2="212.08"/><line class="cls-5" x1="171.11" y1="212.08" x2="174.88" y2="211"/><line class="cls-5" x1="174.88" y1="211" x2="178.57" y2="209.65"/><line class="cls-5" x1="178.57" y1="209.65" x2="182.16" y2="208.06"/><line class="cls-5" x1="182.16" y1="208.06" x2="185.63" y2="206.21"/><line class="cls-5" x1="185.63" y1="206.21" x2="188.95" y2="204.13"/><line class="cls-5" x1="188.95" y1="204.13" x2="192.13" y2="201.83"/><line class="cls-5" x1="192.13" y1="201.83" x2="195.14" y2="199.3"/><line class="cls-5" x1="195.14" y1="199.3" x2="197.96" y2="196.57"/><line class="cls-5" x1="197.96" y1="196.57" x2="200.59" y2="193.66"/><line class="cls-5" x1="200.59" y1="193.66" x2="203.01" y2="190.56"/><line class="cls-5" x1="203.01" y1="190.56" x2="205.2" y2="187.31"/><line class="cls-5" x1="205.2" y1="187.31" x2="207.17" y2="183.91"/><line class="cls-5" x1="207.17" y1="183.91" x2="208.89" y2="180.38"/><line class="cls-5" x1="208.89" y1="180.38" x2="210.36" y2="176.74"/><line class="cls-5" x1="210.36" y1="176.74" x2="211.57" y2="173"/><line class="cls-5" x1="211.57" y1="173" x2="212.52" y2="169.2"/><line class="cls-5" x1="212.52" y1="169.2" x2="213.2" y2="165.33"/><line class="cls-5" x1="213.2" y1="165.33" x2="213.61" y2="161.42"/><line class="cls-5" x1="213.61" y1="161.42" x2="213.75" y2="157.5"/><line class="cls-6" x1="213.75" y1="157.5" x2="213.75" y2="157.5"/><line class="cls-6" x1="241.88" y1="157.5" x2="241.78" y2="153.57"/><line class="cls-5" x1="241.78" y1="153.57" x2="241.51" y2="149.66"/><line class="cls-5" x1="241.51" y1="149.66" x2="241.05" y2="145.76"/><line class="cls-5" x1="241.05" y1="145.76" x2="240.42" y2="141.88"/><line class="cls-5" x1="240.42" y1="141.88" x2="239.6" y2="138.04"/><line class="cls-5" x1="239.6" y1="138.04" x2="238.61" y2="134.24"/><line class="cls-5" x1="238.61" y1="134.24" x2="237.44" y2="130.49"/><line class="cls-5" x1="237.44" y1="130.49" x2="236.09" y2="126.8"/><line class="cls-5" x1="236.09" y1="126.8" x2="234.58" y2="123.18"/><line class="cls-5" x1="234.58" y1="123.18" x2="232.9" y2="119.63"/><line class="cls-5" x1="232.9" y1="119.63" x2="231.06" y2="116.17"/><line class="cls-5" x1="231.06" y1="116.17" x2="229.05" y2="112.79"/><line class="cls-5" x1="229.05" y1="112.79" x2="226.9" y2="109.51"/><line class="cls-5" x1="226.9" y1="109.51" x2="224.59" y2="106.33"/><line class="cls-5" x1="224.59" y1="106.33" x2="222.13" y2="103.26"/><line class="cls-5" x1="222.13" y1="103.26" x2="219.54" y2="100.32"/><line class="cls-5" x1="219.54" y1="100.32" x2="216.81" y2="97.49"/><line class="cls-5" x1="216.81" y1="97.49" x2="213.96" y2="94.8"/><line class="cls-5" x1="213.96" y1="94.8" x2="210.98" y2="92.24"/><line class="cls-5" x1="210.98" y1="92.24" x2="207.89" y2="89.82"/><line class="cls-5" x1="207.89" y1="89.82" x2="204.68" y2="87.55"/><line class="cls-5" x1="204.68" y1="87.55" x2="201.38" y2="85.43"/><line class="cls-5" x1="201.38" y1="85.43" x2="197.98" y2="83.47"/><line class="cls-5" x1="197.98" y1="83.47" x2="194.49" y2="81.66"/><line class="cls-5" x1="194.49" y1="81.66" x2="190.92" y2="80.03"/><line class="cls-5" x1="190.92" y1="80.03" x2="187.28" y2="78.55"/><line class="cls-5" x1="187.28" y1="78.55" x2="183.57" y2="77.25"/><line class="cls-5" x1="183.57" y1="77.25" x2="179.81" y2="76.13"/><line class="cls-5" x1="179.81" y1="76.13" x2="176" y2="75.18"/><line class="cls-5" x1="176" y1="75.18" x2="172.15" y2="74.41"/><line class="cls-5" x1="172.15" y1="74.41" x2="168.27" y2="73.82"/><line class="cls-5" x1="168.27" y1="73.82" x2="164.36" y2="73.4"/><line class="cls-5" x1="164.36" y1="73.4" x2="160.44" y2="73.18"/><line class="cls-5" x1="160.44" y1="73.18" x2="156.52" y2="73.13"/><line class="cls-5" x1="156.52" y1="73.13" x2="152.59" y2="73.27"/><line class="cls-5" x1="152.59" y1="73.27" x2="148.68" y2="73.59"/><line class="cls-5" x1="148.68" y1="73.59" x2="144.79" y2="74.09"/><line class="cls-5" x1="144.79" y1="74.09" x2="140.92" y2="74.77"/><line class="cls-5" x1="140.92" y1="74.77" x2="137.09" y2="75.63"/><line class="cls-5" x1="137.09" y1="75.63" x2="133.3" y2="76.67"/><line class="cls-5" x1="133.3" y1="76.67" x2="129.57" y2="77.88"/><line class="cls-5" x1="129.57" y1="77.88" x2="125.89" y2="79.27"/><line class="cls-5" x1="125.89" y1="79.27" x2="122.29" y2="80.82"/><line class="cls-5" x1="122.29" y1="80.82" x2="118.76" y2="82.55"/><line class="cls-5" x1="118.76" y1="82.55" x2="115.31" y2="84.43"/><line class="cls-5" x1="115.31" y1="84.43" x2="111.96" y2="86.47"/><line class="cls-5" x1="111.96" y1="86.47" x2="108.7" y2="88.67"/><line class="cls-5" x1="108.7" y1="88.67" x2="105.55" y2="91.01"/><line class="cls-5" x1="105.55" y1="91.01" x2="102.52" y2="93.5"/><line class="cls-5" x1="102.52" y1="93.5" x2="99.6" y2="96.13"/><line class="cls-5" x1="99.6" y1="96.13" x2="96.81" y2="98.89"/><line class="cls-5" x1="96.81" y1="98.89" x2="94.14" y2="101.78"/><line class="cls-5" x1="94.14" y1="101.78" x2="91.62" y2="104.78"/><line class="cls-5" x1="91.62" y1="104.78" x2="89.24" y2="107.91"/><line class="cls-5" x1="89.24" y1="107.91" x2="87.01" y2="111.14"/><line class="cls-5" x1="87.01" y1="111.14" x2="84.92" y2="114.47"/><line class="cls-5" x1="84.92" y1="114.47" x2="83" y2="117.89"/><line class="cls-5" x1="83" y1="117.89" x2="81.24" y2="121.4"/><line class="cls-5" x1="81.24" y1="121.4" x2="79.64" y2="124.98"/><line class="cls-5" x1="79.64" y1="124.98" x2="78.21" y2="128.64"/><line class="cls-5" x1="78.21" y1="128.64" x2="76.96" y2="132.36"/><line class="cls-5" x1="76.96" y1="132.36" x2="75.87" y2="136.14"/><line class="cls-5" x1="75.87" y1="136.14" x2="74.97" y2="139.96"/><line class="cls-5" x1="74.97" y1="139.96" x2="74.24" y2="143.82"/><line class="cls-5" x1="74.24" y1="143.82" x2="73.7" y2="147.7"/><line class="cls-5" x1="73.7" y1="147.7" x2="73.33" y2="151.61"/><line class="cls-5" x1="73.33" y1="151.61" x2="73.15" y2="155.54"/><line class="cls-5" x1="73.15" y1="155.54" x2="73.15" y2="159.46"/><line class="cls-5" x1="73.15" y1="159.46" x2="73.33" y2="163.39"/><line class="cls-5" x1="73.33" y1="163.39" x2="73.7" y2="167.3"/><line class="cls-5" x1="73.7" y1="167.3" x2="74.24" y2="171.18"/><line class="cls-5" x1="74.24" y1="171.18" x2="74.97" y2="175.04"/><line class="cls-5" x1="74.97" y1="175.04" x2="75.87" y2="178.86"/><line class="cls-5" x1="75.87" y1="178.86" x2="76.96" y2="182.64"/><line class="cls-5" x1="76.96" y1="182.64" x2="78.21" y2="186.36"/><line class="cls-5" x1="78.21" y1="186.36" x2="79.64" y2="190.02"/><line class="cls-5" x1="79.64" y1="190.02" x2="81.24" y2="193.6"/><line class="cls-5" x1="81.24" y1="193.6" x2="83" y2="197.11"/><line class="cls-5" x1="83" y1="197.11" x2="84.92" y2="200.53"/><line class="cls-5" x1="84.92" y1="200.53" x2="87.01" y2="203.86"/><line class="cls-5" x1="87.01" y1="203.86" x2="89.24" y2="207.09"/><line class="cls-5" x1="89.24" y1="207.09" x2="91.62" y2="210.22"/><line class="cls-5" x1="91.62" y1="210.22" x2="94.14" y2="213.22"/><line class="cls-5" x1="94.14" y1="213.22" x2="96.81" y2="216.11"/><line class="cls-5" x1="96.81" y1="216.11" x2="99.6" y2="218.87"/><line class="cls-5" x1="99.6" y1="218.87" x2="102.52" y2="221.5"/><line class="cls-5" x1="102.52" y1="221.5" x2="105.55" y2="223.99"/><line class="cls-5" x1="105.55" y1="223.99" x2="108.7" y2="226.33"/><line class="cls-5" x1="108.7" y1="226.33" x2="111.96" y2="228.53"/><line class="cls-5" x1="111.96" y1="228.53" x2="115.31" y2="230.57"/><line class="cls-5" x1="115.31" y1="230.57" x2="118.76" y2="232.45"/><line class="cls-5" x1="118.76" y1="232.45" x2="122.29" y2="234.18"/><line class="cls-5" x1="122.29" y1="234.18" x2="125.89" y2="235.73"/><line class="cls-5" x1="125.89" y1="235.73" x2="129.57" y2="237.12"/><line class="cls-5" x1="129.57" y1="237.12" x2="133.3" y2="238.33"/><line class="cls-5" x1="133.3" y1="238.33" x2="137.09" y2="239.37"/><line class="cls-5" x1="137.09" y1="239.37" x2="140.92" y2="240.23"/><line class="cls-5" x1="140.92" y1="240.23" x2="144.79" y2="240.91"/><line class="cls-5" x1="144.79" y1="240.91" x2="148.68" y2="241.41"/><line class="cls-5" x1="148.68" y1="241.41" x2="152.59" y2="241.73"/><line class="cls-5" x1="152.59" y1="241.73" x2="156.52" y2="241.87"/><line class="cls-5" x1="156.52" y1="241.87" x2="160.44" y2="241.82"/><line class="cls-5" x1="160.44" y1="241.82" x2="164.36" y2="241.6"/><line class="cls-5" x1="164.36" y1="241.6" x2="168.27" y2="241.18"/><line class="cls-5" x1="168.27" y1="241.18" x2="172.15" y2="240.59"/><line class="cls-5" x1="172.15" y1="240.59" x2="176" y2="239.82"/><line class="cls-5" x1="176" y1="239.82" x2="179.81" y2="238.87"/><line class="cls-5" x1="179.81" y1="238.87" x2="183.57" y2="237.75"/><line class="cls-5" x1="183.57" y1="237.75" x2="187.28" y2="236.45"/><line class="cls-5" x1="187.28" y1="236.45" x2="190.92" y2="234.97"/><line class="cls-5" x1="190.92" y1="234.97" x2="194.49" y2="233.34"/><line class="cls-5" x1="194.49" y1="233.34" x2="197.98" y2="231.53"/><line class="cls-5" x1="197.98" y1="231.53" x2="201.38" y2="229.57"/><line class="cls-5" x1="201.38" y1="229.57" x2="204.68" y2="227.45"/><line class="cls-5" x1="204.68" y1="227.45" x2="207.89" y2="225.18"/><line class="cls-5" x1="207.89" y1="225.18" x2="210.98" y2="222.76"/><line class="cls-5" x1="210.98" y1="222.76" x2="213.96" y2="220.2"/><line class="cls-5" x1="213.96" y1="220.2" x2="216.81" y2="217.51"/><line class="cls-5" x1="216.81" y1="217.51" x2="219.54" y2="214.68"/><line class="cls-5" x1="219.54" y1="214.68" x2="222.13" y2="211.74"/><line class="cls-5" x1="222.13" y1="211.74" x2="224.59" y2="208.67"/><line class="cls-5" x1="224.59" y1="208.67" x2="226.9" y2="205.49"/><line class="cls-5" x1="226.9" y1="205.49" x2="229.05" y2="202.21"/><line class="cls-5" x1="229.05" y1="202.21" x2="231.06" y2="198.83"/><line class="cls-5" x1="231.06" y1="198.83" x2="232.9" y2="195.37"/><line class="cls-5" x1="232.9" y1="195.37" x2="234.58" y2="191.82"/><line class="cls-5" x1="234.58" y1="191.82" x2="236.09" y2="188.2"/><line class="cls-5" x1="236.09" y1="188.2" x2="237.44" y2="184.51"/><line class="cls-5" x1="237.44" y1="184.51" x2="238.61" y2="180.76"/><line class="cls-5" x1="238.61" y1="180.76" x2="239.6" y2="176.96"/><line class="cls-5" x1="239.6" y1="176.96" x2="240.42" y2="173.12"/><line class="cls-5" x1="240.42" y1="173.12" x2="241.05" y2="169.24"/><line class="cls-5" x1="241.05" y1="169.24" x2="241.51" y2="165.34"/><line class="cls-5" x1="241.51" y1="165.34" x2="241.78" y2="161.43"/><line class="cls-5" x1="241.78" y1="161.43" x2="241.88" y2="157.5"/><line class="cls-6" x1="241.88" y1="157.5" x2="241.88" y2="157.5"/><line class="cls-6" x1="270" y1="157.5" x2="269.93" y2="153.57"/><line class="cls-5" x1="269.93" y1="153.57" x2="269.73" y2="149.65"/><line class="cls-5" x1="269.73" y1="149.65" x2="269.38" y2="145.74"/><line class="cls-5" x1="269.38" y1="145.74" x2="268.91" y2="141.84"/><line class="cls-5" x1="268.91" y1="141.84" x2="268.29" y2="137.96"/><line class="cls-5" x1="268.29" y1="137.96" x2="267.54" y2="134.11"/><line class="cls-5" x1="267.54" y1="134.11" x2="266.66" y2="130.28"/><line class="cls-5" x1="266.66" y1="130.28" x2="265.64" y2="126.49"/><line class="cls-5" x1="265.64" y1="126.49" x2="264.49" y2="122.74"/><line class="cls-5" x1="264.49" y1="122.74" x2="263.22" y2="119.02"/><line class="cls-5" x1="263.22" y1="119.02" x2="261.81" y2="115.36"/><line class="cls-5" x1="261.81" y1="115.36" x2="260.27" y2="111.74"/><line class="cls-5" x1="260.27" y1="111.74" x2="258.61" y2="108.18"/><line class="cls-5" x1="258.61" y1="108.18" x2="256.83" y2="104.68"/><line class="cls-5" x1="256.83" y1="104.68" x2="254.93" y2="101.25"/><line class="cls-5" x1="254.93" y1="101.25" x2="252.91" y2="97.88"/><line class="cls-5" x1="252.91" y1="97.88" x2="250.77" y2="94.59"/><line class="cls-5" x1="250.77" y1="94.59" x2="248.51" y2="91.37"/><line class="cls-5" x1="248.51" y1="91.37" x2="246.15" y2="88.24"/><line class="cls-5" x1="246.15" y1="88.24" x2="243.68" y2="85.19"/><line class="cls-5" x1="243.68" y1="85.19" x2="241.1" y2="82.22"/><line class="cls-5" x1="241.1" y1="82.22" x2="238.43" y2="79.35"/><line class="cls-5" x1="238.43" y1="79.35" x2="235.65" y2="76.57"/><line class="cls-5" x1="235.65" y1="76.57" x2="232.78" y2="73.9"/><line class="cls-5" x1="232.78" y1="73.9" x2="229.81" y2="71.32"/><line class="cls-5" x1="229.81" y1="71.32" x2="226.76" y2="68.85"/><line class="cls-5" x1="226.76" y1="68.85" x2="223.63" y2="66.49"/><line class="cls-5" x1="223.63" y1="66.49" x2="220.41" y2="64.23"/><line class="cls-5" x1="220.41" y1="64.23" x2="217.12" y2="62.09"/><line class="cls-5" x1="217.12" y1="62.09" x2="213.75" y2="60.07"/><line class="cls-5" x1="213.75" y1="60.07" x2="210.32" y2="58.17"/><line class="cls-5" x1="210.32" y1="58.17" x2="206.82" y2="56.39"/><line class="cls-5" x1="206.82" y1="56.39" x2="203.26" y2="54.73"/><line class="cls-5" x1="203.26" y1="54.73" x2="199.64" y2="53.19"/><line class="cls-5" x1="199.64" y1="53.19" x2="195.98" y2="51.78"/><line class="cls-5" x1="195.98" y1="51.78" x2="192.26" y2="50.51"/><line class="cls-5" x1="192.26" y1="50.51" x2="188.51" y2="49.36"/><line class="cls-5" x1="188.51" y1="49.36" x2="184.72" y2="48.34"/><line class="cls-5" x1="184.72" y1="48.34" x2="180.89" y2="47.46"/><line class="cls-5" x1="180.89" y1="47.46" x2="177.04" y2="46.71"/><line class="cls-5" x1="177.04" y1="46.71" x2="173.16" y2="46.09"/><line class="cls-5" x1="173.16" y1="46.09" x2="169.26" y2="45.62"/><line class="cls-5" x1="169.26" y1="45.62" x2="165.35" y2="45.27"/><line class="cls-5" x1="165.35" y1="45.27" x2="161.43" y2="45.07"/><line class="cls-5" x1="161.43" y1="45.07" x2="157.5" y2="45"/><line class="cls-5" x1="157.5" y1="45" x2="153.57" y2="45.07"/><line class="cls-5" x1="153.57" y1="45.07" x2="149.65" y2="45.27"/><line class="cls-5" x1="149.65" y1="45.27" x2="145.74" y2="45.62"/><line class="cls-5" x1="145.74" y1="45.62" x2="141.84" y2="46.09"/><line class="cls-5" x1="141.84" y1="46.09" x2="137.96" y2="46.71"/><line class="cls-5" x1="137.96" y1="46.71" x2="134.11" y2="47.46"/><line class="cls-5" x1="134.11" y1="47.46" x2="130.28" y2="48.34"/><line class="cls-5" x1="130.28" y1="48.34" x2="126.49" y2="49.36"/><line class="cls-5" x1="126.49" y1="49.36" x2="122.74" y2="50.51"/><line class="cls-5" x1="122.74" y1="50.51" x2="119.02" y2="51.78"/><line class="cls-5" x1="119.02" y1="51.78" x2="115.36" y2="53.19"/><line class="cls-5" x1="115.36" y1="53.19" x2="111.74" y2="54.73"/><line class="cls-5" x1="111.74" y1="54.73" x2="108.18" y2="56.39"/><line class="cls-5" x1="108.18" y1="56.39" x2="104.68" y2="58.17"/><line class="cls-5" x1="104.68" y1="58.17" x2="101.25" y2="60.07"/><line class="cls-5" x1="101.25" y1="60.07" x2="97.88" y2="62.09"/><line class="cls-5" x1="97.88" y1="62.09" x2="94.59" y2="64.23"/><line class="cls-5" x1="94.59" y1="64.23" x2="91.37" y2="66.49"/><line class="cls-5" x1="91.37" y1="66.49" x2="88.24" y2="68.85"/><line class="cls-5" x1="88.24" y1="68.85" x2="85.19" y2="71.32"/><line class="cls-5" x1="85.19" y1="71.32" x2="82.22" y2="73.9"/><line class="cls-5" x1="82.22" y1="73.9" x2="79.35" y2="76.57"/><line class="cls-5" x1="79.35" y1="76.57" x2="76.57" y2="79.35"/><line class="cls-5" x1="76.57" y1="79.35" x2="73.9" y2="82.22"/><line class="cls-5" x1="73.9" y1="82.22" x2="71.32" y2="85.19"/><line class="cls-5" x1="71.32" y1="85.19" x2="68.85" y2="88.24"/><line class="cls-5" x1="68.85" y1="88.24" x2="66.49" y2="91.37"/><line class="cls-5" x1="66.49" y1="91.37" x2="64.23" y2="94.59"/><line class="cls-5" x1="64.23" y1="94.59" x2="62.09" y2="97.88"/><line class="cls-5" x1="62.09" y1="97.88" x2="60.07" y2="101.25"/><line class="cls-5" x1="60.07" y1="101.25" x2="58.17" y2="104.68"/><line class="cls-5" x1="58.17" y1="104.68" x2="56.39" y2="108.18"/><line class="cls-5" x1="56.39" y1="108.18" x2="54.73" y2="111.74"/><line class="cls-5" x1="54.73" y1="111.74" x2="53.19" y2="115.36"/><line class="cls-5" x1="53.19" y1="115.36" x2="51.78" y2="119.02"/><line class="cls-5" x1="51.78" y1="119.02" x2="50.51" y2="122.74"/><line class="cls-5" x1="50.51" y1="122.74" x2="49.36" y2="126.49"/><line class="cls-5" x1="49.36" y1="126.49" x2="48.34" y2="130.28"/><line class="cls-5" x1="48.34" y1="130.28" x2="47.46" y2="134.11"/><line class="cls-5" x1="47.46" y1="134.11" x2="46.71" y2="137.96"/><line class="cls-5" x1="46.71" y1="137.96" x2="46.09" y2="141.84"/><line class="cls-5" x1="46.09" y1="141.84" x2="45.62" y2="145.74"/><line class="cls-5" x1="45.62" y1="145.74" x2="45.27" y2="149.65"/><line class="cls-5" x1="45.27" y1="149.65" x2="45.07" y2="153.57"/><line class="cls-5" x1="45.07" y1="153.57" x2="45" y2="157.5"/><line class="cls-5" x1="45" y1="157.5" x2="45.07" y2="161.43"/><line class="cls-5" x1="45.07" y1="161.43" x2="45.27" y2="165.35"/><line class="cls-5" x1="45.27" y1="165.35" x2="45.62" y2="169.26"/><line class="cls-5" x1="45.62" y1="169.26" x2="46.09" y2="173.16"/><line class="cls-5" x1="46.09" y1="173.16" x2="46.71" y2="177.04"/><line class="cls-5" x1="46.71" y1="177.04" x2="47.46" y2="180.89"/><line class="cls-5" x1="47.46" y1="180.89" x2="48.34" y2="184.72"/><line class="cls-5" x1="48.34" y1="184.72" x2="49.36" y2="188.51"/><line class="cls-5" x1="49.36" y1="188.51" x2="50.51" y2="192.26"/><line class="cls-5" x1="50.51" y1="192.26" x2="51.78" y2="195.98"/><line class="cls-5" x1="51.78" y1="195.98" x2="53.19" y2="199.64"/><line class="cls-5" x1="53.19" y1="199.64" x2="54.73" y2="203.26"/><line class="cls-5" x1="54.73" y1="203.26" x2="56.39" y2="206.82"/><line class="cls-5" x1="56.39" y1="206.82" x2="58.17" y2="210.32"/><line class="cls-5" x1="58.17" y1="210.32" x2="60.07" y2="213.75"/><line class="cls-5" x1="60.07" y1="213.75" x2="62.09" y2="217.12"/><line class="cls-5" x1="62.09" y1="217.12" x2="64.23" y2="220.41"/><line class="cls-5" x1="64.23" y1="220.41" x2="66.49" y2="223.63"/><line class="cls-5" x1="66.49" y1="223.63" x2="68.85" y2="226.76"/><line class="cls-5" x1="68.85" y1="226.76" x2="71.32" y2="229.81"/><line class="cls-5" x1="71.32" y1="229.81" x2="73.9" y2="232.78"/><line class="cls-5" x1="73.9" y1="232.78" x2="76.57" y2="235.65"/><line class="cls-5" x1="76.57" y1="235.65" x2="79.35" y2="238.43"/><line class="cls-5" x1="79.35" y1="238.43" x2="82.22" y2="241.1"/><line class="cls-5" x1="82.22" y1="241.1" x2="85.19" y2="243.68"/><line class="cls-5" x1="85.19" y1="243.68" x2="88.24" y2="246.15"/><line class="cls-5" x1="88.24" y1="246.15" x2="91.37" y2="248.51"/><line class="cls-5" x1="91.37" y1="248.51" x2="94.59" y2="250.77"/><line class="cls-5" x1="94.59" y1="250.77" x2="97.88" y2="252.91"/><line class="cls-5" x1="97.88" y1="252.91" x2="101.25" y2="254.93"/><line class="cls-5" x1="101.25" y1="254.93" x2="104.68" y2="256.83"/><line class="cls-5" x1="104.68" y1="256.83" x2="108.18" y2="258.61"/><line class="cls-5" x1="108.18" y1="258.61" x2="111.74" y2="260.27"/><line class="cls-5" x1="111.74" y1="260.27" x2="115.36" y2="261.81"/><line class="cls-5" x1="115.36" y1="261.81" x2="119.02" y2="263.22"/><line class="cls-5" x1="119.02" y1="263.22" x2="122.74" y2="264.49"/><line class="cls-5" x1="122.74" y1="264.49" x2="126.49" y2="265.64"/><line class="cls-5" x1="126.49" y1="265.64" x2="130.28" y2="266.66"/><line class="cls-5" x1="130.28" y1="266.66" x2="134.11" y2="267.54"/><line class="cls-5" x1="134.11" y1="267.54" x2="137.96" y2="268.29"/><line class="cls-5" x1="137.96" y1="268.29" x2="141.84" y2="268.91"/><line class="cls-5" x1="141.84" y1="268.91" x2="145.74" y2="269.38"/><line class="cls-5" x1="145.74" y1="269.38" x2="149.65" y2="269.73"/><line class="cls-5" x1="149.65" y1="269.73" x2="153.57" y2="269.93"/><line class="cls-5" x1="153.57" y1="269.93" x2="157.5" y2="270"/><line class="cls-5" x1="157.5" y1="270" x2="161.43" y2="269.93"/><line class="cls-5" x1="161.43" y1="269.93" x2="165.35" y2="269.73"/><line class="cls-5" x1="165.35" y1="269.73" x2="169.26" y2="269.38"/><line class="cls-5" x1="169.26" y1="269.38" x2="173.16" y2="268.91"/><line class="cls-5" x1="173.16" y1="268.91" x2="177.04" y2="268.29"/><line class="cls-5" x1="177.04" y1="268.29" x2="180.89" y2="267.54"/><line class="cls-5" x1="180.89" y1="267.54" x2="184.72" y2="266.66"/><line class="cls-5" x1="184.72" y1="266.66" x2="188.51" y2="265.64"/><line class="cls-5" x1="188.51" y1="265.64" x2="192.26" y2="264.49"/><line class="cls-5" x1="192.26" y1="264.49" x2="195.98" y2="263.22"/><line class="cls-5" x1="195.98" y1="263.22" x2="199.64" y2="261.81"/><line class="cls-5" x1="199.64" y1="261.81" x2="203.26" y2="260.27"/><line class="cls-5" x1="203.26" y1="260.27" x2="206.82" y2="258.61"/><line class="cls-5" x1="206.82" y1="258.61" x2="210.32" y2="256.83"/><line class="cls-5" x1="210.32" y1="256.83" x2="213.75" y2="254.93"/><line class="cls-5" x1="213.75" y1="254.93" x2="217.12" y2="252.91"/><line class="cls-5" x1="217.12" y1="252.91" x2="220.41" y2="250.77"/><line class="cls-5" x1="220.41" y1="250.77" x2="223.63" y2="248.51"/><line class="cls-5" x1="223.63" y1="248.51" x2="226.76" y2="246.15"/><line class="cls-5" x1="226.76" y1="246.15" x2="229.81" y2="243.68"/><line class="cls-5" x1="229.81" y1="243.68" x2="232.78" y2="241.1"/><line class="cls-5" x1="232.78" y1="241.1" x2="235.65" y2="238.43"/><line class="cls-5" x1="235.65" y1="238.43" x2="238.43" y2="235.65"/><line class="cls-5" x1="238.43" y1="235.65" x2="241.1" y2="232.78"/><line class="cls-5" x1="241.1" y1="232.78" x2="243.68" y2="229.81"/><line class="cls-5" x1="243.68" y1="229.81" x2="246.15" y2="226.76"/><line class="cls-5" x1="246.15" y1="226.76" x2="248.51" y2="223.63"/><line class="cls-5" x1="248.51" y1="223.63" x2="250.77" y2="220.41"/><line class="cls-5" x1="250.77" y1="220.41" x2="252.91" y2="217.12"/><line class="cls-5" x1="252.91" y1="217.12" x2="254.93" y2="213.75"/><line class="cls-5" x1="254.93" y1="213.75" x2="256.83" y2="210.32"/><line class="cls-5" x1="256.83" y1="210.32" x2="258.61" y2="206.82"/><line class="cls-5" x1="258.61" y1="206.82" x2="260.27" y2="203.26"/><line class="cls-5" x1="260.27" y1="203.26" x2="261.81" y2="199.64"/><line class="cls-5" x1="261.81" y1="199.64" x2="263.22" y2="195.98"/><line class="cls-5" x1="263.22" y1="195.98" x2="264.49" y2="192.26"/><line class="cls-5" x1="264.49" y1="192.26" x2="265.64" y2="188.51"/><line class="cls-5" x1="265.64" y1="188.51" x2="266.66" y2="184.72"/><line class="cls-5" x1="266.66" y1="184.72" x2="267.54" y2="180.89"/><line class="cls-5" x1="267.54" y1="180.89" x2="268.29" y2="177.04"/><line class="cls-5" x1="268.29" y1="177.04" x2="268.91" y2="173.16"/><line class="cls-5" x1="268.91" y1="173.16" x2="269.38" y2="169.26"/><line class="cls-5" x1="269.38" y1="169.26" x2="269.73" y2="165.35"/><line class="cls-5" x1="269.73" y1="165.35" x2="269.93" y2="161.43"/><line class="cls-5" x1="269.93" y1="161.43" x2="270" y2="157.5"/><line class="cls-6" x1="270" y1="157.5" x2="270" y2="157.5"/><line class="cls-6" x1="157.5" y1="157.5" x2="270" y2="157.5"/><line class="cls-5" x1="157.5" y1="157.5" x2="254.93" y2="101.25"/><line class="cls-5" x1="157.5" y1="157.5" x2="213.75" y2="60.07"/><line class="cls-5" x1="157.5" y1="157.5" x2="157.5" y2="45"/><line class="cls-5" x1="157.5" y1="157.5" x2="101.25" y2="60.07"/><line class="cls-5" x1="157.5" y1="157.5" x2="60.07" y2="101.25"/><line class="cls-5" x1="157.5" y1="157.5" x2="45" y2="157.5"/><line class="cls-5" x1="157.5" y1="157.5" x2="60.07" y2="213.75"/><line class="cls-5" x1="157.5" y1="157.5" x2="101.25" y2="254.93"/><line class="cls-5" x1="157.5" y1="157.5" x2="157.5" y2="270"/><line class="cls-5" x1="157.5" y1="157.5" x2="213.75" y2="254.93"/><line class="cls-6" x1="157.5" y1="157.5" x2="254.93" y2="213.75"/><line class="cls-7" x1="129.33" y1="146.12" x2="129.63" y2="146.8"/><line class="cls-7" x1="129.63" y1="146.8" x2="129.91" y2="147.46"/><line class="cls-7" x1="129.91" y1="147.46" x2="130.17" y2="148.09"/><line class="cls-7" x1="130.17" y1="148.09" x2="130.41" y2="148.7"/><line class="cls-7" x1="130.41" y1="148.7" x2="130.62" y2="149.28"/><line class="cls-7" x1="130.62" y1="149.28" x2="130.8" y2="149.84"/><line class="cls-7" x1="130.8" y1="149.84" x2="130.95" y2="150.39"/><line class="cls-7" x1="130.95" y1="150.39" x2="131.07" y2="150.91"/><line class="cls-7" x1="131.07" y1="150.91" x2="131.17" y2="151.42"/><line class="cls-7" x1="131.17" y1="151.42" x2="131.23" y2="151.92"/><line class="cls-7" x1="131.23" y1="151.92" x2="131.27" y2="152.4"/><line class="cls-7" x1="131.27" y1="152.4" x2="131.27" y2="152.87"/><line class="cls-7" x1="131.27" y1="152.87" x2="131.24" y2="153.34"/><line class="cls-7" x1="131.24" y1="153.34" x2="131.18" y2="153.8"/><line class="cls-7" x1="131.18" y1="153.8" x2="131.09" y2="154.26"/><line class="cls-7" x1="131.09" y1="154.26" x2="130.97" y2="154.71"/><line class="cls-7" x1="130.97" y1="154.71" x2="130.82" y2="155.17"/><line class="cls-7" x1="130.82" y1="155.17" x2="130.64" y2="155.62"/><line class="cls-7" x1="130.64" y1="155.62" x2="130.44" y2="156.08"/><line class="cls-7" x1="130.44" y1="156.08" x2="130.21" y2="156.55"/><line class="cls-7" x1="130.21" y1="156.55" x2="129.95" y2="157.02"/><line class="cls-7" x1="129.95" y1="157.02" x2="129.67" y2="157.5"/><line class="cls-7" x1="129.67" y1="157.5" x2="129.36" y2="157.99"/><line class="cls-7" x1="129.36" y1="157.99" x2="129.03" y2="158.49"/><line class="cls-7" x1="129.03" y1="158.49" x2="128.68" y2="159.01"/><line class="cls-7" x1="128.68" y1="159.01" x2="128.32" y2="159.54"/><line class="cls-7" x1="128.32" y1="159.54" x2="127.93" y2="160.09"/><line class="cls-7" x1="127.93" y1="160.09" x2="127.54" y2="160.65"/><line class="cls-7" x1="127.54" y1="160.65" x2="127.12" y2="161.23"/><line class="cls-7" x1="127.12" y1="161.23" x2="126.7" y2="161.83"/><line class="cls-7" x1="126.7" y1="161.83" x2="126.27" y2="162.45"/><line class="cls-7" x1="126.27" y1="162.45" x2="125.83" y2="163.08"/><line class="cls-7" x1="125.83" y1="163.08" x2="125.38" y2="163.74"/><line class="cls-7" x1="125.38" y1="163.74" x2="124.93" y2="164.42"/><line class="cls-7" x1="124.93" y1="164.42" x2="124.48" y2="165.12"/><line class="cls-7" x1="124.48" y1="165.12" x2="124.03" y2="165.85"/><line class="cls-7" x1="124.03" y1="165.85" x2="123.58" y2="166.59"/><line class="cls-7" x1="123.58" y1="166.59" x2="123.13" y2="167.35"/><line class="cls-7" x1="123.13" y1="167.35" x2="122.69" y2="168.14"/><line class="cls-7" x1="122.69" y1="168.14" x2="122.26" y2="168.95"/><line class="cls-7" x1="122.26" y1="168.95" x2="121.84" y2="169.78"/><line class="cls-7" x1="121.84" y1="169.78" x2="121.44" y2="170.63"/><line class="cls-7" x1="121.44" y1="170.63" x2="121.04" y2="171.49"/><line class="cls-7" x1="121.04" y1="171.49" x2="120.66" y2="172.38"/><line class="cls-7" x1="120.66" y1="172.38" x2="120.3" y2="173.29"/><line class="cls-7" x1="120.3" y1="173.29" x2="119.96" y2="174.21"/><line class="cls-7" x1="119.96" y1="174.21" x2="119.64" y2="175.15"/><line class="cls-7" x1="119.64" y1="175.15" x2="119.35" y2="176.11"/><line class="cls-7" x1="119.35" y1="176.11" x2="119.07" y2="177.08"/><line class="cls-7" x1="119.07" y1="177.08" x2="118.82" y2="178.06"/><line class="cls-7" x1="118.82" y1="178.06" x2="118.6" y2="179.06"/><line class="cls-7" x1="118.6" y1="179.06" x2="118.41" y2="180.07"/><line class="cls-7" x1="118.41" y1="180.07" x2="118.24" y2="181.09"/><line class="cls-7" x1="118.24" y1="181.09" x2="118.11" y2="182.11"/><line class="cls-7" x1="118.11" y1="182.11" x2="118.01" y2="183.15"/><line class="cls-7" x1="118.01" y1="183.15" x2="117.94" y2="184.18"/><line class="cls-7" x1="117.94" y1="184.18" x2="117.91" y2="185.22"/><line class="cls-7" x1="117.91" y1="185.22" x2="117.9" y2="186.27"/><line class="cls-7" x1="117.9" y1="186.27" x2="117.94" y2="187.31"/><line class="cls-7" x1="117.94" y1="187.31" x2="118.01" y2="188.36"/><line class="cls-7" x1="118.01" y1="188.36" x2="118.11" y2="189.4"/><line class="cls-7" x1="118.11" y1="189.4" x2="118.25" y2="190.43"/><line class="cls-7" x1="118.25" y1="190.43" x2="118.43" y2="191.46"/><line class="cls-7" x1="118.43" y1="191.46" x2="118.65" y2="192.49"/><line class="cls-7" x1="118.65" y1="192.49" x2="118.9" y2="193.5"/><line class="cls-7" x1="118.9" y1="193.5" x2="119.19" y2="194.5"/><line class="cls-7" x1="119.19" y1="194.5" x2="119.51" y2="195.49"/><line class="cls-7" x1="119.51" y1="195.49" x2="119.88" y2="196.46"/><line class="cls-7" x1="119.88" y1="196.46" x2="120.28" y2="197.41"/><line class="cls-7" x1="120.28" y1="197.41" x2="120.72" y2="198.35"/><line class="cls-7" x1="120.72" y1="198.35" x2="121.19" y2="199.27"/><line class="cls-7" x1="171.3" y1="59.32" x2="169.55" y2="59.35"/><line class="cls-7" x1="121.19" y1="199.27" x2="121.7" y2="200.16"/><line class="cls-7" x1="121.7" y1="200.16" x2="122.25" y2="201.04"/><line class="cls-7" x1="122.25" y1="201.04" x2="122.82" y2="201.88"/><line class="cls-7" x1="122.82" y1="201.88" x2="123.44" y2="202.7"/><line class="cls-7" x1="123.44" y1="202.7" x2="124.08" y2="203.49"/><line class="cls-7" x1="124.08" y1="203.49" x2="124.76" y2="204.25"/><line class="cls-7" x1="124.76" y1="204.25" x2="125.47" y2="204.98"/><line class="cls-7" x1="125.47" y1="204.98" x2="126.21" y2="205.68"/><line class="cls-7" x1="126.21" y1="205.68" x2="126.98" y2="206.34"/><line class="cls-7" x1="126.98" y1="206.34" x2="127.78" y2="206.97"/><line class="cls-7" x1="127.78" y1="206.97" x2="128.6" y2="207.56"/><line class="cls-7" x1="128.6" y1="207.56" x2="129.45" y2="208.11"/><line class="cls-7" x1="129.45" y1="208.11" x2="130.32" y2="208.62"/><line class="cls-7" x1="130.32" y1="208.62" x2="131.22" y2="209.09"/><line class="cls-7" x1="131.22" y1="209.09" x2="132.13" y2="209.51"/><line class="cls-7" x1="132.13" y1="209.51" x2="133.07" y2="209.9"/><line class="cls-7" x1="133.07" y1="209.9" x2="134.02" y2="210.24"/><line class="cls-7" x1="134.02" y1="210.24" x2="134.99" y2="210.53"/><line class="cls-7" x1="134.99" y1="210.53" x2="135.97" y2="210.78"/><line class="cls-7" x1="135.97" y1="210.78" x2="136.97" y2="210.99"/><line class="cls-7" x1="136.97" y1="210.99" x2="137.98" y2="211.14"/><line class="cls-7" x1="137.98" y1="211.14" x2="138.99" y2="211.25"/><line class="cls-7" x1="138.99" y1="211.25" x2="140.02" y2="211.31"/><line class="cls-7" x1="140.02" y1="211.31" x2="141.04" y2="211.32"/><line class="cls-7" x1="141.04" y1="211.32" x2="142.08" y2="211.29"/><line class="cls-7" x1="142.08" y1="211.29" x2="143.11" y2="211.2"/><line class="cls-7" x1="143.11" y1="211.2" x2="144.14" y2="211.07"/><line class="cls-7" x1="144.14" y1="211.07" x2="145.18" y2="210.88"/><line class="cls-7" x1="145.18" y1="210.88" x2="146.2" y2="210.65"/><line class="cls-7" x1="146.2" y1="210.65" x2="147.22" y2="210.37"/><line class="cls-7" x1="147.22" y1="210.37" x2="148.24" y2="210.04"/><line class="cls-7" x1="148.24" y1="210.04" x2="149.24" y2="209.66"/><line class="cls-7" x1="149.24" y1="209.66" x2="150.23" y2="209.23"/><line class="cls-7" x1="150.23" y1="209.23" x2="151.21" y2="208.76"/><line class="cls-7" x1="151.21" y1="208.76" x2="152.17" y2="208.24"/><line class="cls-7" x1="152.17" y1="208.24" x2="153.11" y2="207.67"/><line class="cls-7" x1="153.11" y1="207.67" x2="154.03" y2="207.06"/><line class="cls-7" x1="154.03" y1="207.06" x2="154.94" y2="206.41"/><line class="cls-7" x1="154.94" y1="206.41" x2="155.82" y2="205.71"/><line class="cls-7" x1="155.82" y1="205.71" x2="156.67" y2="204.97"/><line class="cls-7" x1="156.67" y1="204.97" x2="157.5" y2="204.19"/><line class="cls-7" x1="157.5" y1="204.19" x2="158.3" y2="203.37"/><line class="cls-7" x1="158.3" y1="203.37" x2="159.07" y2="202.52"/><line class="cls-7" x1="159.07" y1="202.52" x2="159.81" y2="201.63"/><line class="cls-7" x1="159.81" y1="201.63" x2="160.52" y2="200.7"/><line class="cls-7" x1="160.52" y1="200.7" x2="161.2" y2="199.74"/><line class="cls-7" x1="161.2" y1="199.74" x2="161.84" y2="198.75"/><line class="cls-7" x1="161.84" y1="198.75" x2="162.44" y2="197.74"/><line class="cls-7" x1="162.44" y1="197.74" x2="163.01" y2="196.69"/><line class="cls-7" x1="163.01" y1="196.69" x2="163.54" y2="195.62"/><line class="cls-7" x1="163.54" y1="195.62" x2="164.03" y2="194.53"/><line class="cls-7" x1="164.03" y1="194.53" x2="164.48" y2="193.42"/><line class="cls-7" x1="164.48" y1="193.42" x2="164.9" y2="192.29"/><line class="cls-7" x1="164.9" y1="192.29" x2="165.27" y2="191.15"/><line class="cls-7" x1="165.27" y1="191.15" x2="165.6" y2="189.99"/><line class="cls-7" x1="165.6" y1="189.99" x2="165.89" y2="188.82"/><line class="cls-7" x1="165.89" y1="188.82" x2="166.14" y2="187.65"/><line class="cls-7" x1="166.14" y1="187.65" x2="166.36" y2="186.46"/><line class="cls-7" x1="166.36" y1="186.46" x2="166.53" y2="185.28"/><line class="cls-7" x1="166.53" y1="185.28" x2="166.66" y2="184.09"/><line class="cls-7" x1="166.66" y1="184.09" x2="166.75" y2="182.91"/><line class="cls-7" x1="166.75" y1="182.91" x2="166.8" y2="181.73"/><line class="cls-7" x1="166.8" y1="181.73" x2="166.82" y2="180.56"/><line class="cls-7" x1="166.82" y1="180.56" x2="166.8" y2="179.4"/><line class="cls-7" x1="166.8" y1="179.4" x2="166.74" y2="178.25"/><line class="cls-7" x1="166.65" y1="177.12" x2="166.53" y2="176.01"/><line class="cls-7" x1="166.53" y1="176.01" x2="166.37" y2="174.91"/><line class="cls-7" x1="166.37" y1="174.91" x2="166.19" y2="173.84"/><line class="cls-7" x1="166.19" y1="173.84" x2="165.98" y2="172.79"/><line class="cls-7" x1="165.98" y1="172.79" x2="165.74" y2="171.77"/><line class="cls-7" x1="165.74" y1="171.77" x2="165.48" y2="170.78"/><line class="cls-7" x1="165.48" y1="170.78" x2="165.2" y2="169.82"/><line class="cls-7" x1="165.2" y1="169.82" x2="164.9" y2="168.9"/><line class="cls-7" x1="164.9" y1="168.9" x2="164.59" y2="168.01"/><line class="cls-7" x1="164.59" y1="168.01" x2="164.26" y2="167.15"/><line class="cls-7" x1="164.26" y1="167.15" x2="163.92" y2="166.34"/><line class="cls-7" x1="163.92" y1="166.34" x2="163.58" y2="165.56"/><line class="cls-7" x1="163.58" y1="165.56" x2="163.23" y2="164.83"/><line class="cls-7" x1="163.23" y1="164.83" x2="162.87" y2="164.14"/><line class="cls-7" x1="162.87" y1="164.14" x2="162.52" y2="163.49"/><line class="cls-7" x1="162.52" y1="163.49" x2="162.18" y2="162.88"/><line class="cls-7" x1="162.18" y1="162.88" x2="161.84" y2="162.32"/><line class="cls-7" x1="161.84" y1="162.32" x2="161.51" y2="161.8"/><line class="cls-7" x1="161.51" y1="161.8" x2="161.19" y2="161.32"/><line class="cls-7" x1="161.19" y1="161.32" x2="160.9" y2="160.9"/><line class="cls-7" x1="160.9" y1="160.9" x2="160.62" y2="160.51"/><line class="cls-7" x1="160.62" y1="160.51" x2="160.36" y2="160.17"/><line class="cls-7" x1="160.36" y1="160.17" x2="160.13" y2="159.87"/><line class="cls-7" x1="160.13" y1="159.87" x2="159.93" y2="159.61"/><line class="cls-7" x1="159.93" y1="159.61" x2="159.76" y2="159.39"/><line class="cls-7" x1="159.76" y1="159.39" x2="159.62" y2="159.22"/><line class="cls-7" x1="159.62" y1="159.22" x2="159.52" y2="159.08"/><line class="cls-7" x1="159.52" y1="159.08" x2="159.46" y2="158.98"/><line class="cls-7" x1="159.46" y1="158.98" x2="159.44" y2="158.91"/><line class="cls-7" x1="159.44" y1="158.91" x2="159.46" y2="158.87"/><line class="cls-7" x1="159.46" y1="158.87" x2="159.52" y2="158.86"/><line class="cls-7" x1="159.52" y1="158.86" x2="159.63" y2="158.89"/><line class="cls-7" x1="159.63" y1="158.89" x2="159.79" y2="158.93"/><line class="cls-7" x1="159.79" y1="158.93" x2="160" y2="159"/><line class="cls-7" x1="160" y1="159" x2="160.26" y2="159.09"/><line class="cls-7" x1="160.26" y1="159.09" x2="160.57" y2="159.2"/><line class="cls-7" x1="160.57" y1="159.2" x2="160.93" y2="159.32"/><line class="cls-7" x1="160.93" y1="159.32" x2="161.34" y2="159.46"/><line class="cls-7" x1="161.34" y1="159.46" x2="161.81" y2="159.6"/><line class="cls-7" x1="161.81" y1="159.6" x2="162.33" y2="159.75"/><line class="cls-7" x1="162.33" y1="159.75" x2="162.9" y2="159.9"/><line class="cls-7" x1="162.9" y1="159.9" x2="163.52" y2="160.05"/><line class="cls-7" x1="163.52" y1="160.05" x2="164.19" y2="160.2"/><line class="cls-7" x1="164.19" y1="160.2" x2="164.91" y2="160.34"/><line class="cls-7" x1="164.91" y1="160.34" x2="165.68" y2="160.48"/><line class="cls-7" x1="165.68" y1="160.48" x2="166.5" y2="160.6"/><line class="cls-7" x1="166.5" y1="160.6" x2="167.37" y2="160.71"/><line class="cls-7" x1="167.37" y1="160.71" x2="168.28" y2="160.8"/><line class="cls-7" x1="168.28" y1="160.8" x2="169.24" y2="160.87"/><line class="cls-7" x1="169.24" y1="160.87" x2="170.24" y2="160.91"/><line class="cls-7" x1="170.24" y1="160.91" x2="171.27" y2="160.93"/><line class="cls-7" x1="171.27" y1="160.93" x2="172.35" y2="160.93"/><line class="cls-7" x1="172.35" y1="160.93" x2="173.46" y2="160.89"/><line class="cls-7" x1="173.46" y1="160.89" x2="174.61" y2="160.83"/><line class="cls-7" x1="174.61" y1="160.83" x2="175.79" y2="160.72"/><line class="cls-7" x1="175.79" y1="160.72" x2="176.99" y2="160.59"/><line class="cls-7" x1="176.99" y1="160.59" x2="178.22" y2="160.41"/><line class="cls-7" x1="178.22" y1="160.41" x2="179.48" y2="160.2"/><line class="cls-7" x1="179.48" y1="160.2" x2="180.76" y2="159.94"/><line class="cls-7" x1="180.76" y1="159.94" x2="182.05" y2="159.65"/><line class="cls-7" x1="182.05" y1="159.65" x2="183.37" y2="159.31"/><line class="cls-7" x1="183.37" y1="159.31" x2="184.69" y2="158.93"/><line class="cls-7" x1="184.69" y1="158.93" x2="186.03" y2="158.5"/><line class="cls-7" x1="186.03" y1="158.5" x2="187.37" y2="158.02"/><line class="cls-8" x1="187.37" y1="158.02" x2="188.72" y2="157.5"/><line class="cls-8" x1="188.72" y1="157.5" x2="190.07" y2="156.93"/><line class="cls-7" x1="190.07" y1="156.93" x2="191.42" y2="156.32"/><line class="cls-7" x1="191.42" y1="156.32" x2="192.77" y2="155.65"/><line class="cls-7" x1="192.77" y1="155.65" x2="194.11" y2="154.94"/><line class="cls-7" x1="194.11" y1="154.94" x2="195.45" y2="154.18"/><line class="cls-7" x1="195.45" y1="154.18" x2="196.77" y2="153.37"/><line class="cls-7" x1="196.77" y1="153.37" x2="198.08" y2="152.52"/><line class="cls-7" x1="198.08" y1="152.52" x2="199.37" y2="151.62"/><line class="cls-7" x1="199.37" y1="151.62" x2="200.65" y2="150.67"/><line class="cls-7" x1="200.65" y1="150.67" x2="201.9" y2="149.67"/><line class="cls-7" x1="201.9" y1="149.67" x2="203.13" y2="148.63"/><line class="cls-7" x1="203.13" y1="148.63" x2="204.33" y2="147.55"/><line class="cls-7" x1="204.33" y1="147.55" x2="205.51" y2="146.42"/><line class="cls-7" x1="205.51" y1="146.42" x2="206.66" y2="145.24"/><line class="cls-7" x1="206.66" y1="145.24" x2="207.77" y2="144.03"/><line class="cls-7" x1="207.77" y1="144.03" x2="208.85" y2="142.77"/><line class="cls-7" x1="208.85" y1="142.77" x2="209.9" y2="141.48"/><line class="cls-7" x1="209.9" y1="141.48" x2="210.9" y2="140.15"/><line class="cls-7" x1="210.9" y1="140.15" x2="211.87" y2="138.78"/><line class="cls-7" x1="211.87" y1="138.78" x2="212.8" y2="137.37"/><line class="cls-7" x1="212.8" y1="137.37" x2="213.68" y2="135.93"/><line class="cls-7" x1="213.68" y1="135.93" x2="214.52" y2="134.46"/><line class="cls-7" x1="214.52" y1="134.46" x2="215.31" y2="132.96"/><line class="cls-7" x1="215.31" y1="132.96" x2="216.05" y2="131.43"/><line class="cls-7" x1="216.05" y1="131.43" x2="216.75" y2="129.87"/><line class="cls-7" x1="216.75" y1="129.87" x2="217.39" y2="128.29"/><line class="cls-7" x1="217.39" y1="128.29" x2="217.99" y2="126.68"/><line class="cls-7" x1="217.99" y1="126.68" x2="218.53" y2="125.05"/><line class="cls-7" x1="218.53" y1="125.05" x2="219.02" y2="123.4"/><line class="cls-7" x1="219.02" y1="123.4" x2="219.45" y2="121.73"/><line class="cls-7" x1="219.45" y1="121.73" x2="219.83" y2="120.05"/><line class="cls-7" x1="219.83" y1="120.05" x2="220.15" y2="118.35"/><line class="cls-7" x1="220.15" y1="118.35" x2="220.41" y2="116.64"/><line class="cls-7" x1="220.41" y1="116.64" x2="220.62" y2="114.92"/><line class="cls-7" x1="220.62" y1="114.92" x2="220.77" y2="113.2"/><line class="cls-7" x1="220.77" y1="113.2" x2="220.87" y2="111.46"/><line class="cls-7" x1="220.87" y1="111.46" x2="220.9" y2="109.73"/><line class="cls-7" x1="220.9" y1="109.73" x2="220.87" y2="107.99"/><line class="cls-7" x1="220.87" y1="107.99" x2="220.79" y2="106.25"/><line class="cls-7" x1="220.79" y1="106.25" x2="220.65" y2="104.51"/><line class="cls-7" x1="220.65" y1="104.51" x2="220.45" y2="102.78"/><line class="cls-7" x1="220.45" y1="102.78" x2="220.18" y2="101.06"/><line class="cls-7" x1="220.18" y1="101.06" x2="219.86" y2="99.34"/><line class="cls-7" x1="219.86" y1="99.34" x2="219.49" y2="97.64"/><line class="cls-7" x1="219.49" y1="97.64" x2="219.05" y2="95.95"/><line class="cls-7" x1="219.05" y1="95.95" x2="218.56" y2="94.27"/><line class="cls-7" x1="218.56" y1="94.27" x2="218" y2="92.62"/><line class="cls-7" x1="218" y1="92.62" x2="217.4" y2="90.98"/><line class="cls-7" x1="217.4" y1="90.98" x2="216.73" y2="89.36"/><line class="cls-7" x1="216.73" y1="89.36" x2="216.01" y2="87.77"/><line class="cls-7" x1="216.01" y1="87.77" x2="215.23" y2="86.2"/><line class="cls-7" x1="215.23" y1="86.2" x2="214.41" y2="84.66"/><line class="cls-7" x1="214.41" y1="84.66" x2="213.52" y2="83.15"/><line class="cls-7" x1="213.52" y1="83.15" x2="212.59" y2="81.68"/><line class="cls-7" x1="212.59" y1="81.68" x2="211.61" y2="80.23"/><line class="cls-7" x1="211.61" y1="80.23" x2="210.57" y2="78.82"/><line class="cls-7" x1="210.57" y1="78.82" x2="209.49" y2="77.45"/><line class="cls-7" x1="209.49" y1="77.45" x2="208.36" y2="76.11"/><line class="cls-7" x1="208.36" y1="76.11" x2="207.18" y2="74.82"/><line class="cls-7" x1="207.18" y1="74.82" x2="205.96" y2="73.57"/><line class="cls-7" x1="205.96" y1="73.57" x2="204.69" y2="72.36"/><line class="cls-7" x1="204.69" y1="72.36" x2="203.39" y2="71.2"/><line class="cls-7" x1="203.39" y1="71.2" x2="202.04" y2="70.08"/><line class="cls-7" x1="202.04" y1="70.08" x2="200.66" y2="69.01"/><line class="cls-7" x1="200.66" y1="69.01" x2="199.24" y2="67.99"/><line class="cls-7" x1="199.24" y1="67.99" x2="197.78" y2="67.03"/><line class="cls-7" x1="197.78" y1="67.03" x2="196.29" y2="66.11"/><line class="cls-7" x1="196.29" y1="66.11" x2="194.77" y2="65.25"/><line class="cls-7" x1="194.77" y1="65.25" x2="193.22" y2="64.44"/><line class="cls-7" x1="193.22" y1="64.44" x2="191.64" y2="63.69"/><line class="cls-7" x1="191.64" y1="63.69" x2="190.04" y2="63"/><line class="cls-7" x1="190.04" y1="63" x2="188.41" y2="62.36"/><line class="cls-7" x1="188.41" y1="62.36" x2="186.76" y2="61.79"/><line class="cls-7" x1="186.76" y1="61.79" x2="185.09" y2="61.27"/><line class="cls-7" x1="185.09" y1="61.27" x2="183.41" y2="60.81"/><line class="cls-7" x1="183.41" y1="60.81" x2="181.71" y2="60.41"/><line class="cls-7" x1="181.71" y1="60.41" x2="179.99" y2="60.07"/><line class="cls-7" x1="179.99" y1="60.07" x2="178.27" y2="59.8"/><line class="cls-7" x1="178.27" y1="59.8" x2="176.53" y2="59.58"/><line class="cls-7" x1="176.53" y1="59.58" x2="174.79" y2="59.43"/><line class="cls-7" x1="174.79" y1="59.43" x2="173.05" y2="59.34"/><line class="cls-7" x1="173.05" y1="59.34" x2="171.3" y2="59.32"/><line class="cls-7" x1="166.74" y1="178.25" x2="166.65" y2="177.12"/><line class="cls-7" x1="169.55" y1="59.35" x2="167.81" y2="59.45"/><line class="cls-7" x1="167.81" y1="59.45" x2="166.06" y2="59.62"/><line class="cls-7" x1="166.06" y1="59.62" x2="164.33" y2="59.84"/><line class="cls-7" x1="164.33" y1="59.84" x2="162.6" y2="60.13"/><line class="cls-7" x1="162.6" y1="60.13" x2="160.89" y2="60.47"/><line class="cls-7" x1="160.89" y1="60.47" x2="159.19" y2="60.88"/><line class="cls-7" x1="159.19" y1="60.88" x2="157.5" y2="61.35"/><line class="cls-7" x1="157.5" y1="61.35" x2="155.83" y2="61.88"/><line class="cls-7" x1="155.83" y1="61.88" x2="154.18" y2="62.47"/><line class="cls-7" x1="154.18" y1="62.47" x2="152.55" y2="63.11"/><line class="cls-7" x1="152.55" y1="63.11" x2="150.95" y2="63.82"/><line class="cls-7" x1="150.95" y1="63.82" x2="149.37" y2="64.57"/><line class="cls-7" x1="149.37" y1="64.57" x2="147.82" y2="65.39"/><line class="cls-7" x1="147.82" y1="65.39" x2="146.3" y2="66.26"/><line class="cls-7" x1="146.3" y1="66.26" x2="144.81" y2="67.18"/><line class="cls-7" x1="144.81" y1="67.18" x2="143.35" y2="68.15"/><line class="cls-7" x1="143.35" y1="68.15" x2="141.93" y2="69.17"/><line class="cls-7" x1="141.93" y1="69.17" x2="140.54" y2="70.24"/><line class="cls-7" x1="140.54" y1="70.24" x2="139.19" y2="71.36"/><line class="cls-7" x1="139.19" y1="71.36" x2="137.88" y2="72.53"/><line class="cls-7" x1="137.88" y1="72.53" x2="136.61" y2="73.73"/><line class="cls-7" x1="136.61" y1="73.73" x2="135.39" y2="74.98"/><line class="cls-7" x1="135.39" y1="74.98" x2="134.21" y2="76.27"/><line class="cls-7" x1="134.21" y1="76.27" x2="133.07" y2="77.59"/><line class="cls-7" x1="133.07" y1="77.59" x2="131.98" y2="78.95"/><line class="cls-7" x1="131.98" y1="78.95" x2="130.93" y2="80.35"/><line class="cls-7" x1="130.93" y1="80.35" x2="129.94" y2="81.78"/><line class="cls-7" x1="129.94" y1="81.78" x2="128.99" y2="83.23"/><line class="cls-7" x1="128.99" y1="83.23" x2="128.09" y2="84.72"/><line class="cls-7" x1="128.09" y1="84.72" x2="127.25" y2="86.22"/><line class="cls-7" x1="127.25" y1="86.22" x2="126.45" y2="87.76"/><line class="cls-7" x1="126.45" y1="87.76" x2="125.7" y2="89.31"/><line class="cls-7" x1="125.7" y1="89.31" x2="125.01" y2="90.88"/><line class="cls-7" x1="125.01" y1="90.88" x2="124.36" y2="92.47"/><line class="cls-7" x1="124.36" y1="92.47" x2="123.77" y2="94.07"/><line class="cls-7" x1="123.77" y1="94.07" x2="123.23" y2="95.68"/><line class="cls-7" x1="123.23" y1="95.68" x2="122.74" y2="97.3"/><line class="cls-7" x1="122.74" y1="97.3" x2="122.3" y2="98.92"/><line class="cls-7" x1="122.3" y1="98.92" x2="121.92" y2="100.55"/><line class="cls-7" x1="121.92" y1="100.55" x2="121.58" y2="102.19"/><line class="cls-7" x1="121.58" y1="102.19" x2="121.29" y2="103.82"/><line class="cls-7" x1="121.29" y1="103.82" x2="121.05" y2="105.44"/><line class="cls-7" x1="121.05" y1="105.44" x2="120.86" y2="107.07"/><line class="cls-7" x1="120.86" y1="107.07" x2="120.71" y2="108.68"/><line class="cls-7" x1="120.71" y1="108.68" x2="120.61" y2="110.29"/><line class="cls-7" x1="120.61" y1="110.29" x2="120.56" y2="111.88"/><line class="cls-7" x1="120.56" y1="111.88" x2="120.54" y2="113.46"/><line class="cls-7" x1="120.54" y1="113.46" x2="120.57" y2="115.02"/><line class="cls-7" x1="120.57" y1="115.02" x2="120.64" y2="116.56"/><line class="cls-7" x1="120.64" y1="116.56" x2="120.74" y2="118.08"/><line class="cls-7" x1="120.74" y1="118.08" x2="120.89" y2="119.59"/><line class="cls-7" x1="120.89" y1="119.59" x2="121.06" y2="121.06"/><line class="cls-7" x1="121.06" y1="121.06" x2="121.27" y2="122.51"/><line class="cls-7" x1="121.27" y1="122.51" x2="121.51" y2="123.94"/><line class="cls-7" x1="121.51" y1="123.94" x2="121.78" y2="125.34"/><line class="cls-7" x1="121.78" y1="125.34" x2="122.07" y2="126.7"/><line class="cls-7" x1="122.07" y1="126.7" x2="122.39" y2="128.04"/><line class="cls-7" x1="122.39" y1="128.04" x2="122.72" y2="129.34"/><line class="cls-7" x1="122.72" y1="129.34" x2="123.08" y2="130.61"/><line class="cls-7" x1="123.08" y1="130.61" x2="123.45" y2="131.84"/><line class="cls-7" x1="123.45" y1="131.84" x2="123.84" y2="133.04"/><line class="cls-7" x1="123.84" y1="133.04" x2="124.24" y2="134.21"/><line class="cls-7" x1="124.24" y1="134.21" x2="124.64" y2="135.34"/><line class="cls-7" x1="124.64" y1="135.34" x2="125.06" y2="136.43"/><line class="cls-7" x1="125.06" y1="136.43" x2="125.47" y2="137.49"/><line class="cls-7" x1="125.47" y1="137.49" x2="125.89" y2="138.51"/><line class="cls-7" x1="125.89" y1="138.51" x2="126.31" y2="139.49"/><line class="cls-7" x1="126.31" y1="139.49" x2="126.72" y2="140.44"/><line class="cls-7" x1="126.72" y1="140.44" x2="127.13" y2="141.35"/><line class="cls-7" x1="127.13" y1="141.35" x2="127.53" y2="142.23"/><line class="cls-7" x1="127.53" y1="142.23" x2="127.92" y2="143.07"/><line class="cls-7" x1="127.92" y1="143.07" x2="128.29" y2="143.88"/><line class="cls-7" x1="128.29" y1="143.88" x2="128.65" y2="144.66"/><line class="cls-7" x1="128.65" y1="144.66" x2="129" y2="145.4"/><line class="cls-7" x1="129" y1="145.4" x2="129.33" y2="146.12"/><polygon class="cls-9" points="183.71 53.85 185.09 61.27 190.2 55.71 183.71 53.85"/><line class="cls-10" x1="190.2" y1="55.71" x2="185.09" y2="61.27"/><line class="cls-10" x1="185.09" y1="61.27" x2="183.71" y2="53.85"/><line class="cls-11" x1="183.71" y1="53.85" x2="190.2" y2="55.71"/><text class="cls-12" transform="translate(184.85 51.25) rotate(16)">1</text><text class="cls-13" transform="matrix(0.97, 0.26, -0.26, 0.97, 152.25, 161.14)">-9</text><text class="cls-13" transform="matrix(0.97, 0.26, -0.26, 0.97, 159.53, 133.97)">-8</text><text class="cls-13" transform="matrix(0.97, 0.26, -0.26, 0.97, 166.81, 106.81)">-7</text><text class="cls-13" transform="matrix(0.97, 0.26, -0.26, 0.97, 174.09, 79.64)">-6</text><text class="cls-13" transform="matrix(0.97, 0.26, -0.26, 0.97, 180.5, 55.73)">-5</text><path class="cls-1" d="M0,0V315H315V0ZM44.44,157.5l.07-3.95.2-3.94.35-3.93.48-3.92.62-3.89.75-3.88.89-3.84,1-3.81L50,122.56l1.29-3.73,1.41-3.68,1.54-3.64,1.67-3.57,1.79-3.52L59.58,101l2-3.38,2.15-3.31L66,91l2.38-3.15,2.48-3.07,2.59-3L76.17,79,79,76.17l2.89-2.69,3-2.59,3.07-2.48L91,66l3.24-2.26,3.31-2.15,3.38-2,3.45-1.92,3.52-1.79,3.57-1.67,3.64-1.54,3.68-1.41L122.56,50l3.78-1.15,3.81-1,3.84-.89,3.88-.75,3.89-.62,3.92-.48,3.93-.35,3.94-.2,3.95-.07,3.95.07,3.94.2,3.93.35,3.92.48,3.89.62,3.88.75,3.84.89,3.81,1L192.44,50l3.73,1.29,3.68,1.41,3.64,1.54,3.57,1.67,3.52,1.79L214,59.59l3.38,2,3.31,2.15L224,66l3.15,2.38,3.07,2.48,3,2.59L236,76.17,238.83,79l2.69,2.89,2.59,3,2.48,3.07L249,91l2.26,3.24,2.15,3.31,2,3.38,1.91,3.45,1.79,3.52,1.67,3.57,1.54,3.64,1.41,3.68,1.29,3.73,1.15,3.78,1,3.81.89,3.84.75,3.88.62,3.89.48,3.92.35,3.93.2,3.94.07,3.95-.07,3.95-.2,3.94-.35,3.93-.48,3.92-.62,3.89-.75,3.88-.89,3.84-1,3.81L265,192.44l-1.29,3.73-1.41,3.68-1.54,3.64-1.67,3.57-1.79,3.52L255.42,214l-2,3.38-2.15,3.31L249,224l-2.38,3.15-2.48,3.07-2.59,3L238.83,236,236,238.83l-2.89,2.69-3,2.59-3.07,2.48L224,249l-3.24,2.26-3.31,2.15-3.38,2-3.45,1.91-3.52,1.79-3.57,1.67-3.64,1.54-3.68,1.41L192.44,265l-3.78,1.15-3.81,1-3.84.89-3.88.75-3.89.62-3.92.48-3.93.35-3.94.2-3.95.07-3.95-.07-3.94-.2-3.93-.35-3.92-.48-3.89-.62-3.88-.75-3.84-.89-3.81-1L122.56,265l-3.73-1.29-3.68-1.41-3.64-1.54-3.57-1.67-3.52-1.79L101,255.42l-3.38-2-3.31-2.15L91,249l-3.15-2.38-3.07-2.48-3-2.59L79,238.83,76.17,236l-2.69-2.89-2.59-3-2.48-3.07L66,224l-2.26-3.24-2.15-3.31-2-3.38-1.91-3.45-1.79-3.52-1.67-3.57-1.54-3.64-1.41-3.68L50,192.44l-1.15-3.78-1-3.81L46.91,181l-.75-3.88-.62-3.89-.48-3.92-.35-3.93-.2-3.94Z" transform="translate(0 0)"/><text class="cls-14" transform="translate(253.58 222.08)">330</text><text class="cls-14" transform="translate(275.4 161.62)">0</text><text class="cls-14" transform="translate(256.58 101.17)">30</text><text class="cls-14" transform="translate(212.33 56.92)">60</text><text class="cls-14" transform="translate(151.88 40.73)">90</text><text class="cls-14" transform="translate(88.42 56.92)">120</text><text class="cls-14" transform="translate(44.17 101.17)">150</text><text class="cls-14" transform="translate(27.98 161.62)">180</text><text class="cls-14" transform="translate(44.17 222.08)">210</text><text class="cls-14" transform="translate(88.42 266.33)">240</text><text class="cls-14" transform="translate(148.88 282.53)">270</text><text class="cls-14" transform="translate(209.33 266.33)">300</text><text class="cls-15" transform="translate(130.88 28.5)">Gain (dBi)</text><rect class="cls-1" x="244.5" y="8.25" width="62.25" height="15"/><text class="cls-13" transform="translate(279.75 19.5)">az=0</text><line class="cls-8" x1="247.5" y1="15.75" x2="277.5" y2="15.75"/><rect class="cls-16" x="244.5" y="8.25" width="62.25" height="15"/></svg>