<?xml version="1.0" encoding="UTF-8" standalone="no"?>
<svg
   id="Livello_1"
   data-name="Livello 1"
   viewBox="0 0 420 315"
   version="1.1"
   sodipodi:docname="gamma_pre_wfeed_tex.svg"
   inkscape:version="1.1.1 (3bf5ae0d25, 2021-09-20)"
   xmlns:inkscape="http://www.inkscape.org/namespaces/inkscape"
   xmlns:sodipodi="http://sodipodi.sourceforge.net/DTD/sodipodi-0.dtd"
   xmlns="http://www.w3.org/2000/svg"
   xmlns:svg="http://www.w3.org/2000/svg">
  <sodipodi:namedview
     id="namedview156"
     pagecolor="#ffffff"
     bordercolor="#666666"
     borderopacity="1.0"
     inkscape:pageshadow="2"
     inkscape:pageopacity="0.0"
     inkscape:pagecheckerboard="0"
     showgrid="false"
     inkscape:zoom="2.7714286"
     inkscape:cx="210"
     inkscape:cy="157.5"
     inkscape:window-width="3440"
     inkscape:window-height="1369"
     inkscape:window-x="-8"
     inkscape:window-y="-8"
     inkscape:window-maximized="1"
     inkscape:current-layer="Livello_1" />
  <defs
     id="defs7">
    <style
       id="style2">.cls-1,.cls-11,.cls-4,.cls-5,.cls-8{fill:none;}.cls-2{clip-path:url(#clip-path);}.cls-3{fill:#fff;}.cls-11,.cls-4,.cls-5{stroke:#262626;}.cls-4,.cls-5,.cls-8{stroke-linejoin:round;}.cls-11,.cls-4,.cls-5,.cls-8{stroke-width:0.5px;}.cls-4{opacity:0.15;}.cls-5{stroke-linecap:square;}.cls-6{font-size:10px;}.cls-6,.cls-7{fill:#262626;}.cls-10,.cls-6,.cls-7,.cls-9{font-family:ArialMT, Arial;}.cls-7{font-size:11px;}.cls-8{stroke:#0072bd;}.cls-9{font-size:9px;}.cls-10{font-size:7.2px;}.cls-11{stroke-miterlimit:10;}</style>
    <clipPath
       id="clip-path"
       transform="translate(-96 -238.5)">
      <rect
         class="cls-1"
         x="96"
         y="238.5"
         width="420"
         height="315"
         id="rect4" />
    </clipPath>
  </defs>
  <g
     class="cls-2"
     clip-path="url(#clip-path)"
     id="g11">
    <rect
       class="cls-3"
       width="420"
       height="315"
       id="rect9" />
  </g>
  <rect
     class="cls-3"
     width="420"
     height="315"
     id="rect13" />
  <rect
     class="cls-3"
     x="54.75"
     y="23.25"
     width="325.5"
     height="257.25"
     id="rect15" />
  <line
     class="cls-4"
     x1="54.75"
     y1="280.5"
     x2="54.75"
     y2="23.25"
     id="line17" />
  <line
     class="cls-4"
     x1="119.85"
     y1="280.5"
     x2="119.85"
     y2="23.25"
     id="line19" />
  <line
     class="cls-4"
     x1="184.95"
     y1="280.5"
     x2="184.95"
     y2="23.25"
     id="line21" />
  <line
     class="cls-4"
     x1="250.05"
     y1="280.5"
     x2="250.05"
     y2="23.25"
     id="line23" />
  <line
     class="cls-4"
     x1="315.15"
     y1="280.5"
     x2="315.15"
     y2="23.25"
     id="line25" />
  <line
     class="cls-4"
     x1="380.25"
     y1="280.5"
     x2="380.25"
     y2="23.25"
     id="line27" />
  <line
     class="cls-4"
     x1="380.25"
     y1="280.5"
     x2="54.75"
     y2="280.5"
     id="line29" />
  <line
     class="cls-4"
     x1="380.25"
     y1="243.75"
     x2="54.75"
     y2="243.75"
     id="line31" />
  <line
     class="cls-4"
     x1="380.25"
     y1="207"
     x2="54.75"
     y2="207"
     id="line33" />
  <line
     class="cls-4"
     x1="380.25"
     y1="170.25"
     x2="54.75"
     y2="170.25"
     id="line35" />
  <line
     class="cls-4"
     x1="380.25"
     y1="133.5"
     x2="54.75"
     y2="133.5"
     id="line37" />
  <line
     class="cls-4"
     x1="380.25"
     y1="96.75"
     x2="54.75"
     y2="96.75"
     id="line39" />
  <line
     class="cls-4"
     x1="380.25"
     y1="60"
     x2="54.75"
     y2="60"
     id="line41" />
  <line
     class="cls-4"
     x1="380.25"
     y1="23.25"
     x2="54.75"
     y2="23.25"
     id="line43" />
  <line
     class="cls-5"
     x1="54.75"
     y1="280.5"
     x2="380.25"
     y2="280.5"
     id="line45" />
  <line
     class="cls-5"
     x1="54.75"
     y1="23.25"
     x2="380.25"
     y2="23.25"
     id="line47" />
  <line
     class="cls-5"
     x1="54.75"
     y1="280.5"
     x2="54.75"
     y2="277.25"
     id="line49" />
  <line
     class="cls-5"
     x1="119.85"
     y1="280.5"
     x2="119.85"
     y2="277.25"
     id="line51" />
  <line
     class="cls-5"
     x1="184.95"
     y1="280.5"
     x2="184.95"
     y2="277.25"
     id="line53" />
  <line
     class="cls-5"
     x1="250.05"
     y1="280.5"
     x2="250.05"
     y2="277.25"
     id="line55" />
  <line
     class="cls-5"
     x1="315.15"
     y1="280.5"
     x2="315.15"
     y2="277.25"
     id="line57" />
  <line
     class="cls-5"
     x1="380.25"
     y1="280.5"
     x2="380.25"
     y2="277.25"
     id="line59" />
  <line
     class="cls-5"
     x1="54.75"
     y1="23.25"
     x2="54.75"
     y2="26.51"
     id="line61" />
  <line
     class="cls-5"
     x1="119.85"
     y1="23.25"
     x2="119.85"
     y2="26.51"
     id="line63" />
  <line
     class="cls-5"
     x1="184.95"
     y1="23.25"
     x2="184.95"
     y2="26.51"
     id="line65" />
  <line
     class="cls-5"
     x1="250.05"
     y1="23.25"
     x2="250.05"
     y2="26.51"
     id="line67" />
  <line
     class="cls-5"
     x1="315.15"
     y1="23.25"
     x2="315.15"
     y2="26.51"
     id="line69" />
  <line
     class="cls-5"
     x1="380.25"
     y1="23.25"
     x2="380.25"
     y2="26.51"
     id="line71" />
  <text
     class="cls-6"
     transform="translate(51.75 295)"
     id="text73">2</text>
  <text
     class="cls-6"
     transform="translate(110.1 295)"
     id="text75">2.05</text>
  <text
     class="cls-6"
     transform="translate(177.83 295)"
     id="text77">2.1</text>
  <text
     class="cls-6"
     transform="translate(240.3 295)"
     id="text79">2.15</text>
  <text
     class="cls-6"
     transform="translate(308.03 295)"
     id="text81">2.2</text>
  <text
     class="cls-6"
     transform="translate(370.5 295)"
     id="text83">2.25</text>
  <text
     class="cls-7"
     transform="translate(175.13 309.5)"
     id="text85">Frequency (GHz)</text>
  <line
     class="cls-5"
     x1="54.75"
     y1="280.5"
     x2="54.75"
     y2="23.25"
     id="line87" />
  <line
     class="cls-5"
     x1="380.25"
     y1="280.5"
     x2="380.25"
     y2="23.25"
     id="line89" />
  <line
     class="cls-5"
     x1="54.75"
     y1="280.5"
     x2="58.01"
     y2="280.5"
     id="line91" />
  <line
     class="cls-5"
     x1="54.75"
     y1="243.75"
     x2="58.01"
     y2="243.75"
     id="line93" />
  <line
     class="cls-5"
     x1="54.75"
     y1="207"
     x2="58.01"
     y2="207"
     id="line95" />
  <line
     class="cls-5"
     x1="54.75"
     y1="170.25"
     x2="58.01"
     y2="170.25"
     id="line97" />
  <line
     class="cls-5"
     x1="54.75"
     y1="133.5"
     x2="58.01"
     y2="133.5"
     id="line99" />
  <line
     class="cls-5"
     x1="54.75"
     y1="96.75"
     x2="58.01"
     y2="96.75"
     id="line101" />
  <line
     class="cls-5"
     x1="54.75"
     y1="60"
     x2="58.01"
     y2="60"
     id="line103" />
  <line
     class="cls-5"
     x1="54.75"
     y1="23.25"
     x2="58.01"
     y2="23.25"
     id="line105" />
  <line
     class="cls-5"
     x1="380.25"
     y1="280.5"
     x2="376.99"
     y2="280.5"
     id="line107" />
  <line
     class="cls-5"
     x1="380.25"
     y1="243.75"
     x2="376.99"
     y2="243.75"
     id="line109" />
  <line
     class="cls-5"
     x1="380.25"
     y1="207"
     x2="376.99"
     y2="207"
     id="line111" />
  <line
     class="cls-5"
     x1="380.25"
     y1="170.25"
     x2="376.99"
     y2="170.25"
     id="line113" />
  <line
     class="cls-5"
     x1="380.25"
     y1="133.5"
     x2="376.99"
     y2="133.5"
     id="line115" />
  <line
     class="cls-5"
     x1="380.25"
     y1="96.75"
     x2="376.99"
     y2="96.75"
     id="line117" />
  <line
     class="cls-5"
     x1="380.25"
     y1="60"
     x2="376.99"
     y2="60"
     id="line119" />
  <line
     class="cls-5"
     x1="380.25"
     y1="23.25"
     x2="376.99"
     y2="23.25"
     id="line121" />
  <text
     class="cls-6"
     transform="translate(35.75 284.63)"
     id="text123">-35</text>
  <text
     class="cls-6"
     transform="translate(35.75 247.88)"
     id="text125">-30</text>
  <text
     class="cls-6"
     transform="translate(35.75 211.13)"
     id="text127">-25</text>
  <text
     class="cls-6"
     transform="translate(35.75 174.38)"
     id="text129">-20</text>
  <text
     class="cls-6"
     transform="translate(35.75 137.63)"
     id="text131">-15</text>
  <text
     class="cls-6"
     transform="translate(35.75 100.88)"
     id="text133">-10</text>
  <text
     class="cls-6"
     transform="translate(41.75 64.13)"
     id="text135">-5</text>
  <text
     class="cls-6"
     transform="translate(44.75 27.38)"
     id="text137">0</text>
  <text
     class="cls-7"
     transform="translate(29.75 189.75) rotate(-90)"
     id="text139">Magnitude (dB)</text>
  <polyline
     class="cls-8"
     points="54.75 35.88 58.01 36.43 61.26 37.02 64.52 37.64 67.77 38.3 71.03 39.01 74.28 39.76 77.53 40.56 80.79 41.41 84.05 42.33 87.3 43.31 90.56 44.35 93.81 45.48 97.06 46.68 100.32 47.98 103.58 49.37 106.83 50.88 110.08 52.5 113.34 54.25 116.59 56.15 119.85 58.2 123.11 60.43 126.36 62.86 129.62 65.51 132.87 68.4 136.13 71.57 139.38 75.05 142.63 78.89 145.89 83.14 149.15 87.86 152.4 93.15 155.66 99.1 158.91 105.86 162.16 113.63 165.42 122.69 168.68 133.47 171.93 146.65 175.19 163.46 178.44 186.34 181.69 221.26 184.95 276.08 188.21 241.59 191.46 198.56 194.72 172.04 197.97 153.34 201.22 139.02 204.48 127.5 207.74 117.92 210.99 109.78 214.25 102.74 217.5 96.58 220.75 91.13 224.01 86.28 227.26 81.92 230.52 77.99 233.78 74.44 237.03 71.21 240.28 68.26 243.54 65.56 246.79 63.09 250.05 60.82 253.31 58.72 256.56 56.79 259.81 55 263.07 53.35 266.32 51.81 269.58 50.39 272.83 49.06 276.09 47.82 279.35 46.67 282.6 45.59 285.86 44.59 289.11 43.64 292.37 42.76 295.62 41.93 298.88 41.15 302.13 40.42 305.38 39.73 308.64 39.08 311.89 38.47 315.15 37.89"
     id="polyline141"
     style="stroke-width:1;stroke-miterlimit:4;stroke-dasharray:none;stroke:#fe5a00;stroke-opacity:1" />
  <rect
     class="cls-3"
     x="263.64175"
     y="71.551544"
     width="69.75"
     height="19.5"
     id="rect143" />
  <text
     class="cls-9"
     id="text145"
     x="298.89175"
     y="82.801544">$S_{11}$ (dB)</text>
  <line
     class="cls-8"
     x1="266.64175"
     y1="81.301544"
     x2="296.64175"
     y2="81.301544"
     id="line151"
     style="stroke-width:1;stroke-miterlimit:4;stroke-dasharray:none;stroke:#fe5a00;stroke-opacity:1" />
  <rect
     class="cls-11"
     x="263.67291"
     y="71.582703"
     width="87.007271"
     height="19.437681"
     id="rect153"
     style="stroke-width:0.60379696;stroke-miterlimit:10;stroke-dasharray:0.60379696,1.20759392;stroke-dashoffset:0" />
</svg>
