<?xml version="1.0" encoding="UTF-8" standalone="no"?>
<svg
   id="Livello_1"
   data-name="Livello 1"
   viewBox="0 0 1154.4 594"
   version="1.1"
   sodipodi:docname="gamma_wfeed_tex.svg"
   inkscape:version="1.1.1 (3bf5ae0d25, 2021-09-20)"
   xmlns:inkscape="http://www.inkscape.org/namespaces/inkscape"
   xmlns:sodipodi="http://sodipodi.sourceforge.net/DTD/sodipodi-0.dtd"
   xmlns="http://www.w3.org/2000/svg"
   xmlns:svg="http://www.w3.org/2000/svg">
  <sodipodi:namedview
     id="namedview141"
     pagecolor="#ffffff"
     bordercolor="#666666"
     borderopacity="1.0"
     inkscape:pageshadow="2"
     inkscape:pageopacity="0.0"
     inkscape:pagecheckerboard="0"
     showgrid="false"
     inkscape:zoom="0.83972969"
     inkscape:cx="363.21212"
     inkscape:cy="375.12071"
     inkscape:window-width="1718"
     inkscape:window-height="1360"
     inkscape:window-x="-7"
     inkscape:window-y="0"
     inkscape:window-maximized="0"
     inkscape:current-layer="Livello_1" />
  <defs
     id="defs4">
    <style
       id="style2">.cls-1{fill:#fff;}.cls-10,.cls-2,.cls-3,.cls-7{fill:none;stroke-width:0.5px;}.cls-10,.cls-2,.cls-3{stroke:#262626;}.cls-2,.cls-3,.cls-7{stroke-linejoin:round;}.cls-2{opacity:0.15;}.cls-3{stroke-linecap:square;}.cls-4{font-size:10px;}.cls-4,.cls-5,.cls-6{fill:#262626;}.cls-4,.cls-5,.cls-6,.cls-8,.cls-9{font-family:ArialMT, Arial;}.cls-5{font-size:11px;}.cls-6{font-size:11px;}.cls-7{stroke:#0072bd;}.cls-8{font-size:9px;}.cls-9{font-size:7.2px;}.cls-10{stroke-miterlimit:10;}</style>
  </defs>
  <line
     class="cls-2"
     x1="150"
     y1="528.6"
     x2="150"
     y2="44.4"
     id="line10" />
  <line
     class="cls-2"
     x1="328.92"
     y1="528.6"
     x2="328.92"
     y2="44.4"
     id="line12" />
  <line
     class="cls-2"
     x1="507.84"
     y1="528.6"
     x2="507.84"
     y2="44.4"
     id="line14" />
  <line
     class="cls-2"
     x1="686.76"
     y1="528.6"
     x2="686.76"
     y2="44.4"
     id="line16" />
  <line
     class="cls-2"
     x1="865.68"
     y1="528.6"
     x2="865.68"
     y2="44.4"
     id="line18" />
  <line
     class="cls-2"
     x1="1044.6"
     y1="528.6"
     x2="1044.6"
     y2="44.4"
     id="line20" />
  <line
     class="cls-2"
     x1="1044.6"
     y1="528.6"
     x2="150"
     y2="528.6"
     id="line22" />
  <line
     class="cls-2"
     x1="1044.6"
     y1="447.9"
     x2="150"
     y2="447.9"
     id="line24" />
  <line
     class="cls-2"
     x1="1044.6"
     y1="367.2"
     x2="150"
     y2="367.2"
     id="line26" />
  <line
     class="cls-2"
     x1="1044.6"
     y1="286.5"
     x2="150"
     y2="286.5"
     id="line28" />
  <line
     class="cls-2"
     x1="1044.6"
     y1="205.8"
     x2="150"
     y2="205.8"
     id="line30" />
  <line
     class="cls-2"
     x1="1044.6"
     y1="125.1"
     x2="150"
     y2="125.1"
     id="line32" />
  <line
     class="cls-2"
     x1="1044.6"
     y1="44.4"
     x2="150"
     y2="44.4"
     id="line34" />
  <line
     class="cls-3"
     x1="150"
     y1="528.6"
     x2="1044.6"
     y2="528.6"
     id="line36" />
  <line
     class="cls-3"
     x1="150"
     y1="44.4"
     x2="1044.6"
     y2="44.4"
     id="line38" />
  <line
     class="cls-3"
     x1="150"
     y1="528.6"
     x2="150"
     y2="519.65"
     id="line40" />
  <line
     class="cls-3"
     x1="328.92"
     y1="528.6"
     x2="328.92"
     y2="519.65"
     id="line42" />
  <line
     class="cls-3"
     x1="507.84"
     y1="528.6"
     x2="507.84"
     y2="519.65"
     id="line44" />
  <line
     class="cls-3"
     x1="686.76"
     y1="528.6"
     x2="686.76"
     y2="519.65"
     id="line46" />
  <line
     class="cls-3"
     x1="865.68"
     y1="528.6"
     x2="865.68"
     y2="519.65"
     id="line48" />
  <line
     class="cls-3"
     x1="1044.6"
     y1="528.6"
     x2="1044.6"
     y2="519.65"
     id="line50" />
  <line
     class="cls-3"
     x1="150"
     y1="44.4"
     x2="150"
     y2="53.35"
     id="line52" />
  <line
     class="cls-3"
     x1="328.92"
     y1="44.4"
     x2="328.92"
     y2="53.35"
     id="line54" />
  <line
     class="cls-3"
     x1="507.84"
     y1="44.4"
     x2="507.84"
     y2="53.35"
     id="line56" />
  <line
     class="cls-3"
     x1="686.76"
     y1="44.4"
     x2="686.76"
     y2="53.35"
     id="line58" />
  <line
     class="cls-3"
     x1="865.68"
     y1="44.4"
     x2="865.68"
     y2="53.35"
     id="line60" />
  <line
     class="cls-3"
     x1="1044.6"
     y1="44.4"
     x2="1044.6"
     y2="53.35"
     id="line62" />
  <text
     class="cls-4"
     id="text64"
     x="149.38171"
     y="552.3269">2</text>
  <text
     class="cls-4"
     id="text66"
     x="321.40173"
     y="552.3269">2.05</text>
  <text
     class="cls-4"
     id="text68"
     x="503.02173"
     y="552.3269">2.1</text>
  <text
     class="cls-4"
     id="text70"
     x="679.2417"
     y="552.3269">2.15</text>
  <text
     class="cls-4"
     id="text72"
     x="860.86169"
     y="552.3269">2.2</text>
  <text
     class="cls-4"
     id="text74"
     x="1037.0817"
     y="552.3269">2.25</text>
  <text
     class="cls-5"
     id="text76"
     x="512.12909"
     y="583.79895"
     inkscape:transform-center-x="-40.48922"
     inkscape:transform-center-y="-1.1908594">Frequency (GHz)</text>
  <line
     class="cls-3"
     x1="150"
     y1="528.6"
     x2="150"
     y2="44.4"
     id="line78" />
  <line
     class="cls-3"
     x1="1044.6"
     y1="528.6"
     x2="1044.6"
     y2="44.4"
     id="line80" />
  <line
     class="cls-3"
     x1="150"
     y1="528.6"
     x2="158.95"
     y2="528.6"
     id="line82" />
  <line
     class="cls-3"
     x1="150"
     y1="447.9"
     x2="158.95"
     y2="447.9"
     id="line84" />
  <line
     class="cls-3"
     x1="150"
     y1="367.2"
     x2="158.95"
     y2="367.2"
     id="line86" />
  <line
     class="cls-3"
     x1="150"
     y1="286.5"
     x2="158.95"
     y2="286.5"
     id="line88" />
  <line
     class="cls-3"
     x1="150"
     y1="205.8"
     x2="158.95"
     y2="205.8"
     id="line90" />
  <line
     class="cls-3"
     x1="150"
     y1="125.1"
     x2="158.95"
     y2="125.1"
     id="line92" />
  <line
     class="cls-3"
     x1="150"
     y1="44.4"
     x2="158.95"
     y2="44.4"
     id="line94" />
  <line
     class="cls-3"
     x1="1044.6"
     y1="528.6"
     x2="1035.65"
     y2="528.6"
     id="line96" />
  <line
     class="cls-3"
     x1="1044.6"
     y1="447.9"
     x2="1035.65"
     y2="447.9"
     id="line98" />
  <line
     class="cls-3"
     x1="1044.6"
     y1="367.2"
     x2="1035.65"
     y2="367.2"
     id="line100" />
  <line
     class="cls-3"
     x1="1044.6"
     y1="286.5"
     x2="1035.65"
     y2="286.5"
     id="line102" />
  <line
     class="cls-3"
     x1="1044.6"
     y1="205.8"
     x2="1035.65"
     y2="205.8"
     id="line104" />
  <line
     class="cls-3"
     x1="1044.6"
     y1="125.1"
     x2="1035.65"
     y2="125.1"
     id="line106" />
  <line
     class="cls-3"
     x1="1044.6"
     y1="44.4"
     x2="1035.65"
     y2="44.4"
     id="line108" />
  <text
     class="cls-4"
     id="text110"
     x="91.701637"
     y="531.30914">-60</text>
  <text
     class="cls-4"
     id="text112"
     x="91.701637"
     y="450.60913">-50</text>
  <text
     class="cls-4"
     id="text114"
     x="91.701637"
     y="369.90915">-40</text>
  <text
     class="cls-4"
     id="text116"
     x="91.701637"
     y="289.20914">-30</text>
  <text
     class="cls-4"
     id="text118"
     x="91.701637"
     y="208.50914">-20</text>
  <text
     class="cls-4"
     id="text120"
     x="91.701637"
     y="127.80914">-10</text>
  <text
     class="cls-4"
     id="text122"
     x="100.70164"
     y="47.109138">0</text>
  <text
     class="cls-6"
     transform="rotate(-90)"
     id="text124"
     x="-320.72742"
     y="65.457024">Magnitude (dB)</text>
  <polyline
     class="cls-7"
     points="150 57.88 158.95 58.48 167.89 59.11 176.84 59.78 185.78 60.5 194.73 61.26 203.68 62.08 212.62 62.95 221.57 63.87 230.51 64.87 239.46 65.93 248.41 67.07 257.35 68.29 266.3 69.61 275.24 71.02 284.19 72.55 293.14 74.19 302.08 75.97 311.03 77.89 319.97 79.97 328.92 82.23 337.87 84.69 346.81 87.37 355.76 90.29 364.7 93.49 373.65 97 382.6 100.86 391.54 105.13 400.49 109.86 409.43 115.14 418.38 121.05 427.33 127.73 436.27 135.34 445.22 144.13 454.16 154.42 463.11 166.76 472.06 182.01 481 201.82 489.95 229.85 498.89 277.62 507.84 487.83 516.79 280.63 525.73 231.57 534.68 203.21 543.62 183.29 552.57 168.03 561.52 155.73 570.46 145.49 579.41 136.77 588.35 129.22 597.3 122.62 606.25 116.77 615.19 111.57 624.14 106.9 633.08 102.69 642.03 98.88 650.98 95.42 659.92 92.26 668.87 89.38 677.81 86.73 686.76 84.3 695.71 82.06 704.65 80 713.6 78.09 722.54 76.33 731.49 74.69 740.44 73.17 749.38 71.76 758.33 70.44 767.27 69.22 776.22 68.07 785.17 67 794.11 66 803.06 65.06 812 64.18 820.95 63.35 829.9 62.58 838.84 61.85 847.79 61.16 856.73 60.51 865.68 59.9"
     id="polyline126"
     style="stroke:#fe5a00;stroke-opacity:1;stroke-width:1;stroke-miterlimit:4;stroke-dasharray:none" />
  <rect
     class="cls-1"
     x="966.6"
     y="52.2"
     width="70.2"
     height="18.6"
     id="rect128" />
  <rect
     class="cls-11"
     x="836.48804"
     y="71.171844"
     width="147.05974"
     height="52.10038"
     id="rect153"
     style="fill:#ffffff;stroke:#262626;stroke-width:1.28516;stroke-miterlimit:10;stroke-dasharray:1.28516, 2.57032;stroke-dashoffset:0;fill-opacity:1" />
  <text
     class="cls-9"
     id="text145"
     x="888.03815"
     y="102.29462"
     style="font-size:9px;font-family:ArialMT, Arial">$S_{11}$ (dB)</text>
  <line
     class="cls-8"
     x1="846.26129"
     y1="98.412895"
     x2="876.26129"
     y2="98.412895"
     id="line151"
     style="fill:none;stroke:#fe5a00;stroke-width:1;stroke-linejoin:round;stroke-miterlimit:4;stroke-dasharray:none;stroke-opacity:1" />
</svg>
