<?xml version="1.0" encoding="UTF-8" standalone="no"?>
<svg
   id="Livello_1"
   data-name="Livello 1"
   viewBox="0 0 1152 561.6"
   version="1.1"
   sodipodi:docname="gamma1_tex.svg"
   inkscape:version="1.1.1 (3bf5ae0d25, 2021-09-20)"
   xmlns:inkscape="http://www.inkscape.org/namespaces/inkscape"
   xmlns:sodipodi="http://sodipodi.sourceforge.net/DTD/sodipodi-0.dtd"
   xmlns="http://www.w3.org/2000/svg"
   xmlns:svg="http://www.w3.org/2000/svg">
  <sodipodi:namedview
     id="namedview141"
     pagecolor="#ffffff"
     bordercolor="#666666"
     borderopacity="1.0"
     inkscape:pageshadow="2"
     inkscape:pageopacity="0.0"
     inkscape:pagecheckerboard="0"
     showgrid="false"
     inkscape:zoom="1.0381944"
     inkscape:cx="576"
     inkscape:cy="323.15719"
     inkscape:window-width="3440"
     inkscape:window-height="1369"
     inkscape:window-x="-8"
     inkscape:window-y="-8"
     inkscape:window-maximized="1"
     inkscape:current-layer="Livello_1" />
  <defs
     id="defs4">
    <style
       id="style2">.cls-1{fill:#fff;}.cls-2,.cls-3,.cls-6,.cls-9{fill:none;}.cls-2,.cls-3,.cls-9{stroke:#262626;stroke-width:0.5px;}.cls-2,.cls-3,.cls-6{stroke-linejoin:round;}.cls-2{opacity:0.15;}.cls-3{stroke-linecap:square;}.cls-4{font-size:10px;}.cls-4,.cls-5{fill:#262626;}.cls-4,.cls-5,.cls-7,.cls-8{font-family:ArialMT, Arial;}.cls-5{font-size:11px;}.cls-6{stroke:#0072bd;}.cls-7{font-size:9px;}.cls-8{font-size:7.2px;}.cls-9{stroke-miterlimit:10;}</style>
  </defs>
  <line
     class="cls-2"
     x1="150"
     y1="499.8"
     x2="150"
     y2="42"
     id="line10" />
  <line
     class="cls-2"
     x1="328.56"
     y1="499.8"
     x2="328.56"
     y2="42"
     id="line12" />
  <line
     class="cls-2"
     x1="507.12"
     y1="499.8"
     x2="507.12"
     y2="42"
     id="line14" />
  <line
     class="cls-2"
     x1="685.68"
     y1="499.8"
     x2="685.68"
     y2="42"
     id="line16" />
  <line
     class="cls-2"
     x1="864.24"
     y1="499.8"
     x2="864.24"
     y2="42"
     id="line18" />
  <line
     class="cls-2"
     x1="864.23999"
     y1="499.79999"
     x2="864.23999"
     y2="42"
     id="line20" />
  <line
     class="cls-2"
     x1="864.23999"
     y1="499.79999"
     x2="150"
     y2="499.79999"
     id="line22" />
  <line
     class="cls-2"
     x1="864.23999"
     y1="423.5"
     x2="150"
     y2="423.5"
     id="line24" />
  <line
     class="cls-2"
     x1="864.23999"
     y1="347.20001"
     x2="150"
     y2="347.20001"
     id="line26" />
  <line
     class="cls-2"
     x1="864.23999"
     y1="270.89999"
     x2="150"
     y2="270.89999"
     id="line28" />
  <line
     class="cls-2"
     x1="864.23999"
     y1="194.60001"
     x2="150"
     y2="194.60001"
     id="line30" />
  <line
     class="cls-2"
     x1="864.23999"
     y1="118.3"
     x2="150"
     y2="118.3"
     id="line32" />
  <line
     class="cls-2"
     x1="864.23999"
     y1="42"
     x2="150"
     y2="42"
     id="line34" />
  <line
     class="cls-3"
     x1="150"
     y1="499.79999"
     x2="864.23999"
     y2="499.79999"
     id="line36" />
  <line
     class="cls-3"
     x1="150"
     y1="42"
     x2="864.23999"
     y2="42"
     id="line38" />
  <line
     class="cls-3"
     x1="150"
     y1="499.8"
     x2="150"
     y2="490.87"
     id="line40" />
  <line
     class="cls-3"
     x1="328.56"
     y1="499.8"
     x2="328.56"
     y2="490.87"
     id="line42" />
  <line
     class="cls-3"
     x1="507.12"
     y1="499.8"
     x2="507.12"
     y2="490.87"
     id="line44" />
  <line
     class="cls-3"
     x1="685.68"
     y1="499.8"
     x2="685.68"
     y2="490.87"
     id="line46" />
  <line
     class="cls-3"
     x1="864.24"
     y1="499.8"
     x2="864.24"
     y2="490.87"
     id="line48" />
  <line
     class="cls-3"
     x1="864.23999"
     y1="499.79999"
     x2="864.23999"
     y2="490.87"
     id="line50" />
  <line
     class="cls-3"
     x1="150"
     y1="42"
     x2="150"
     y2="50.93"
     id="line52" />
  <line
     class="cls-3"
     x1="328.56"
     y1="42"
     x2="328.56"
     y2="50.93"
     id="line54" />
  <line
     class="cls-3"
     x1="507.12"
     y1="42"
     x2="507.12"
     y2="50.93"
     id="line56" />
  <line
     class="cls-3"
     x1="685.68"
     y1="42"
     x2="685.68"
     y2="50.93"
     id="line58" />
  <line
     class="cls-3"
     x1="864.24"
     y1="42"
     x2="864.24"
     y2="50.93"
     id="line60" />
  <line
     class="cls-3"
     x1="864.23999"
     y1="42"
     x2="864.23999"
     y2="50.93"
     id="line62" />
  <text
     class="cls-4"
     id="text64"
     x="146.03679"
     y="530.37457">2</text>
  <text
     class="cls-4"
     id="text66"
     x="317.69678"
     y="530.37457">2.05</text>
  <text
     class="cls-4"
     id="text68"
     x="498.95679"
     y="530.37457">2.1</text>
  <text
     class="cls-4"
     id="text70"
     x="674.81677"
     y="530.37457">2.15</text>
  <text
     class="cls-4"
     id="text72"
     x="856.07678"
     y="530.37457">2.2</text>
  <text
     class="cls-5"
     id="text76"
     x="455.85251"
     y="556.73309">Frequency (GHz)</text>
  <line
     class="cls-3"
     x1="150"
     y1="499.8"
     x2="150"
     y2="42"
     id="line78" />
  <line
     class="cls-3"
     x1="864.23999"
     y1="499.79999"
     x2="864.23999"
     y2="42"
     id="line80" />
  <line
     class="cls-3"
     x1="150"
     y1="499.8"
     x2="158.93"
     y2="499.8"
     id="line82" />
  <line
     class="cls-3"
     x1="150"
     y1="423.5"
     x2="158.93"
     y2="423.5"
     id="line84" />
  <line
     class="cls-3"
     x1="150"
     y1="347.2"
     x2="158.93"
     y2="347.2"
     id="line86" />
  <line
     class="cls-3"
     x1="150"
     y1="270.9"
     x2="158.93"
     y2="270.9"
     id="line88" />
  <line
     class="cls-3"
     x1="150"
     y1="194.6"
     x2="158.93"
     y2="194.6"
     id="line90" />
  <line
     class="cls-3"
     x1="150"
     y1="118.3"
     x2="158.93"
     y2="118.3"
     id="line92" />
  <line
     class="cls-3"
     x1="150"
     y1="42"
     x2="158.93"
     y2="42"
     id="line94" />
  <line
     class="cls-3"
     x1="864.23999"
     y1="499.79999"
     x2="855.30994"
     y2="499.79999"
     id="line96" />
  <line
     class="cls-3"
     x1="864.23999"
     y1="423.5"
     x2="855.30994"
     y2="423.5"
     id="line98" />
  <line
     class="cls-3"
     x1="864.23999"
     y1="347.20001"
     x2="855.30994"
     y2="347.20001"
     id="line100" />
  <line
     class="cls-3"
     x1="864.23999"
     y1="270.89999"
     x2="855.30994"
     y2="270.89999"
     id="line102" />
  <line
     class="cls-3"
     x1="864.23999"
     y1="194.60001"
     x2="855.30994"
     y2="194.60001"
     id="line104" />
  <line
     class="cls-3"
     x1="864.23999"
     y1="118.3"
     x2="855.30994"
     y2="118.3"
     id="line106" />
  <line
     class="cls-3"
     x1="864.23999"
     y1="42"
     x2="855.30994"
     y2="42"
     id="line108" />
  <text
     class="cls-4"
     id="text110"
     x="90.545151"
     y="504.66321">-30</text>
  <text
     class="cls-4"
     id="text112"
     x="90.545151"
     y="428.36322">-25</text>
  <text
     class="cls-4"
     id="text114"
     x="90.545151"
     y="352.0632">-20</text>
  <text
     class="cls-4"
     id="text116"
     x="90.545151"
     y="275.76321">-15</text>
  <text
     class="cls-4"
     id="text118"
     x="90.545151"
     y="199.46321">-10</text>
  <text
     class="cls-4"
     id="text120"
     x="96.545151"
     y="123.16321">-5</text>
  <text
     class="cls-4"
     id="text122"
     x="99.545151"
     y="46.863213">0</text>
  <text
     class="cls-5"
     transform="rotate(-90)"
     id="text124"
     x="-305.81036"
     y="58.538464">Magnitude (dB)</text>
  <polyline
     class="cls-6"
     points="150 65.32 153.57 65.72 157.14 66.14 160.71 66.56 164.28 67 167.86 67.45 171.43 67.91 175 68.38 178.57 68.86 182.14 69.35 185.71 69.86 189.28 70.38 192.85 70.92 196.43 71.46 200 72.02 203.57 72.6 207.14 73.19 210.71 73.8 214.28 74.43 217.85 75.07 221.42 75.73 225 76.41 228.57 77.1 232.14 77.82 235.71 78.56 239.28 79.31 242.85 80.09 246.42 80.89 249.99 81.72 253.56 82.57 257.14 83.44 260.71 84.34 264.28 85.27 267.85 86.22 271.42 87.2 274.99 88.22 278.56 89.26 282.13 90.34 285.71 91.45 289.28 92.59 292.85 93.77 296.42 94.99 299.99 96.25 303.56 97.54 307.13 98.88 310.7 100.27 314.27 101.7 317.85 103.17 321.42 104.7 324.99 106.28 328.56 107.91 332.13 109.6 335.7 111.35 339.27 113.16 342.84 115.03 346.42 116.97 349.99 118.98 353.56 121.06 357.13 123.22 360.7 125.46 364.27 127.78 367.84 130.19 371.42 132.69 374.99 135.3 378.56 138 382.13 140.81 385.7 143.74 389.27 146.78 392.84 149.95 396.41 153.26 399.98 156.71 403.56 160.3 407.13 164.06 410.7 167.99 414.27 172.1 417.84 176.4 421.41 180.91 424.98 185.64 428.55 190.62 432.13 195.85 435.7 201.36 439.27 207.17 442.84 213.32 446.41 219.83 449.98 226.74 453.55 234.09 457.12 241.92 460.69 250.31 464.27 259.3 467.84 268.98 471.41 279.45 474.98 290.81 478.55 303.21 482.12 316.79 485.69 331.74 489.26 348.25 492.83 366.5 496.41 386.51 499.98 407.87 503.55 429.02 507.12 446.17 510.69 453.42 514.26 447.21 517.83 430.68 521.4 409.76 524.98 388.46 528.55 368.43 532.12 350.15 535.69 333.62 539.26 318.66 542.83 305.09 546.4 292.71 549.97 281.38 553.54 270.94 557.12 261.3 560.69 252.36 564.26 244.02 567.83 236.24 571.4 228.94 574.97 222.09 578.54 215.64 582.12 209.55 585.69 203.79 589.26 198.34 592.83 193.16 596.4 188.25 599.97 183.57 603.54 179.11 607.11 174.86 610.68 170.8 614.26 166.93 617.83 163.22 621.4 159.67 624.97 156.27 628.54 153 632.11 149.88 635.68 146.87 639.25 143.99 642.83 141.21 646.4 138.54 649.97 135.98 653.54 133.5 657.11 131.12 660.68 128.83 664.25 126.62 667.82 124.48 671.39 122.43 674.97 120.44 678.54 118.52 682.11 116.67 685.68 114.88 689.25 113.15 692.82 111.48 696.39 109.86 699.97 108.29 703.54 106.78 707.11 105.31 710.68 103.89 714.25 102.52 717.82 101.19 721.39 99.89 724.96 98.64 728.53 97.43 732.11 96.25 735.68 95.11 739.25 94 742.82 92.93 746.39 91.88 749.96 90.87 753.53 89.89 757.1 88.93 760.67 88 764.25 87.1 767.82 86.22 771.39 85.37 774.96 84.54 778.53 83.73 782.1 82.94 785.67 82.18 789.24 81.44 792.82 80.71 796.39 80.01 799.96 79.32 803.53 78.65 807.1 78 810.67 77.37 814.24 76.75 817.82 76.15 821.38 75.56 824.96 74.99 828.53 74.43 832.1 73.88 835.67 73.35 839.24 72.83 842.81 72.33 846.38 71.83 849.96 71.35 853.53 70.88 857.1 70.42 860.67 69.97 864.24 69.54"
     id="polyline126"
     style="stroke:#fe5a00;stroke-opacity:1" />
  <rect
     class="cls-11"
     x="633.46674"
     y="217.64211"
     width="147.05974"
     height="52.10038"
     id="rect153"
     style="fill:#ffffff;fill-opacity:1;stroke:#262626;stroke-width:1.28516;stroke-miterlimit:10;stroke-dasharray:1.28516, 2.57032;stroke-dashoffset:0" />
  <text
     class="cls-9"
     id="text145"
     x="685.01685"
     y="248.76488"
     style="font-size:9px;font-family:ArialMT, Arial">$S_{11}$ (dB)</text>
  <line
     class="cls-8"
     x1="643.23999"
     y1="244.88316"
     x2="673.23999"
     y2="244.88316"
     id="line151"
     style="font-size:9px;font-family:ArialMT, Arial;fill:none;stroke:#fe5a00;stroke-width:1;stroke-linejoin:round;stroke-miterlimit:4;stroke-dasharray:none;stroke-opacity:1" />
</svg>
