<svg id="Livello_1" data-name="Livello 1" xmlns="http://www.w3.org/2000/svg" viewBox="0 0 1152 561.6"><defs><style>.cls-1{fill:#fff;}.cls-2,.cls-3,.cls-6,.cls-9{fill:none;}.cls-2,.cls-3,.cls-9{stroke:#262626;stroke-width:0.5px;}.cls-2,.cls-3,.cls-6{stroke-linejoin:round;}.cls-2{opacity:0.15;}.cls-3{stroke-linecap:square;}.cls-4{font-size:10px;}.cls-4,.cls-5{fill:#262626;}.cls-4,.cls-5,.cls-7,.cls-8{font-family:ArialMT, Arial;}.cls-5{font-size:11px;}.cls-6{stroke:#0072bd;}.cls-7{font-size:9px;}.cls-8{font-size:7.2px;}.cls-9{stroke-miterlimit:10;}</style></defs><rect class="cls-1" width="1152" height="561.6"/><rect class="cls-1" x="150" y="42" width="892.8" height="457.8"/><line class="cls-2" x1="150" y1="499.8" x2="150" y2="42"/><line class="cls-2" x1="328.56" y1="499.8" x2="328.56" y2="42"/><line class="cls-2" x1="507.12" y1="499.8" x2="507.12" y2="42"/><line class="cls-2" x1="685.68" y1="499.8" x2="685.68" y2="42"/><line class="cls-2" x1="864.24" y1="499.8" x2="864.24" y2="42"/><line class="cls-2" x1="1042.8" y1="499.8" x2="1042.8" y2="42"/><line class="cls-2" x1="1042.8" y1="499.8" x2="150" y2="499.8"/><line class="cls-2" x1="1042.8" y1="423.5" x2="150" y2="423.5"/><line class="cls-2" x1="1042.8" y1="347.2" x2="150" y2="347.2"/><line class="cls-2" x1="1042.8" y1="270.9" x2="150" y2="270.9"/><line class="cls-2" x1="1042.8" y1="194.6" x2="150" y2="194.6"/><line class="cls-2" x1="1042.8" y1="118.3" x2="150" y2="118.3"/><line class="cls-2" x1="1042.8" y1="42" x2="150" y2="42"/><line class="cls-3" x1="150" y1="499.8" x2="1042.8" y2="499.8"/><line class="cls-3" x1="150" y1="42" x2="1042.8" y2="42"/><line class="cls-3" x1="150" y1="499.8" x2="150" y2="490.87"/><line class="cls-3" x1="328.56" y1="499.8" x2="328.56" y2="490.87"/><line class="cls-3" x1="507.12" y1="499.8" x2="507.12" y2="490.87"/><line class="cls-3" x1="685.68" y1="499.8" x2="685.68" y2="490.87"/><line class="cls-3" x1="864.24" y1="499.8" x2="864.24" y2="490.87"/><line class="cls-3" x1="1042.8" y1="499.8" x2="1042.8" y2="490.87"/><line class="cls-3" x1="150" y1="42" x2="150" y2="50.93"/><line class="cls-3" x1="328.56" y1="42" x2="328.56" y2="50.93"/><line class="cls-3" x1="507.12" y1="42" x2="507.12" y2="50.93"/><line class="cls-3" x1="685.68" y1="42" x2="685.68" y2="50.93"/><line class="cls-3" x1="864.24" y1="42" x2="864.24" y2="50.93"/><line class="cls-3" x1="1042.8" y1="42" x2="1042.8" y2="50.93"/><text class="cls-4" transform="translate(147 514)">2</text><text class="cls-4" transform="translate(318.66 514)">2.05</text><text class="cls-4" transform="translate(499.92 514)">2.1</text><text class="cls-4" transform="translate(675.78 514)">2.15</text><text class="cls-4" transform="translate(857.04 514)">2.2</text><text class="cls-4" transform="translate(1032.9 514)">2.25</text><text class="cls-5" transform="translate(554.1 528.8)">Frequency (GHz)</text><line class="cls-3" x1="150" y1="499.8" x2="150" y2="42"/><line class="cls-3" x1="1042.8" y1="499.8" x2="1042.8" y2="42"/><line class="cls-3" x1="150" y1="499.8" x2="158.93" y2="499.8"/><line class="cls-3" x1="150" y1="423.5" x2="158.93" y2="423.5"/><line class="cls-3" x1="150" y1="347.2" x2="158.93" y2="347.2"/><line class="cls-3" x1="150" y1="270.9" x2="158.93" y2="270.9"/><line class="cls-3" x1="150" y1="194.6" x2="158.93" y2="194.6"/><line class="cls-3" x1="150" y1="118.3" x2="158.93" y2="118.3"/><line class="cls-3" x1="150" y1="42" x2="158.93" y2="42"/><line class="cls-3" x1="1042.8" y1="499.8" x2="1033.87" y2="499.8"/><line class="cls-3" x1="1042.8" y1="423.5" x2="1033.87" y2="423.5"/><line class="cls-3" x1="1042.8" y1="347.2" x2="1033.87" y2="347.2"/><line class="cls-3" x1="1042.8" y1="270.9" x2="1033.87" y2="270.9"/><line class="cls-3" x1="1042.8" y1="194.6" x2="1033.87" y2="194.6"/><line class="cls-3" x1="1042.8" y1="118.3" x2="1033.87" y2="118.3"/><line class="cls-3" x1="1042.8" y1="42" x2="1033.87" y2="42"/><text class="cls-4" transform="translate(131 503.7)">-30</text><text class="cls-4" transform="translate(131 427.4)">-25</text><text class="cls-4" transform="translate(131 351.1)">-20</text><text class="cls-4" transform="translate(131 274.8)">-15</text><text class="cls-4" transform="translate(131 198.5)">-10</text><text class="cls-4" transform="translate(137 122.2)">-5</text><text class="cls-4" transform="translate(140 45.9)">0</text><text class="cls-5" transform="translate(125 308.7) rotate(-90)">Magnitude (dB)</text><polyline class="cls-6" points="150 65.14 153.57 65.55 157.14 65.97 160.71 66.39 164.28 66.83 167.86 67.28 171.43 67.73 175 68.2 178.57 68.69 182.14 69.18 185.71 69.69 189.28 70.21 192.85 70.74 196.43 71.29 200 71.85 203.57 72.43 207.14 73.03 210.71 73.63 214.28 74.26 217.85 74.9 221.42 75.56 225 76.24 228.57 76.94 232.14 77.66 235.71 78.4 239.28 79.16 242.85 79.94 246.42 80.74 249.99 81.57 253.56 82.42 257.14 83.3 260.71 84.2 264.28 85.13 267.85 86.09 271.42 87.08 274.99 88.1 278.56 89.14 282.13 90.23 285.71 91.34 289.28 92.49 292.85 93.68 296.42 94.9 299.99 96.17 303.56 97.47 307.13 98.82 310.7 100.22 314.27 101.65 317.85 103.14 321.42 104.68 324.99 106.27 328.56 107.91 332.13 109.61 335.7 111.38 339.27 113.2 342.84 115.09 346.42 117.04 349.99 119.07 353.56 121.17 357.13 123.35 360.7 125.61 364.27 127.96 367.84 130.39 371.42 132.92 374.99 135.55 378.56 138.28 382.13 141.13 385.7 144.08 389.27 147.16 392.84 150.37 396.41 153.72 399.98 157.21 403.56 160.85 407.13 164.66 410.7 168.63 414.27 172.8 417.84 177.16 421.41 181.74 424.98 186.54 428.55 191.59 432.13 196.9 435.7 202.5 439.27 208.41 442.84 214.66 446.41 221.29 449.98 228.32 453.55 235.8 457.12 243.79 460.69 252.34 464.27 261.51 467.84 271.4 471.41 282.09 474.98 293.69 478.55 306.35 482.12 320.2 485.69 335.43 489.26 352.18 492.83 370.54 496.41 390.35 499.98 410.81 503.55 429.74 507.12 442.83 510.69 445.11 514.26 435.54 517.83 418.22 521.4 398.06 524.98 377.99 528.55 359.17 532.12 341.95 535.69 326.31 539.26 312.08 542.83 299.12 546.4 287.26 549.97 276.36 553.54 266.3 557.12 256.98 560.69 248.31 564.26 240.23 567.83 232.66 571.4 225.57 574.97 218.89 578.54 212.6 582.12 206.65 585.69 201.03 589.26 195.7 592.83 190.64 596.4 185.82 599.97 181.25 603.54 176.88 607.11 172.72 610.68 168.74 614.26 164.94 617.83 161.3 621.4 157.81 624.97 154.48 628.54 151.28 632.11 148.2 635.68 145.25 639.25 142.42 642.83 139.69 646.4 137.07 649.97 134.55 653.54 132.12 657.11 129.78 660.68 127.53 664.25 125.36 667.82 123.26 671.39 121.24 674.97 119.28 678.54 117.4 682.11 115.58 685.68 113.82 689.25 112.12 692.82 110.47 696.39 108.88 699.97 107.34 703.54 105.85 707.11 104.41 710.68 103.01 714.25 101.66 717.82 100.35 721.39 99.08 724.96 97.85 728.53 96.66 732.11 95.5 735.68 94.37 739.25 93.28 742.82 92.23 746.39 91.2 749.96 90.2 753.53 89.23 757.1 88.29 760.67 87.38 764.25 86.49 767.82 85.63 771.39 84.79 774.96 83.97 778.53 83.18 782.1 82.41 785.67 81.65 789.24 80.92 792.82 80.21 796.39 79.52 799.96 78.84 803.53 78.18 807.1 77.54 810.67 76.92 814.24 76.31 817.82 75.72 821.38 75.14 824.96 74.58 828.53 74.03 832.1 73.49 835.67 72.97 839.24 72.46 842.81 71.96 846.38 71.47 849.96 71 853.53 70.53 857.1 70.08 860.67 69.64 864.24 69.21"/><rect class="cls-1" x="964.8" y="49.8" width="70.2" height="18.6"/><text class="cls-7" transform="translate(1000.2 61.2)">dB(S</text><text class="cls-8" transform="translate(1020.6 65.4)">11</text><text class="cls-7" transform="translate(1029 61.2)">)</text><line class="cls-6" x1="967.81" y1="59.1" x2="997.87" y2="59.1"/><rect class="cls-9" x="964.8" y="49.8" width="70.2" height="18.6"/></svg>