<?xml version="1.0" encoding="UTF-8" standalone="no"?>
<svg
   id="Livello_1"
   data-name="Livello 1"
   viewBox="0 0 1152 561.6"
   version="1.1"
   sodipodi:docname="matching_wfeed_tex.svg"
   inkscape:version="1.1.1 (3bf5ae0d25, 2021-09-20)"
   xmlns:inkscape="http://www.inkscape.org/namespaces/inkscape"
   xmlns:sodipodi="http://sodipodi.sourceforge.net/DTD/sodipodi-0.dtd"
   xmlns="http://www.w3.org/2000/svg"
   xmlns:svg="http://www.w3.org/2000/svg">
  <sodipodi:namedview
     id="namedview161"
     pagecolor="#ffffff"
     bordercolor="#666666"
     borderopacity="1.0"
     inkscape:pageshadow="2"
     inkscape:pageopacity="0.0"
     inkscape:pagecheckerboard="0"
     showgrid="false"
     inkscape:zoom="0.83972969"
     inkscape:cx="616.86517"
     inkscape:cy="281.04282"
     inkscape:window-width="1718"
     inkscape:window-height="1360"
     inkscape:window-x="1713"
     inkscape:window-y="0"
     inkscape:window-maximized="0"
     inkscape:current-layer="Livello_1" />
  <defs
     id="defs4">
    <style
       id="style2">.cls-1{fill:#fff;}.cls-10,.cls-2,.cls-3,.cls-7,.cls-8{fill:none;}.cls-10,.cls-2,.cls-3{stroke:#262626;stroke-width:0.5px;}.cls-2,.cls-3,.cls-7,.cls-8{stroke-linejoin:round;}.cls-2{opacity:0.15;}.cls-3{stroke-linecap:square;}.cls-4{font-size:10px;}.cls-4,.cls-5{fill:#262626;}.cls-4,.cls-5,.cls-9{font-family:ArialMT, Arial;}.cls-5,.cls-6{font-size:11px;}.cls-6{font-family:Arial-BoldMT, Arial;font-weight:700;}.cls-7{stroke:blue;}.cls-7,.cls-8{stroke-width:2px;}.cls-8{stroke:red;}.cls-9{font-size:9px;}.cls-10{stroke-miterlimit:10;}</style>
  </defs>
  <line
     class="cls-2"
     x1="150"
     y1="499.8"
     x2="150"
     y2="42"
     id="line10" />
  <line
     class="cls-2"
     x1="328.56"
     y1="499.8"
     x2="328.56"
     y2="42"
     id="line12" />
  <line
     class="cls-2"
     x1="507.12"
     y1="499.8"
     x2="507.12"
     y2="42"
     id="line14" />
  <line
     class="cls-2"
     x1="685.68"
     y1="499.8"
     x2="685.68"
     y2="42"
     id="line16" />
  <line
     class="cls-2"
     x1="864.24"
     y1="499.8"
     x2="864.24"
     y2="42"
     id="line18" />
  <line
     class="cls-2"
     x1="1042.8"
     y1="499.8"
     x2="1042.8"
     y2="42"
     id="line20" />
  <line
     class="cls-2"
     x1="1042.8"
     y1="499.8"
     x2="150"
     y2="499.8"
     id="line22" />
  <line
     class="cls-2"
     x1="1042.8"
     y1="442.58"
     x2="150"
     y2="442.58"
     id="line24" />
  <line
     class="cls-2"
     x1="1042.8"
     y1="385.35"
     x2="150"
     y2="385.35"
     id="line26" />
  <line
     class="cls-2"
     x1="1042.8"
     y1="328.13"
     x2="150"
     y2="328.13"
     id="line28" />
  <line
     class="cls-2"
     x1="1042.8"
     y1="270.9"
     x2="150"
     y2="270.9"
     id="line30" />
  <line
     class="cls-2"
     x1="1042.8"
     y1="213.68"
     x2="150"
     y2="213.68"
     id="line32" />
  <line
     class="cls-2"
     x1="1042.8"
     y1="156.45"
     x2="150"
     y2="156.45"
     id="line34" />
  <line
     class="cls-2"
     x1="1042.8"
     y1="99.23"
     x2="150"
     y2="99.23"
     id="line36" />
  <line
     class="cls-2"
     x1="1042.8"
     y1="42"
     x2="150"
     y2="42"
     id="line38" />
  <line
     class="cls-3"
     x1="150"
     y1="499.8"
     x2="1042.8"
     y2="499.8"
     id="line40" />
  <line
     class="cls-3"
     x1="150"
     y1="42"
     x2="1042.8"
     y2="42"
     id="line42" />
  <line
     class="cls-3"
     x1="150"
     y1="499.8"
     x2="150"
     y2="490.87"
     id="line44" />
  <line
     class="cls-3"
     x1="328.56"
     y1="499.8"
     x2="328.56"
     y2="490.87"
     id="line46" />
  <line
     class="cls-3"
     x1="507.12"
     y1="499.8"
     x2="507.12"
     y2="490.87"
     id="line48" />
  <line
     class="cls-3"
     x1="685.68"
     y1="499.8"
     x2="685.68"
     y2="490.87"
     id="line50" />
  <line
     class="cls-3"
     x1="864.24"
     y1="499.8"
     x2="864.24"
     y2="490.87"
     id="line52" />
  <line
     class="cls-3"
     x1="1042.8"
     y1="499.8"
     x2="1042.8"
     y2="490.87"
     id="line54" />
  <line
     class="cls-3"
     x1="150"
     y1="42"
     x2="150"
     y2="50.93"
     id="line56" />
  <line
     class="cls-3"
     x1="328.56"
     y1="42"
     x2="328.56"
     y2="50.93"
     id="line58" />
  <line
     class="cls-3"
     x1="507.12"
     y1="42"
     x2="507.12"
     y2="50.93"
     id="line60" />
  <line
     class="cls-3"
     x1="685.68"
     y1="42"
     x2="685.68"
     y2="50.93"
     id="line62" />
  <line
     class="cls-3"
     x1="864.24"
     y1="42"
     x2="864.24"
     y2="50.93"
     id="line64" />
  <line
     class="cls-3"
     x1="1042.8"
     y1="42"
     x2="1042.8"
     y2="50.93"
     id="line66" />
  <text
     class="cls-4"
     id="text68"
     x="147"
     y="525.46661">2</text>
  <text
     class="cls-4"
     id="text70"
     x="318.66"
     y="525.46661">2.05</text>
  <text
     class="cls-4"
     id="text72"
     x="499.92001"
     y="525.46661">2.1</text>
  <text
     class="cls-4"
     id="text74"
     x="675.78003"
     y="525.46661">2.15</text>
  <text
     class="cls-4"
     id="text76"
     x="857.03998"
     y="525.46661">2.2</text>
  <text
     class="cls-4"
     id="text78"
     x="1032.9"
     y="525.46661">2.25</text>
  <text
     class="cls-5"
     id="text80"
     x="508.00021"
     y="548.51666">Frequency (GHz)</text>
  <line
     class="cls-3"
     x1="150"
     y1="499.8"
     x2="150"
     y2="42"
     id="line82" />
  <line
     class="cls-3"
     x1="1042.8"
     y1="499.8"
     x2="1042.8"
     y2="42"
     id="line84" />
  <line
     class="cls-3"
     x1="150"
     y1="499.8"
     x2="158.93"
     y2="499.8"
     id="line86" />
  <line
     class="cls-3"
     x1="150"
     y1="442.58"
     x2="158.93"
     y2="442.58"
     id="line88" />
  <line
     class="cls-3"
     x1="150"
     y1="385.35"
     x2="158.93"
     y2="385.35"
     id="line90" />
  <line
     class="cls-3"
     x1="150"
     y1="328.13"
     x2="158.93"
     y2="328.13"
     id="line92" />
  <line
     class="cls-3"
     x1="150"
     y1="270.9"
     x2="158.93"
     y2="270.9"
     id="line94" />
  <line
     class="cls-3"
     x1="150"
     y1="213.68"
     x2="158.93"
     y2="213.68"
     id="line96" />
  <line
     class="cls-3"
     x1="150"
     y1="156.45"
     x2="158.93"
     y2="156.45"
     id="line98" />
  <line
     class="cls-3"
     x1="150"
     y1="99.23"
     x2="158.93"
     y2="99.23"
     id="line100" />
  <line
     class="cls-3"
     x1="150"
     y1="42"
     x2="158.93"
     y2="42"
     id="line102" />
  <line
     class="cls-3"
     x1="1042.8"
     y1="499.8"
     x2="1033.87"
     y2="499.8"
     id="line104" />
  <line
     class="cls-3"
     x1="1042.8"
     y1="442.58"
     x2="1033.87"
     y2="442.58"
     id="line106" />
  <line
     class="cls-3"
     x1="1042.8"
     y1="385.35"
     x2="1033.87"
     y2="385.35"
     id="line108" />
  <line
     class="cls-3"
     x1="1042.8"
     y1="328.13"
     x2="1033.87"
     y2="328.13"
     id="line110" />
  <line
     class="cls-3"
     x1="1042.8"
     y1="270.9"
     x2="1033.87"
     y2="270.9"
     id="line112" />
  <line
     class="cls-3"
     x1="1042.8"
     y1="213.68"
     x2="1033.87"
     y2="213.68"
     id="line114" />
  <line
     class="cls-3"
     x1="1042.8"
     y1="156.45"
     x2="1033.87"
     y2="156.45"
     id="line116" />
  <line
     class="cls-3"
     x1="1042.8"
     y1="99.23"
     x2="1033.87"
     y2="99.23"
     id="line118" />
  <line
     class="cls-3"
     x1="1042.8"
     y1="42"
     x2="1033.87"
     y2="42"
     id="line120" />
  <text
     class="cls-4"
     id="text122"
     x="100.87815"
     y="503.19705">-20</text>
  <text
     class="cls-4"
     id="text124"
     x="100.87815"
     y="445.97705">-10</text>
  <text
     class="cls-4"
     id="text126"
     x="109.87815"
     y="388.74704">0</text>
  <text
     class="cls-4"
     id="text128"
     x="104.47815"
     y="331.52704">10</text>
  <text
     class="cls-4"
     id="text130"
     x="104.47815"
     y="274.29703">20</text>
  <text
     class="cls-4"
     id="text132"
     x="104.47815"
     y="217.07704">30</text>
  <text
     class="cls-4"
     id="text134"
     x="104.47815"
     y="159.84703">40</text>
  <text
     class="cls-4"
     id="text136"
     x="104.47815"
     y="102.62704">50</text>
  <text
     class="cls-4"
     id="text138"
     x="104.47815"
     y="45.397034">60</text>
  <text
     class="cls-5"
     transform="rotate(-90)"
     id="text140"
     x="-314.08719"
     y="68.360046">Impedance ($\Omega$)</text>
  <polyline
     class="cls-7"
     points="150 352.22 157.14 350.91 164.28 349.52 171.43 348.06 178.57 346.51 185.71 344.87 192.85 343.13 200 341.29 207.14 339.34 214.28 337.26 221.42 335.06 228.57 332.71 235.71 330.21 242.85 327.55 249.99 324.71 257.14 321.68 264.28 318.44 271.42 314.99 278.56 311.3 285.71 307.35 292.85 303.12 299.99 298.6 307.13 293.76 314.27 288.58 321.42 283.04 328.56 277.11 335.7 270.77 342.84 264 349.99 256.79 357.13 249.11 364.27 240.95 371.42 232.32 378.56 223.21 385.7 213.66 392.84 203.68 399.98 193.35 407.13 182.73 414.27 171.93 421.41 161.09 428.55 150.36 435.7 139.94 442.84 130.05 449.98 120.93 457.12 112.82 464.27 105.96 471.41 100.57 478.55 96.84 485.69 94.88 492.83 94.78 499.98 96.51 507.12 100.01 514.26 105.14 521.4 111.72 528.55 119.52 535.69 128.31 542.83 137.84 549.97 147.89 557.12 158.24 564.26 168.72 571.4 179.15 578.54 189.43 585.69 199.44 592.83 209.11 599.97 218.4 607.11 227.26 614.26 235.68 621.4 243.65 628.54 251.18 635.68 258.26 642.83 264.92 649.97 271.17 657.11 277.03 664.25 282.52 671.39 287.66 678.54 292.48 685.68 296.99 692.82 301.22 699.97 305.18 707.11 308.9 714.25 312.38 721.39 315.65 728.53 318.71 735.68 321.6 742.82 324.31 749.96 326.86 757.1 329.26 764.25 331.52 771.39 333.66 778.53 335.67 785.67 337.57 792.82 339.37 799.96 341.07 807.1 342.68 814.24 344.2 821.38 345.65 828.53 347.02 835.67 348.32 842.81 349.56 849.96 350.74 857.1 351.86 864.24 352.92"
     id="polyline144"
     style="stroke:#0072bd;stroke-opacity:1;stroke-width:1;stroke-miterlimit:4;stroke-dasharray:none" />
  <polyline
     class="cls-8"
     points="150 255.62 157.14 254 164.28 252.33 171.43 250.63 178.57 248.88 185.71 247.09 192.85 245.26 200 243.39 207.14 241.47 214.28 239.51 221.42 237.51 228.57 235.48 235.71 233.4 242.85 231.29 249.99 229.15 257.14 226.98 264.28 224.79 271.42 222.6 278.56 220.39 285.71 218.2 292.85 216.02 299.99 213.88 307.13 211.8 314.27 209.8 321.42 207.91 328.56 206.15 335.7 204.57 342.84 203.22 349.99 202.15 357.13 201.4 364.27 201.07 371.42 201.21 378.56 201.93 385.7 203.31 392.84 205.46 399.98 208.48 407.13 212.49 414.27 217.6 421.41 223.91 428.55 231.5 435.7 240.43 442.84 250.72 449.98 262.37 457.12 275.29 464.27 289.36 471.41 304.4 478.55 320.17 485.69 336.39 492.83 352.76 499.98 368.96 507.12 384.7 514.26 399.7 521.4 413.73 528.55 426.62 535.69 438.26 542.83 448.57 549.97 457.56 557.12 465.24 564.26 471.67 571.4 476.94 578.54 481.15 585.69 484.41 592.83 486.81 599.97 488.45 607.11 489.45 614.26 489.89 621.4 489.86 628.54 489.42 635.68 488.64 642.83 487.58 649.97 486.3 657.11 484.83 664.25 483.21 671.39 481.48 678.54 479.66 685.68 477.77 692.82 475.83 699.97 473.86 707.11 471.88 714.25 469.89 721.39 467.9 728.53 465.92 735.68 463.96 742.82 462.02 749.96 460.11 757.1 458.22 764.25 456.37 771.39 454.55 778.53 452.77 785.67 451.02 792.82 449.31 799.96 447.64 807.1 446 814.24 444.4 821.38 442.84 828.53 441.31 835.67 439.82 842.81 438.37 849.96 436.94 857.1 435.56 864.24 434.2"
     id="polyline146"
     style="stroke:#fe5a00;stroke-opacity:1;stroke-width:1;stroke-miterlimit:4;stroke-dasharray:none" />
  <rect
     class="cls-12"
     x="798.52502"
     y="60.940571"
     width="203.97128"
     height="77.004654"
     id="rect165"
     style="fill:#ffffff;stroke:#262626;stroke-width:1.32172;stroke-miterlimit:10;stroke-dasharray:1.32172, 2.64343;stroke-dashoffset:0;fill-opacity:1" />
  <text
     class="cls-11"
     id="text157"
     x="852.18744"
     y="88.213936"
     style="font-size:9px;font-family:ArialMT, Arial">Resistance</text>
  <line
     class="cls-9"
     x1="819.93744"
     y1="84.463936"
     x2="849.93744"
     y2="84.463936"
     id="line159"
     style="fill:none;stroke:#0072bd;stroke-width:1;stroke-linejoin:round;stroke-miterlimit:4;stroke-dasharray:none;stroke-opacity:1" />
  <text
     class="cls-11"
     id="text161"
     x="852.78937"
     y="118.47263"
     style="font-size:9px;font-family:ArialMT, Arial">Reactance</text>
  <line
     class="cls-10"
     x1="820.53937"
     y1="114.72263"
     x2="850.53937"
     y2="114.72263"
     id="line163"
     style="fill:none;stroke:#fe5a00;stroke-width:1;stroke-linejoin:round;stroke-miterlimit:4;stroke-dasharray:none;stroke-opacity:1" />
</svg>
