<?xml version="1.0" encoding="UTF-8" standalone="no"?>
<!-- Generator: Adobe Illustrator 25.0.0, SVG Export Plug-In . SVG Version: 6.00 Build 0)  -->

<svg
   version="1.1"
   id="Livello_1"
   x="0px"
   y="0px"
   viewBox="0 0 1025 608"
   style="enable-background:new 0 0 1025 608;"
   xml:space="preserve"
   sodipodi:docname="Second_Contour_LOG_tex.svg"
   inkscape:version="1.1.1 (3bf5ae0d25, 2021-09-20)"
   xmlns:inkscape="http://www.inkscape.org/namespaces/inkscape"
   xmlns:sodipodi="http://sodipodi.sourceforge.net/DTD/sodipodi-0.dtd"
   xmlns:xlink="http://www.w3.org/1999/xlink"
   xmlns="http://www.w3.org/2000/svg"
   xmlns:svg="http://www.w3.org/2000/svg"><defs
   id="defs961"><pattern
     id="EMFhbasepattern"
     patternUnits="userSpaceOnUse"
     width="6"
     height="6"
     x="0"
     y="0" /></defs><sodipodi:namedview
   id="namedview959"
   pagecolor="#ffffff"
   bordercolor="#666666"
   borderopacity="1.0"
   inkscape:pageshadow="2"
   inkscape:pageopacity="0.0"
   inkscape:pagecheckerboard="0"
   showgrid="false"
   inkscape:zoom="0.29170732"
   inkscape:cx="-239.96655"
   inkscape:cy="-587.91806"
   inkscape:window-width="1920"
   inkscape:window-height="1009"
   inkscape:window-x="-8"
   inkscape:window-y="-8"
   inkscape:window-maximized="1"
   inkscape:current-layer="layer2" />
<style
   type="text/css"
   id="style2">
	.st0{fill:#FFFFFF;}
	.st1{fill:#020000;}
	.st2{fill:#6F0000;}
	.st3{fill:#FF0000;}
	.st4{fill:#FF8C00;}
	.st5{fill:#FFFF2B;}
	.st6{fill:none;stroke:#000000;stroke-width:0.5;stroke-linejoin:round;stroke-miterlimit:10;}
	.st7{fill:none;stroke:#262626;stroke-width:0.5;stroke-linecap:square;stroke-linejoin:round;stroke-miterlimit:10;}
	.st8{fill:#262626;}
	.st9{font-family:'Helvetica';}
	.st10{font-size:10px;}
	.st11{letter-spacing:76;}
	.st12{letter-spacing:79;}
	.st13{font-size:11px;}
	.st14{clip-path:url(#SVGID_2_);}
	.st15{font-size:9px;}
	.st16{fill:none;stroke:#333333;stroke-width:0.5;stroke-linecap:square;stroke-linejoin:round;stroke-miterlimit:10;}
	.st17{fill:#808080;}
	.st18{fill:#FFFFDC;}
</style>
<rect
   x="127.5"
   y="43.5"
   class="st0"
   width="761"
   height="496.5"
   id="rect4" />
<path
   class="st1"
   d="M227.6,327.2l1.3,8.5l0.5-8.5l-0.5-5.5 M139.9,327.2l2.8,48.6l2.6-48.6l-2.6-11.8L139.9,327.2z M157,398.1  l0.9,5l5.1,1.5l5.1-1.2l0.5-5.4l-0.5-6.2l-5.1-3.2l-5.1-35L157,398.1z M127.5,398.1v13.6l2.3-13.6l-2.3-10V398.1z"
   id="path6" />
<path
   class="st2"
   d="M836.5,256.3l1.3,6.7l1.2-6.7l-1.2-7L836.5,256.3z M809.5,256.3l2.9,7.4l2.1-7.4l-2.1-4.6L809.5,256.3z   M329.1,327.2l1.4,2.8l0.8-2.8l-0.8-2.3L329.1,327.2z M297.1,327.2l2.9,15l5.1-6l5.1-6.1l5.1,2.2l5.1,6.8l3.1-11.9l-3.1-8.3  l-5.1,4.6l-5.1,1l-5.1-4.1l-5.1,0L297.1,327.2z M267.8,327.2l1.8,16.7l4.2-16.7l-4.2-15.5L267.8,327.2z M239.1,327.2l5.1,46.2  l5.1-0.9l1.7-45.3l-1.7-21.8l-5.1-7.2L239.1,327.2z M229,335.7l-1.3-8.5l1.3-5.5l0.5,5.5L229,335.7z M222.6,327.2l1.3,14.3l5.1,40.3  l3.1-54.6l-3.1-35.5l-5.1-12.4L222.6,327.2z M208.3,327.2l0.4,4.8l2.1-4.8l-2.1-3.5L208.3,327.2z M142.7,375.9l-2.8-48.6l2.8-11.8  l2.6,11.8L142.7,375.9z M340.6,398.1l0,0.6l2.6-0.6l-2.6-7.2L340.6,398.1z M294.9,398.1l0,0.1L294.9,398.1l0-1.7L294.9,398.1z   M212.3,398.1l1.5,14.9l1.3-14.9l-1.3-56.1L212.3,398.1z M201.8,398.1l1.8,30.2l1.7-30.2l-1.7-24.6L201.8,398.1z M176.9,398.1l1.4,8  l5.1,31l1.9-39l-1.9-30.1l-5.1,16.6L176.9,398.1z M157.9,403.1l-0.9-5l0.9-44.4l5.1,35l5.1,3.2l0.5,6.2l-0.5,5.4l-5.1,1.2  L157.9,403.1z M127.5,411.7v24.2l5.1-22.3l5.1,10.4l5.1,2.6l4.6-28.5l0.5-15l1.5,15l3.6,10l5.1,21.1l5.1,13l5.1-13.4l3-30.7l-3-35.8  l-5.1-27.9l-0.7-7.2l-4.4-12.9l-5.1-1.7l-5.1,7.1l-5.1-20l-5.1,18.3l-2.1,9.1l-3,45.8l-5.1-2.7v17.8l2.3,10L127.5,411.7z"
   id="path8" />
<path
   class="st3"
   d="M842.7,114.4l0.1,8.2l0.1-8.2l-0.1-1 M624.2,114.4l0.5,7.1l1.2-7.1l-1.2-1L624.2,114.4z M634.7,185.4l0.1,1.4  l0.8-1.4l-0.8-2.2L634.7,185.4z M609.2,185.4l0.2,3.5l2.6-3.5l-2.6-2.7L609.2,185.4z M568.7,185.4l0.2,69.2l5.1-58.4l5.1,27.1  l0.9-37.8l-0.9-4.8l-5.1-4l-5.1,0.4L568.7,185.4z M552.8,185.4l0.8,21.8l5.1-11.3l0.2-10.5l-0.2-5.5l-5.1-3.6L552.8,185.4z   M850.6,256.3l2.4,12.5l5.1,2.4l1.1-14.8l-1.1-47.5l-5.1,11.9L850.6,256.3z M837.8,263l-1.3-6.7l1.3-7l1.2,7L837.8,263z   M812.4,263.6l-2.9-7.4l2.9-4.6l2.1,4.6L812.4,263.6z M806.1,256.3l1.2,29.4l5.1,4.8l5.1-11.2l2.4-23l2.7-65.8l5.1,29.4l3.3,36.4  l1.7,9.2l5.1,33.7l5.1-11.5l3.4-31.3l-3.4-45.7l-5.1,1l-2.6-26.2l-2.5-17.9l-5.1-3.9l-5.1,19.4l-5.1-19.3l-1,21.6l-4.1,49.7  l-5.1,6.3L806.1,256.3z M535.6,256.3l2.8,19.9l3-19.9l-3-10.6L535.6,256.3z M528.1,256.3l0.2,2.6l0.2-2.6l2.6-70.9l-2.8-17.6  l-2.7,17.6L528.1,256.3z M497.7,256.3l0.1,0.8l5.1,20.5L508,264l5.1,11.2l5.1-10.9l0.8-8l1.6-70.9l-2.4-18.7l-2.9,18.7l-2.2,27.3  l-1.7-27.3L508,167l-5.1,14.2l-5.1-4.1l-1.4,8.2L497.7,256.3z M330.4,330.1l-1.4-2.8l1.4-2.3l0.8,2.3L330.4,330.1z M300,342.2  l-2.9-15l2.9-6.7l5.1,0l5.1,4.1l5.1-1l5.1-4.6l3.1,8.3l-3.1,11.9l-5.1-6.8l-5.1-2.2l-5.1,6.1L300,342.2z M269.6,343.9l-1.8-16.7  l1.8-15.5l4.2,15.5L269.6,343.9z M244.2,373.4l-5.1-46.2l5.1-29l5.1,7.2l1.7,21.8l-1.7,45.3L244.2,373.4z M223.9,341.5l-1.3-14.3  l1.3-47.9l5.1,12.4l3.1,35.5l-3.1,54.6L223.9,341.5z M208.7,332l-0.4-4.8l0.4-3.5l2.1,3.5L208.7,332z M384.6,398.1l1.6,10.3l5.1,1.1  l1.3-11.4l3.8-60l5.1,0.4l5.1,10.7l5.1-19.5l1.7-2.6l3.4-11l0.6,11l4.4,22.1l3.7-22.1l1.3-16.6l5.1-4.1l2.6,20.7L437,341l4.4-13.8  l0.6-5.9l0.6,5.9l4.5,10.2l0.5-10.2l4.6-57.9l5.1,13.4l5.1-2l5.1,13.4l5.1-9.4l5.1,3.9l4.6,38.7l0.5,5.8l0.4-5.8l4.7-45l3-26  l-3-38.8l-5.1-8.8l-5.1-4.5l-5.1-8.5l-5.1-0.2l-5.1,2.5l-4.3-12.6l-0.7-1.5l-5.1-52.2l-5.1,31.5l-5.1-0.3l-5.1,21.7l-0.1,0.9  l-5,44.8l-3.5-44.8l-1.6-16l-2.2,16l-2.1,70.9l-0.8,12.9l-1.1-12.9l-3.9-20.8l-5.1-21.5l-5.1,22l-5.1-3.6l-5.1,4.3l-5.1-29.2  l-1.7,48.8l0.8,70.9l-4.2,67L384.6,398.1z M340.6,398.7l0-0.6l0-7.2l2.6,7.2L340.6,398.7z M294.9,398.3l0-0.1l0-1.7l0,1.7  L294.9,398.3z M290.6,398.1l4.3,28.7l5.1-16l2-12.8l3-15.5l5.1-3.8l5.1,6.8l2.7,12.6l2.4,44.2l5.1-22.9l5.1-15.2l0.2-6.1l4.9-56.2  l3.8,56.2l1.3,33.8l5.1-4.8l4.7-29.1l0.4-6.1l5.1-5l5.1-22l5.1-9.6l5.1,0.1l5.1,15.3l3.9-43.5l-3.9-12l-4.8-58.9l-0.2-4.4l-0.5,4.4  l-4.6,44.4l-5.1,0.1l-5.1-32.3l-5.1,19.8l-3.6,38.9l-1.5,19.1l-1.5-19.1l-3.6-46.2l-5.1-14.9l-5.1-3.9l-5.1,19l-5.1-14.3l-5.1,18.8  l-5.1-5.4l-5.1,5.5l-5.1,2.6l-5.1-31.4l-0.1-0.8l-5-24.1l-2.5,24.1l-1.2,70.9l3.8,55.7L290.6,398.1z M226.9,398.1L229,429l3.1-30.9  l2-44.6l5.1,38.1l0.7,6.5l4.4,22.6l5.1,1.4l5.1-2.6l2.5-21.5l2.6-64.5l3,64.5l2.1,15.5l2.2-15.5l2.9-19.9l5.1,16l4.7-67.1l-4.7-42.4  l-5.1-4.9l-5.1,42.5l-5.1-10.6l-5.1,12.5l-5.1-61.4l-4.6-6.5l-0.4-1.4l-5.1-16.1l-2.9,17.5l-2.1,39l-5.1-33.6l-1-5.4l-4.1-22.2  l-2.1,22.2l-1.9,70.9l4.1,43.5L226.9,398.1z M213.7,413l-1.5-14.9l1.5-56.1l1.3,56.1L213.7,413z M203.6,428.4l-1.8-30.2l1.8-24.6  l1.7,24.6L203.6,428.4z M199.8,398.1l3.8,64.3l3.6-64.3l1.5-28.9l1.6,28.9l3.5,35.8l3.1-35.8l0.4-70.9l-3.5-44.7l-5.1,13.8  l-3.2,30.9l-1.9,18.5L199.8,398.1z M178.2,406.2l-1.4-8l1.4-13.6l5.1-16.6l1.9,30.1l-1.9,39L178.2,406.2z M218.8,469.1L218.8,469.1  L218.8,469.1l0-0.1L218.8,469.1z M142.5,469.1l0.2,1.6l5.1,4.2l4.7-5.8l0.3-0.5l5.1-13.3l3.3,13.8l1.8,9.2l1.7-9.2l3.4-14.8  l5.1-48.4l5.1,26.4l4.3,36.9l0.8,5.9l0.8-5.9l3.2-70.9l1.1-35.1l4-35.8l-4-36.9l-3.7,36.9l-1.4,7l-5.1,6.5l-5.1,31.8l-5.1-39.7  l-0.9-5.6l-4.2-63.3l-5.1,35.9l-5.1-13.2l-5.1,4.2l-5.1-6.6l-5.1,10.1l-5.1,15l-1.2,17.9l-3.8,25.4v17.8l5.1,2.7l3-45.8l2.1-9.1  l5.1-18.3l5.1,20l5.1-7.1l5.1,1.7l4.4,12.9l0.7,7.2l5.1,27.9l3,35.8l-3,30.7l-5.1,13.4l-5.1-13l-5.1-21.1l-3.6-10l-1.5-15l-0.5,15  l-4.6,28.5l-5.1-2.6l-5.1-10.4l-5.1,22.3v24.2l5.1,5.8l5.1-14.9L142.5,469.1z"
   id="path10" />
<path
   class="st4"
   d="M842.8,122.6l-0.1-8.2l0.1-1l0.1,1 M624.7,121.6l-0.5-7.1l0.5-1l1.2,1L624.7,121.6z M561.6,114.4l2.3,10.5  l4.6-10.5l-4.6-38.7L561.6,114.4z M536.7,114.4l1.7,4.9l3.2-4.9l-3.2-12.2L536.7,114.4z M634.8,186.8l-0.1-1.4l0.1-2.2l0.8,2.2  L634.8,186.8z M609.5,188.9l-0.2-3.5l0.2-2.7l2.6,2.7L609.5,188.9z M568.9,254.5l-0.2-69.2l0.2-8.4l5.1-0.4l5.1,4l0.9,4.8l-0.9,37.8  l-5.1-27.1L568.9,254.5z M553.7,207.1l-0.8-21.8l0.8-9l5.1,3.6l0.2,5.5l-0.2,10.5L553.7,207.1z M853,268.8l-2.4-12.5l2.4-35.6  l5.1-11.9l1.1,47.5l-1.1,14.8L853,268.8z M807.3,285.7l-1.2-29.4l1.2-14.9l5.1-6.3l4.1-49.7l1-21.6l5.1,19.3l5.1-19.4l5.1,3.9  l2.5,17.9l2.6,26.2l5.1-1l3.4,45.7l-3.4,31.3l-5.1,11.5l-5.1-33.7l-1.7-9.2l-3.3-36.4l-5.1-29.4l-2.7,65.8l-2.4,23l-5.1,11.2  L807.3,285.7z M538.4,276.2l-2.8-19.9l2.8-10.6l3,10.6L538.4,276.2z M528.3,258.9l-0.2-2.6l-2.5-70.9l2.7-17.6l2.8,17.6l-2.6,70.9  L528.3,258.9z M497.9,257.1l-0.1-0.8l-1.3-70.9l1.4-8.2l5.1,4.1L508,167l3.3,18.3l1.7,27.3l2.2-27.3l2.9-18.7l2.4,18.7l-1.6,70.9  l-0.8,8l-5.1,10.9L508,264l-5.1,13.7L497.9,257.1z M837.3,327.2l0.5,17.6l5.1,10.7l5.1-6l5.1-5.4l0.3-16.9l4.8-37.4l2.5-33.6  l-1.2-70.9l0.4-70.9l-1.7-32.3l-1.6,32.3l-3.4,50.3l-5.1-35l-1-15.3l-4-33.4l-3,33.4l-2,49.2l-5.1-22.4l-5.1-4.7l-5.1,2.5l-5.1-4.9  l-2.4,51.3l-2.7,33.1l-5.1,4.2l-2.7,33.6l2.7,66.4l5.1-5.4l5.1,0.5l5.1-17l5.1-14.8l5.1,0.1L837.3,327.2z M617.9,327.2l1.7,20.9  l1.9-20.9l-1.9-46.6L617.9,327.2z M386.2,408.4l-1.6-10.3l1.6-3.9l4.2-67l-0.8-70.9l1.7-48.8l5.1,29.2l5.1-4.3l5.1,3.6l5.1-22  l5.1,21.5l3.9,20.8l1.1,12.9l0.8-12.9l2.1-70.9l2.2-16l1.6,16l3.5,44.8l5-44.8l0.1-0.9l5.1-21.7l5.1,0.3l5.1-31.5l5.1,52.2l0.7,1.5  l4.3,12.6l5.1-2.5l5.1,0.2l5.1,8.5l5.1,4.5l5.1,8.8l3,38.8l-3,26l-4.7,45l-0.4,5.8l-0.5-5.8l-4.6-38.7l-5.1-3.9l-5.1,9.4l-5.1-13.4  l-5.1,2l-5.1-13.4l-4.6,57.9l-0.5,10.2l-4.5-10.2l-0.6-5.9l-0.6,5.9L437,341l-2.5-13.8l-2.6-20.7l-5.1,4.1l-1.3,16.6l-3.7,22.1  l-4.4-22.1l-0.6-11l-3.4,11l-1.7,2.6l-5.1,19.5l-5.1-10.7l-5.1-0.4l-3.8,60l-1.3,11.4L386.2,408.4z M294.9,426.9l-4.3-28.7  l-0.8-15.2l-3.8-55.7l1.2-70.9l2.5-24.1l5,24.1l0.1,0.8l5.1,31.4l5.1-2.6l5.1-5.5l5.1,5.4l5.1-18.8l5.1,14.3l5.1-19l5.1,3.9  l5.1,14.9l3.6,46.2l1.5,19.1l1.5-19.1l3.6-38.9l5.1-19.8l5.1,32.3l5.1-0.1l4.6-44.4l0.5-4.4l0.2,4.4l4.8,58.9l3.9,12l-3.9,43.5  l-5.1-15.3l-5.1-0.1l-5.1,9.6l-5.1,22l-5.1,5l-0.4,6.1l-4.7,29.1l-5.1,4.8l-1.3-33.8l-3.8-56.2l-4.9,56.2l-0.2,6.1l-5.1,15.2  l-5.1,22.9l-2.4-44.2l-2.7-12.6l-5.1-6.8l-5.1,3.8l-3,15.5l-2,12.8L294.9,426.9z M229,429l-2.1-30.9l-3-27.5l-4.1-43.5l1.9-70.9  l2.1-22.2l4.1,22.2l1,5.4l5.1,33.6l2.1-39l2.9-17.5l5.1,16.1l0.4,1.4l4.6,6.5l5.1,61.4l5.1-12.5l5.1,10.6l5.1-42.5l5.1,4.9l4.7,42.4  l-4.7,67.1l-5.1-16l-2.9,19.9l-2.2,15.5l-2.1-15.5l-3-64.5l-2.6,64.5l-2.5,21.5l-5.1,2.6l-5.1-1.4l-4.4-22.6l-0.7-6.5l-5.1-38.1  l-2,44.6L229,429z M218.8,402.2l-0.1-4.1l0.1-6.3l2.6,6.3L218.8,402.2z M203.6,462.5l-3.8-64.3l3.8-52.4l1.9-18.5l3.2-30.9l5.1-13.8  l3.5,44.7l-0.4,70.9l-3.1,35.8l-3.5-35.8l-1.6-28.9l-1.5,28.9L203.6,462.5z M218.8,469.1L218.8,469.1V469V469.1L218.8,469.1z   M127.5,469.1v70.2l1.7,0.7h3.7l4.7-24.6l5.1,9.7l5.1,3.1l5.1-9.6l5.1,6.3l5.1-14.6l5.1-18l2.6-23.2l2.4-17.5l5.1,6.6l1.3,10.8  l3.8,27.6l3.7-27.6l1.4-35.5l1-35.4l4.1-49.8l4.3,49.8l0.8,31.7l1.8,39.2l3.2,30.9l3-30.9l2.1-50.7l5.1,36.5l2.1,14.3l3,44.8  l3.4-44.8l1.7-63.7l3.8,63.7l1.2,13.5l2.9-13.5l2.2-12l5.1-7.3l5.1,6.6l5.1-0.3l5.1-2.4l5.1-26.5l5.1,21.6l5.1,17.5l5.1-10.6  l5.1-8.6l5.1,7.3l5.1-7.4l5.1,8.5l5.1,12.7l1.8,0.9l3.3,2.3l5.1,3.1l0.8-5.4l4.3-19.5l1.3,19.5l3.8,35.2l5.1,2.1l4.6-37.3l0.5-5.2  l1.8-65.7l3.3-37.4l2.5,37.4l2.6,67.1l5.1-8.5l5.1-36.2l5.1,14.3l5.1-17.4l2.5-19.3l2.6-8.3l5.1,0.9l1.3,7.4l3.8,34.2l5.1,1.3  l5.1,33.1l5.1-25.8l4.8-42.9l0.3-4.4l5.1-1l5.1,0.3l5.1-1l5.1-8.4l5.1,2.1l5.1-18.3l4.9,30.5l0.2,1.5l0.9-1.5l4.2-6l5.1-25.8l5.1,5  l2-44.1l3.1-38.6l5.1,35.9l5.1-5.2l1.4,7.9l3.6,28.4l5.1,6.7l5.1-22.2l4.7,58l0.4,3.6l0.5-3.6l4.4-70.9l0.1-0.8l0.1,0.8l4.9,37.9  l5.1-20l5.1,6.7l5.1-14l3.7-10.7l1.4-3l5.1,2.5l0,0.5l5,31.3l5.1,0.9l3-32.2l2-23.4l5.1,10.2l5.1-17.7l4.5,30.8l0.6,8l0.8-8  l4.3-25.5l1.4,25.5l3.6,38.1l2.8-38.1l2.3-48l5.1,0.7l5.1-14.4l5.1,39.7l4.5-49l0.6-15.6l5.1-4l5.1,9.6l5.1,0.5l0.6,9.5l4.2,70.9  l0.2,1.1l0.2-1.1l4.9-58.2l5.1-9.1l0.9-3.6l4.2-15l5.1,11.5l0.5,3.4l4.6,55.7l5.1-38.2l1.5-17.4l3.6-27L645,218l5.1,16.8l5.1-4.4  l5.1-26.4l5.1-12.7l3.4,65l1.7,15.8l2.1-15.8l3-23l3.9,23l1.2,6.8l5.1,6.2l2.9-13l2.2-33.5l5.1,11.5l5.1-0.2l5.1,7.5l5.1-13.6  l5.1,6.8l5.1-10.6l5.1-15.9l5.1-5.6l5.1-8.5l5.1,2.8l1.6-11.6l3.5-16.1l2.7,16.1l2.4,13.2l5.1-9.1l0.4-4.1l4.6-24.8l5.1-42.2  l5.1,7.3l2.5-11.3l2.5-11.9l3.7,11.9l1.4,5.5l5.1-3.9l0.2-1.6l4.8-45l1.3,45l2.6,70.9l1.2,20.4l3.2-20.4l1.9-26.3l2.5-44.6  l-2.5-52.9l-3.1-18h-2h-5.1H787H782h-5.1h-5.1h-5.1h-5.1h-3.8l-1.3,4l-1.8-4h-3.3h-1l-4.1,25.8l-5.1-10.7l-5.1-2.3l-1.7-12.8h-3.4  h-5.1H725l-3.9,24l-5.1,2.1L710.9,54l-5.1,16.6l-5.1,3.9l-4.3-31h-0.7h-5.1h-0.6l-4.5,41l-5.1,3.7l-5.1,6.7l-4.6-51.4h-0.4h-1.2  l-3.9,55.3L662,43.5h-1.8h-0.7l-4.3,61.4l-5.1-9.5l-5.1-51l-5.1,0.9l-5.1,39.2l-5.1-15l-5.1-0.7l-5.1,6.9l-3.7,38.8l-1.3,16.3  l-5.1-10.9l-2.6-5.4l-2.5-13.7l-5.1-1.6l-5.1-8.2l-2.6,23.5l-2.4,22.2l-5.1-0.6l-5.1,4l-5.1-14.9l-5.1-8.4l-1.8,68.7l-3.2,59.9  l-3.2-59.9l-1.8-51.1l-5.1-16.4l-5.1,38.4l-5.1-31.8l-1,60.9l-4,40.2l-3.8-40.2l-1.3-50.2l-5.1-13.2l-5.1,17.3l-3.9-24.8l-1.2-8.7  l-2.3,8.7l-2.8,10.8l-5.1,2.7l-5.1,1.4l-5.1-3.7l-5.1,8.3l-5.1-3.7l-5.1,0.3l-5.1-0.2l-5.1-14.4l-5.1,0.4l-5.1,0.8l-5.1,0.3l-0.3-3  l-4.8-29.3l-2.7,29.3l-2.4,19.7l-5.1,0.7l-5.1-1.2l-4.4,51.7l-0.7,6.3l-0.5-6.3l-4.6-46.7l-5.1,21.4l-3.6,25.3l-1.5,5.6l-0.7-5.6  l-4.4-33.8l-5.1,17.8l-5.1,11.7l-0.7,4.4l-4.4,16.7l-2.1-16.7l-3-28.6l-2.6,28.6l-1.5,70.9l1.8,70.9l-2.8,44.6l-3.6-44.6l-1.5-48.3  l-5.1,16.6l-3.2-39.2L371,221l-3.8,35.3l-1.2,12l-5.1,2.1l-1.8-14.1l-3.2-43.9l-5.1,17.8l-5.1-11l-5.1-2.5l-5.1-21.5l-5.1,16  l-5.1,10l-3.2-35.9l-1.8-21.6l-2.4,21.6l-2.7,43l-4-43l-1.1-8.6l-0.8,8.6l-4.2,53.8l-4.9,17.1l-0.1,0.1l0-0.1l0-35l0-36l0-0.4  l-0.1,0.4l-5,14.7l-5.1,1l-5.1,30.5l-2.7,24.7l-2.4,12.8l-1.7-12.8l-0.5-70.9l-2.8-35.3l-3.4,35.3l-1.7,33.6l-3.4,37.4l-1.7,7.8  l-0.8-7.8l-4.3-43.7l-5.1-19.8l-1.2-7.4l-3.8-18.3l-5.1,4.8l-2.6,13.5l-2.5,10.2l-5.1,17.8l-5.1-3.9l-5.1-4.4l-4.9,51.2l-0.1,5.4  l-0.5-5.4l-4.6-30.4l-2.7,30.4l-2.4,12.6l-5.1,20.2l-5.1-12l-1.5-20.8l-3.5-40.5l-5.1,2.1l-5.1,25.6l-5.1-13.9l-0.8,26.6l-4.2,52.4  l-4.2-52.4l-0.9-42.3l-5.1-4.1l-1.6,46.4l-3.5,29l-5.1-24.7l-5.1,1.3l-5.1,6.8l-5.1,1.9l-5.1-0.2l-3.9,56.9l-1.2,7.6v17.8l3.8-25.4  l1.2-17.9l5.1-15l5.1-10.1l5.1,6.6l5.1-4.2l5.1,13.2l5.1-35.9l4.2,63.3l0.9,5.6l5.1,39.7l5.1-31.8l5.1-6.5l1.4-7l3.7-36.9l4,36.9  l-4,35.8l-1.1,35.1l-3.2,70.9l-0.8,5.9l-0.8-5.9l-4.3-36.9l-5.1-26.4l-5.1,48.4l-3.4,14.8l-1.7,9.2l-1.8-9.2l-3.3-13.8l-5.1,13.3  l-0.3,0.5l-4.7,5.8l-5.1-4.2l-0.2-1.6l-4.9-18l-5.1,14.9l-5.1-5.8V469.1z"
   id="path12" />
<path
   class="st5"
   d="M756.6,43.5h-1.8l1.8,4l1.3-4H756.6z M736.3,43.5h-1.7l1.7,12.8l5.1,2.3l5.1,10.7l4.1-25.8h-4.1h-5.1H736.3z   M700.8,43.5h-4.3l4.3,31l5.1-3.9l5.1-16.6l5.1,15.6l5.1-2.1l3.9-24h-3.9H716h-5.1h-5.1H700.8z M673.1,43.5h-2.3l4.6,51.4l5.1-6.7  l5.1-3.7l4.5-41h-4.5h-5.1h-1.8l-3.3,25.6L673.1,43.5z M665.3,43.5H662l3.3,55.3l3.9-55.3H665.3z M563.8,124.9l-2.3-10.5l2.3-38.7  l4.6,38.7L563.8,124.9z M538.4,119.3l-1.7-4.9l1.7-12.2l3.2,12.2L538.4,119.3z M807.3,203.9l-3.1-18.6l3.1-51.1l5.1-0.7l1.4,51.7  l-1.4,16.5L807.3,203.9z M563.8,215.2l-1.6-29.8l1.6-30.1l1.6,30.1L563.8,215.2z M538.4,205.4l-1.9-20l1.9-32.9l2,32.9L538.4,205.4z   M376.1,275.8l-1.6-19.5l-3.5-66.2l-0.8-4.8l0.8-53.5l5.1,25.1l3,28.4l0.1,70.9L376.1,275.8z M173.2,282.4l-2.1-26.1l2.1-49l2.1,49  L173.2,282.4z M837.8,344.8l-0.5-17.6l-4.6-41.1l-5.1-0.1l-5.1,14.8l-5.1,17l-5.1-0.5l-5.1,5.4l-2.7-66.4l2.7-33.6l5.1-4.2l2.7-33.1  l2.4-51.3l5.1,4.9l5.1-2.5l5.1,4.7l5.1,22.4l2-49.2l3-33.4l4,33.4l1,15.3l5.1,35l3.4-50.3l1.6-32.3l1.7,32.3l-0.4,70.9l1.2,70.9  l-2.5,33.6l-4.8,37.4l-0.3,16.9l-5.1,5.4l-5.1,6L837.8,344.8z M832.7,382.5l-2.8-55.3l2.8-20.5l2.3,20.5L832.7,382.5z M735.8,327.2  l0.5,5.2l0.6-5.2l-0.6-2.7L735.8,327.2z M619.6,348.2l-1.7-20.9l1.7-46.6l1.9,46.6L619.6,348.2z M452.2,383.2l-1.5-56l1.5-19.2  l2.6,19.2L452.2,383.2z M386.2,349.4l-1.8-22.2l1.8-44.1l1.4,44.1L386.2,349.4z M127.5,327.2v7.6l1.2-7.6l3.9-56.9l5.1,0.2l5.1-1.9  l5.1-6.8l5.1-1.3l5.1,24.7l3.5-29l1.6-46.4l5.1,4.1l0.9,42.3l4.2,52.4l4.2-52.4l0.8-26.6l5.1,13.9l5.1-25.6l5.1-2.1l3.5,40.5  l1.5,20.8l5.1,12l5.1-20.2l2.4-12.6l2.7-30.4l4.6,30.4l0.5,5.4l0.1-5.4l4.9-51.2l5.1,4.4l5.1,3.9l5.1-17.8l2.5-10.2l2.6-13.5  l5.1-4.8l3.8,18.3l1.2,7.4l5.1,19.8l4.3,43.7l0.8,7.8l1.7-7.8l3.4-37.4l1.7-33.6l3.4-35.3l2.8,35.3l0.5,70.9l1.7,12.8l2.4-12.8  l2.7-24.7l5.1-30.5l5.1-1l5-14.7l0.1-0.4l0,0.4l0,36l0,35l0,0.1l0.1-0.1l4.9-17.1l4.2-53.8l0.8-8.6l1.1,8.6l4,43l2.7-43l2.4-21.6  l1.8,21.6l3.2,35.9l5.1-10l5.1-16l5.1,21.5l5.1,2.5l5.1,11l5.1-17.8l3.2,43.9l1.8,14.1l5.1-2.1l1.2-12L371,221l1.8,35.3l3.2,39.2  l5.1-16.6l1.5,48.3l3.6,44.6l2.8-44.6l-1.8-70.9l1.5-70.9l2.6-28.6l3,28.6l2.1,16.7l4.4-16.7l0.7-4.4l5.1-11.7l5.1-17.8l4.4,33.8  l0.7,5.6l1.5-5.6l3.6-25.3l5.1-21.4l4.6,46.7l0.5,6.3l0.7-6.3l4.4-51.7l5.1,1.2l5.1-0.7l2.4-19.7l2.7-29.3l4.8,29.3l0.3,3l5.1-0.3  l5.1-0.8l5.1-0.4l5.1,14.4l5.1,0.2l5.1-0.3l5.1,3.7l5.1-8.3l5.1,3.7l5.1-1.4l5.1-2.7l2.8-10.8l2.3-8.7l1.2,8.7l3.9,24.8l5.1-17.3  l5.1,13.2l1.3,50.2l3.8,40.2l4-40.2l1-60.9l5.1,31.8l5.1-38.4l5.1,16.4l1.8,51.1l3.2,59.9l3.2-59.9l1.8-68.7l5.1,8.4L579,140l5.1-4  l5.1,0.6l2.4-22.2l2.6-23.5l5.1,8.2l5.1,1.6l2.5,13.7l2.6,5.4l5.1,10.9l1.3-16.3l3.7-38.8l5.1-6.9l5.1,0.7l5.1,15l5.1-39.2l5.1-0.9  l5.1,51l5.1,9.5l4.3-61.4h-2.2l-2.2,30.6l-5.1-4.8l-2.5-25.8H645h-5.1h-5.1h-5.1h-5.1h-5.1h-5.1h-5.1h-5.1h-5.1h-5.1h-5.1h-5.1H579  H574h-5.1h-5.1h-5.1h-5.1h-5.1h-5.1h-5.1h-5.1h-5.1h-5.1h-5.1h-5.1H508h-5.1h-5.1h-5.1h-5.1h-5.1h-5.1h-2.2l-2.9,35.7l-5.1-31.8  l-5.1,0.4l-0.6-4.3h-4.5h-4.1l-1,4.2l-3.8-4.2h-1.2H442h-0.6L437,56.1l-5.1,11.9l-5.1-1.6l-5.1-4.4l-5.1,6l-5.1,29.6l-5.1,2.9l-1,14  l-4.1,9.9l-2.1-9.9l-3-43.9l-4.8,43.9l-0.3,0.7l-0.5-0.7l-4.5-27.8l-4.1,27.8l-1,17.9l-0.7-17.9l-4.4-34.2l-5.1,20.2l-5.1,8.7  l-5.1-0.9l-5.1-4.5l-5.1-18.6l-5.1,17.7l-5.1-2.9l-5.1-10.4l-0.5,25.1l-4.5,47.8l-4.6-47.8l-0.4-26l-5.1-18.7l-5.1,3.7l-5.1-5.9  l-5.1,24.5l-3-48.6H300h-5.1h-2l-3.1,45.8l-4.4-45.8h-0.7h-0.6l-4.4,70.5l-5.1-46.9l-5.1-0.3l-5.1,13.9l-1.1,33.7l-4,46.5l-3.2-46.5  l-1.9-55l-5.1,6.2l-4.8,48.8l-0.3,1.3l-0.5-1.3l-4.6-44.9l-5.1-4.9l-3.7,49.8l-1.3,13.3l-5.1,13.1l-2-26.5l-3.1-40.8l-5.1,9.6  l-5.1-9.8l-3.7,41l-1.4,10.1l-5.1,0.9l-3.1-11l-2-10.5l-2.3,10.5l-2.8,11.5l-5.1,25.2l-5.1,1l-5.1-3.7l-5.1-8.9l-5.1,3l-3.8,43  l0.5,70.9l-1.7,14.4l-2.8-14.4l-2.3-62.9l-5.1-3.1l-5.1,16.1l-5.1-3.8l-5.1-6.4l-5.1,23.1v37.1V327.2z M335.5,446.5l-1.6-48.3  l1.6-18.6l1.3,18.6L335.5,446.5z M218.7,398.1l0.1,4.1l2.6-4.1l-2.6-6.3L218.7,398.1z M193.5,442.7l-2-44.5l2-24.8l2.1,24.8  L193.5,442.7z M137.6,515.4l-4.7,24.6h35.8l4.4-43.7l2.5,43.7h2.5h2.5l2.5-21.6L188,540h0.4h5.1h0.2l4.8-11l5.1,9.3l5.1-16l4.2,17.7  h0.9h5.1h5.1h5.1h5.1h5.1h5.1h5.1h5.1h5.1h5.1h5.1h5.1h5.1h5.1h5.1h5.1h5.1h5.1h5.1h5.1h5.1h5.1h4.6l0.4-1.4l0.3,1.4h4.8h5.1h3.1  l2-5.5l1.9-65.4l3.2-24.2l4.1,24.2l-4.1,69.9l-1.1,1h1.1h5.1h0.8l4.2-51.9l5.1,30.5l5.1,0l5.1-0.4l5.1,0.3l5.1,3.7l5.1-24.4  l2.4-28.8l2.7-8.3l3.5,8.3l1.6,14.2l5.1,15.2l5.1-0.7l5.1-5l5.1,7.7l1.9-31.4l3.1-27.8l5.1,21.6l2.4,6.2l2.7,17.2l5.1,3l5.1,25.5  l4-45.6l1.1-23.2l5.1,3.6l5.1-0.1l5.1-5.2l5,24.9l0.1,0.4l5.1,2l0.3-2.4l4.8-16.2l5.1-17l5.1,1l5.1-1.8l5.1-11.2l5.1-6.1l5.1,23.5  l5.1-25.4l4.5-17.6l0.6-0.4l0.1,0.4l5,36.8l5.1,3.3l5.1-36.1l5.1,5.8l5.1,23.3l4.5-33l0.5-5.8l1.1,5.8l4,25l5.1,1.2l2.5-26.3  l-1.5-70.9l4.1-23.6l2.9,23.6l2.2,61.1L579,378l5.1-5.5l5.1,1.6l5.1,18.7l5.1-15.7l5.1-13.9l5.1-9.1l5.1,39.3l5.1,2.5l5.1-31.5  l5.1,31.9l5.1-19.5l5.1-23.9l5.1,23.5l4.9-49.3l0.2-2.4l0.8,2.4l4.3,20l3.4-20l1.7-9.6l0.9,9.6l4.1,25.5l3-25.5l2.1-8.1l5.1-22.1  l5.1,13.7l5.1,2.2l5.1-9l5.1,11.4l5.1,4.6l5.1,1.1l5.1-1l5.1,3.6l1.6,3.7l3.5,10.2l1.7-10.2l3.4-32.3l5.1-3.8l1.3-34.8l3.8-31  l3.3,31l1.8,46.2l5.1-2l5.1,6.7l5.1-17.4l5.1,16.5l3.1-49.9l-1.2-70.9l3.2-33.3l3.1,33.3l1.9,69.1l5.1-11.4l5.1,9.1l5.1-16.3  l1.5-50.4l3.6-40.4l1.9,40.4l3.1,54.7l5.1-16.8l0.8,32.9l1.8,70.9l1.5,70.9l0.9,70.2l0.6-70.2l4.5-43.4l3.7,43.4l0.8,70.9l0.6,1.4  l0.2-1.4l4.9-22l5.1,14.1l5.1,6.7l5.1-8.6l5.1-13.7l5.1,6.8l4.7,16.7l0.4,3.9l5.1,19.3l0.5-23.2l1.3-70.9l-1.8-23.1l-2.4-47.9  l2.4-18.6l3.8-52.3l-0.6-70.9l0.2-70.9l-3.5-66.7l-3.4,66.7l-1.7,25.1l-2.9-25.1l-2.2-56.9l-5.1-8.8l-5.1,22.4l-4.8,43.4l-0.3,0.5  l-0.5-0.5l-4.6-32.9l-5.1-17.2l-5.1,7.3l-5.1-19.6l-5.1,4.4l-0.5-13h-4.6h-3.1l3.1,18l2.5,52.9l-2.5,44.6l-1.9,26.3l-3.2,20.4  l-1.2-20.4l-2.6-70.9l-1.3-45l-4.8,45L787,116l-5.1,3.9l-1.4-5.5l-3.7-11.9l-2.5,11.9l-2.5,11.3l-5.1-7.3l-5.1,42.2l-4.6,24.8  l-0.4,4.1l-5.1,9.1l-2.4-13.2l-2.7-16.1l-3.5,16.1l-1.6,11.6l-5.1-2.8l-5.1,8.5l-5.1,5.6l-5.1,15.9l-5.1,10.6l-5.1-6.8l-5.1,13.6  l-5.1-7.5l-5.1,0.2l-5.1-11.5l-2.2,33.5l-2.9,13l-5.1-6.2l-1.2-6.8l-3.9-23l-3,23l-2.1,15.8l-1.7-15.8l-3.4-65l-5.1,12.7l-5.1,26.4  l-5.1,4.4L645,218l-5.1,11.3l-3.6,27l-1.5,17.4l-5.1,38.2l-4.6-55.7l-0.5-3.4l-5.1-11.5l-4.2,15l-0.9,3.6l-5.1,9.1l-4.9,58.2  l-0.2,1.1l-0.2-1.1l-4.2-70.9l-0.6-9.5l-5.1-0.5l-5.1-9.6l-5.1,4l-0.6,15.6l-4.5,49l-5.1-39.7l-5.1,14.4l-5.1-0.7l-2.3,48l-2.8,38.1  l-3.6-38.1l-1.4-25.5l-4.3,25.5l-0.8,8l-0.6-8l-4.5-30.8l-5.1,17.7l-5.1-10.2l-2,23.4l-3,32.2l-5.1-0.9l-5-31.3l0-0.5l-5.1-2.5  l-1.4,3l-3.7,10.7l-5.1,14l-5.1-6.7l-5.1,20l-4.9-37.9l-0.1-0.8l-0.1,0.8l-4.4,70.9l-0.5,3.6l-0.4-3.6l-4.7-58l-5.1,22.2l-5.1-6.7  l-3.6-28.4l-1.4-7.9l-5.1,5.2l-5.1-35.9l-3.1,38.6l-2,44.1l-5.1-5l-5.1,25.8l-4.2,6l-0.9,1.5l-0.2-1.5l-4.9-30.5l-5.1,18.3l-5.1-2.1  l-5.1,8.4l-5.1,1l-5.1-0.3l-5.1,1l-0.3,4.4l-4.8,42.9l-5.1,25.8l-5.1-33.1l-5.1-1.3l-3.8-34.2l-1.3-7.4l-5.1-0.9l-2.6,8.3l-2.5,19.3  l-5.1,17.4l-5.1-14.3l-5.1,36.2l-5.1,8.5l-2.6-67.1l-2.5-37.4l-3.3,37.4l-1.8,65.7l-0.5,5.2l-4.6,37.3l-5.1-2.1l-3.8-35.2l-1.3-19.5  l-4.3,19.5l-0.8,5.4l-5.1-3.1l-3.3-2.3l-1.8-0.9l-5.1-12.7l-5.1-8.5l-5.1,7.4l-5.1-7.3l-5.1,8.6l-5.1,10.6l-5.1-17.5l-5.1-21.6  l-5.1,26.5l-5.1,2.4l-5.1,0.3l-5.1-6.6l-5.1,7.3l-2.2,12l-2.9,13.5l-1.2-13.5l-3.8-63.7l-1.7,63.7l-3.4,44.8l-3-44.8l-2.1-14.3  l-5.1-36.5l-2.1,50.7l-3,30.9l-3.2-30.9l-1.8-39.2l-0.8-31.7l-4.3-49.8l-4.1,49.8l-1,35.4l-1.4,35.5l-3.7,27.6l-3.8-27.6l-1.3-10.8  l-5.1-6.6l-2.4,17.5l-2.6,23.2l-5.1,18l-5.1,14.6l-5.1-6.3l-5.1,9.6l-5.1-3.1L137.6,515.4z M129.2,540l-1.7-0.7v0.7H129.2z"
   id="path14" />
<path
   class="st0"
   d="M675.4,43.5h-2.3l2.3,25.6l3.3-25.6H675.4z M650.1,43.5h-2.5l2.5,25.8l5.1,4.8l2.2-30.6h-2.2H650.1z   M462.3,43.5h-0.6l0.6,4.3l5.1-0.4l5.1,31.8l2.9-35.7h-2.9h-5.1H462.3z M452.2,43.5h-3.8l3.8,4.2l1-4.2H452.2z M289.8,43.5h-4.4  l4.4,45.8l3.1-45.8H289.8z M325.8,114.4l4.6,47.8l4.5-47.8l0.5-25.1l5.1,10.4l5.1,2.9l5.1-17.7l5.1,18.6l5.1,4.5l5.1,0.9l5.1-8.7  l5.1-20.2l4.4,34.2l0.7,17.9l1-17.9l4.1-27.8l4.5,27.8l0.5,0.7l0.3-0.7l4.8-43.9l3,43.9l2.1,9.9l4.1-9.9l1-14l5.1-2.9l5.1-29.6  l5.1-6l5.1,4.4l5.1,1.6l5.1-11.9l4.5-12.6H437h-5.1h-5.1h-5.1h-5.1h-5.1h-5.1h-5.1h-5.1h-5.1h-5.1h-5.1h-5.1H371h-5.1h-5.1h-5.1  h-5.1h-5.1h-5.1h-5.1h-5.1h-5.1h-5.1h-5.1h-5.1h-5.1h-3l3,48.6l5.1-24.5l5.1,5.9l5.1-3.7l5.1,18.7L325.8,114.4z M804.3,185.4  l3.1,18.6l5.1-2.1l1.4-16.5l-1.4-51.7l-5.1,0.7L804.3,185.4z M562.2,185.4l1.6,29.8l1.6-29.8l-1.6-30.1L562.2,185.4z M536.6,185.4  l1.9,20l2-20l-2-32.9L536.6,185.4z M374.5,256.3l1.6,19.5l3.1-19.5l-0.1-70.9l-3-28.4l-5.1-25.1l-0.8,53.5l0.8,4.8L374.5,256.3z   M171.1,256.3l2.1,26.1l2.1-26.1l-2.1-49L171.1,256.3z M155.2,256.3l2.8,14.4l1.7-14.4l-0.5-70.9l3.8-43l5.1-3l5.1,8.9l5.1,3.7  l5.1-1l5.1-25.2l2.8-11.5l2.3-10.5l2,10.5l3.1,11l5.1-0.9l1.4-10.1l3.7-41l5.1,9.8l5.1-9.6l3.1,40.8l2,26.5l5.1-13.1l1.3-13.3  l3.7-49.8l5.1,4.9l4.6,44.9l0.5,1.3l0.3-1.3l4.8-48.8l5.1-6.2l1.9,55l3.2,46.5l4-46.5l1.1-33.7l5.1-13.9l5.1,0.3l5.1,46.9l4.4-70.5  h-4.4h-5.1h-5.1h-5.1h-5.1h-5.1h-5.1h-5.1h-5.1H234H229h-5.1h-5.1h-5.1h-5.1h-5.1h-5.1h-5.1h-5.1h-5.1h-5.1h-5.1h-5.1H163h-5.1h-5.1  h-5.1h-5.1h-5.1h-5.1h-5.1v70.9v70.9v33.9l5.1-23.1l5.1,6.4l5.1,3.8l5.1-16.1l5.1,3.1L155.2,256.3z M829.9,327.2l2.8,55.3l2.3-55.3  l-2.3-20.5L829.9,327.2z M736.3,332.4l-0.5-5.2l0.5-2.7l0.6,2.7L736.3,332.4z M450.7,327.2l1.5,56l2.6-56l-2.6-19.2L450.7,327.2z   M384.4,327.2l1.8,22.2l1.4-22.2l-1.4-44.1L384.4,327.2z M333.9,398.1l1.6,48.3l1.3-48.3l-1.3-18.6L333.9,398.1z M191.4,398.1  l2,44.5l2.1-44.5l-2.1-24.8L191.4,398.1z M360.9,488.1l-4.2,51.9h531.9V43.5h-5.1h-5.1h-5.1h-5.1h-5.1h-5.1H853h-5.1h-5.1h-5.1h-5.1  h-5.1h-5.1h-5.1h-5.1h-5.1h-0.5l0.5,13l5.1-4.4l5.1,19.6l5.1-7.3l5.1,17.2l4.6,32.9l0.5,0.5l0.3-0.5l4.8-43.4l5.1-22.4l5.1,8.8  l2.2,56.9l2.9,25.1l1.7-25.1l3.4-66.7l3.5,66.7l-0.2,70.9l0.6,70.9l-3.8,52.3l-2.4,18.6l2.4,47.9l1.8,23.1l-1.3,70.9l-0.5,23.2  L853,473l-0.4-3.9l-4.7-16.7l-5.1-6.8l-5.1,13.7l-5.1,8.6l-5.1-6.7l-5.1-14.1l-4.9,22l-0.2,1.4l-0.6-1.4l-0.8-70.9l-3.7-43.4  l-4.5,43.4l-0.6,70.2l-0.9-70.2l-1.5-70.9l-1.8-70.9l-0.8-32.9l-5.1,16.8l-3.1-54.7l-1.9-40.4l-3.6,40.4l-1.5,50.4l-5.1,16.3  l-5.1-9.1l-5.1,11.4l-1.9-69.1l-3.1-33.3l-3.2,33.3l1.2,70.9l-3.1,49.9l-5.1-16.5l-5.1,17.4l-5.1-6.7l-5.1,2l-1.8-46.2l-3.3-31  l-3.8,31l-1.3,34.8l-5.1,3.8l-3.4,32.3l-1.7,10.2l-3.5-10.2l-1.6-3.7l-5.1-3.6l-5.1,1l-5.1-1.1l-5.1-4.6l-5.1-11.4l-5.1,9l-5.1-2.2  l-5.1-13.7l-5.1,22.1l-2.1,8.1l-3,25.5l-4.1-25.5l-0.9-9.6l-1.7,9.6l-3.4,20l-4.3-20l-0.8-2.4l-0.2,2.4l-4.9,49.3l-5.1-23.5  l-5.1,23.9l-5.1,19.5l-5.1-31.9l-5.1,31.5l-5.1-2.5l-5.1-39.3l-5.1,9.1l-5.1,13.9l-5.1,15.7l-5.1-18.7l-5.1-1.6L579,378l-5.1,10.3  l-2.2-61.1l-2.9-23.6l-4.1,23.6l1.5,70.9l-2.5,26.3l-5.1-1.2l-4-25l-1.1-5.8l-0.5,5.8l-4.5,33l-5.1-23.3l-5.1-5.8l-5.1,36.1  l-5.1-3.3l-5-36.8l-0.1-0.4l-0.6,0.4l-4.5,17.6l-5.1,25.4l-5.1-23.5l-5.1,6.1l-5.1,11.2l-5.1,1.8l-5.1-1l-5.1,17l-4.8,16.2l-0.3,2.4  l-5.1-2l-0.1-0.4l-5-24.9l-5.1,5.2l-5.1,0.1l-5.1-3.6l-1.1,23.2l-4,45.6l-5.1-25.5l-5.1-3l-2.7-17.2l-2.4-6.2l-5.1-21.6l-3.1,27.8  l-1.9,31.4l-5.1-7.7l-5.1,5l-5.1,0.7l-5.1-15.2l-1.6-14.2l-3.5-8.3l-2.7,8.3l-2.4,28.8l-5.1,24.4l-5.1-3.7l-5.1-0.3l-5.1,0.4l-5.1,0  L360.9,488.1z M345.7,534.5l-2,5.5h6l1.1-1l4.1-69.9l-4.1-24.2l-3.2,24.2L345.7,534.5z M330.4,538.6L330,540h0.7L330.4,538.6z   M198.5,529l-4.8,11h19.2l-4.2-17.7l-5.1,16L198.5,529z M183.3,518.4l-2.5,21.6h7.2L183.3,518.4z M173.2,496.3l-4.4,43.7h7  L173.2,496.3z"
   id="path16" />
<line
   class="st6"
   x1="129.8"
   y1="398.1"
   x2="127.5"
   y2="411.7"
   id="line18" />
<polyline
   class="st6"
   points="168.6,398.1 168.1,403.5 163,404.6 157.9,403.1 157,398.1 "
   id="polyline20" />
<line
   class="st6"
   x1="127.5"
   y1="388.2"
   x2="129.8"
   y2="398.1"
   id="line22" />
<polyline
   class="st6"
   points="145.3,327.2 142.7,375.9 139.9,327.2 "
   id="polyline24" />
<polyline
   class="st6"
   points="157,398.1 157.9,353.8 163,388.7 168.1,391.9 168.6,398.1 "
   id="polyline26" />
<polyline
   class="st6"
   points="229.4,327.2 229,335.7 227.6,327.2 "
   id="polyline28" />
<polyline
   class="st6"
   points="139.9,327.2 142.7,315.4 145.3,327.2 "
   id="polyline30" />
<polyline
   class="st6"
   points="227.6,327.2 229,321.7 229.4,327.2 "
   id="polyline32" />
<polyline
   class="st6"
   points="147.3,398.1 142.7,426.7 137.6,424.1 132.6,413.7 127.5,435.9 "
   id="polyline34" />
<polyline
   class="st6"
   points="171.1,398.1 168.1,428.9 163,442.2 157.9,429.2 152.9,408.1 149.3,398.1 "
   id="polyline36" />
<polyline
   class="st6"
   points="185.2,398.1 183.3,437.1 178.2,406.2 176.9,398.1 "
   id="polyline38" />
<polyline
   class="st6"
   points="205.3,398.1 203.6,428.4 201.8,398.1 "
   id="polyline40" />
<polyline
   class="st6"
   points="215.1,398.1 213.7,413 212.3,398.1 "
   id="polyline42" />
<polyline
   class="st6"
   points="294.9,398.1 294.9,398.3 294.9,398.1 "
   id="polyline44" />
<polyline
   class="st6"
   points="343.1,398.1 340.6,398.7 340.6,398.1 "
   id="polyline46" />
<polyline
   class="st6"
   points="127.5,370.4 132.6,373.1 135.6,327.2 "
   id="polyline48" />
<polyline
   class="st6"
   points="149.3,398.1 147.8,383.2 147.3,398.1 "
   id="polyline50" />
<polyline
   class="st6"
   points="162.4,327.2 163,334.4 168.1,362.3 171.1,398.1 "
   id="polyline52" />
<polyline
   class="st6"
   points="176.9,398.1 178.2,384.6 183.3,368 185.2,398.1 "
   id="polyline54" />
<polyline
   class="st6"
   points="201.8,398.1 203.6,373.5 205.3,398.1 "
   id="polyline56" />
<polyline
   class="st6"
   points="210.7,327.2 208.7,332 208.3,327.2 "
   id="polyline58" />
<polyline
   class="st6"
   points="212.3,398.1 213.7,342 215.1,398.1 "
   id="polyline60" />
<polyline
   class="st6"
   points="232.1,327.2 229,381.8 223.9,341.5 222.6,327.2 "
   id="polyline62" />
<polyline
   class="st6"
   points="251,327.2 249.3,372.5 244.2,373.4 239.1,327.2 "
   id="polyline64" />
<polyline
   class="st6"
   points="273.8,327.2 269.6,343.9 267.8,327.2 "
   id="polyline66" />
<polyline
   class="st6"
   points="294.9,398.1 294.9,396.4 294.9,398.1 "
   id="polyline68" />
<polyline
   class="st6"
   points="323.4,327.2 320.3,339.1 315.2,332.4 310.1,330.1 305.1,336.2 300,342.2 297.1,327.2 "
   id="polyline70" />
<polyline
   class="st6"
   points="331.2,327.2 330.4,330.1 329.1,327.2 "
   id="polyline72" />
<polyline
   class="st6"
   points="340.6,398.1 340.6,390.9 343.1,398.1 "
   id="polyline74" />
<polyline
   class="st6"
   points="135.6,327.2 137.6,318.1 142.7,299.8 147.8,319.8 152.9,312.6 157.9,314.3 162.4,327.2 "
   id="polyline76" />
<polyline
   class="st6"
   points="208.3,327.2 208.7,323.7 210.7,327.2 "
   id="polyline78" />
<polyline
   class="st6"
   points="222.6,327.2 223.9,279.3 229,291.7 232.1,327.2 "
   id="polyline80" />
<polyline
   class="st6"
   points="239.1,327.2 244.2,298.2 249.3,305.4 251,327.2 "
   id="polyline82" />
<polyline
   class="st6"
   points="267.8,327.2 269.6,311.7 273.8,327.2 "
   id="polyline84" />
<polyline
   class="st6"
   points="297.1,327.2 300,320.5 305.1,320.5 310.1,324.6 315.2,323.6 320.3,318.9 323.4,327.2 "
   id="polyline86" />
<polyline
   class="st6"
   points="329.1,327.2 330.4,324.9 331.2,327.2 "
   id="polyline88" />
<polyline
   class="st6"
   points="814.5,256.3 812.4,263.6 809.5,256.3 "
   id="polyline90" />
<polyline
   class="st6"
   points="839,256.3 837.8,263 836.5,256.3 "
   id="polyline92" />
<polyline
   class="st6"
   points="809.5,256.3 812.4,251.7 814.5,256.3 "
   id="polyline94" />
<polyline
   class="st6"
   points="836.5,256.3 837.8,249.3 839,256.3 "
   id="polyline96" />
<polyline
   class="st6"
   points="152.5,469.1 147.8,474.8 142.7,470.6 142.5,469.1 "
   id="polyline98" />
<polyline
   class="st6"
   points="164.7,469.1 163,478.2 161.2,469.1 "
   id="polyline100" />
<polyline
   class="st6"
   points="184.1,469.1 183.3,474.9 182.5,469.1 "
   id="polyline102" />
<polyline
   class="st6"
   points="218.8,469.1 218.8,469.1 218.8,469.1 "
   id="polyline104" />
<polyline
   class="st6"
   points="142.5,469.1 137.6,451.1 132.6,466 127.5,460.2 "
   id="polyline106" />
<polyline
   class="st6"
   points="161.2,469.1 157.9,455.3 152.9,468.6 152.5,469.1 "
   id="polyline108" />
<polyline
   class="st6"
   points="182.5,469.1 178.2,432.2 173.2,405.8 168.1,454.2 164.7,469.1 "
   id="polyline110" />
<line
   class="st6"
   x1="187.3"
   y1="398.1"
   x2="184.1"
   y2="469.1"
   id="line112" />
<polyline
   class="st6"
   points="207.2,398.1 203.6,462.5 199.8,398.1 "
   id="polyline114" />
<polyline
   class="st6"
   points="216.9,398.1 213.7,433.9 210.3,398.1 "
   id="polyline116" />
<polyline
   class="st6"
   points="218.8,469.1 218.8,469 218.8,469.1 "
   id="polyline118" />
<polyline
   class="st6"
   points="232.1,398.1 229,429 226.9,398.1 "
   id="polyline120" />
<polyline
   class="st6"
   points="256.8,398.1 254.3,419.6 249.3,422.2 244.2,420.8 239.8,398.1 "
   id="polyline122" />
<polyline
   class="st6"
   points="266.7,398.1 264.5,413.6 262.4,398.1 "
   id="polyline124" />
<polyline
   class="st6"
   points="302,398.1 300,410.9 294.9,426.9 290.6,398.1 "
   id="polyline126" />
<polyline
   class="st6"
   points="330.6,398.1 330.4,404.2 325.4,419.4 320.3,442.3 317.9,398.1 "
   id="polyline128" />
<polyline
   class="st6"
   points="350.3,398.1 345.7,427.2 340.6,432 339.3,398.1 "
   id="polyline130" />
<polyline
   class="st6"
   points="392.6,398.1 391.3,409.6 386.2,408.4 384.6,398.1 "
   id="polyline132" />
<line
   class="st6"
   x1="127.5"
   y1="352.6"
   x2="131.3"
   y2="327.2"
   id="line134" />
<polyline
   class="st6"
   points="167.2,327.2 168.1,332.8 173.2,372.5 178.2,340.7 183.3,334.2 184.7,327.2 "
   id="polyline136" />
<polyline
   class="st6"
   points="192.3,327.2 188.4,363 187.3,398.1 "
   id="polyline138" />
<polyline
   class="st6"
   points="199.8,398.1 203.6,345.7 205.5,327.2 "
   id="polyline140" />
<polyline
   class="st6"
   points="210.3,398.1 208.7,369.2 207.2,398.1 "
   id="polyline142" />
<line
   class="st6"
   x1="217.2"
   y1="327.2"
   x2="216.9"
   y2="398.1"
   id="line144" />
<polyline
   class="st6"
   points="226.9,398.1 223.9,370.7 219.8,327.2 "
   id="polyline146" />
<polyline
   class="st6"
   points="239.8,398.1 239.1,391.6 234,353.5 232.1,398.1 "
   id="polyline148" />
<polyline
   class="st6"
   points="262.4,398.1 259.4,333.6 256.8,398.1 "
   id="polyline150" />
<polyline
   class="st6"
   points="279.3,327.2 274.6,394.3 269.6,378.2 266.7,398.1 "
   id="polyline152" />
<polyline
   class="st6"
   points="290.6,398.1 289.8,382.9 286.1,327.2 "
   id="polyline154" />
<polyline
   class="st6"
   points="317.9,398.1 315.2,385.6 310.1,378.8 305.1,382.6 302,398.1 "
   id="polyline156" />
<polyline
   class="st6"
   points="339.3,398.1 335.5,342 330.6,398.1 "
   id="polyline158" />
<polyline
   class="st6"
   points="344.1,327.2 345.7,346.3 347.2,327.2 "
   id="polyline160" />
<polyline
   class="st6"
   points="380,327.2 376.1,370.7 371,355.5 365.9,355.4 360.9,364.9 355.8,387 350.7,392 350.3,398.1 "
   id="polyline162" />
<polyline
   class="st6"
   points="384.6,398.1 386.2,394.2 390.4,327.2 "
   id="polyline164" />
<polyline
   class="st6"
   points="413.3,327.2 411.6,329.8 406.5,349.3 401.5,338.6 396.4,338.2 392.6,398.1 "
   id="polyline166" />
<polyline
   class="st6"
   points="425.5,327.2 421.8,349.4 417.3,327.2 "
   id="polyline168" />
<polyline
   class="st6"
   points="441.4,327.2 437,341 434.5,327.2 "
   id="polyline170" />
<polyline
   class="st6"
   points="447.6,327.2 447.1,337.4 442.6,327.2 "
   id="polyline172" />
<polyline
   class="st6"
   points="483,327.2 482.6,333 482.2,327.2 "
   id="polyline174" />
<polyline
   class="st6"
   points="131.3,327.2 132.6,309.4 137.6,294.3 142.7,284.2 147.8,290.8 152.9,286.6 157.9,299.8 163,263.9   167.2,327.2 "
   id="polyline176" />
<polyline
   class="st6"
   points="184.7,327.2 188.4,290.3 192.3,327.2 "
   id="polyline178" />
<polyline
   class="st6"
   points="205.5,327.2 208.7,296.3 213.7,282.5 217.2,327.2 "
   id="polyline180" />
<line
   class="st6"
   x1="219.8"
   y1="327.2"
   x2="221.8"
   y2="256.3"
   id="line182" />
<polyline
   class="st6"
   points="228,256.3 229,261.7 234,295.2 236.2,256.3 "
   id="polyline184" />
<polyline
   class="st6"
   points="244.6,256.3 249.3,262.8 254.3,324.2 259.4,311.7 264.5,322.3 269.6,279.8 274.6,284.8 279.3,327.2   "
   id="polyline186" />
<line
   class="st6"
   x1="286.1"
   y1="327.2"
   x2="287.3"
   y2="256.3"
   id="line188" />
<polyline
   class="st6"
   points="294.9,256.3 294.9,257.1 300,288.5 305.1,285.8 310.1,280.3 315.2,285.7 320.3,267 325.4,281.3   330.4,262.3 335.5,266.1 340.6,281.1 344.1,327.2 "
   id="polyline190" />
<polyline
   class="st6"
   points="347.2,327.2 350.7,288.4 355.8,268.5 360.9,300.8 365.9,300.7 370.5,256.3 "
   id="polyline192" />
<polyline
   class="st6"
   points="371.3,256.3 376.1,315.2 380,327.2 "
   id="polyline194" />
<line
   class="st6"
   x1="390.4"
   y1="327.2"
   x2="389.6"
   y2="256.3"
   id="line196" />
<polyline
   class="st6"
   points="417.3,327.2 416.7,316.2 413.3,327.2 "
   id="polyline198" />
<polyline
   class="st6"
   points="420.6,256.3 421.8,269.2 422.6,256.3 "
   id="polyline200" />
<polyline
   class="st6"
   points="434.5,327.2 431.9,306.5 426.8,310.6 425.5,327.2 "
   id="polyline202" />
<polyline
   class="st6"
   points="442.6,327.2 442,321.3 441.4,327.2 "
   id="polyline204" />
<polyline
   class="st6"
   points="482.2,327.2 477.6,288.5 472.5,284.6 467.4,294 462.3,280.6 457.3,282.7 452.2,269.3 447.6,327.2 "
   id="polyline206" />
<polyline
   class="st6"
   points="490.7,256.3 487.7,282.2 483,327.2 "
   id="polyline208" />
<polyline
   class="st6"
   points="519,256.3 518.1,264.3 513.1,275.2 508,264 502.9,277.6 497.9,257.1 497.7,256.3 "
   id="polyline210" />
<polyline
   class="st6"
   points="528.5,256.3 528.3,258.9 528.1,256.3 "
   id="polyline212" />
<polyline
   class="st6"
   points="541.5,256.3 538.4,276.2 535.6,256.3 "
   id="polyline214" />
<polyline
   class="st6"
   points="819.9,256.3 817.5,279.3 812.4,290.5 807.3,285.7 806.1,256.3 "
   id="polyline216" />
<polyline
   class="st6"
   points="846.2,256.3 842.8,287.6 837.8,299.2 832.7,265.5 830.9,256.3 "
   id="polyline218" />
<polyline
   class="st6"
   points="859.1,256.3 858.1,271.1 853,268.8 850.6,256.3 "
   id="polyline220" />
<polyline
   class="st6"
   points="221.8,256.3 223.9,234.1 228,256.3 "
   id="polyline222" />
<polyline
   class="st6"
   points="236.2,256.3 239.1,238.8 244.2,254.9 244.6,256.3 "
   id="polyline224" />
<polyline
   class="st6"
   points="287.3,256.3 289.8,232.2 294.9,256.3 "
   id="polyline226" />
<polyline
   class="st6"
   points="370.5,256.3 371,251.9 371.3,256.3 "
   id="polyline228" />
<polyline
   class="st6"
   points="389.6,256.3 391.3,207.5 396.4,236.7 401.5,232.4 406.5,236 411.6,214 416.7,235.5 420.6,256.3 "
   id="polyline230" />
<line
   class="st6"
   x1="422.6"
   y1="256.3"
   x2="424.7"
   y2="185.4"
   id="line232" />
<polyline
   class="st6"
   points="428.4,185.4 431.9,230.2 436.9,185.4 "
   id="polyline234" />
<polyline
   class="st6"
   points="458,185.4 462.3,197.9 467.4,195.5 472.5,195.7 477.6,204.2 482.6,208.7 487.7,217.5 490.7,256.3 "
   id="polyline236" />
<line
   class="st6"
   x1="497.7"
   y1="256.3"
   x2="496.5"
   y2="185.4"
   id="line238" />
<polyline
   class="st6"
   points="511.3,185.4 513.1,212.7 515.3,185.4 "
   id="polyline240" />
<line
   class="st6"
   x1="520.6"
   y1="185.4"
   x2="519"
   y2="256.3"
   id="line242" />
<line
   class="st6"
   x1="528.1"
   y1="256.3"
   x2="525.6"
   y2="185.4"
   id="line244" />
<line
   class="st6"
   x1="531.1"
   y1="185.4"
   x2="528.5"
   y2="256.3"
   id="line246" />
<polyline
   class="st6"
   points="535.6,256.3 538.4,245.7 541.5,256.3 "
   id="polyline248" />
<polyline
   class="st6"
   points="558.9,185.4 558.7,195.8 553.7,207.1 552.8,185.4 "
   id="polyline250" />
<polyline
   class="st6"
   points="579.9,185.4 579,223.2 574,196.1 568.9,254.5 568.7,185.4 "
   id="polyline252" />
<polyline
   class="st6"
   points="612.1,185.4 609.5,188.9 609.2,185.4 "
   id="polyline254" />
<polyline
   class="st6"
   points="635.7,185.4 634.8,186.8 634.7,185.4 "
   id="polyline256" />
<polyline
   class="st6"
   points="806.1,256.3 807.3,241.4 812.4,235.1 816.5,185.4 "
   id="polyline258" />
<polyline
   class="st6"
   points="830.9,256.3 827.6,219.9 822.5,190.4 819.9,256.3 "
   id="polyline260" />
<polyline
   class="st6"
   points="835.2,185.4 837.8,211.6 842.8,210.6 846.2,256.3 "
   id="polyline262" />
<polyline
   class="st6"
   points="850.6,256.3 853,220.6 858.1,208.8 859.1,256.3 "
   id="polyline264" />
<polyline
   class="st6"
   points="424.7,185.4 426.8,169.3 428.4,185.4 "
   id="polyline266" />
<polyline
   class="st6"
   points="436.9,185.4 437,184.5 442,162.8 447.1,163.1 452.2,131.7 457.3,183.8 458,185.4 "
   id="polyline268" />
<polyline
   class="st6"
   points="496.5,185.4 497.9,177.1 502.9,181.2 508,167 511.3,185.4 "
   id="polyline270" />
<polyline
   class="st6"
   points="515.3,185.4 518.1,166.7 520.6,185.4 "
   id="polyline272" />
<polyline
   class="st6"
   points="525.6,185.4 528.3,167.7 531.1,185.4 "
   id="polyline274" />
<polyline
   class="st6"
   points="552.8,185.4 553.7,176.3 558.7,179.9 558.9,185.4 "
   id="polyline276" />
<polyline
   class="st6"
   points="568.7,185.4 568.9,177 574,176.5 579,180.6 579.9,185.4 "
   id="polyline278" />
<polyline
   class="st6"
   points="609.2,185.4 609.5,182.6 612.1,185.4 "
   id="polyline280" />
<polyline
   class="st6"
   points="625.9,114.4 624.7,121.6 624.2,114.4 "
   id="polyline282" />
<polyline
   class="st6"
   points="634.7,185.4 634.8,183.1 635.7,185.4 "
   id="polyline284" />
<polyline
   class="st6"
   points="816.5,185.4 817.5,163.8 822.5,183.1 827.6,163.6 832.7,167.5 835.2,185.4 "
   id="polyline286" />
<polyline
   class="st6"
   points="843,114.4 842.8,122.6 842.7,114.4 "
   id="polyline288" />
<polyline
   class="st6"
   points="624.2,114.4 624.7,113.4 625.9,114.4 "
   id="polyline290" />
<polyline
   class="st6"
   points="842.7,114.4 842.8,113.4 843,114.4 "
   id="polyline292" />
<line
   class="st6"
   x1="129.2"
   y1="540"
   x2="127.5"
   y2="539.3"
   id="line294" />
<polyline
   class="st6"
   points="170.7,469.1 168.1,492.2 163,510.2 157.9,524.8 152.9,518.5 147.8,528.2 142.7,525.1 137.6,515.4   132.9,540 "
   id="polyline296" />
<polyline
   class="st6"
   points="187,469.1 183.3,496.7 179.5,469.1 "
   id="polyline298" />
<polyline
   class="st6"
   points="206.6,469.1 203.6,500 200.4,469.1 "
   id="polyline300" />
<polyline
   class="st6"
   points="222.2,469.1 218.8,513.9 215.8,469.1 "
   id="polyline302" />
<polyline
   class="st6"
   points="231.9,469.1 229,482.6 227.7,469.1 "
   id="polyline304" />
<polyline
   class="st6"
   points="310.9,469.1 310.1,474.5 305.1,471.4 301.8,469.1 "
   id="polyline306" />
<polyline
   class="st6"
   points="330,469.1 325.4,506.4 320.3,504.3 316.5,469.1 "
   id="polyline308" />
<polyline
   class="st6"
   points="179.5,469.1 178.2,458.2 173.2,451.6 170.7,469.1 "
   id="polyline310" />
<polyline
   class="st6"
   points="189.3,398.1 188.4,433.6 187,469.1 "
   id="polyline312" />
<polyline
   class="st6"
   points="200.4,469.1 198.5,429.8 197.7,398.1 "
   id="polyline314" />
<polyline
   class="st6"
   points="215.8,469.1 213.7,454.8 208.7,418.4 206.6,469.1 "
   id="polyline316" />
<polyline
   class="st6"
   points="218.7,398.1 218.8,402.2 221.4,398.1 "
   id="polyline318" />
<polyline
   class="st6"
   points="227.7,469.1 223.9,405.4 222.2,469.1 "
   id="polyline320" />
<polyline
   class="st6"
   points="301.8,469.1 300,468.1 294.9,455.5 289.8,447 284.8,454.4 279.7,447 274.6,455.6 269.6,466.2   264.5,448.7 259.4,427.2 254.3,453.7 249.3,456.1 244.2,456.5 239.1,449.8 234,457.1 231.9,469.1 "
   id="polyline322" />
<polyline
   class="st6"
   points="316.5,469.1 315.2,449.6 310.9,469.1 "
   id="polyline324" />
<polyline
   class="st6"
   points="332.2,398.1 330.4,463.8 330,469.1 "
   id="polyline326" />
<polyline
   class="st6"
   points="363.4,398.1 360.9,417.4 355.8,434.8 350.7,420.5 345.7,456.8 340.6,465.3 338,398.1 "
   id="polyline328" />
<polyline
   class="st6"
   points="396.1,398.1 391.3,441 386.2,466.8 381.2,433.7 376.1,432.4 372.3,398.1 "
   id="polyline330" />
<polyline
   class="st6"
   points="432.8,398.1 431.9,399.7 431.7,398.1 "
   id="polyline332" />
<polyline
   class="st6"
   points="483.2,398.1 482.6,401.7 482.2,398.1 "
   id="polyline334" />
<line
   class="st6"
   x1="127.5"
   y1="334.8"
   x2="128.7"
   y2="327.2"
   id="line336" />
<polyline
   class="st6"
   points="197.7,398.1 193.5,348.3 189.3,398.1 "
   id="polyline338" />
<polyline
   class="st6"
   points="221.4,398.1 218.8,391.8 218.7,398.1 "
   id="polyline340" />
<polyline
   class="st6"
   points="338,398.1 335.5,360.7 332.2,398.1 "
   id="polyline342" />
<polyline
   class="st6"
   points="372.3,398.1 371,390.7 365.9,389.8 363.4,398.1 "
   id="polyline344" />
<polyline
   class="st6"
   points="382.6,327.2 386.2,371.8 389,327.2 "
   id="polyline346" />
<polyline
   class="st6"
   points="431.7,398.1 426.8,367.6 421.8,385.9 416.7,383.8 411.6,392.1 406.5,393.1 401.5,392.8 396.4,393.8   396.1,398.1 "
   id="polyline348" />
<polyline
   class="st6"
   points="449.1,327.2 447.1,371.3 442,366.3 437,392.1 432.8,398.1 "
   id="polyline350" />
<polyline
   class="st6"
   points="482.2,398.1 477.6,340.1 472.5,362.3 467.4,355.7 463.8,327.2 "
   id="polyline352" />
<line
   class="st6"
   x1="487.6"
   y1="327.2"
   x2="483.2"
   y2="398.1"
   id="line354" />
<polyline
   class="st6"
   points="511.7,327.2 508,337.9 502.9,351.9 497.9,345.2 492.8,365.1 487.8,327.2 "
   id="polyline356" />
<polyline
   class="st6"
   points="531.3,327.2 528.3,359.4 523.2,358.5 518.2,327.2 "
   id="polyline358" />
<polyline
   class="st6"
   points="549.4,327.2 548.6,335.2 548,327.2 "
   id="polyline360" />
<polyline
   class="st6"
   points="561.5,327.2 558.7,365.3 555.1,327.2 "
   id="polyline362" />
<polyline
   class="st6"
   points="604.6,327.2 604.4,328.3 604.1,327.2 "
   id="polyline364" />
<polyline
   class="st6"
   points="621.5,327.2 619.6,348.2 617.9,327.2 "
   id="polyline366" />
<polyline
   class="st6"
   points="853.3,327.2 853,344.1 847.9,349.5 842.8,355.5 837.8,344.8 837.3,327.2 "
   id="polyline368" />
<polyline
   class="st6"
   points="128.7,327.2 132.6,270.3 137.6,270.5 142.7,268.6 147.8,261.8 152.9,260.5 157.9,285.3 161.4,256.3   "
   id="polyline370" />
<polyline
   class="st6"
   points="169,256.3 173.2,308.7 177.4,256.3 "
   id="polyline372" />
<polyline
   class="st6"
   points="197,256.3 198.5,277.1 203.6,289.1 208.7,268.9 211,256.3 "
   id="polyline374" />
<polyline
   class="st6"
   points="218.4,256.3 218.8,261.6 219,256.3 "
   id="polyline376" />
<polyline
   class="st6"
   points="263.7,256.3 264.5,264.1 266.2,256.3 "
   id="polyline378" />
<polyline
   class="st6"
   points="278,256.3 279.7,269.1 282.1,256.3 "
   id="polyline380" />
<polyline
   class="st6"
   points="300,256.3 300,256.4 300.1,256.3 "
   id="polyline382" />
<polyline
   class="st6"
   points="359,256.3 360.9,270.4 365.9,268.3 367.2,256.3 "
   id="polyline384" />
<polyline
   class="st6"
   points="372.9,256.3 376.1,295.5 381.2,278.9 382.6,327.2 "
   id="polyline386" />
<line
   class="st6"
   x1="389"
   y1="327.2"
   x2="387.2"
   y2="256.3"
   id="line388" />
<polyline
   class="st6"
   points="463.8,327.2 462.3,319.3 457.3,324.5 452.2,288.6 449.1,327.2 "
   id="polyline390" />
<polyline
   class="st6"
   points="487.8,327.2 487.7,326.4 487.6,327.2 "
   id="polyline392" />
<polyline
   class="st6"
   points="518.2,327.2 518.1,326.7 513.1,324.3 511.7,327.2 "
   id="polyline394" />
<polyline
   class="st6"
   points="548,327.2 543.5,296.4 538.4,314 533.4,303.8 531.3,327.2 "
   id="polyline396" />
<polyline
   class="st6"
   points="555.1,327.2 553.7,301.7 549.4,327.2 "
   id="polyline398" />
<polyline
   class="st6"
   points="583.5,256.3 579,305.3 574,265.6 568.9,279.9 563.8,279.2 561.5,327.2 "
   id="polyline400" />
<line
   class="st6"
   x1="604.1"
   y1="327.2"
   x2="599.9"
   y2="256.3"
   id="line402" />
<polyline
   class="st6"
   points="615.4,256.3 614.5,259.8 609.5,269 604.6,327.2 "
   id="polyline404" />
<polyline
   class="st6"
   points="617.9,327.2 619.6,280.6 621.5,327.2 "
   id="polyline406" />
<polyline
   class="st6"
   points="636.3,256.3 634.8,273.7 629.8,311.9 625.1,256.3 "
   id="polyline408" />
<polyline
   class="st6"
   points="672.4,256.3 670.3,272 668.6,256.3 "
   id="polyline410" />
<polyline
   class="st6"
   points="688.5,256.3 685.6,269.3 680.5,263.1 679.3,256.3 "
   id="polyline412" />
<polyline
   class="st6"
   points="837.3,327.2 832.7,286.1 827.6,286 822.5,300.8 817.5,317.8 812.4,317.3 807.3,322.7 804.6,256.3 "
   id="polyline414" />
<polyline
   class="st6"
   points="860.5,256.3 858.1,289.9 853.3,327.2 "
   id="polyline416" />
<polyline
   class="st6"
   points="161.4,256.3 163,209.9 168.1,214 169,256.3 "
   id="polyline418" />
<polyline
   class="st6"
   points="177.4,256.3 178.2,229.7 183.3,243.6 188.4,217.9 193.5,215.8 197,256.3 "
   id="polyline420" />
<polyline
   class="st6"
   points="211,256.3 213.7,225.9 218.4,256.3 "
   id="polyline422" />
<polyline
   class="st6"
   points="219,256.3 223.9,205.1 229,209.5 234,213.4 239.1,195.6 241.6,185.4 "
   id="polyline424" />
<polyline
   class="st6"
   points="253.1,185.4 254.3,192.8 259.4,212.6 263.7,256.3 "
   id="polyline426" />
<polyline
   class="st6"
   points="266.2,256.3 269.6,218.9 271.2,185.4 "
   id="polyline428" />
<line
   class="st6"
   x1="277.5"
   y1="185.4"
   x2="278"
   y2="256.3"
   id="line430" />
<polyline
   class="st6"
   points="282.1,256.3 284.8,231.6 289.8,201 294.9,200.1 299.9,185.4 "
   id="polyline432" />
<polyline
   class="st6"
   points="300,185.4 300,221.3 300,256.3 "
   id="polyline434" />
<polyline
   class="st6"
   points="300.1,256.3 305.1,239.2 309.3,185.4 "
   id="polyline436" />
<polyline
   class="st6"
   points="311.2,185.4 315.2,228.3 317.9,185.4 "
   id="polyline438" />
<polyline
   class="st6"
   points="322.1,185.4 325.4,221.2 330.4,211.3 335.5,195.2 340.6,216.7 345.7,219.2 350.7,230.2 355.8,212.3   359,256.3 "
   id="polyline440" />
<polyline
   class="st6"
   points="367.2,256.3 371,221 372.9,256.3 "
   id="polyline442" />
<line
   class="st6"
   x1="387.2"
   y1="256.3"
   x2="388.7"
   y2="185.4"
   id="line444" />
<polyline
   class="st6"
   points="394.3,185.4 396.4,202 400.8,185.4 "
   id="polyline446" />
<polyline
   class="st6"
   points="416,185.4 416.7,190.9 418.2,185.4 "
   id="polyline448" />
<polyline
   class="st6"
   points="431.4,185.4 431.9,191.7 432.6,185.4 "
   id="polyline450" />
<polyline
   class="st6"
   points="534.7,185.4 538.4,225.5 542.5,185.4 "
   id="polyline452" />
<polyline
   class="st6"
   points="560.6,185.4 563.8,245.2 567,185.4 "
   id="polyline454" />
<polyline
   class="st6"
   points="599.9,256.3 599.3,246.8 594.2,246.3 589.2,236.7 584.1,240.7 583.5,256.3 "
   id="polyline456" />
<polyline
   class="st6"
   points="625.1,256.3 624.7,252.9 619.6,241.3 615.4,256.3 "
   id="polyline458" />
<polyline
   class="st6"
   points="668.6,256.3 665.3,191.3 660.2,204 655.1,230.4 650.1,234.8 645,218 639.9,229.3 636.3,256.3 "
   id="polyline460" />
<polyline
   class="st6"
   points="679.3,256.3 675.4,233.3 672.4,256.3 "
   id="polyline462" />
<polyline
   class="st6"
   points="742.9,185.4 741.4,196.9 736.3,194.1 731.2,202.7 726.2,208.3 721.1,224.2 716,234.8 710.9,228.1   705.9,241.6 700.8,234.1 695.7,234.2 690.6,222.8 688.5,256.3 "
   id="polyline464" />
<polyline
   class="st6"
   points="757,185.4 756.6,189.5 751.5,198.6 749.1,185.4 "
   id="polyline466" />
<polyline
   class="st6"
   points="800.4,185.4 797.2,205.8 796,185.4 "
   id="polyline468" />
<polyline
   class="st6"
   points="804.6,256.3 807.3,222.7 812.4,218.5 815.1,185.4 "
   id="polyline470" />
<line
   class="st6"
   x1="859.3"
   y1="185.4"
   x2="860.5"
   y2="256.3"
   id="line472" />
<polyline
   class="st6"
   points="241.6,185.4 244.2,171.9 249.3,167 253.1,185.4 "
   id="polyline474" />
<polyline
   class="st6"
   points="271.2,185.4 274.6,150 277.5,185.4 "
   id="polyline476" />
<polyline
   class="st6"
   points="299.9,185.4 300,185 300,185.4 "
   id="polyline478" />
<polyline
   class="st6"
   points="309.3,185.4 310.1,176.8 311.2,185.4 "
   id="polyline480" />
<polyline
   class="st6"
   points="317.9,185.4 320.3,163.8 322.1,185.4 "
   id="polyline482" />
<polyline
   class="st6"
   points="388.7,185.4 391.3,156.7 394.3,185.4 "
   id="polyline484" />
<polyline
   class="st6"
   points="400.8,185.4 401.5,181 406.5,169.3 411.6,151.5 416,185.4 "
   id="polyline486" />
<polyline
   class="st6"
   points="418.2,185.4 421.8,160.1 426.8,138.6 431.4,185.4 "
   id="polyline488" />
<polyline
   class="st6"
   points="432.6,185.4 437,133.6 442,134.9 447.1,134.2 449.5,114.4 "
   id="polyline490" />
<polyline
   class="st6"
   points="457,114.4 457.3,117.5 462.3,117.1 467.4,116.3 472.5,115.9 477.6,130.3 482.6,130.5 487.7,130.3   492.8,134 497.9,125.6 502.9,129.3 508,127.9 513.1,125.2 515.9,114.4 "
   id="polyline492" />
<polyline
   class="st6"
   points="519.3,114.4 523.2,139.2 528.3,121.9 533.4,135.2 534.7,185.4 "
   id="polyline494" />
<polyline
   class="st6"
   points="541.7,114.4 538.4,119.3 536.7,114.4 "
   id="polyline496" />
<polyline
   class="st6"
   points="542.5,185.4 543.5,124.4 548.6,156.2 553.7,117.8 558.7,134.3 560.6,185.4 "
   id="polyline498" />
<polyline
   class="st6"
   points="568.4,114.4 563.8,124.9 561.6,114.4 "
   id="polyline500" />
<polyline
   class="st6"
   points="567,185.4 568.9,116.7 574,125.1 579,140 584.1,136 589.2,136.7 591.6,114.4 "
   id="polyline502" />
<polyline
   class="st6"
   points="606.9,114.4 609.5,119.8 614.5,130.7 615.9,114.4 "
   id="polyline504" />
<polyline
   class="st6"
   points="749.1,185.4 746.4,169.2 742.9,185.4 "
   id="polyline506" />
<polyline
   class="st6"
   points="774.3,114.4 771.8,125.7 766.7,118.4 761.7,160.6 757,185.4 "
   id="polyline508" />
<polyline
   class="st6"
   points="787.3,114.4 787,116 782,119.9 780.6,114.4 "
   id="polyline510" />
<line
   class="st6"
   x1="796"
   y1="185.4"
   x2="793.4"
   y2="114.4"
   id="line512" />
<polyline
   class="st6"
   points="804.8,114.4 802.3,159.1 800.4,185.4 "
   id="polyline514" />
<polyline
   class="st6"
   points="815.1,185.4 817.5,134.1 822.5,139 827.6,136.5 832.7,141.2 837.8,163.7 839.8,114.4 "
   id="polyline516" />
<polyline
   class="st6"
   points="846.9,114.4 847.9,129.8 853,164.8 856.4,114.4 "
   id="polyline518" />
<line
   class="st6"
   x1="859.7"
   y1="114.4"
   x2="859.3"
   y2="185.4"
   id="line520" />
<polyline
   class="st6"
   points="449.5,114.4 452.2,85.1 457,114.4 "
   id="polyline522" />
<polyline
   class="st6"
   points="515.9,114.4 518.1,105.7 519.3,114.4 "
   id="polyline524" />
<polyline
   class="st6"
   points="536.7,114.4 538.4,102.2 541.7,114.4 "
   id="polyline526" />
<polyline
   class="st6"
   points="561.6,114.4 563.8,75.7 568.4,114.4 "
   id="polyline528" />
<polyline
   class="st6"
   points="591.6,114.4 594.2,90.9 599.3,99.1 604.4,100.7 606.9,114.4 "
   id="polyline530" />
<polyline
   class="st6"
   points="615.9,114.4 619.6,75.6 624.7,68.7 629.8,69.5 634.8,84.5 639.9,45.3 645,44.4 650.1,95.4   655.1,104.9 659.5,43.5 "
   id="polyline532" />
<polyline
   class="st6"
   points="662,43.5 665.3,98.8 669.2,43.5 "
   id="polyline534" />
<polyline
   class="st6"
   points="670.8,43.5 675.4,94.9 680.5,88.2 685.6,84.5 690.1,43.5 "
   id="polyline536" />
<polyline
   class="st6"
   points="696.5,43.5 700.8,74.5 705.9,70.6 710.9,54 716,69.6 721.1,67.5 725,43.5 "
   id="polyline538" />
<polyline
   class="st6"
   points="734.6,43.5 736.3,56.3 741.4,58.6 746.4,69.3 750.6,43.5 "
   id="polyline540" />
<polyline
   class="st6"
   points="754.8,43.5 756.6,47.5 757.8,43.5 "
   id="polyline542" />
<polyline
   class="st6"
   points="780.6,114.4 776.9,102.5 774.3,114.4 "
   id="polyline544" />
<polyline
   class="st6"
   points="793.4,114.4 792.1,69.4 787.3,114.4 "
   id="polyline546" />
<polyline
   class="st6"
   points="799.2,43.5 802.3,61.5 804.8,114.4 "
   id="polyline548" />
<polyline
   class="st6"
   points="839.8,114.4 842.8,81.1 846.9,114.4 "
   id="polyline550" />
<polyline
   class="st6"
   points="856.4,114.4 858.1,82.1 859.7,114.4 "
   id="polyline552" />
<polyline
   class="st6"
   points="175.7,540 173.2,496.3 168.7,540 "
   id="polyline554" />
<polyline
   class="st6"
   points="188,540 183.3,518.4 180.8,540 "
   id="polyline556" />
<polyline
   class="st6"
   points="212.9,540 208.7,522.3 203.6,538.3 198.5,529 193.7,540 "
   id="polyline558" />
<polyline
   class="st6"
   points="330.7,540 330.4,538.6 330,540 "
   id="polyline560" />
<polyline
   class="st6"
   points="347.5,469.1 345.7,534.5 343.6,540 "
   id="polyline562" />
<polyline
   class="st6"
   points="349.6,540 350.7,539 354.9,469.1 "
   id="polyline564" />
<polyline
   class="st6"
   points="393.7,469.1 391.3,497.9 386.2,522.3 381.2,518.6 376.1,518.3 371,518.7 365.9,518.6 360.9,488.1   356.6,540 "
   id="polyline566" />
<polyline
   class="st6"
   points="423.7,469.1 421.8,500.5 416.7,492.8 411.6,497.8 406.5,498.4 401.5,483.2 399.9,469.1 "
   id="polyline568" />
<polyline
   class="st6"
   points="451.1,469.1 447.1,514.7 442,489.3 437,486.2 434.3,469.1 "
   id="polyline570" />
<polyline
   class="st6"
   points="477.9,469.1 477.6,471.5 472.5,469.4 472.4,469.1 "
   id="polyline572" />
<polyline
   class="st6"
   points="817.7,469.1 817.5,470.4 816.9,469.1 "
   id="polyline574" />
<polyline
   class="st6"
   points="858.5,469.1 858.1,492.3 853,473 852.6,469.1 "
   id="polyline576" />
<polyline
   class="st6"
   points="191.4,398.1 193.5,442.7 195.6,398.1 "
   id="polyline578" />
<polyline
   class="st6"
   points="333.9,398.1 335.5,446.5 336.8,398.1 "
   id="polyline580" />
<polyline
   class="st6"
   points="354.9,469.1 350.7,444.9 347.5,469.1 "
   id="polyline582" />
<polyline
   class="st6"
   points="399.9,469.1 396.4,460.8 393.7,469.1 "
   id="polyline584" />
<polyline
   class="st6"
   points="434.3,469.1 431.9,462.9 426.8,441.2 423.7,469.1 "
   id="polyline586" />
<polyline
   class="st6"
   points="472.4,469.1 467.4,444.2 462.3,449.4 457.3,449.5 452.2,445.9 451.1,469.1 "
   id="polyline588" />
<polyline
   class="st6"
   points="522.7,398.1 518.1,415.8 513.1,441.2 508,417.7 502.9,423.8 497.9,435 492.8,436.8 487.7,435.8   482.6,452.8 477.9,469.1 "
   id="polyline590" />
<polyline
   class="st6"
   points="553.1,398.1 548.6,431.1 543.5,407.9 538.4,402.1 533.4,438.2 528.3,434.9 523.3,398.1 "
   id="polyline592" />
<polyline
   class="st6"
   points="566.3,398.1 563.8,424.4 558.7,423.2 554.8,398.1 "
   id="polyline594" />
<polyline
   class="st6"
   points="807.9,398.1 807.3,468.3 806.4,398.1 "
   id="polyline596" />
<line
   class="st6"
   x1="816.9"
   y1="469.1"
   x2="816.1"
   y2="398.1"
   id="line598" />
<polyline
   class="st6"
   points="852.6,469.1 847.9,452.4 842.8,445.6 837.8,459.3 832.7,467.9 827.6,461.2 822.5,447.1 817.7,469.1   "
   id="polyline600" />
<line
   class="st6"
   x1="859.9"
   y1="398.1"
   x2="858.5"
   y2="469.1"
   id="line602" />
<polyline
   class="st6"
   points="195.6,398.1 193.5,373.3 191.4,398.1 "
   id="polyline604" />
<polyline
   class="st6"
   points="336.8,398.1 335.5,379.5 333.9,398.1 "
   id="polyline606" />
<polyline
   class="st6"
   points="384.4,327.2 386.2,349.4 387.6,327.2 "
   id="polyline608" />
<polyline
   class="st6"
   points="450.7,327.2 452.2,383.2 454.8,327.2 "
   id="polyline610" />
<polyline
   class="st6"
   points="523.3,398.1 523.2,397.7 522.7,398.1 "
   id="polyline612" />
<polyline
   class="st6"
   points="554.8,398.1 553.7,392.3 553.1,398.1 "
   id="polyline614" />
<line
   class="st6"
   x1="564.8"
   y1="327.2"
   x2="566.3"
   y2="398.1"
   id="line616" />
<polyline
   class="st6"
   points="649.9,327.2 645,376.5 639.9,353 634.8,376.9 629.8,396.3 624.7,364.5 619.6,396 614.5,393.5   609.5,354.2 604.4,363.3 599.3,377.2 594.2,392.8 589.2,374.2 584.1,372.5 579,378 574,388.3 571.8,327.2 "
   id="polyline618" />
<polyline
   class="st6"
   points="658.5,327.2 655.1,347.2 650.8,327.2 "
   id="polyline620" />
<polyline
   class="st6"
   points="668.2,327.2 665.3,352.7 661.1,327.2 "
   id="polyline622" />
<polyline
   class="st6"
   points="722.7,327.2 721.1,337.4 717.6,327.2 "
   id="polyline624" />
<polyline
   class="st6"
   points="736.9,327.2 736.3,332.4 735.8,327.2 "
   id="polyline626" />
<line
   class="st6"
   x1="806.4"
   y1="398.1"
   x2="804.9"
   y2="327.2"
   id="line628" />
<polyline
   class="st6"
   points="816.1,398.1 812.4,354.7 807.9,398.1 "
   id="polyline630" />
<polyline
   class="st6"
   points="829.9,327.2 832.7,382.5 835,327.2 "
   id="polyline632" />
<polyline
   class="st6"
   points="855.7,327.2 858.1,375.1 859.9,398.1 "
   id="polyline634" />
<polyline
   class="st6"
   points="155.2,256.3 157.9,270.7 159.7,256.3 "
   id="polyline636" />
<polyline
   class="st6"
   points="171.1,256.3 173.2,282.4 175.3,256.3 "
   id="polyline638" />
<polyline
   class="st6"
   points="374.5,256.3 376.1,275.8 379.2,256.3 "
   id="polyline640" />
<polyline
   class="st6"
   points="387.6,327.2 386.2,283.1 384.4,327.2 "
   id="polyline642" />
<polyline
   class="st6"
   points="454.8,327.2 452.2,308 450.7,327.2 "
   id="polyline644" />
<polyline
   class="st6"
   points="571.8,327.2 568.9,303.7 564.8,327.2 "
   id="polyline646" />
<polyline
   class="st6"
   points="650.8,327.2 650.1,324.8 649.9,327.2 "
   id="polyline648" />
<polyline
   class="st6"
   points="661.1,327.2 660.2,317.6 658.5,327.2 "
   id="polyline650" />
<polyline
   class="st6"
   points="717.6,327.2 716,323.5 710.9,320 705.9,321 700.8,319.9 695.7,315.3 690.6,303.9 685.6,312.9   680.5,310.7 675.4,297 670.3,319.1 668.2,327.2 "
   id="polyline652" />
<polyline
   class="st6"
   points="732.5,256.3 731.2,291.1 726.2,294.9 722.7,327.2 "
   id="polyline654" />
<polyline
   class="st6"
   points="735.8,327.2 736.3,324.5 736.9,327.2 "
   id="polyline656" />
<polyline
   class="st6"
   points="764.8,256.3 761.7,306.2 756.6,289.8 751.5,307.2 746.4,300.5 741.4,302.5 739.6,256.3 "
   id="polyline658" />
<line
   class="st6"
   x1="804.9"
   y1="327.2"
   x2="803.1"
   y2="256.3"
   id="line660" />
<polyline
   class="st6"
   points="835,327.2 832.7,306.7 829.9,327.2 "
   id="polyline662" />
<polyline
   class="st6"
   points="861.9,256.3 858.1,308.6 855.7,327.2 "
   id="polyline664" />
<polyline
   class="st6"
   points="127.5,219.2 132.6,196.1 137.6,202.5 142.7,206.4 147.8,190.3 152.9,193.4 155.2,256.3 "
   id="polyline666" />
<line
   class="st6"
   x1="159.7"
   y1="256.3"
   x2="159.2"
   y2="185.4"
   id="line668" />
<polyline
   class="st6"
   points="175.3,256.3 173.2,207.3 171.1,256.3 "
   id="polyline670" />
<polyline
   class="st6"
   points="370.3,185.4 371,190.1 374.5,256.3 "
   id="polyline672" />
<line
   class="st6"
   x1="379.2"
   y1="256.3"
   x2="379.1"
   y2="185.4"
   id="line674" />
<polyline
   class="st6"
   points="536.6,185.4 538.4,205.4 540.5,185.4 "
   id="polyline676" />
<polyline
   class="st6"
   points="562.2,185.4 563.8,215.2 565.4,185.4 "
   id="polyline678" />
<polyline
   class="st6"
   points="739.6,256.3 736.3,225.3 732.5,256.3 "
   id="polyline680" />
<line
   class="st6"
   x1="763.5"
   y1="185.4"
   x2="764.8"
   y2="256.3"
   id="line682" />
<polyline
   class="st6"
   points="788.6,185.4 787,235.8 782,252.1 776.9,243 771.8,254.4 769.9,185.4 "
   id="polyline684" />
<polyline
   class="st6"
   points="803.1,256.3 802.3,223.3 797.2,240.1 794.1,185.4 "
   id="polyline686" />
<polyline
   class="st6"
   points="804.3,185.4 807.3,203.9 812.4,201.8 813.8,185.4 "
   id="polyline688" />
<line
   class="st6"
   x1="861.3"
   y1="185.4"
   x2="861.9"
   y2="256.3"
   id="line690" />
<polyline
   class="st6"
   points="159.2,185.4 163,142.4 168.1,139.4 173.2,148.3 178.2,152.1 183.3,151 188.4,125.9 191.2,114.4 "
   id="polyline692" />
<polyline
   class="st6"
   points="195.4,114.4 198.5,125.4 203.6,124.6 205,114.4 "
   id="polyline694" />
<polyline
   class="st6"
   points="221.9,114.4 223.9,140.9 229,127.8 230.3,114.4 "
   id="polyline696" />
<polyline
   class="st6"
   points="243.7,114.4 244.2,115.7 244.5,114.4 "
   id="polyline698" />
<polyline
   class="st6"
   points="256.2,114.4 259.4,160.9 263.4,114.4 "
   id="polyline700" />
<polyline
   class="st6"
   points="325.8,114.4 330.4,162.2 335,114.4 "
   id="polyline702" />
<polyline
   class="st6"
   points="379.1,185.4 376.1,157 371,131.9 370.3,185.4 "
   id="polyline704" />
<polyline
   class="st6"
   points="380.5,114.4 381.2,132.4 382.1,114.4 "
   id="polyline706" />
<polyline
   class="st6"
   points="390.8,114.4 391.3,115.1 391.6,114.4 "
   id="polyline708" />
<polyline
   class="st6"
   points="399.4,114.4 401.5,124.4 405.6,114.4 "
   id="polyline710" />
<polyline
   class="st6"
   points="540.5,185.4 538.4,152.4 536.6,185.4 "
   id="polyline712" />
<polyline
   class="st6"
   points="565.4,185.4 563.8,155.3 562.2,185.4 "
   id="polyline714" />
<polyline
   class="st6"
   points="769.9,185.4 766.7,152 763.5,185.4 "
   id="polyline716" />
<polyline
   class="st6"
   points="794.1,185.4 792.1,145 788.6,185.4 "
   id="polyline718" />
<polyline
   class="st6"
   points="813.8,185.4 812.4,133.6 807.3,134.3 804.3,185.4 "
   id="polyline720" />
<polyline
   class="st6"
   points="832.2,114.4 832.7,114.9 833,114.4 "
   id="polyline722" />
<polyline
   class="st6"
   points="850.1,114.4 853,139.5 854.7,114.4 "
   id="polyline724" />
<line
   class="st6"
   x1="861.5"
   y1="114.4"
   x2="861.3"
   y2="185.4"
   id="line726" />
<polyline
   class="st6"
   points="191.2,114.4 193.5,104 195.4,114.4 "
   id="polyline728" />
<polyline
   class="st6"
   points="205,114.4 208.7,73.4 213.7,83.2 218.8,73.6 221.9,114.4 "
   id="polyline730" />
<polyline
   class="st6"
   points="230.3,114.4 234,64.7 239.1,69.5 243.7,114.4 "
   id="polyline732" />
<polyline
   class="st6"
   points="244.5,114.4 249.3,65.6 254.3,59.4 256.2,114.4 "
   id="polyline734" />
<polyline
   class="st6"
   points="263.4,114.4 264.5,80.7 269.6,66.8 274.6,67.1 279.7,114 284.1,43.5 "
   id="polyline736" />
<polyline
   class="st6"
   points="285.4,43.5 289.8,89.3 292.9,43.5 "
   id="polyline738" />
<polyline
   class="st6"
   points="302.1,43.5 305.1,92.1 310.1,67.6 315.2,73.4 320.3,69.8 325.4,88.5 325.8,114.4 "
   id="polyline740" />
<polyline
   class="st6"
   points="335,114.4 335.5,89.4 340.6,99.8 345.7,102.7 350.7,85.1 355.8,103.7 360.9,108.2 365.9,109.1   371,100.4 376.1,80.3 380.5,114.4 "
   id="polyline742" />
<polyline
   class="st6"
   points="382.1,114.4 386.2,86.7 390.8,114.4 "
   id="polyline744" />
<polyline
   class="st6"
   points="391.6,114.4 396.4,70.5 399.4,114.4 "
   id="polyline746" />
<polyline
   class="st6"
   points="405.6,114.4 406.5,100.4 411.6,97.6 416.7,68 421.8,62 426.8,66.4 431.9,67.9 437,56.1 441.5,43.5 "
   id="polyline748" />
<polyline
   class="st6"
   points="448.3,43.5 452.2,47.7 453.2,43.5 "
   id="polyline750" />
<polyline
   class="st6"
   points="461.7,43.5 462.3,47.8 467.4,47.4 472.5,79.2 475.4,43.5 "
   id="polyline752" />
<polyline
   class="st6"
   points="647.5,43.5 650.1,69.3 655.1,74.1 657.3,43.5 "
   id="polyline754" />
<polyline
   class="st6"
   points="673.1,43.5 675.4,69.1 678.7,43.5 "
   id="polyline756" />
<polyline
   class="st6"
   points="806.8,43.5 807.3,56.5 812.4,52.1 817.5,71.7 822.5,64.4 827.6,81.6 832.2,114.4 "
   id="polyline758" />
<polyline
   class="st6"
   points="833,114.4 837.8,71.1 842.8,48.7 847.9,57.5 850.1,114.4 "
   id="polyline760" />
<polyline
   class="st6"
   points="854.7,114.4 858.1,47.7 861.5,114.4 "
   id="polyline762" />
<line
   class="st7"
   x1="127.5"
   y1="540"
   x2="888.5"
   y2="540"
   id="line764" />
<line
   class="st7"
   x1="127.5"
   y1="43.5"
   x2="888.5"
   y2="43.5"
   id="line766" />
<line
   class="st7"
   x1="127.5"
   y1="540"
   x2="127.5"
   y2="532.4"
   id="line768" />
<line
   class="st7"
   x1="229"
   y1="540"
   x2="229"
   y2="532.4"
   id="line770" />
<line
   class="st7"
   x1="330.4"
   y1="540"
   x2="330.4"
   y2="532.4"
   id="line772" />
<line
   class="st7"
   x1="431.9"
   y1="540"
   x2="431.9"
   y2="532.4"
   id="line774" />
<line
   class="st7"
   x1="533.4"
   y1="540"
   x2="533.4"
   y2="532.4"
   id="line776" />
<line
   class="st7"
   x1="634.8"
   y1="540"
   x2="634.8"
   y2="532.4"
   id="line778" />
<line
   class="st7"
   x1="736.3"
   y1="540"
   x2="736.3"
   y2="532.4"
   id="line780" />
<line
   class="st7"
   x1="837.8"
   y1="540"
   x2="837.8"
   y2="532.4"
   id="line782" />
<line
   class="st7"
   x1="127.5"
   y1="43.5"
   x2="127.5"
   y2="51.1"
   id="line784" />
<line
   class="st7"
   x1="229"
   y1="43.5"
   x2="229"
   y2="51.1"
   id="line786" />
<line
   class="st7"
   x1="330.4"
   y1="43.5"
   x2="330.4"
   y2="51.1"
   id="line788" />
<line
   class="st7"
   x1="431.9"
   y1="43.5"
   x2="431.9"
   y2="51.1"
   id="line790" />
<line
   class="st7"
   x1="533.4"
   y1="43.5"
   x2="533.4"
   y2="51.1"
   id="line792" />
<line
   class="st7"
   x1="634.8"
   y1="43.5"
   x2="634.8"
   y2="51.1"
   id="line794" />
<line
   class="st7"
   x1="736.3"
   y1="43.5"
   x2="736.3"
   y2="51.1"
   id="line796" />
<line
   class="st7"
   x1="837.8"
   y1="43.5"
   x2="837.8"
   y2="51.1"
   id="line798" />


<line
   class="st7"
   x1="127.5"
   y1="540"
   x2="127.5"
   y2="43.5"
   id="line834" />
<line
   class="st7"
   x1="888.5"
   y1="540"
   x2="888.5"
   y2="43.5"
   id="line836" />
<line
   class="st7"
   x1="127.5"
   y1="540"
   x2="135.1"
   y2="540"
   id="line838" />
<line
   class="st7"
   x1="127.5"
   y1="469.1"
   x2="135.1"
   y2="469.1"
   id="line840" />
<line
   class="st7"
   x1="127.5"
   y1="398.1"
   x2="135.1"
   y2="398.1"
   id="line842" />
<line
   class="st7"
   x1="127.5"
   y1="327.2"
   x2="135.1"
   y2="327.2"
   id="line844" />
<line
   class="st7"
   x1="127.5"
   y1="256.3"
   x2="135.1"
   y2="256.3"
   id="line846" />
<line
   class="st7"
   x1="127.5"
   y1="185.4"
   x2="135.1"
   y2="185.4"
   id="line848" />
<line
   class="st7"
   x1="127.5"
   y1="114.4"
   x2="135.1"
   y2="114.4"
   id="line850" />
<line
   class="st7"
   x1="127.5"
   y1="43.5"
   x2="135.1"
   y2="43.5"
   id="line852" />
<line
   class="st7"
   x1="888.5"
   y1="540"
   x2="880.9"
   y2="540"
   id="line854" />
<line
   class="st7"
   x1="888.5"
   y1="469.1"
   x2="880.9"
   y2="469.1"
   id="line856" />
<line
   class="st7"
   x1="888.5"
   y1="398.1"
   x2="880.9"
   y2="398.1"
   id="line858" />
<line
   class="st7"
   x1="888.5"
   y1="327.2"
   x2="880.9"
   y2="327.2"
   id="line860" />
<line
   class="st7"
   x1="888.5"
   y1="256.3"
   x2="880.9"
   y2="256.3"
   id="line862" />
<line
   class="st7"
   x1="888.5"
   y1="185.4"
   x2="880.9"
   y2="185.4"
   id="line864" />
<line
   class="st7"
   x1="888.5"
   y1="114.4"
   x2="880.9"
   y2="114.4"
   id="line866" />
<line
   class="st7"
   x1="888.5"
   y1="43.5"
   x2="880.9"
   y2="43.5"
   id="line868" />









<line
   class="st7"
   x1="893.5"
   y1="540"
   x2="911"
   y2="540"
   id="line888" />
<line
   class="st7"
   x1="893.5"
   y1="43.5"
   x2="911"
   y2="43.5"
   id="line890" />
<line
   class="st7"
   x1="893.5"
   y1="540"
   x2="893.5"
   y2="43.5"
   id="line892" />
<line
   class="st7"
   x1="911"
   y1="540"
   x2="911"
   y2="43.5"
   id="line894" />
<g
   id="g914">
	<defs
   id="defs897">
		<rect
   id="SVGID_1_"
   x="893.5"
   y="43.5"
   width="17.5"
   height="496.5" />
	</defs>
	<clipPath
   id="SVGID_2_">
		<use
   xlink:href="#SVGID_1_"
   style="overflow:visible;"
   id="use899" />
	</clipPath>
	<g
   class="st14"
   clip-path="url(#SVGID_2_)"
   id="g912">
		<defs
   id="defs903">
			<rect
   id="SVGID_3_"
   x="893.5"
   y="43.5"
   width="17.5"
   height="496.5" />
		</defs>
		<clipPath
   id="SVGID_4_">
			<use
   xlink:href="#SVGID_3_"
   style="overflow:visible;"
   id="use905" />
		</clipPath>
		<g
   style="clip-path:url(#SVGID_4_);"
   clip-path="url(#SVGID_4_)"
   id="g910">
			
				<image
   style="overflow:visible;"
   width="35"
   height="993"
   xlink:href="A460BB1A.jpg"
   transform="matrix(0.5 0 0 0.5 893.5 43.5)"
   id="image908">
			</image>
		</g>
	</g>
<rect
   style="opacity:0.99;fill:#000000;stroke:none;stroke-width:0.792386;fill-opacity:1"
   id="rect7355"
   width="16.865484"
   height="7.6626496"
   x="893.81732"
   y="532.02002" /></g>
<line
   class="st7"
   x1="911"
   y1="540"
   x2="911"
   y2="43.5"
   id="line916" />
<line
   class="st7"
   x1="911"
   y1="460.9"
   x2="906"
   y2="460.9"
   id="line918" />
<line
   class="st7"
   x1="911"
   y1="356.6"
   x2="906"
   y2="356.6"
   id="line920" />
<line
   class="st7"
   x1="911"
   y1="252.2"
   x2="906"
   y2="252.2"
   id="line922" />
<line
   class="st7"
   x1="911"
   y1="147.9"
   x2="906"
   y2="147.9"
   id="line924" />
<line
   class="st7"
   x1="911"
   y1="43.5"
   x2="906"
   y2="43.5"
   id="line926" />





<line
   class="st7"
   x1="893.5"
   y1="43.5"
   x2="911"
   y2="43.5"
   id="line938" />
<line
   class="st7"
   x1="893.5"
   y1="540"
   x2="911"
   y2="540"
   id="line940" />
<line
   class="st7"
   x1="893.5"
   y1="540"
   x2="893.5"
   y2="43.5"
   id="line942" />
<line
   class="st7"
   x1="911"
   y1="540"
   x2="911"
   y2="43.5"
   id="line944" />
<line
   class="st16"
   x1="893.5"
   y1="540"
   x2="893.5"
   y2="540"
   id="line946" />
<line
   class="st16"
   x1="893.5"
   y1="43.5"
   x2="893.5"
   y2="43.5"
   id="line948" />
<line
   class="st16"
   x1="911"
   y1="540"
   x2="911"
   y2="540"
   id="line950" />
<line
   class="st16"
   x1="911"
   y1="43.5"
   x2="911"
   y2="43.5"
   id="line952" />
<path
   class="st17"
   d="M2,607c0-1.1-0.9-2-2-2s-2,0.9-2,2s0.9,2,2,2S2,608.1,2,607"
   id="path954" />
<path
   class="st18"
   d="M0,604c-1.7,0-3,1.3-3,3s1.3,3,3,3s3-1.3,3-3S1.7,604,0,604 M0,605c1.1,0,2,0.9,2,2s-0.9,2-2,2s-2-0.9-2-2  S-1.1,605,0,605z"
   id="path956" />
<g
   inkscape:groupmode="layer"
   id="layer1"
   inkscape:label="Layer 1" /><g
   inkscape:groupmode="layer"
   id="layer2"
   inkscape:label="Layer 2"><text
     class="st8 st9 st13"
     id="text832"
     style="font-size:11px;font-family:Helvetica;fill:#262626"
     x="503.39316"
     y="589.33862">W</text><text
     class="st8 st9 st10"
     id="text870"
     style="font-size:10px;font-family:Helvetica;fill:#262626"
     x="72.996841"
     y="542.87738">0.0156</text><text
     class="st8 st9 st10"
     id="text872"
     style="font-size:10px;font-family:Helvetica;fill:#262626"
     x="72.996841"
     y="471.94958">0.0157</text><text
     class="st8 st9 st10"
     id="text874"
     style="font-size:10px;font-family:Helvetica;fill:#262626"
     x="72.996841"
     y="401.0209">0.0158</text><text
     class="st8 st9 st10"
     id="text876"
     style="font-size:10px;font-family:Helvetica;fill:#262626"
     x="72.996841"
     y="330.09122">0.0159</text><text
     class="st8 st9 st10"
     id="text878"
     style="font-size:10px;font-family:Helvetica;fill:#262626"
     x="77.996841"
     y="259.16251">0.016</text><text
     class="st8 st9 st10"
     id="text880"
     style="font-size:10px;font-family:Helvetica;fill:#262626"
     x="72.996841"
     y="188.23372">0.0161</text><text
     class="st8 st9 st10"
     id="text882"
     style="font-size:10px;font-family:Helvetica;fill:#262626"
     x="72.996841"
     y="117.30554">0.0162</text><text
     class="st8 st9 st10"
     id="text884"
     style="font-size:10px;font-family:Helvetica;fill:#262626"
     x="72.996841"
     y="46.376823">0.0163</text><text
     transform="rotate(-90)"
     class="st8 st9 st13"
     id="text886"
     style="font-size:11px;font-family:Helvetica;fill:#262626"
     x="-294.62732"
     y="52.452702">L</text><text
     class="st8 st9 st15"
     id="text928"
     style="font-size:9px;font-family:Helvetica;fill:#262626"
     x="921.75305"
     y="470.17404">-25</text><text
     class="st8 st9 st15"
     id="text930"
     style="font-size:9px;font-family:Helvetica;fill:#262626"
     x="922.18158"
     y="359.39285">-20</text><text
     class="st8 st9 st15"
     id="text932"
     style="font-size:9px;font-family:Helvetica;fill:#262626"
     x="921.32452"
     y="254.18333">-15</text><text
     class="st8 st9 st15"
     id="text934"
     style="font-size:9px;font-family:Helvetica;fill:#262626"
     x="921.32452"
     y="150.68726">-10</text><text
     class="st8 st9 st15"
     id="text936"
     style="font-size:9px;font-family:Helvetica;fill:#262626"
     x="921.75305"
     y="51.476398">-5</text><text
     xml:space="preserve"
     style="font-style:normal;font-variant:normal;font-weight:400;font-size:13.7993px;line-height:125%;font-family:'Times New Roman';text-align:start;letter-spacing:0px;word-spacing:0px;text-anchor:start;fill:#000000;fill-opacity:1;stroke:none;stroke-width:0.862453"
     x="143.48959"
     y="484.71762"
     id="text3896"
     transform="scale(0.86245332,1.159483)"><tspan
       sodipodi:role="line"
       x="143.48959"
       y="484.71762"
       id="tspan3894"
       style="stroke-width:0.862453"><tspan
         dx="0"
         dy="0"
         style="font-style:normal;font-variant:normal;font-weight:400;font-size:13.7993px;font-family:'Times New Roman';fill:#000000;stroke-width:0.862453"
         id="tspan3892">0.034</tspan></tspan></text><text
     xml:space="preserve"
     style="font-style:normal;font-variant:normal;font-weight:400;font-size:13.7993px;line-height:125%;font-family:'Times New Roman';text-align:start;letter-spacing:0px;word-spacing:0px;text-anchor:start;fill:#000000;fill-opacity:1;stroke:none;stroke-width:0.862453"
     x="271.13269"
     y="484.71762"
     id="text3902"
     transform="scale(0.86245332,1.159483)"><tspan
       sodipodi:role="line"
       x="271.13269"
       y="484.71762"
       id="tspan3900"
       style="stroke-width:0.862453"><tspan
         dx="0"
         dy="0"
         style="font-style:normal;font-variant:normal;font-weight:400;font-size:13.7993px;font-family:'Times New Roman';fill:#000000;stroke-width:0.862453"
         id="tspan3898">0.036</tspan></tspan></text><text
     xml:space="preserve"
     style="font-style:normal;font-variant:normal;font-weight:400;font-size:13.7993px;line-height:125%;font-family:'Times New Roman';text-align:start;letter-spacing:0px;word-spacing:0px;text-anchor:start;fill:#000000;fill-opacity:1;stroke:none;stroke-width:0.862453"
     x="373.47711"
     y="484.71762"
     id="text3908"
     transform="scale(0.86245332,1.159483)"><tspan
       sodipodi:role="line"
       x="373.47711"
       y="484.71762"
       id="tspan3906"
       style="stroke-width:0.862453"><tspan
         dx="0"
         dy="0"
         style="font-style:normal;font-variant:normal;font-weight:400;font-size:13.7993px;font-family:'Times New Roman';fill:#000000;stroke-width:0.862453"
         id="tspan3904">0.038</tspan></tspan></text><text
     xml:space="preserve"
     style="font-style:normal;font-variant:normal;font-weight:400;font-size:13.7993px;line-height:125%;font-family:'Times New Roman';text-align:start;letter-spacing:0px;word-spacing:0px;text-anchor:start;fill:#000000;fill-opacity:1;stroke:none;stroke-width:0.862453"
     x="490.77081"
     y="484.71762"
     id="text3914"
     transform="scale(0.86245332,1.159483)"><tspan
       sodipodi:role="line"
       x="490.77081"
       y="484.71762"
       id="tspan3912"
       style="stroke-width:0.862453"><tspan
         dx="0"
         dy="0"
         style="font-style:normal;font-variant:normal;font-weight:400;font-size:13.7993px;font-family:'Times New Roman';fill:#000000;stroke-width:0.862453"
         id="tspan3910">0.04</tspan></tspan></text><text
     xml:space="preserve"
     style="font-style:normal;font-variant:normal;font-weight:400;font-size:13.7993px;line-height:125%;font-family:'Times New Roman';text-align:start;letter-spacing:0px;word-spacing:0px;text-anchor:start;fill:#000000;fill-opacity:1;stroke:none;stroke-width:0.862453"
     x="604.10547"
     y="485.76291"
     id="text3920"
     transform="scale(0.86245334,1.159483)"><tspan
       sodipodi:role="line"
       x="604.10547"
       y="485.76291"
       id="tspan3918"
       style="stroke-width:0.862453"><tspan
         dx="0"
         dy="0"
         style="font-style:normal;font-variant:normal;font-weight:400;font-size:13.7993px;font-family:'Times New Roman';fill:#000000;stroke-width:0.862453"
         id="tspan3916">0.042</tspan></tspan></text><text
     xml:space="preserve"
     style="font-style:normal;font-variant:normal;font-weight:400;font-size:13.7993px;line-height:125%;font-family:'Times New Roman';text-align:start;letter-spacing:0px;word-spacing:0px;text-anchor:start;fill:#000000;fill-opacity:1;stroke:none;stroke-width:0.862453"
     x="718.84235"
     y="484.71759"
     id="text3926"
     transform="scale(0.86245335,1.159483)"><tspan
       sodipodi:role="line"
       x="718.84235"
       y="484.71759"
       id="tspan3924"
       style="stroke-width:0.862453"><tspan
         dx="0"
         dy="0"
         style="font-style:normal;font-variant:normal;font-weight:400;font-size:13.7993px;font-family:'Times New Roman';fill:#000000;stroke-width:0.862453"
         id="tspan3922">0.044</tspan></tspan></text><text
     xml:space="preserve"
     style="font-style:normal;font-variant:normal;font-weight:400;font-size:13.7993px;line-height:125%;font-family:'Times New Roman';text-align:start;letter-spacing:0px;word-spacing:0px;text-anchor:start;fill:#000000;fill-opacity:1;stroke:none;stroke-width:0.862453"
     x="835.24286"
     y="485.76291"
     id="text3932"
     transform="scale(0.86245334,1.159483)"><tspan
       sodipodi:role="line"
       x="835.24286"
       y="485.76291"
       id="tspan3930"
       style="stroke-width:0.862453"><tspan
         dx="0"
         dy="0"
         style="font-style:normal;font-variant:normal;font-weight:400;font-size:13.7993px;font-family:'Times New Roman';fill:#000000;stroke-width:0.862453"
         id="tspan3928">0.046</tspan></tspan></text><text
     xml:space="preserve"
     style="font-style:normal;font-variant:normal;font-weight:400;font-size:13.7993px;line-height:125%;font-family:'Times New Roman';text-align:start;letter-spacing:0px;word-spacing:0px;text-anchor:start;fill:#000000;fill-opacity:1;stroke:none;stroke-width:0.862453"
     x="958.79401"
     y="486.8082"
     id="text3938"
     transform="scale(0.86245335,1.159483)"><tspan
       sodipodi:role="line"
       x="958.79401"
       y="486.8082"
       id="tspan3936"
       style="stroke-width:0.862453"><tspan
         dx="0"
         dy="0"
         style="font-style:normal;font-variant:normal;font-weight:400;font-size:13.7993px;font-family:'Times New Roman';fill:#000000;stroke-width:0.862453"
         id="tspan3934">0.048</tspan></tspan></text><text
     xml:space="preserve"
     style="font-size:16px;line-height:1.25;font-family:sans-serif"
     x="726.75586"
     y="578.49078"
     id="text4367"><tspan
       sodipodi:role="line"
       id="tspan4365"
       x="726.75586"
       y="578.49078" /></text><text
     xml:space="preserve"
     style="font-size:16px;line-height:1.25;font-family:sans-serif"
     x="929.44189"
     y="539.49622"
     id="text9385"><tspan
       sodipodi:role="line"
       id="tspan9383"
       x="929.44189"
       y="539.49622">dB</tspan></text></g></svg>
