<svg id="Livello_1" data-name="Livello 1" xmlns="http://www.w3.org/2000/svg" viewBox="0 0 254.81 252.99"><defs><style>.cls-1{fill:#fff;}.cls-2,.cls-3,.cls-4,.cls-5,.cls-6,.cls-7,.cls-8,.cls-9{fill:none;}.cls-2,.cls-3,.cls-4,.cls-5{stroke:#ccc;stroke-width:0.5px;}.cls-2{stroke-linecap:square;}.cls-2,.cls-3{stroke-miterlimit:10;}.cls-3,.cls-4,.cls-6,.cls-8{stroke-linecap:round;}.cls-4,.cls-5,.cls-6,.cls-7,.cls-8,.cls-9{stroke-linejoin:round;}.cls-6,.cls-7{stroke:#0072bd;}.cls-8,.cls-9{stroke:#d95319;}.cls-10{font-size:9px;}.cls-10,.cls-11,.cls-13{font-family:ArialMT, Arial;}.cls-11{font-size:10px;}.cls-12{font-size:11px;font-family:Arial-BoldMT, Arial;font-weight:700;}.cls-13{font-size:10px;}</style></defs><polygon class="cls-1" points="41.1 193.76 43.57 196.81 46.15 199.77 48.83 202.65 51.6 205.42 54.47 208.1 57.44 210.68 60.49 213.15 63.62 215.51 66.84 217.76 70.13 219.9 73.5 221.93 76.94 223.83 80.43 225.61 83.99 227.27 87.61 228.8 91.27 230.21 94.99 231.49 98.74 232.64 102.53 233.66 106.36 234.54 110.21 235.29 114.09 235.9 117.99 236.38 121.9 236.72 125.82 236.93 129.75 237 133.68 236.93 137.6 236.72 141.51 236.38 145.41 235.9 149.29 235.29 153.14 234.54 156.97 233.66 160.76 232.64 164.51 231.49 168.23 230.21 171.89 228.8 175.51 227.27 179.07 225.61 182.56 223.83 186 221.93 189.37 219.9 192.66 217.76 195.88 215.51 199.01 213.15 202.06 210.68 205.03 208.1 207.9 205.42 210.68 202.65 213.35 199.77 215.93 196.81 218.4 193.76 220.76 190.62 223.02 187.41 225.16 184.11 227.18 180.75 229.08 177.31 230.87 173.81 232.52 170.25 234.06 166.64 235.47 162.97 236.74 159.26 237.89 155.5 238.91 151.71 239.79 147.89 240.54 144.03 241.16 140.15 241.63 136.26 241.98 132.34 242.18 128.42 242.25 124.5 242.18 120.57 241.98 116.65 241.63 112.74 241.16 108.84 240.54 104.96 239.79 101.11 238.91 97.28 237.89 93.49 236.74 89.73 235.47 86.02 234.06 82.35 232.52 78.74 230.87 75.18 229.08 71.68 227.18 68.25 225.16 64.88 223.02 61.59 220.76 58.37 218.4 55.23 215.93 52.18 213.35 49.22 210.68 46.35 207.9 43.57 205.03 40.89 202.06 38.32 199.01 35.84 195.88 33.48 192.66 31.23 189.37 29.09 186 27.07 182.56 25.16 179.07 23.38 175.51 21.72 171.89 20.19 168.23 18.78 164.51 17.5 160.76 16.36 156.97 15.34 153.14 14.46 149.29 13.71 145.41 13.09 141.51 12.61 137.6 12.27 133.68 12.06 129.75 12 125.82 12.06 121.9 12.27 117.99 12.61 114.09 13.09 110.21 13.71 106.36 14.46 102.53 15.34 98.74 16.36 94.99 17.5 91.27 18.78 87.61 20.19 83.99 21.72 80.43 23.38 76.94 25.16 73.5 27.07 70.13 29.09 66.84 31.23 63.62 33.48 60.49 35.84 57.44 38.32 54.47 40.89 51.6 43.57 48.83 46.35 46.15 49.22 43.57 52.18 41.1 55.23 38.74 58.37 36.48 61.59 34.34 64.88 32.32 68.25 30.42 71.68 28.64 75.18 26.98 78.74 25.44 82.35 24.04 86.02 22.76 89.73 21.61 93.49 20.59 97.28 19.71 101.11 18.96 104.96 18.34 108.84 17.87 112.74 17.52 116.65 17.32 120.57 17.25 124.5 17.32 128.42 17.52 132.34 17.87 136.26 18.34 140.15 18.96 144.03 19.71 147.89 20.59 151.71 21.61 155.5 22.76 159.26 24.04 162.97 25.44 166.64 26.98 170.25 28.64 173.81 30.42 177.31 32.32 180.75 34.34 184.11 36.48 187.41 38.74 190.62 41.1 193.76"/><line class="cls-2" x1="242.25" y1="124.5" x2="242.18" y2="120.57"/><line class="cls-3" x1="242.18" y1="120.57" x2="241.98" y2="116.65"/><line class="cls-3" x1="241.98" y1="116.65" x2="241.63" y2="112.74"/><line class="cls-3" x1="241.63" y1="112.74" x2="241.16" y2="108.84"/><line class="cls-3" x1="241.16" y1="108.84" x2="240.54" y2="104.96"/><line class="cls-3" x1="240.54" y1="104.96" x2="239.79" y2="101.11"/><line class="cls-3" x1="239.79" y1="101.11" x2="238.91" y2="97.28"/><line class="cls-3" x1="238.91" y1="97.28" x2="237.89" y2="93.49"/><line class="cls-3" x1="237.89" y1="93.49" x2="236.74" y2="89.73"/><line class="cls-3" x1="236.74" y1="89.73" x2="235.47" y2="86.02"/><line class="cls-3" x1="235.47" y1="86.02" x2="234.06" y2="82.35"/><line class="cls-3" x1="234.06" y1="82.35" x2="232.52" y2="78.74"/><line class="cls-3" x1="232.52" y1="78.74" x2="230.86" y2="75.18"/><line class="cls-3" x1="230.86" y1="75.18" x2="229.08" y2="71.68"/><line class="cls-3" x1="229.08" y1="71.68" x2="227.18" y2="68.25"/><line class="cls-3" x1="227.18" y1="68.25" x2="225.16" y2="64.88"/><line class="cls-3" x1="225.16" y1="64.88" x2="223.02" y2="61.59"/><line class="cls-3" x1="223.02" y1="61.59" x2="220.76" y2="58.37"/><line class="cls-3" x1="220.76" y1="58.37" x2="218.4" y2="55.23"/><line class="cls-3" x1="218.4" y1="55.23" x2="215.93" y2="52.18"/><line class="cls-3" x1="215.93" y1="52.18" x2="213.35" y2="49.22"/><line class="cls-3" x1="213.35" y1="49.22" x2="210.68" y2="46.35"/><line class="cls-3" x1="210.68" y1="46.35" x2="207.9" y2="43.57"/><line class="cls-3" x1="207.9" y1="43.57" x2="205.03" y2="40.89"/><line class="cls-3" x1="205.03" y1="40.89" x2="202.06" y2="38.32"/><line class="cls-3" x1="202.06" y1="38.32" x2="199.01" y2="35.85"/><line class="cls-3" x1="199.01" y1="35.85" x2="195.88" y2="33.48"/><line class="cls-3" x1="195.88" y1="33.48" x2="192.66" y2="31.23"/><line class="cls-3" x1="192.66" y1="31.23" x2="189.37" y2="29.09"/><line class="cls-3" x1="189.37" y1="29.09" x2="186" y2="27.07"/><line class="cls-3" x1="186" y1="27.07" x2="182.57" y2="25.17"/><line class="cls-3" x1="182.57" y1="25.17" x2="179.07" y2="23.38"/><line class="cls-3" x1="179.07" y1="23.38" x2="175.51" y2="21.72"/><line class="cls-3" x1="175.51" y1="21.72" x2="171.89" y2="20.19"/><line class="cls-3" x1="171.89" y1="20.19" x2="168.23" y2="18.78"/><line class="cls-3" x1="168.23" y1="18.78" x2="164.51" y2="17.5"/><line class="cls-3" x1="164.51" y1="17.5" x2="160.76" y2="16.35"/><line class="cls-3" x1="160.76" y1="16.35" x2="156.97" y2="15.34"/><line class="cls-3" x1="156.97" y1="15.34" x2="153.14" y2="14.45"/><line class="cls-3" x1="153.14" y1="14.46" x2="149.29" y2="13.71"/><line class="cls-3" x1="149.29" y1="13.71" x2="145.41" y2="13.09"/><line class="cls-3" x1="145.41" y1="13.09" x2="141.51" y2="12.61"/><line class="cls-3" x1="141.51" y1="12.61" x2="137.6" y2="12.27"/><line class="cls-3" x1="137.6" y1="12.27" x2="133.68" y2="12.07"/><line class="cls-3" x1="133.68" y1="12.07" x2="129.75" y2="12"/><line class="cls-3" x1="129.75" y1="12" x2="125.82" y2="12.06"/><line class="cls-3" x1="125.82" y1="12.07" x2="121.9" y2="12.27"/><line class="cls-3" x1="121.9" y1="12.27" x2="117.99" y2="12.61"/><line class="cls-3" x1="117.99" y1="12.61" x2="114.09" y2="13.09"/><line class="cls-3" x1="114.09" y1="13.09" x2="110.21" y2="13.71"/><line class="cls-3" x1="110.21" y1="13.71" x2="106.36" y2="14.45"/><line class="cls-3" x1="106.36" y1="14.46" x2="102.53" y2="15.34"/><line class="cls-3" x1="102.53" y1="15.34" x2="98.74" y2="16.35"/><line class="cls-3" x1="98.74" y1="16.35" x2="94.99" y2="17.5"/><line class="cls-3" x1="94.99" y1="17.5" x2="91.27" y2="18.78"/><line class="cls-3" x1="91.27" y1="18.78" x2="87.61" y2="20.19"/><line class="cls-3" x1="87.61" y1="20.19" x2="83.99" y2="21.72"/><line class="cls-3" x1="83.99" y1="21.72" x2="80.43" y2="23.38"/><line class="cls-3" x1="80.43" y1="23.38" x2="76.93" y2="25.17"/><line class="cls-3" x1="76.93" y1="25.17" x2="73.5" y2="27.07"/><line class="cls-3" x1="73.5" y1="27.07" x2="70.13" y2="29.09"/><line class="cls-3" x1="70.13" y1="29.09" x2="66.84" y2="31.23"/><line class="cls-3" x1="66.84" y1="31.23" x2="63.62" y2="33.48"/><line class="cls-3" x1="63.62" y1="33.48" x2="60.49" y2="35.85"/><line class="cls-3" x1="60.49" y1="35.85" x2="57.44" y2="38.32"/><line class="cls-3" x1="57.44" y1="38.32" x2="54.47" y2="40.89"/><line class="cls-3" x1="54.47" y1="40.89" x2="51.6" y2="43.57"/><line class="cls-3" x1="51.6" y1="43.57" x2="48.82" y2="46.35"/><line class="cls-3" x1="48.82" y1="46.35" x2="46.15" y2="49.22"/><line class="cls-3" x1="46.15" y1="49.22" x2="43.57" y2="52.18"/><line class="cls-3" x1="43.57" y1="52.18" x2="41.1" y2="55.23"/><line class="cls-3" x1="41.1" y1="55.23" x2="38.74" y2="58.37"/><line class="cls-3" x1="38.74" y1="58.37" x2="36.48" y2="61.59"/><line class="cls-3" x1="36.48" y1="61.59" x2="34.34" y2="64.88"/><line class="cls-3" x1="34.34" y1="64.88" x2="32.32" y2="68.25"/><line class="cls-3" x1="32.32" y1="68.25" x2="30.42" y2="71.68"/><line class="cls-3" x1="30.42" y1="71.68" x2="28.64" y2="75.18"/><line class="cls-3" x1="28.64" y1="75.18" x2="26.98" y2="78.74"/><line class="cls-3" x1="26.98" y1="78.74" x2="25.44" y2="82.35"/><line class="cls-3" x1="25.44" y1="82.35" x2="24.03" y2="86.02"/><line class="cls-3" x1="24.03" y1="86.02" x2="22.76" y2="89.73"/><line class="cls-3" x1="22.76" y1="89.73" x2="21.61" y2="93.49"/><line class="cls-3" x1="21.61" y1="93.49" x2="20.59" y2="97.28"/><line class="cls-3" x1="20.59" y1="97.28" x2="19.71" y2="101.11"/><line class="cls-3" x1="19.71" y1="101.11" x2="18.96" y2="104.96"/><line class="cls-3" x1="18.96" y1="104.96" x2="18.34" y2="108.84"/><line class="cls-3" x1="18.34" y1="108.84" x2="17.87" y2="112.74"/><line class="cls-3" x1="17.87" y1="112.74" x2="17.52" y2="116.65"/><line class="cls-3" x1="17.52" y1="116.65" x2="17.32" y2="120.57"/><line class="cls-3" x1="17.32" y1="120.57" x2="17.25" y2="124.5"/><line class="cls-3" x1="17.25" y1="124.5" x2="17.32" y2="128.42"/><line class="cls-3" x1="17.32" y1="128.42" x2="17.52" y2="132.34"/><line class="cls-3" x1="17.52" y1="132.34" x2="17.87" y2="136.26"/><line class="cls-3" x1="17.87" y1="136.26" x2="18.34" y2="140.15"/><line class="cls-3" x1="18.34" y1="140.15" x2="18.96" y2="144.03"/><line class="cls-3" x1="18.96" y1="144.03" x2="19.71" y2="147.89"/><line class="cls-3" x1="19.71" y1="147.89" x2="20.59" y2="151.71"/><line class="cls-3" x1="20.59" y1="151.71" x2="21.61" y2="155.51"/><line class="cls-3" x1="21.61" y1="155.51" x2="22.76" y2="159.26"/><line class="cls-3" x1="22.76" y1="159.26" x2="24.03" y2="162.97"/><line class="cls-3" x1="24.03" y1="162.97" x2="25.44" y2="166.64"/><line class="cls-3" x1="25.44" y1="166.64" x2="26.98" y2="170.25"/><line class="cls-3" x1="26.98" y1="170.25" x2="28.64" y2="173.81"/><line class="cls-3" x1="28.64" y1="173.81" x2="30.42" y2="177.31"/><line class="cls-3" x1="30.42" y1="177.31" x2="32.32" y2="180.75"/><line class="cls-3" x1="32.32" y1="180.75" x2="34.34" y2="184.11"/><line class="cls-3" x1="34.34" y1="184.11" x2="36.48" y2="187.41"/><line class="cls-3" x1="36.48" y1="187.41" x2="38.74" y2="190.62"/><line class="cls-3" x1="38.74" y1="190.62" x2="41.1" y2="193.76"/><line class="cls-3" x1="41.1" y1="193.76" x2="43.57" y2="196.81"/><line class="cls-3" x1="43.57" y1="196.81" x2="46.15" y2="199.77"/><line class="cls-3" x1="46.15" y1="199.77" x2="48.82" y2="202.65"/><line class="cls-3" x1="48.82" y1="202.65" x2="51.6" y2="205.42"/><line class="cls-3" x1="51.6" y1="205.42" x2="54.47" y2="208.1"/><line class="cls-3" x1="54.47" y1="208.1" x2="57.44" y2="210.68"/><line class="cls-3" x1="57.44" y1="210.68" x2="60.49" y2="213.15"/><line class="cls-3" x1="60.49" y1="213.15" x2="63.62" y2="215.51"/><line class="cls-3" x1="63.62" y1="215.51" x2="66.84" y2="217.76"/><line class="cls-3" x1="66.84" y1="217.76" x2="70.13" y2="219.9"/><line class="cls-3" x1="70.13" y1="219.9" x2="73.5" y2="221.92"/><line class="cls-3" x1="73.5" y1="221.92" x2="76.93" y2="223.83"/><line class="cls-3" x1="76.93" y1="223.83" x2="80.43" y2="225.61"/><line class="cls-3" x1="80.43" y1="225.61" x2="83.99" y2="227.27"/><line class="cls-3" x1="83.99" y1="227.27" x2="87.61" y2="228.8"/><line class="cls-3" x1="87.61" y1="228.8" x2="91.27" y2="230.21"/><line class="cls-3" x1="91.27" y1="230.21" x2="94.99" y2="231.49"/><line class="cls-3" x1="94.99" y1="231.49" x2="98.74" y2="232.64"/><line class="cls-3" x1="98.74" y1="232.64" x2="102.53" y2="233.65"/><line class="cls-3" x1="102.53" y1="233.65" x2="106.36" y2="234.54"/><line class="cls-3" x1="106.36" y1="234.54" x2="110.21" y2="235.29"/><line class="cls-3" x1="110.21" y1="235.29" x2="114.09" y2="235.9"/><line class="cls-3" x1="114.09" y1="235.9" x2="117.99" y2="236.38"/><line class="cls-3" x1="117.99" y1="236.38" x2="121.9" y2="236.72"/><line class="cls-3" x1="121.9" y1="236.72" x2="125.82" y2="236.93"/><line class="cls-3" x1="125.82" y1="236.93" x2="129.75" y2="237"/><line class="cls-3" x1="129.75" y1="237" x2="133.68" y2="236.93"/><line class="cls-3" x1="133.68" y1="236.93" x2="137.6" y2="236.72"/><line class="cls-3" x1="137.6" y1="236.72" x2="141.51" y2="236.38"/><line class="cls-3" x1="141.51" y1="236.38" x2="145.41" y2="235.9"/><line class="cls-3" x1="145.41" y1="235.9" x2="149.29" y2="235.29"/><line class="cls-3" x1="149.29" y1="235.29" x2="153.14" y2="234.54"/><line class="cls-3" x1="153.14" y1="234.54" x2="156.97" y2="233.65"/><line class="cls-3" x1="156.97" y1="233.65" x2="160.76" y2="232.64"/><line class="cls-3" x1="160.76" y1="232.64" x2="164.51" y2="231.49"/><line class="cls-3" x1="164.51" y1="231.49" x2="168.23" y2="230.21"/><line class="cls-3" x1="168.23" y1="230.21" x2="171.89" y2="228.81"/><line class="cls-3" x1="171.89" y1="228.8" x2="175.51" y2="227.27"/><line class="cls-3" x1="175.51" y1="227.27" x2="179.07" y2="225.61"/><line class="cls-3" x1="179.07" y1="225.61" x2="182.57" y2="223.83"/><line class="cls-3" x1="182.57" y1="223.83" x2="186" y2="221.92"/><line class="cls-3" x1="186" y1="221.92" x2="189.37" y2="219.9"/><line class="cls-3" x1="189.37" y1="219.9" x2="192.66" y2="217.76"/><line class="cls-3" x1="192.66" y1="217.76" x2="195.88" y2="215.51"/><line class="cls-3" x1="195.88" y1="215.51" x2="199.01" y2="213.15"/><line class="cls-3" x1="199.01" y1="213.15" x2="202.06" y2="210.68"/><line class="cls-3" x1="202.06" y1="210.68" x2="205.03" y2="208.1"/><line class="cls-3" x1="205.03" y1="208.1" x2="207.9" y2="205.42"/><line class="cls-3" x1="207.9" y1="205.42" x2="210.68" y2="202.65"/><line class="cls-3" x1="210.68" y1="202.65" x2="213.35" y2="199.77"/><line class="cls-3" x1="213.35" y1="199.77" x2="215.93" y2="196.81"/><line class="cls-3" x1="215.93" y1="196.81" x2="218.4" y2="193.76"/><line class="cls-3" x1="218.4" y1="193.76" x2="220.76" y2="190.62"/><line class="cls-3" x1="220.76" y1="190.62" x2="223.02" y2="187.41"/><line class="cls-3" x1="223.02" y1="187.41" x2="225.16" y2="184.11"/><line class="cls-3" x1="225.16" y1="184.11" x2="227.18" y2="180.75"/><line class="cls-3" x1="227.18" y1="180.75" x2="229.08" y2="177.31"/><line class="cls-3" x1="229.08" y1="177.31" x2="230.86" y2="173.81"/><line class="cls-3" x1="230.86" y1="173.81" x2="232.52" y2="170.25"/><line class="cls-3" x1="232.52" y1="170.25" x2="234.06" y2="166.64"/><line class="cls-3" x1="234.06" y1="166.64" x2="235.47" y2="162.97"/><line class="cls-3" x1="235.47" y1="162.97" x2="236.74" y2="159.26"/><line class="cls-3" x1="236.74" y1="159.26" x2="237.89" y2="155.51"/><line class="cls-3" x1="237.89" y1="155.51" x2="238.91" y2="151.71"/><line class="cls-3" x1="238.91" y1="151.71" x2="239.79" y2="147.89"/><line class="cls-3" x1="239.79" y1="147.89" x2="240.54" y2="144.03"/><line class="cls-3" x1="240.54" y1="144.03" x2="241.16" y2="140.15"/><line class="cls-3" x1="241.16" y1="140.15" x2="241.63" y2="136.26"/><line class="cls-3" x1="241.63" y1="136.26" x2="241.98" y2="132.34"/><line class="cls-3" x1="241.98" y1="132.34" x2="242.18" y2="128.42"/><line class="cls-3" x1="242.18" y1="128.42" x2="242.25" y2="124.5"/><line class="cls-3" x1="242.25" y1="124.5" x2="242.25" y2="124.5"/><line class="cls-2" x1="242.25" y1="124.5" x2="242.25" y2="124.5"/><line class="cls-2" x1="148.5" y1="124.5" x2="148.21" y2="121.24"/><line class="cls-4" x1="148.22" y1="121.24" x2="147.37" y2="118.08"/><line class="cls-4" x1="147.37" y1="118.08" x2="145.99" y2="115.12"/><line class="cls-4" x1="145.99" y1="115.12" x2="144.11" y2="112.44"/><line class="cls-4" x1="144.11" y1="112.44" x2="141.8" y2="110.13"/><line class="cls-4" x1="141.8" y1="110.13" x2="139.12" y2="108.26"/><line class="cls-4" x1="139.13" y1="108.26" x2="136.16" y2="106.88"/><line class="cls-4" x1="136.16" y1="106.88" x2="133.01" y2="106.03"/><line class="cls-4" x1="133.01" y1="106.03" x2="129.75" y2="105.75"/><line class="cls-4" x1="129.75" y1="105.75" x2="126.49" y2="106.03"/><line class="cls-4" x1="126.49" y1="106.03" x2="123.34" y2="106.88"/><line class="cls-4" x1="123.34" y1="106.88" x2="120.38" y2="108.26"/><line class="cls-4" x1="120.38" y1="108.26" x2="117.7" y2="110.13"/><line class="cls-4" x1="117.7" y1="110.13" x2="115.39" y2="112.44"/><line class="cls-4" x1="115.39" y1="112.44" x2="113.51" y2="115.12"/><line class="cls-4" x1="113.51" y1="115.12" x2="112.13" y2="118.08"/><line class="cls-4" x1="112.13" y1="118.08" x2="111.28" y2="121.24"/><line class="cls-4" x1="111.28" y1="121.24" x2="111" y2="124.5"/><line class="cls-4" x1="111" y1="124.5" x2="111.28" y2="127.75"/><line class="cls-4" x1="111.28" y1="127.75" x2="112.13" y2="130.91"/><line class="cls-4" x1="112.13" y1="130.91" x2="113.51" y2="133.87"/><line class="cls-4" x1="113.51" y1="133.87" x2="115.39" y2="136.55"/><line class="cls-4" x1="115.39" y1="136.55" x2="117.7" y2="138.86"/><line class="cls-4" x1="117.7" y1="138.86" x2="120.38" y2="140.73"/><line class="cls-4" x1="120.38" y1="140.73" x2="123.34" y2="142.12"/><line class="cls-4" x1="123.34" y1="142.12" x2="126.49" y2="142.96"/><line class="cls-4" x1="126.49" y1="142.96" x2="129.75" y2="143.25"/><line class="cls-4" x1="129.75" y1="143.25" x2="133.01" y2="142.96"/><line class="cls-4" x1="133.01" y1="142.96" x2="136.16" y2="142.12"/><line class="cls-4" x1="136.16" y1="142.12" x2="139.12" y2="140.73"/><line class="cls-4" x1="139.13" y1="140.73" x2="141.8" y2="138.86"/><line class="cls-4" x1="141.8" y1="138.86" x2="144.11" y2="136.55"/><line class="cls-4" x1="144.11" y1="136.55" x2="145.99" y2="133.87"/><line class="cls-4" x1="145.99" y1="133.87" x2="147.37" y2="130.91"/><line class="cls-4" x1="147.37" y1="130.91" x2="148.22" y2="127.75"/><line class="cls-4" x1="148.22" y1="127.75" x2="148.5" y2="124.5"/><line class="cls-5" x1="148.5" y1="124.5" x2="148.5" y2="124.5"/><line class="cls-5" x1="186" y1="124.5" x2="185.86" y2="120.57"/><line class="cls-4" x1="185.86" y1="120.57" x2="185.45" y2="116.67"/><line class="cls-4" x1="185.45" y1="116.67" x2="184.77" y2="112.8"/><line class="cls-4" x1="184.77" y1="112.8" x2="183.82" y2="108.99"/><line class="cls-4" x1="183.82" y1="108.99" x2="182.61" y2="105.26"/><line class="cls-4" x1="182.61" y1="105.26" x2="181.14" y2="101.62"/><line class="cls-4" x1="181.14" y1="101.62" x2="179.42" y2="98.09"/><line class="cls-4" x1="179.42" y1="98.09" x2="177.45" y2="94.69"/><line class="cls-4" x1="177.45" y1="94.69" x2="175.26" y2="91.43"/><line class="cls-4" x1="175.26" y1="91.43" x2="172.84" y2="88.34"/><line class="cls-4" x1="172.84" y1="88.34" x2="170.21" y2="85.42"/><line class="cls-4" x1="170.21" y1="85.42" x2="167.39" y2="82.7"/><line class="cls-4" x1="167.39" y1="82.69" x2="164.38" y2="80.17"/><line class="cls-4" x1="164.38" y1="80.17" x2="161.2" y2="77.86"/><line class="cls-4" x1="161.2" y1="77.86" x2="157.88" y2="75.78"/><line class="cls-4" x1="157.88" y1="75.78" x2="154.41" y2="73.94"/><line class="cls-4" x1="154.41" y1="73.94" x2="150.82" y2="72.34"/><line class="cls-4" x1="150.82" y1="72.34" x2="147.13" y2="71"/><line class="cls-4" x1="147.13" y1="71" x2="143.36" y2="69.92"/><line class="cls-4" x1="143.36" y1="69.92" x2="139.52" y2="69.1"/><line class="cls-4" x1="139.52" y1="69.1" x2="135.63" y2="68.55"/><line class="cls-4" x1="135.63" y1="68.55" x2="131.71" y2="68.28"/><line class="cls-4" x1="131.71" y1="68.28" x2="127.79" y2="68.28"/><line class="cls-4" x1="127.79" y1="68.28" x2="123.87" y2="68.55"/><line class="cls-4" x1="123.87" y1="68.55" x2="119.98" y2="69.1"/><line class="cls-4" x1="119.98" y1="69.1" x2="116.14" y2="69.92"/><line class="cls-4" x1="116.14" y1="69.92" x2="112.37" y2="71"/><line class="cls-4" x1="112.37" y1="71" x2="108.68" y2="72.34"/><line class="cls-4" x1="108.68" y1="72.34" x2="105.09" y2="73.94"/><line class="cls-4" x1="105.09" y1="73.94" x2="101.63" y2="75.78"/><line class="cls-4" x1="101.63" y1="75.78" x2="98.3" y2="77.86"/><line class="cls-4" x1="98.3" y1="77.86" x2="95.12" y2="80.17"/><line class="cls-4" x1="95.12" y1="80.17" x2="92.11" y2="82.69"/><line class="cls-4" x1="92.11" y1="82.69" x2="89.29" y2="85.42"/><line class="cls-4" x1="89.29" y1="85.42" x2="86.66" y2="88.34"/><line class="cls-4" x1="86.66" y1="88.34" x2="84.24" y2="91.43"/><line class="cls-4" x1="84.24" y1="91.43" x2="82.05" y2="94.69"/><line class="cls-4" x1="82.05" y1="94.69" x2="80.08" y2="98.09"/><line class="cls-4" x1="80.08" y1="98.09" x2="78.36" y2="101.62"/><line class="cls-4" x1="78.36" y1="101.62" x2="76.89" y2="105.26"/><line class="cls-4" x1="76.89" y1="105.26" x2="75.68" y2="108.99"/><line class="cls-4" x1="75.68" y1="108.99" x2="74.73" y2="112.8"/><line class="cls-4" x1="74.73" y1="112.8" x2="74.05" y2="116.67"/><line class="cls-4" x1="74.05" y1="116.67" x2="73.64" y2="120.57"/><line class="cls-4" x1="73.64" y1="120.57" x2="73.5" y2="124.5"/><line class="cls-4" x1="73.5" y1="124.5" x2="73.64" y2="128.42"/><line class="cls-4" x1="73.64" y1="128.42" x2="74.05" y2="132.32"/><line class="cls-4" x1="74.05" y1="132.33" x2="74.73" y2="136.19"/><line class="cls-4" x1="74.73" y1="136.19" x2="75.68" y2="140"/><line class="cls-4" x1="75.68" y1="140" x2="76.89" y2="143.74"/><line class="cls-4" x1="76.89" y1="143.74" x2="78.36" y2="147.38"/><line class="cls-4" x1="78.36" y1="147.38" x2="80.08" y2="150.9"/><line class="cls-4" x1="80.08" y1="150.9" x2="82.05" y2="154.3"/><line class="cls-4" x1="82.05" y1="154.3" x2="84.24" y2="157.56"/><line class="cls-4" x1="84.24" y1="157.56" x2="86.66" y2="160.65"/><line class="cls-4" x1="86.66" y1="160.65" x2="89.29" y2="163.57"/><line class="cls-4" x1="89.29" y1="163.57" x2="92.11" y2="166.3"/><line class="cls-4" x1="92.11" y1="166.3" x2="95.12" y2="168.82"/><line class="cls-4" x1="95.12" y1="168.82" x2="98.3" y2="171.13"/><line class="cls-4" x1="98.3" y1="171.13" x2="101.62" y2="173.21"/><line class="cls-4" x1="101.63" y1="173.21" x2="105.09" y2="175.05"/><line class="cls-4" x1="105.09" y1="175.05" x2="108.68" y2="176.65"/><line class="cls-4" x1="108.68" y1="176.65" x2="112.37" y2="177.99"/><line class="cls-4" x1="112.37" y1="177.99" x2="116.14" y2="179.08"/><line class="cls-4" x1="116.14" y1="179.08" x2="119.98" y2="179.89"/><line class="cls-4" x1="119.98" y1="179.89" x2="123.87" y2="180.44"/><line class="cls-4" x1="123.87" y1="180.44" x2="127.79" y2="180.71"/><line class="cls-4" x1="127.79" y1="180.71" x2="131.71" y2="180.71"/><line class="cls-4" x1="131.71" y1="180.71" x2="135.63" y2="180.44"/><line class="cls-4" x1="135.63" y1="180.44" x2="139.52" y2="179.89"/><line class="cls-4" x1="139.52" y1="179.89" x2="143.36" y2="179.08"/><line class="cls-4" x1="143.36" y1="179.08" x2="147.13" y2="177.99"/><line class="cls-4" x1="147.13" y1="177.99" x2="150.82" y2="176.65"/><line class="cls-4" x1="150.82" y1="176.65" x2="154.41" y2="175.05"/><line class="cls-4" x1="154.41" y1="175.05" x2="157.87" y2="173.21"/><line class="cls-4" x1="157.88" y1="173.21" x2="161.2" y2="171.13"/><line class="cls-4" x1="161.2" y1="171.13" x2="164.38" y2="168.82"/><line class="cls-4" x1="164.38" y1="168.82" x2="167.39" y2="166.3"/><line class="cls-4" x1="167.39" y1="166.3" x2="170.21" y2="163.57"/><line class="cls-4" x1="170.21" y1="163.57" x2="172.84" y2="160.65"/><line class="cls-4" x1="172.84" y1="160.65" x2="175.26" y2="157.56"/><line class="cls-4" x1="175.26" y1="157.56" x2="177.45" y2="154.3"/><line class="cls-4" x1="177.45" y1="154.3" x2="179.42" y2="150.9"/><line class="cls-4" x1="179.42" y1="150.9" x2="181.14" y2="147.38"/><line class="cls-4" x1="181.14" y1="147.38" x2="182.61" y2="143.74"/><line class="cls-4" x1="182.61" y1="143.74" x2="183.82" y2="140"/><line class="cls-4" x1="183.82" y1="140" x2="184.77" y2="136.19"/><line class="cls-4" x1="184.77" y1="136.19" x2="185.45" y2="132.33"/><line class="cls-4" x1="185.45" y1="132.33" x2="185.86" y2="128.42"/><line class="cls-4" x1="185.86" y1="128.42" x2="186" y2="124.5"/><line class="cls-5" x1="186" y1="124.5" x2="186" y2="124.5"/><line class="cls-5" x1="223.5" y1="124.5" x2="223.42" y2="120.57"/><line class="cls-4" x1="223.42" y1="120.57" x2="223.17" y2="116.65"/><line class="cls-4" x1="223.17" y1="116.65" x2="222.76" y2="112.75"/><line class="cls-4" x1="222.76" y1="112.75" x2="222.19" y2="108.86"/><line class="cls-4" x1="222.19" y1="108.86" x2="221.45" y2="105"/><line class="cls-4" x1="221.45" y1="105" x2="220.55" y2="101.18"/><line class="cls-4" x1="220.55" y1="101.18" x2="219.5" y2="97.4"/><line class="cls-4" x1="219.5" y1="97.4" x2="218.29" y2="93.67"/><line class="cls-4" x1="218.29" y1="93.67" x2="216.92" y2="89.99"/><line class="cls-4" x1="216.92" y1="89.98" x2="215.39" y2="86.36"/><line class="cls-4" x1="215.39" y1="86.37" x2="213.72" y2="82.81"/><line class="cls-4" x1="213.72" y1="82.81" x2="211.9" y2="79.33"/><line class="cls-4" x1="211.9" y1="79.33" x2="209.94" y2="75.93"/><line class="cls-4" x1="209.94" y1="75.93" x2="207.84" y2="72.62"/><line class="cls-4" x1="207.84" y1="72.62" x2="205.6" y2="69.39"/><line class="cls-4" x1="205.6" y1="69.39" x2="203.22" y2="66.26"/><line class="cls-4" x1="203.22" y1="66.26" x2="200.72" y2="63.24"/><line class="cls-4" x1="200.72" y1="63.24" x2="198.09" y2="60.32"/><line class="cls-4" x1="198.09" y1="60.32" x2="195.34" y2="57.51"/><line class="cls-4" x1="195.34" y1="57.51" x2="192.48" y2="54.83"/><line class="cls-4" x1="192.48" y1="54.83" x2="189.51" y2="52.26"/><line class="cls-4" x1="189.51" y1="52.26" x2="186.43" y2="49.82"/><line class="cls-4" x1="186.43" y1="49.82" x2="183.25" y2="47.51"/><line class="cls-4" x1="183.25" y1="47.51" x2="179.98" y2="45.34"/><line class="cls-4" x1="179.98" y1="45.34" x2="176.63" y2="43.31"/><line class="cls-4" x1="176.63" y1="43.31" x2="173.18" y2="41.42"/><line class="cls-4" x1="173.18" y1="41.42" x2="169.67" y2="39.67"/><line class="cls-4" x1="169.67" y1="39.67" x2="166.08" y2="38.07"/><line class="cls-4" x1="166.08" y1="38.07" x2="162.43" y2="36.63"/><line class="cls-4" x1="162.43" y1="36.63" x2="158.72" y2="35.33"/><line class="cls-4" x1="158.72" y1="35.34" x2="154.96" y2="34.2"/><line class="cls-4" x1="154.96" y1="34.2" x2="151.16" y2="33.22"/><line class="cls-4" x1="151.16" y1="33.22" x2="147.32" y2="32.41"/><line class="cls-4" x1="147.32" y1="32.41" x2="143.45" y2="31.75"/><line class="cls-4" x1="143.45" y1="31.75" x2="139.55" y2="31.26"/><line class="cls-4" x1="139.55" y1="31.26" x2="135.64" y2="30.93"/><line class="cls-4" x1="135.64" y1="30.93" x2="131.71" y2="30.77"/><line class="cls-4" x1="131.71" y1="30.77" x2="127.79" y2="30.77"/><line class="cls-4" x1="127.79" y1="30.77" x2="123.86" y2="30.93"/><line class="cls-4" x1="123.86" y1="30.93" x2="119.95" y2="31.26"/><line class="cls-4" x1="119.95" y1="31.26" x2="116.05" y2="31.75"/><line class="cls-4" x1="116.05" y1="31.75" x2="112.18" y2="32.41"/><line class="cls-4" x1="112.18" y1="32.41" x2="108.34" y2="33.22"/><line class="cls-4" x1="108.34" y1="33.22" x2="104.54" y2="34.2"/><line class="cls-4" x1="104.54" y1="34.2" x2="100.78" y2="35.33"/><line class="cls-4" x1="100.78" y1="35.34" x2="97.07" y2="36.63"/><line class="cls-4" x1="97.07" y1="36.63" x2="93.42" y2="38.07"/><line class="cls-4" x1="93.42" y1="38.07" x2="89.83" y2="39.67"/><line class="cls-4" x1="89.83" y1="39.67" x2="86.32" y2="41.42"/><line class="cls-4" x1="86.32" y1="41.42" x2="82.87" y2="43.31"/><line class="cls-4" x1="82.88" y1="43.31" x2="79.52" y2="45.34"/><line class="cls-4" x1="79.52" y1="45.34" x2="76.25" y2="47.51"/><line class="cls-4" x1="76.25" y1="47.51" x2="73.07" y2="49.82"/><line class="cls-4" x1="73.07" y1="49.82" x2="69.99" y2="52.26"/><line class="cls-4" x1="69.99" y1="52.26" x2="67.02" y2="54.83"/><line class="cls-4" x1="67.02" y1="54.83" x2="64.16" y2="57.51"/><line class="cls-4" x1="64.16" y1="57.51" x2="61.41" y2="60.32"/><line class="cls-4" x1="61.41" y1="60.32" x2="58.78" y2="63.24"/><line class="cls-4" x1="58.78" y1="63.24" x2="56.28" y2="66.26"/><line class="cls-4" x1="56.28" y1="66.26" x2="53.9" y2="69.39"/><line class="cls-4" x1="53.9" y1="69.39" x2="51.66" y2="72.62"/><line class="cls-4" x1="51.66" y1="72.62" x2="49.56" y2="75.93"/><line class="cls-4" x1="49.56" y1="75.93" x2="47.6" y2="79.33"/><line class="cls-4" x1="47.6" y1="79.33" x2="45.78" y2="82.81"/><line class="cls-4" x1="45.78" y1="82.81" x2="44.11" y2="86.36"/><line class="cls-4" x1="44.11" y1="86.37" x2="42.58" y2="89.99"/><line class="cls-4" x1="42.58" y1="89.98" x2="41.21" y2="93.67"/><line class="cls-4" x1="41.21" y1="93.67" x2="40" y2="97.4"/><line class="cls-4" x1="40" y1="97.4" x2="38.95" y2="101.18"/><line class="cls-4" x1="38.95" y1="101.18" x2="38.05" y2="105"/><line class="cls-4" x1="38.05" y1="105" x2="37.31" y2="108.86"/><line class="cls-4" x1="37.31" y1="108.86" x2="36.74" y2="112.75"/><line class="cls-4" x1="36.74" y1="112.75" x2="36.33" y2="116.65"/><line class="cls-4" x1="36.33" y1="116.65" x2="36.08" y2="120.57"/><line class="cls-4" x1="36.08" y1="120.57" x2="36" y2="124.5"/><line class="cls-4" x1="36" y1="124.5" x2="36.08" y2="128.42"/><line class="cls-4" x1="36.08" y1="128.42" x2="36.33" y2="132.34"/><line class="cls-4" x1="36.33" y1="132.34" x2="36.74" y2="136.25"/><line class="cls-4" x1="36.74" y1="136.25" x2="37.31" y2="140.13"/><line class="cls-4" x1="37.31" y1="140.13" x2="38.05" y2="143.99"/><line class="cls-4" x1="38.05" y1="143.99" x2="38.95" y2="147.81"/><line class="cls-4" x1="38.95" y1="147.81" x2="40" y2="151.59"/><line class="cls-4" x1="40" y1="151.59" x2="41.21" y2="155.33"/><line class="cls-4" x1="41.21" y1="155.33" x2="42.58" y2="159.01"/><line class="cls-4" x1="42.58" y1="159.01" x2="44.11" y2="162.63"/><line class="cls-4" x1="44.11" y1="162.63" x2="45.78" y2="166.18"/><line class="cls-4" x1="45.78" y1="166.18" x2="47.6" y2="169.66"/><line class="cls-4" x1="47.6" y1="169.66" x2="49.56" y2="173.06"/><line class="cls-4" x1="49.56" y1="173.06" x2="51.66" y2="176.38"/><line class="cls-4" x1="51.66" y1="176.38" x2="53.9" y2="179.6"/><line class="cls-4" x1="53.9" y1="179.6" x2="56.28" y2="182.73"/><line class="cls-4" x1="56.28" y1="182.73" x2="58.78" y2="185.75"/><line class="cls-4" x1="58.78" y1="185.75" x2="61.41" y2="188.67"/><line class="cls-4" x1="61.41" y1="188.67" x2="64.16" y2="191.48"/><line class="cls-4" x1="64.16" y1="191.48" x2="67.02" y2="194.17"/><line class="cls-4" x1="67.02" y1="194.17" x2="69.99" y2="196.73"/><line class="cls-4" x1="69.99" y1="196.73" x2="73.07" y2="199.17"/><line class="cls-4" x1="73.07" y1="199.17" x2="76.25" y2="201.48"/><line class="cls-4" x1="76.25" y1="201.48" x2="79.52" y2="203.65"/><line class="cls-4" x1="79.52" y1="203.65" x2="82.87" y2="205.69"/><line class="cls-4" x1="82.88" y1="205.69" x2="86.32" y2="207.58"/><line class="cls-4" x1="86.32" y1="207.58" x2="89.83" y2="209.32"/><line class="cls-4" x1="89.83" y1="209.32" x2="93.42" y2="210.92"/><line class="cls-4" x1="93.42" y1="210.92" x2="97.07" y2="212.37"/><line class="cls-4" x1="97.07" y1="212.37" x2="100.78" y2="213.66"/><line class="cls-4" x1="100.78" y1="213.66" x2="104.54" y2="214.79"/><line class="cls-4" x1="104.54" y1="214.79" x2="108.34" y2="215.77"/><line class="cls-4" x1="108.34" y1="215.77" x2="112.18" y2="216.59"/><line class="cls-4" x1="112.18" y1="216.59" x2="116.05" y2="217.24"/><line class="cls-4" x1="116.05" y1="217.24" x2="119.95" y2="217.73"/><line class="cls-4" x1="119.95" y1="217.73" x2="123.86" y2="218.06"/><line class="cls-4" x1="123.86" y1="218.06" x2="127.79" y2="218.23"/><line class="cls-4" x1="127.79" y1="218.23" x2="131.71" y2="218.23"/><line class="cls-4" x1="131.71" y1="218.23" x2="135.64" y2="218.06"/><line class="cls-4" x1="135.64" y1="218.06" x2="139.55" y2="217.73"/><line class="cls-4" x1="139.55" y1="217.73" x2="143.45" y2="217.24"/><line class="cls-4" x1="143.45" y1="217.24" x2="147.32" y2="216.59"/><line class="cls-4" x1="147.32" y1="216.59" x2="151.16" y2="215.77"/><line class="cls-4" x1="151.16" y1="215.77" x2="154.96" y2="214.79"/><line class="cls-4" x1="154.96" y1="214.79" x2="158.72" y2="213.66"/><line class="cls-4" x1="158.72" y1="213.66" x2="162.43" y2="212.37"/><line class="cls-4" x1="162.43" y1="212.37" x2="166.08" y2="210.92"/><line class="cls-4" x1="166.08" y1="210.92" x2="169.67" y2="209.32"/><line class="cls-4" x1="169.67" y1="209.32" x2="173.18" y2="207.58"/><line class="cls-4" x1="173.18" y1="207.58" x2="176.62" y2="205.69"/><line class="cls-4" x1="176.63" y1="205.69" x2="179.98" y2="203.65"/><line class="cls-4" x1="179.98" y1="203.65" x2="183.25" y2="201.48"/><line class="cls-4" x1="183.25" y1="201.48" x2="186.43" y2="199.17"/><line class="cls-4" x1="186.43" y1="199.17" x2="189.51" y2="196.73"/><line class="cls-4" x1="189.51" y1="196.73" x2="192.48" y2="194.17"/><line class="cls-4" x1="192.48" y1="194.17" x2="195.34" y2="191.48"/><line class="cls-4" x1="195.34" y1="191.48" x2="198.09" y2="188.67"/><line class="cls-4" x1="198.09" y1="188.67" x2="200.72" y2="185.75"/><line class="cls-4" x1="200.72" y1="185.75" x2="203.22" y2="182.73"/><line class="cls-4" x1="203.22" y1="182.73" x2="205.6" y2="179.6"/><line class="cls-4" x1="205.6" y1="179.6" x2="207.84" y2="176.38"/><line class="cls-4" x1="207.84" y1="176.38" x2="209.94" y2="173.06"/><line class="cls-4" x1="209.94" y1="173.06" x2="211.9" y2="169.66"/><line class="cls-4" x1="211.9" y1="169.66" x2="213.72" y2="166.18"/><line class="cls-4" x1="213.72" y1="166.18" x2="215.39" y2="162.63"/><line class="cls-4" x1="215.39" y1="162.63" x2="216.92" y2="159.01"/><line class="cls-4" x1="216.92" y1="159.01" x2="218.29" y2="155.33"/><line class="cls-4" x1="218.29" y1="155.33" x2="219.5" y2="151.59"/><line class="cls-4" x1="219.5" y1="151.59" x2="220.55" y2="147.81"/><line class="cls-4" x1="220.55" y1="147.81" x2="221.45" y2="143.99"/><line class="cls-4" x1="221.45" y1="143.99" x2="222.19" y2="140.13"/><line class="cls-4" x1="222.19" y1="140.13" x2="222.76" y2="136.25"/><line class="cls-4" x1="222.76" y1="136.25" x2="223.17" y2="132.34"/><line class="cls-4" x1="223.17" y1="132.34" x2="223.42" y2="128.42"/><line class="cls-4" x1="223.42" y1="128.42" x2="223.5" y2="124.5"/><line class="cls-5" x1="223.5" y1="124.5" x2="223.5" y2="124.5"/><line class="cls-5" x1="242.25" y1="124.5" x2="242.18" y2="120.57"/><line class="cls-4" x1="242.18" y1="120.57" x2="241.98" y2="116.65"/><line class="cls-4" x1="241.98" y1="116.65" x2="241.63" y2="112.74"/><line class="cls-4" x1="241.63" y1="112.74" x2="241.16" y2="108.84"/><line class="cls-4" x1="241.16" y1="108.84" x2="240.54" y2="104.96"/><line class="cls-4" x1="240.54" y1="104.96" x2="239.79" y2="101.11"/><line class="cls-4" x1="239.79" y1="101.11" x2="238.91" y2="97.28"/><line class="cls-4" x1="238.91" y1="97.28" x2="237.89" y2="93.49"/><line class="cls-4" x1="237.89" y1="93.49" x2="236.74" y2="89.73"/><line class="cls-4" x1="236.74" y1="89.73" x2="235.47" y2="86.02"/><line class="cls-4" x1="235.47" y1="86.02" x2="234.06" y2="82.35"/><line class="cls-4" x1="234.06" y1="82.35" x2="232.52" y2="78.74"/><line class="cls-4" x1="232.52" y1="78.74" x2="230.86" y2="75.18"/><line class="cls-4" x1="230.86" y1="75.18" x2="229.08" y2="71.68"/><line class="cls-4" x1="229.08" y1="71.68" x2="227.18" y2="68.25"/><line class="cls-4" x1="227.18" y1="68.25" x2="225.16" y2="64.88"/><line class="cls-4" x1="225.16" y1="64.88" x2="223.02" y2="61.59"/><line class="cls-4" x1="223.02" y1="61.59" x2="220.76" y2="58.37"/><line class="cls-4" x1="220.76" y1="58.37" x2="218.4" y2="55.23"/><line class="cls-4" x1="218.4" y1="55.23" x2="215.93" y2="52.18"/><line class="cls-4" x1="215.93" y1="52.18" x2="213.35" y2="49.22"/><line class="cls-4" x1="213.35" y1="49.22" x2="210.68" y2="46.35"/><line class="cls-4" x1="210.68" y1="46.35" x2="207.9" y2="43.57"/><line class="cls-4" x1="207.9" y1="43.57" x2="205.03" y2="40.89"/><line class="cls-4" x1="205.03" y1="40.89" x2="202.06" y2="38.32"/><line class="cls-4" x1="202.06" y1="38.32" x2="199.01" y2="35.85"/><line class="cls-4" x1="199.01" y1="35.85" x2="195.88" y2="33.48"/><line class="cls-4" x1="195.88" y1="33.48" x2="192.66" y2="31.23"/><line class="cls-4" x1="192.66" y1="31.23" x2="189.37" y2="29.09"/><line class="cls-4" x1="189.37" y1="29.09" x2="186" y2="27.07"/><line class="cls-4" x1="186" y1="27.07" x2="182.57" y2="25.17"/><line class="cls-4" x1="182.57" y1="25.17" x2="179.07" y2="23.38"/><line class="cls-4" x1="179.07" y1="23.38" x2="175.51" y2="21.72"/><line class="cls-4" x1="175.51" y1="21.72" x2="171.89" y2="20.19"/><line class="cls-4" x1="171.89" y1="20.19" x2="168.23" y2="18.78"/><line class="cls-4" x1="168.23" y1="18.78" x2="164.51" y2="17.5"/><line class="cls-4" x1="164.51" y1="17.5" x2="160.76" y2="16.35"/><line class="cls-4" x1="160.76" y1="16.35" x2="156.97" y2="15.34"/><line class="cls-4" x1="156.97" y1="15.34" x2="153.14" y2="14.45"/><line class="cls-4" x1="153.14" y1="14.46" x2="149.29" y2="13.71"/><line class="cls-4" x1="149.29" y1="13.71" x2="145.41" y2="13.09"/><line class="cls-4" x1="145.41" y1="13.09" x2="141.51" y2="12.61"/><line class="cls-4" x1="141.51" y1="12.61" x2="137.6" y2="12.27"/><line class="cls-4" x1="137.6" y1="12.27" x2="133.68" y2="12.07"/><line class="cls-4" x1="133.68" y1="12.07" x2="129.75" y2="12"/><line class="cls-4" x1="129.75" y1="12" x2="125.82" y2="12.06"/><line class="cls-4" x1="125.82" y1="12.07" x2="121.9" y2="12.27"/><line class="cls-4" x1="121.9" y1="12.27" x2="117.99" y2="12.61"/><line class="cls-4" x1="117.99" y1="12.61" x2="114.09" y2="13.09"/><line class="cls-4" x1="114.09" y1="13.09" x2="110.21" y2="13.71"/><line class="cls-4" x1="110.21" y1="13.71" x2="106.36" y2="14.45"/><line class="cls-4" x1="106.36" y1="14.46" x2="102.53" y2="15.34"/><line class="cls-4" x1="102.53" y1="15.34" x2="98.74" y2="16.35"/><line class="cls-4" x1="98.74" y1="16.35" x2="94.99" y2="17.5"/><line class="cls-4" x1="94.99" y1="17.5" x2="91.27" y2="18.78"/><line class="cls-4" x1="91.27" y1="18.78" x2="87.61" y2="20.19"/><line class="cls-4" x1="87.61" y1="20.19" x2="83.99" y2="21.72"/><line class="cls-4" x1="83.99" y1="21.72" x2="80.43" y2="23.38"/><line class="cls-4" x1="80.43" y1="23.38" x2="76.93" y2="25.17"/><line class="cls-4" x1="76.93" y1="25.17" x2="73.5" y2="27.07"/><line class="cls-4" x1="73.5" y1="27.07" x2="70.13" y2="29.09"/><line class="cls-4" x1="70.13" y1="29.09" x2="66.84" y2="31.23"/><line class="cls-4" x1="66.84" y1="31.23" x2="63.62" y2="33.48"/><line class="cls-4" x1="63.62" y1="33.48" x2="60.49" y2="35.85"/><line class="cls-4" x1="60.49" y1="35.85" x2="57.44" y2="38.32"/><line class="cls-4" x1="57.44" y1="38.32" x2="54.47" y2="40.89"/><line class="cls-4" x1="54.47" y1="40.89" x2="51.6" y2="43.57"/><line class="cls-4" x1="51.6" y1="43.57" x2="48.82" y2="46.35"/><line class="cls-4" x1="48.82" y1="46.35" x2="46.15" y2="49.22"/><line class="cls-4" x1="46.15" y1="49.22" x2="43.57" y2="52.18"/><line class="cls-4" x1="43.57" y1="52.18" x2="41.1" y2="55.23"/><line class="cls-4" x1="41.1" y1="55.23" x2="38.74" y2="58.37"/><line class="cls-4" x1="38.74" y1="58.37" x2="36.48" y2="61.59"/><line class="cls-4" x1="36.48" y1="61.59" x2="34.34" y2="64.88"/><line class="cls-4" x1="34.34" y1="64.88" x2="32.32" y2="68.25"/><line class="cls-4" x1="32.32" y1="68.25" x2="30.42" y2="71.68"/><line class="cls-4" x1="30.42" y1="71.68" x2="28.64" y2="75.18"/><line class="cls-4" x1="28.64" y1="75.18" x2="26.98" y2="78.74"/><line class="cls-4" x1="26.98" y1="78.74" x2="25.44" y2="82.35"/><line class="cls-4" x1="25.44" y1="82.35" x2="24.03" y2="86.02"/><line class="cls-4" x1="24.03" y1="86.02" x2="22.76" y2="89.73"/><line class="cls-4" x1="22.76" y1="89.73" x2="21.61" y2="93.49"/><line class="cls-4" x1="21.61" y1="93.49" x2="20.59" y2="97.28"/><line class="cls-4" x1="20.59" y1="97.28" x2="19.71" y2="101.11"/><line class="cls-4" x1="19.71" y1="101.11" x2="18.96" y2="104.96"/><line class="cls-4" x1="18.96" y1="104.96" x2="18.34" y2="108.84"/><line class="cls-4" x1="18.34" y1="108.84" x2="17.87" y2="112.74"/><line class="cls-4" x1="17.87" y1="112.74" x2="17.52" y2="116.65"/><line class="cls-4" x1="17.52" y1="116.65" x2="17.32" y2="120.57"/><line class="cls-4" x1="17.32" y1="120.57" x2="17.25" y2="124.5"/><line class="cls-4" x1="17.25" y1="124.5" x2="17.32" y2="128.42"/><line class="cls-4" x1="17.32" y1="128.42" x2="17.52" y2="132.34"/><line class="cls-4" x1="17.52" y1="132.34" x2="17.87" y2="136.26"/><line class="cls-4" x1="17.87" y1="136.26" x2="18.34" y2="140.15"/><line class="cls-4" x1="18.34" y1="140.15" x2="18.96" y2="144.03"/><line class="cls-4" x1="18.96" y1="144.03" x2="19.71" y2="147.89"/><line class="cls-4" x1="19.71" y1="147.89" x2="20.59" y2="151.71"/><line class="cls-4" x1="20.59" y1="151.71" x2="21.61" y2="155.51"/><line class="cls-4" x1="21.61" y1="155.51" x2="22.76" y2="159.26"/><line class="cls-4" x1="22.76" y1="159.26" x2="24.03" y2="162.97"/><line class="cls-4" x1="24.03" y1="162.97" x2="25.44" y2="166.64"/><line class="cls-4" x1="25.44" y1="166.64" x2="26.98" y2="170.25"/><line class="cls-4" x1="26.98" y1="170.25" x2="28.64" y2="173.81"/><line class="cls-4" x1="28.64" y1="173.81" x2="30.42" y2="177.31"/><line class="cls-4" x1="30.42" y1="177.31" x2="32.32" y2="180.75"/><line class="cls-4" x1="32.32" y1="180.75" x2="34.34" y2="184.11"/><line class="cls-4" x1="34.34" y1="184.11" x2="36.48" y2="187.41"/><line class="cls-4" x1="36.48" y1="187.41" x2="38.74" y2="190.62"/><line class="cls-4" x1="38.74" y1="190.62" x2="41.1" y2="193.76"/><line class="cls-4" x1="41.1" y1="193.76" x2="43.57" y2="196.81"/><line class="cls-4" x1="43.57" y1="196.81" x2="46.15" y2="199.77"/><line class="cls-4" x1="46.15" y1="199.77" x2="48.82" y2="202.65"/><line class="cls-4" x1="48.82" y1="202.65" x2="51.6" y2="205.42"/><line class="cls-4" x1="51.6" y1="205.42" x2="54.47" y2="208.1"/><line class="cls-4" x1="54.47" y1="208.1" x2="57.44" y2="210.68"/><line class="cls-4" x1="57.44" y1="210.68" x2="60.49" y2="213.15"/><line class="cls-4" x1="60.49" y1="213.15" x2="63.62" y2="215.51"/><line class="cls-4" x1="63.62" y1="215.51" x2="66.84" y2="217.76"/><line class="cls-4" x1="66.84" y1="217.76" x2="70.13" y2="219.9"/><line class="cls-4" x1="70.13" y1="219.9" x2="73.5" y2="221.92"/><line class="cls-4" x1="73.5" y1="221.92" x2="76.93" y2="223.83"/><line class="cls-4" x1="76.93" y1="223.83" x2="80.43" y2="225.61"/><line class="cls-4" x1="80.43" y1="225.61" x2="83.99" y2="227.27"/><line class="cls-4" x1="83.99" y1="227.27" x2="87.61" y2="228.8"/><line class="cls-4" x1="87.61" y1="228.8" x2="91.27" y2="230.21"/><line class="cls-4" x1="91.27" y1="230.21" x2="94.99" y2="231.49"/><line class="cls-4" x1="94.99" y1="231.49" x2="98.74" y2="232.64"/><line class="cls-4" x1="98.74" y1="232.64" x2="102.53" y2="233.65"/><line class="cls-4" x1="102.53" y1="233.65" x2="106.36" y2="234.54"/><line class="cls-4" x1="106.36" y1="234.54" x2="110.21" y2="235.29"/><line class="cls-4" x1="110.21" y1="235.29" x2="114.09" y2="235.9"/><line class="cls-4" x1="114.09" y1="235.9" x2="117.99" y2="236.38"/><line class="cls-4" x1="117.99" y1="236.38" x2="121.9" y2="236.72"/><line class="cls-4" x1="121.9" y1="236.72" x2="125.82" y2="236.93"/><line class="cls-4" x1="125.82" y1="236.93" x2="129.75" y2="237"/><line class="cls-4" x1="129.75" y1="237" x2="133.68" y2="236.93"/><line class="cls-4" x1="133.68" y1="236.93" x2="137.6" y2="236.72"/><line class="cls-4" x1="137.6" y1="236.72" x2="141.51" y2="236.38"/><line class="cls-4" x1="141.51" y1="236.38" x2="145.41" y2="235.9"/><line class="cls-4" x1="145.41" y1="235.9" x2="149.29" y2="235.29"/><line class="cls-4" x1="149.29" y1="235.29" x2="153.14" y2="234.54"/><line class="cls-4" x1="153.14" y1="234.54" x2="156.97" y2="233.65"/><line class="cls-4" x1="156.97" y1="233.65" x2="160.76" y2="232.64"/><line class="cls-4" x1="160.76" y1="232.64" x2="164.51" y2="231.49"/><line class="cls-4" x1="164.51" y1="231.49" x2="168.23" y2="230.21"/><line class="cls-4" x1="168.23" y1="230.21" x2="171.89" y2="228.81"/><line class="cls-4" x1="171.89" y1="228.8" x2="175.51" y2="227.27"/><line class="cls-4" x1="175.51" y1="227.27" x2="179.07" y2="225.61"/><line class="cls-4" x1="179.07" y1="225.61" x2="182.57" y2="223.83"/><line class="cls-4" x1="182.57" y1="223.83" x2="186" y2="221.92"/><line class="cls-4" x1="186" y1="221.92" x2="189.37" y2="219.9"/><line class="cls-4" x1="189.37" y1="219.9" x2="192.66" y2="217.76"/><line class="cls-4" x1="192.66" y1="217.76" x2="195.88" y2="215.51"/><line class="cls-4" x1="195.88" y1="215.51" x2="199.01" y2="213.15"/><line class="cls-4" x1="199.01" y1="213.15" x2="202.06" y2="210.68"/><line class="cls-4" x1="202.06" y1="210.68" x2="205.03" y2="208.1"/><line class="cls-4" x1="205.03" y1="208.1" x2="207.9" y2="205.42"/><line class="cls-4" x1="207.9" y1="205.42" x2="210.68" y2="202.65"/><line class="cls-4" x1="210.68" y1="202.65" x2="213.35" y2="199.77"/><line class="cls-4" x1="213.35" y1="199.77" x2="215.93" y2="196.81"/><line class="cls-4" x1="215.93" y1="196.81" x2="218.4" y2="193.76"/><line class="cls-4" x1="218.4" y1="193.76" x2="220.76" y2="190.62"/><line class="cls-4" x1="220.76" y1="190.62" x2="223.02" y2="187.41"/><line class="cls-4" x1="223.02" y1="187.41" x2="225.16" y2="184.11"/><line class="cls-4" x1="225.16" y1="184.11" x2="227.18" y2="180.75"/><line class="cls-4" x1="227.18" y1="180.75" x2="229.08" y2="177.31"/><line class="cls-4" x1="229.08" y1="177.31" x2="230.86" y2="173.81"/><line class="cls-4" x1="230.86" y1="173.81" x2="232.52" y2="170.25"/><line class="cls-4" x1="232.52" y1="170.25" x2="234.06" y2="166.64"/><line class="cls-4" x1="234.06" y1="166.64" x2="235.47" y2="162.97"/><line class="cls-4" x1="235.47" y1="162.97" x2="236.74" y2="159.26"/><line class="cls-4" x1="236.74" y1="159.26" x2="237.89" y2="155.51"/><line class="cls-4" x1="237.89" y1="155.51" x2="238.91" y2="151.71"/><line class="cls-4" x1="238.91" y1="151.71" x2="239.79" y2="147.89"/><line class="cls-4" x1="239.79" y1="147.89" x2="240.54" y2="144.03"/><line class="cls-4" x1="240.54" y1="144.03" x2="241.16" y2="140.15"/><line class="cls-4" x1="241.16" y1="140.15" x2="241.63" y2="136.26"/><line class="cls-4" x1="241.63" y1="136.26" x2="241.98" y2="132.34"/><line class="cls-4" x1="241.98" y1="132.34" x2="242.18" y2="128.42"/><line class="cls-4" x1="242.18" y1="128.42" x2="242.25" y2="124.5"/><line class="cls-5" x1="242.25" y1="124.5" x2="242.25" y2="124.5"/><line class="cls-4" x1="139.13" y1="140.73" x2="186" y2="221.92"/><line class="cls-4" x1="134.6" y1="142.61" x2="158.87" y2="233.16"/><line class="cls-4" x1="129.75" y1="143.25" x2="129.75" y2="237"/><line class="cls-4" x1="124.9" y1="142.61" x2="100.63" y2="233.16"/><line class="cls-4" x1="120.38" y1="140.73" x2="73.5" y2="221.92"/><line class="cls-4" x1="116.49" y1="137.75" x2="50.2" y2="204.05"/><line class="cls-4" x1="113.51" y1="133.87" x2="32.32" y2="180.75"/><line class="cls-4" x1="111.64" y1="129.35" x2="21.08" y2="153.61"/><line class="cls-4" x1="111" y1="124.5" x2="17.25" y2="124.5"/><line class="cls-4" x1="111.64" y1="119.64" x2="21.08" y2="95.38"/><line class="cls-4" x1="113.51" y1="115.12" x2="32.32" y2="68.25"/><line class="cls-4" x1="116.49" y1="111.24" x2="50.2" y2="44.95"/><line class="cls-4" x1="120.38" y1="108.26" x2="73.5" y2="27.07"/><line class="cls-4" x1="124.9" y1="106.39" x2="100.63" y2="15.83"/><line class="cls-4" x1="129.75" y1="105.75" x2="129.75" y2="12"/><line class="cls-4" x1="134.6" y1="106.39" x2="158.87" y2="15.83"/><line class="cls-4" x1="139.13" y1="108.26" x2="186" y2="27.07"/><line class="cls-4" x1="143.01" y1="111.24" x2="209.3" y2="44.95"/><line class="cls-4" x1="145.99" y1="115.12" x2="227.18" y2="68.25"/><line class="cls-4" x1="147.86" y1="119.64" x2="238.42" y2="95.38"/><line class="cls-5" x1="148.5" y1="124.5" x2="242.25" y2="124.5"/><line class="cls-5" x1="147.86" y1="129.35" x2="238.42" y2="153.61"/><line class="cls-4" x1="145.99" y1="133.87" x2="227.18" y2="180.75"/><line class="cls-4" x1="143.01" y1="137.75" x2="209.3" y2="204.05"/><line class="cls-6" x1="152.57" y1="148.03" x2="154.69" y2="149.33"/><line class="cls-6" x1="154.69" y1="149.33" x2="156.3" y2="150.03"/><line class="cls-6" x1="156.3" y1="150.03" x2="157.52" y2="150.29"/><line class="cls-6" x1="157.52" y1="150.29" x2="158.4" y2="150.19"/><line class="cls-6" x1="158.4" y1="150.19" x2="158.98" y2="149.8"/><line class="cls-6" x1="158.98" y1="149.8" x2="159.26" y2="149.16"/><line class="cls-6" x1="159.26" y1="149.16" x2="159.23" y2="148.28"/><line class="cls-6" x1="159.23" y1="148.28" x2="158.87" y2="147.16"/><line class="cls-6" x1="158.87" y1="147.16" x2="158.13" y2="145.8"/><line class="cls-6" x1="158.13" y1="145.8" x2="156.96" y2="144.19"/><line class="cls-6" x1="156.96" y1="144.19" x2="155.31" y2="142.33"/><line class="cls-6" x1="155.31" y1="142.33" x2="153.35" y2="140.36"/><line class="cls-6" x1="153.35" y1="140.36" x2="152.04" y2="138.92"/><line class="cls-6" x1="152.04" y1="138.92" x2="152.95" y2="138.95"/><line class="cls-6" x1="152.95" y1="138.95" x2="155.45" y2="139.88"/><line class="cls-6" x1="155.45" y1="139.88" x2="158.05" y2="140.78"/><line class="cls-6" x1="158.05" y1="140.78" x2="160.3" y2="141.38"/><line class="cls-6" x1="160.3" y1="141.38" x2="162.15" y2="141.67"/><line class="cls-6" x1="162.16" y1="141.67" x2="163.66" y2="141.72"/><line class="cls-6" x1="163.67" y1="141.72" x2="164.88" y2="141.58"/><line class="cls-6" x1="164.88" y1="141.58" x2="165.84" y2="141.27"/><line class="cls-6" x1="165.83" y1="141.27" x2="166.56" y2="140.83"/><line class="cls-6" x1="166.56" y1="140.83" x2="167.06" y2="140.29"/><line class="cls-6" x1="167.06" y1="140.29" x2="167.36" y2="139.64"/><line class="cls-6" x1="167.36" y1="139.65" x2="167.46" y2="138.93"/><line class="cls-6" x1="167.46" y1="138.93" x2="167.36" y2="138.14"/><line class="cls-6" x1="167.36" y1="138.14" x2="167.06" y2="137.31"/><line class="cls-6" x1="167.06" y1="137.31" x2="166.59" y2="136.43"/><line class="cls-6" x1="166.59" y1="136.43" x2="165.94" y2="135.53"/><line class="cls-6" x1="165.94" y1="135.53" x2="165.18" y2="134.63"/><line class="cls-6" x1="165.18" y1="134.63" x2="164.4" y2="133.75"/><line class="cls-6" x1="164.4" y1="133.75" x2="163.76" y2="132.95"/><line class="cls-6" x1="163.76" y1="132.95" x2="163.49" y2="132.27"/><line class="cls-6" x1="163.49" y1="132.26" x2="163.76" y2="131.7"/><line class="cls-6" x1="163.76" y1="131.7" x2="164.53" y2="131.24"/><line class="cls-6" x1="164.53" y1="131.24" x2="165.64" y2="130.81"/><line class="cls-6" x1="165.64" y1="130.81" x2="166.87" y2="130.36"/><line class="cls-6" x1="166.87" y1="130.36" x2="168.07" y2="129.87"/><line class="cls-6" x1="168.07" y1="129.87" x2="169.16" y2="129.32"/><line class="cls-6" x1="169.16" y1="129.32" x2="170.11" y2="128.73"/><line class="cls-6" x1="170.11" y1="128.73" x2="170.91" y2="128.09"/><line class="cls-6" x1="170.91" y1="128.09" x2="171.54" y2="127.41"/><line class="cls-6" x1="171.54" y1="127.41" x2="172.01" y2="126.7"/><line class="cls-6" x1="172.01" y1="126.7" x2="172.32" y2="125.98"/><line class="cls-7" x1="172.32" y1="125.98" x2="172.47" y2="125.24"/><line class="cls-6" x1="151.39" y1="95.93" x2="151.01" y2="95.39"/><line class="cls-7" x1="172.48" y1="124.5" x2="172.47" y2="123.75"/><line class="cls-6" x1="172.47" y1="123.75" x2="172.31" y2="123.01"/><line class="cls-6" x1="172.31" y1="123.01" x2="172" y2="122.29"/><line class="cls-6" x1="172" y1="122.29" x2="171.54" y2="121.58"/><line class="cls-6" x1="171.54" y1="121.58" x2="170.93" y2="120.9"/><line class="cls-6" x1="170.93" y1="120.9" x2="170.18" y2="120.26"/><line class="cls-6" x1="170.18" y1="120.26" x2="169.3" y2="119.65"/><line class="cls-6" x1="169.3" y1="119.65" x2="168.33" y2="119.09"/><line class="cls-6" x1="168.33" y1="119.09" x2="167.31" y2="118.56"/><line class="cls-6" x1="167.31" y1="118.56" x2="166.33" y2="118.06"/><line class="cls-6" x1="166.33" y1="118.06" x2="165.52" y2="117.56"/><line class="cls-6" x1="165.52" y1="117.56" x2="165.02" y2="117.02"/><line class="cls-6" x1="165.02" y1="117.02" x2="164.9" y2="116.41"/><line class="cls-6" x1="164.9" y1="116.41" x2="165.13" y2="115.7"/><line class="cls-6" x1="165.13" y1="115.7" x2="165.58" y2="114.92"/><line class="cls-6" x1="165.58" y1="114.92" x2="166.13" y2="114.09"/><line class="cls-6" x1="166.13" y1="114.09" x2="166.65" y2="113.25"/><line class="cls-6" x1="166.65" y1="113.25" x2="167.07" y2="112.4"/><line class="cls-6" x1="167.07" y1="112.4" x2="167.36" y2="111.59"/><line class="cls-6" x1="167.36" y1="111.59" x2="167.48" y2="110.81"/><line class="cls-6" x1="167.48" y1="110.81" x2="167.42" y2="110.08"/><line class="cls-6" x1="167.42" y1="110.08" x2="167.18" y2="109.42"/><line class="cls-6" x1="167.18" y1="109.42" x2="166.75" y2="108.84"/><line class="cls-6" x1="166.75" y1="108.84" x2="166.12" y2="108.36"/><line class="cls-6" x1="166.12" y1="108.36" x2="165.28" y2="107.98"/><line class="cls-6" x1="165.28" y1="107.98" x2="164.21" y2="107.74"/><line class="cls-6" x1="164.21" y1="107.74" x2="162.9" y2="107.66"/><line class="cls-6" x1="162.9" y1="107.66" x2="161.35" y2="107.75"/><line class="cls-6" x1="161.35" y1="107.75" x2="159.56" y2="108.03"/><line class="cls-6" x1="159.56" y1="108.02" x2="157.67" y2="108.43"/><line class="cls-6" x1="157.67" y1="108.43" x2="156.05" y2="108.75"/><line class="cls-6" x1="156.05" y1="108.75" x2="155.32" y2="108.57"/><line class="cls-6" x1="155.32" y1="108.57" x2="155.77" y2="107.66"/><line class="cls-6" x1="155.77" y1="107.66" x2="156.87" y2="106.27"/><line class="cls-6" x1="156.87" y1="106.27" x2="158.03" y2="104.77"/><line class="cls-6" x1="158.03" y1="104.77" x2="158.95" y2="103.36"/><line class="cls-6" x1="158.95" y1="103.36" x2="159.57" y2="102.11"/><line class="cls-6" x1="159.57" y1="102.11" x2="159.89" y2="101.04"/><line class="cls-6" x1="159.89" y1="101.04" x2="159.91" y2="100.17"/><line class="cls-6" x1="159.91" y1="100.17" x2="159.65" y2="99.5"/><line class="cls-6" x1="159.65" y1="99.5" x2="159.12" y2="99.07"/><line class="cls-6" x1="159.12" y1="99.07" x2="158.3" y2="98.9"/><line class="cls-6" x1="158.3" y1="98.9" x2="157.17" y2="99.04"/><line class="cls-6" x1="157.16" y1="99.04" x2="155.67" y2="99.58"/><line class="cls-6" x1="155.67" y1="99.58" x2="153.71" y2="100.64"/><line class="cls-6" x1="153.71" y1="100.64" x2="151.13" y2="102.46"/><line class="cls-6" x1="151.13" y1="102.46" x2="147.74" y2="105.3"/><line class="cls-6" x1="147.74" y1="105.3" x2="144.56" y2="108.13"/><line class="cls-6" x1="144.56" y1="108.13" x2="145.87" y2="106.04"/><line class="cls-6" x1="145.87" y1="106.04" x2="148.58" y2="102.17"/><line class="cls-6" x1="148.58" y1="102.17" x2="150.31" y2="99.24"/><line class="cls-6" x1="150.31" y1="99.24" x2="151.18" y2="97.21"/><line class="cls-6" x1="151.18" y1="97.21" x2="151.39" y2="95.93"/><line class="cls-6" x1="151.01" y1="95.39" x2="150.06" y2="95.66"/><line class="cls-6" x1="150.06" y1="95.65" x2="148.57" y2="96.75"/><line class="cls-6" x1="148.57" y1="96.75" x2="147.38" y2="97.52"/><line class="cls-6" x1="147.38" y1="97.52" x2="148.58" y2="94.55"/><line class="cls-6" x1="148.58" y1="94.55" x2="150.96" y2="89.43"/><line class="cls-6" x1="150.96" y1="89.43" x2="152.89" y2="84.68"/><line class="cls-6" x1="152.89" y1="84.68" x2="154.26" y2="80.59"/><line class="cls-6" x1="154.26" y1="80.59" x2="155.18" y2="77.01"/><line class="cls-6" x1="155.18" y1="77.01" x2="155.77" y2="73.81"/><line class="cls-6" x1="155.77" y1="73.81" x2="156.09" y2="70.92"/><line class="cls-6" x1="156.09" y1="70.92" x2="156.18" y2="68.27"/><line class="cls-6" x1="156.18" y1="68.27" x2="156.09" y2="65.83"/><line class="cls-6" x1="156.09" y1="65.83" x2="155.85" y2="63.57"/><line class="cls-6" x1="155.85" y1="63.57" x2="155.46" y2="61.46"/><line class="cls-6" x1="155.46" y1="61.46" x2="154.95" y2="59.49"/><line class="cls-6" x1="154.95" y1="59.49" x2="154.34" y2="57.66"/><line class="cls-6" x1="154.33" y1="57.65" x2="153.62" y2="55.94"/><line class="cls-6" x1="153.62" y1="55.94" x2="152.82" y2="54.34"/><line class="cls-6" x1="152.82" y1="54.34" x2="151.93" y2="52.84"/><line class="cls-6" x1="151.93" y1="52.84" x2="150.98" y2="51.45"/><line class="cls-6" x1="150.98" y1="51.45" x2="149.96" y2="50.16"/><line class="cls-6" x1="149.96" y1="50.16" x2="148.88" y2="48.97"/><line class="cls-6" x1="148.88" y1="48.97" x2="147.74" y2="47.86"/><line class="cls-6" x1="147.74" y1="47.86" x2="146.56" y2="46.85"/><line class="cls-6" x1="146.56" y1="46.85" x2="145.33" y2="45.92"/><line class="cls-6" x1="145.33" y1="45.92" x2="144.07" y2="45.08"/><line class="cls-6" x1="144.07" y1="45.08" x2="142.77" y2="44.33"/><line class="cls-6" x1="142.77" y1="44.33" x2="141.44" y2="43.66"/><line class="cls-6" x1="141.44" y1="43.66" x2="140.08" y2="43.07"/><line class="cls-6" x1="140.08" y1="43.07" x2="138.7" y2="42.55"/><line class="cls-6" x1="138.7" y1="42.55" x2="137.3" y2="42.12"/><line class="cls-6" x1="137.3" y1="42.12" x2="135.88" y2="41.77"/><line class="cls-6" x1="135.88" y1="41.77" x2="134.45" y2="41.49"/><line class="cls-6" x1="134.45" y1="41.49" x2="133.01" y2="41.29"/><line class="cls-6" x1="133.01" y1="41.29" x2="131.56" y2="41.17"/><line class="cls-6" x1="131.56" y1="41.17" x2="130.11" y2="41.12"/><line class="cls-6" x1="130.11" y1="41.12" x2="128.66" y2="41.15"/><line class="cls-6" x1="128.66" y1="41.15" x2="127.21" y2="41.26"/><line class="cls-6" x1="127.21" y1="41.26" x2="125.77" y2="41.44"/><line class="cls-6" x1="125.77" y1="41.44" x2="124.34" y2="41.7"/><line class="cls-6" x1="124.34" y1="41.7" x2="122.92" y2="42.03"/><line class="cls-6" x1="122.92" y1="42.04" x2="121.51" y2="42.45"/><line class="cls-6" x1="121.51" y1="42.45" x2="120.12" y2="42.95"/><line class="cls-6" x1="120.12" y1="42.95" x2="118.76" y2="43.52"/><line class="cls-6" x1="118.76" y1="43.52" x2="117.42" y2="44.18"/><line class="cls-6" x1="117.42" y1="44.18" x2="116.11" y2="44.92"/><line class="cls-6" x1="116.12" y1="44.92" x2="114.84" y2="45.75"/><line class="cls-6" x1="114.84" y1="45.75" x2="113.61" y2="46.66"/><line class="cls-6" x1="113.61" y1="46.66" x2="112.41" y2="47.67"/><line class="cls-6" x1="112.41" y1="47.67" x2="111.27" y2="48.76"/><line class="cls-6" x1="111.27" y1="48.76" x2="110.18" y2="49.95"/><line class="cls-6" x1="110.18" y1="49.95" x2="109.15" y2="51.24"/><line class="cls-6" x1="109.15" y1="51.24" x2="108.18" y2="52.62"/><line class="cls-6" x1="108.18" y1="52.62" x2="107.29" y2="54.12"/><line class="cls-6" x1="107.29" y1="54.12" x2="106.47" y2="55.72"/><line class="cls-6" x1="106.47" y1="55.72" x2="105.75" y2="57.45"/><line class="cls-6" x1="105.75" y1="57.45" x2="105.12" y2="59.29"/><line class="cls-6" x1="105.12" y1="59.29" x2="104.61" y2="61.28"/><line class="cls-6" x1="104.61" y1="61.28" x2="104.22" y2="63.42"/><line class="cls-6" x1="104.22" y1="63.42" x2="103.97" y2="65.72"/><line class="cls-6" x1="103.97" y1="65.72" x2="103.89" y2="68.22"/><line class="cls-6" x1="103.89" y1="68.22" x2="104" y2="70.95"/><line class="cls-6" x1="104" y1="70.95" x2="104.36" y2="73.96"/><line class="cls-6" x1="104.36" y1="73.96" x2="105.02" y2="77.35"/><line class="cls-6" x1="105.02" y1="77.35" x2="106.1" y2="81.24"/><line class="cls-6" x1="106.1" y1="81.24" x2="107.78" y2="85.92"/><line class="cls-6" x1="107.78" y1="85.92" x2="110.44" y2="91.94"/><line class="cls-6" x1="110.44" y1="91.94" x2="114.43" y2="99.65"/><line class="cls-6" x1="114.43" y1="99.65" x2="114.02" y2="99.95"/><line class="cls-6" x1="114.02" y1="99.95" x2="110.86" y2="96.13"/><line class="cls-6" x1="110.86" y1="96.13" x2="108.92" y2="94.36"/><line class="cls-6" x1="108.92" y1="94.36" x2="107.82" y2="93.92"/><line class="cls-6" x1="107.82" y1="93.92" x2="107.33" y2="94.37"/><line class="cls-6" x1="107.33" y1="94.37" x2="107.4" y2="95.52"/><line class="cls-6" x1="107.4" y1="95.52" x2="108.06" y2="97.37"/><line class="cls-6" x1="108.06" y1="97.37" x2="109.45" y2="99.99"/><line class="cls-6" x1="109.45" y1="99.99" x2="111.8" y2="103.58"/><line class="cls-6" x1="111.8" y1="103.58" x2="114.51" y2="107.35"/><line class="cls-6" x1="114.51" y1="107.35" x2="113.23" y2="106.55"/><line class="cls-6" x1="113.23" y1="106.55" x2="109.66" y2="103.42"/><line class="cls-6" x1="109.66" y1="103.42" x2="106.78" y2="101.22"/><line class="cls-6" x1="106.78" y1="101.22" x2="104.63" y2="99.91"/><line class="cls-6" x1="104.63" y1="99.91" x2="103" y2="99.22"/><line class="cls-6" x1="103" y1="99.22" x2="101.79" y2="98.98"/><line class="cls-6" x1="101.79" y1="98.98" x2="100.92" y2="99.09"/><line class="cls-6" x1="100.92" y1="99.09" x2="100.37" y2="99.5"/><line class="cls-6" x1="100.37" y1="99.5" x2="100.12" y2="100.17"/><line class="cls-6" x1="100.12" y1="100.17" x2="100.2" y2="101.08"/><line class="cls-6" x1="100.2" y1="101.08" x2="100.64" y2="102.24"/><line class="cls-6" x1="100.64" y1="102.24" x2="101.5" y2="103.67"/><line class="cls-6" x1="101.5" y1="103.67" x2="102.89" y2="105.41"/><line class="cls-6" x1="102.89" y1="105.41" x2="105" y2="107.55"/><line class="cls-6" x1="105" y1="107.55" x2="108.01" y2="110.16"/><line class="cls-6" x1="108.01" y1="110.16" x2="111.07" y2="112.63"/><line class="cls-6" x1="111.07" y1="112.63" x2="109.96" y2="112.41"/><line class="cls-6" x1="109.96" y1="112.41" x2="106.05" y2="110.59"/><line class="cls-6" x1="106.05" y1="110.59" x2="102.65" y2="109.22"/><line class="cls-6" x1="102.65" y1="109.22" x2="100.02" y2="108.41"/><line class="cls-6" x1="100.02" y1="108.41" x2="97.96" y2="108"/><line class="cls-6" x1="97.96" y1="108" x2="96.35" y2="107.89"/><line class="cls-6" x1="96.35" y1="107.9" x2="95.08" y2="108.01"/><line class="cls-6" x1="95.08" y1="108.01" x2="94.1" y2="108.3"/><line class="cls-6" x1="94.1" y1="108.3" x2="93.38" y2="108.73"/><line class="cls-6" x1="93.38" y1="108.73" x2="92.9" y2="109.28"/><line class="cls-6" x1="92.9" y1="109.28" x2="92.65" y2="109.93"/><line class="cls-6" x1="92.65" y1="109.93" x2="92.62" y2="110.66"/><line class="cls-6" x1="92.62" y1="110.66" x2="92.83" y2="111.46"/><line class="cls-6" x1="92.83" y1="111.46" x2="93.29" y2="112.33"/><line class="cls-6" x1="93.29" y1="112.33" x2="94.02" y2="113.26"/><line class="cls-6" x1="94.02" y1="113.26" x2="95.05" y2="114.25"/><line class="cls-6" x1="95.05" y1="114.25" x2="96.42" y2="115.28"/><line class="cls-6" x1="96.42" y1="115.28" x2="98.17" y2="116.35"/><line class="cls-6" x1="98.17" y1="116.35" x2="100.24" y2="117.43"/><line class="cls-6" x1="100.24" y1="117.43" x2="102.31" y2="118.43"/><line class="cls-6" x1="102.31" y1="118.43" x2="103.4" y2="119.15"/><line class="cls-6" x1="103.4" y1="119.15" x2="102.56" y2="119.47"/><line class="cls-6" x1="102.56" y1="119.47" x2="100.45" y2="119.61"/><line class="cls-6" x1="100.45" y1="119.61" x2="98.15" y2="119.79"/><line class="cls-6" x1="98.15" y1="119.79" x2="96.11" y2="120.08"/><line class="cls-6" x1="96.11" y1="120.08" x2="94.42" y2="120.48"/><line class="cls-6" x1="94.42" y1="120.48" x2="93.05" y2="120.97"/><line class="cls-6" x1="93.06" y1="120.97" x2="91.99" y2="121.53"/><line class="cls-6" x1="91.99" y1="121.53" x2="91.18" y2="122.14"/><line class="cls-6" x1="91.18" y1="122.14" x2="90.62" y2="122.79"/><line class="cls-6" x1="90.62" y1="122.79" x2="90.27" y2="123.47"/><line class="cls-6" x1="90.27" y1="123.47" x2="90.13" y2="124.15"/><line class="cls-6" x1="90.13" y1="124.15" x2="90.2" y2="124.84"/><line class="cls-6" x1="90.2" y1="124.84" x2="90.48" y2="125.52"/><line class="cls-6" x1="90.48" y1="125.52" x2="90.97" y2="126.19"/><line class="cls-6" x1="90.97" y1="126.19" x2="91.68" y2="126.82"/><line class="cls-6" x1="91.68" y1="126.82" x2="92.62" y2="127.41"/><line class="cls-6" x1="92.62" y1="127.41" x2="93.81" y2="127.95"/><line class="cls-6" x1="93.81" y1="127.95" x2="95.26" y2="128.42"/><line class="cls-6" x1="95.26" y1="128.42" x2="96.93" y2="128.8"/><line class="cls-6" x1="96.93" y1="128.8" x2="98.7" y2="129.12"/><line class="cls-6" x1="98.7" y1="129.12" x2="100.19" y2="129.43"/><line class="cls-6" x1="100.19" y1="129.43" x2="100.8" y2="129.85"/><line class="cls-6" x1="100.8" y1="129.85" x2="100.19" y2="130.49"/><line class="cls-6" x1="100.19" y1="130.49" x2="98.78" y2="131.34"/><line class="cls-6" x1="98.78" y1="131.34" x2="97.17" y2="132.3"/><line class="cls-6" x1="97.17" y1="132.3" x2="95.71" y2="133.27"/><line class="cls-6" x1="95.71" y1="133.28" x2="94.5" y2="134.24"/><line class="cls-6" x1="94.5" y1="134.25" x2="93.56" y2="135.19"/><line class="cls-6" x1="93.56" y1="135.19" x2="92.88" y2="136.09"/><line class="cls-6" x1="92.88" y1="136.09" x2="92.45" y2="136.94"/><line class="cls-6" x1="92.45" y1="136.94" x2="92.25" y2="137.74"/><line class="cls-6" x1="92.25" y1="137.74" x2="92.28" y2="138.46"/><line class="cls-6" x1="92.28" y1="138.46" x2="92.53" y2="139.11"/><line class="cls-6" x1="92.53" y1="139.11" x2="93.01" y2="139.67"/><line class="cls-6" x1="93.01" y1="139.67" x2="93.72" y2="140.12"/><line class="cls-6" x1="93.72" y1="140.11" x2="94.69" y2="140.42"/><line class="cls-6" x1="94.69" y1="140.42" x2="95.95" y2="140.57"/><line class="cls-6" x1="95.95" y1="140.57" x2="97.57" y2="140.49"/><line class="cls-6" x1="97.57" y1="140.49" x2="99.62" y2="140.13"/><line class="cls-6" x1="99.62" y1="140.13" x2="102.27" y2="139.37"/><line class="cls-6" x1="102.27" y1="139.37" x2="105.69" y2="138.06"/><line class="cls-6" x1="105.69" y1="138.06" x2="109.64" y2="136.3"/><line class="cls-6" x1="109.64" y1="136.3" x2="110.71" y2="136.13"/><line class="cls-6" x1="110.71" y1="136.13" x2="107.53" y2="138.61"/><line class="cls-6" x1="107.53" y1="138.61" x2="104.43" y2="141.2"/><line class="cls-6" x1="104.43" y1="141.2" x2="102.24" y2="143.34"/><line class="cls-6" x1="102.24" y1="143.34" x2="100.77" y2="145.09"/><line class="cls-6" x1="100.77" y1="145.09" x2="99.84" y2="146.55"/><line class="cls-6" x1="99.84" y1="146.55" x2="99.32" y2="147.76"/><line class="cls-6" x1="99.32" y1="147.76" x2="99.15" y2="148.74"/><line class="cls-6" x1="99.15" y1="148.74" x2="99.29" y2="149.51"/><line class="cls-6" x1="99.29" y1="149.51" x2="99.72" y2="150.04"/><line class="cls-6" x1="99.72" y1="150.04" x2="100.43" y2="150.33"/><line class="cls-6" x1="100.43" y1="150.33" x2="101.43" y2="150.34"/><line class="cls-6" x1="101.43" y1="150.34" x2="102.76" y2="150"/><line class="cls-6" x1="102.76" y1="150" x2="104.46" y2="149.24"/><line class="cls-6" x1="104.46" y1="149.24" x2="106.62" y2="147.93"/><line class="cls-6" x1="106.62" y1="147.93" x2="109.29" y2="145.96"/><line class="cls-6" x1="109.29" y1="145.96" x2="112.04" y2="143.73"/><line class="cls-6" x1="112.04" y1="143.73" x2="112.76" y2="143.61"/><line class="cls-6" x1="112.76" y1="143.61" x2="111.1" y2="146.23"/><line class="cls-6" x1="111.1" y1="146.23" x2="109.45" y2="149.01"/><line class="cls-6" x1="109.44" y1="149.01" x2="108.45" y2="151.14"/><line class="cls-6" x1="108.45" y1="151.14" x2="108.07" y2="152.6"/><line class="cls-6" x1="108.07" y1="152.6" x2="108.19" y2="153.47"/><line class="cls-6" x1="108.19" y1="153.47" x2="108.72" y2="153.82"/><line class="cls-6" x1="108.72" y1="153.82" x2="109.36" y2="153.99"/><line class="cls-6" x1="109.36" y1="153.99" x2="109.47" y2="154.95"/><line class="cls-6" x1="109.47" y1="154.95" x2="108.49" y2="157.66"/><line class="cls-6" x1="108.49" y1="157.66" x2="106.94" y2="161.48"/><line class="cls-6" x1="106.94" y1="161.48" x2="105.5" y2="165.39"/><line class="cls-6" x1="105.5" y1="165.39" x2="104.38" y2="169.03"/><line class="cls-6" x1="104.38" y1="169.03" x2="103.58" y2="172.36"/><line class="cls-6" x1="103.58" y1="172.36" x2="103.05" y2="175.4"/><line class="cls-6" x1="103.05" y1="175.4" x2="102.77" y2="178.2"/><line class="cls-6" x1="102.77" y1="178.2" x2="102.69" y2="180.78"/><line class="cls-6" x1="102.69" y1="180.78" x2="102.78" y2="183.18"/><line class="cls-6" x1="102.78" y1="183.18" x2="103.02" y2="185.42"/><line class="cls-6" x1="103.03" y1="185.42" x2="103.41" y2="187.51"/><line class="cls-6" x1="103.41" y1="187.51" x2="103.91" y2="189.47"/><line class="cls-6" x1="103.91" y1="189.47" x2="104.52" y2="191.3"/><line class="cls-6" x1="104.52" y1="191.3" x2="105.22" y2="193.02"/><line class="cls-6" x1="105.22" y1="193.02" x2="106.02" y2="194.62"/><line class="cls-6" x1="106.02" y1="194.62" x2="106.89" y2="196.12"/><line class="cls-6" x1="106.89" y1="196.12" x2="107.84" y2="197.52"/><line class="cls-6" x1="107.84" y1="197.52" x2="108.85" y2="198.82"/><line class="cls-6" x1="108.85" y1="198.82" x2="109.92" y2="200.03"/><line class="cls-6" x1="109.92" y1="200.03" x2="111.05" y2="201.14"/><line class="cls-6" x1="111.05" y1="201.14" x2="112.23" y2="202.16"/><line class="cls-6" x1="112.23" y1="202.16" x2="113.45" y2="203.1"/><line class="cls-6" x1="113.45" y1="203.1" x2="114.71" y2="203.95"/><line class="cls-6" x1="114.71" y1="203.95" x2="116" y2="204.72"/><line class="cls-6" x1="116" y1="204.72" x2="117.33" y2="205.4"/><line class="cls-6" x1="117.33" y1="205.4" x2="118.69" y2="206"/><line class="cls-6" x1="118.69" y1="206" x2="120.07" y2="206.52"/><line class="cls-6" x1="120.07" y1="206.52" x2="121.47" y2="206.97"/><line class="cls-6" x1="121.47" y1="206.97" x2="122.89" y2="207.33"/><line class="cls-6" x1="122.89" y1="207.33" x2="124.32" y2="207.62"/><line class="cls-6" x1="124.32" y1="207.62" x2="125.76" y2="207.83"/><line class="cls-6" x1="125.76" y1="207.82" x2="127.21" y2="207.96"/><line class="cls-6" x1="127.21" y1="207.96" x2="128.66" y2="208.01"/><line class="cls-6" x1="128.66" y1="208.01" x2="130.11" y2="207.99"/><line class="cls-6" x1="130.11" y1="207.99" x2="131.56" y2="207.89"/><line class="cls-6" x1="131.56" y1="207.89" x2="133.01" y2="207.72"/><line class="cls-6" x1="133.01" y1="207.72" x2="134.45" y2="207.47"/><line class="cls-6" x1="134.45" y1="207.47" x2="135.87" y2="207.14"/><line class="cls-6" x1="135.87" y1="207.14" x2="137.29" y2="206.73"/><line class="cls-6" x1="137.29" y1="206.73" x2="138.68" y2="206.24"/><line class="cls-6" x1="138.68" y1="206.24" x2="140.05" y2="205.68"/><line class="cls-6" x1="140.05" y1="205.68" x2="141.39" y2="205.03"/><line class="cls-6" x1="141.39" y1="205.03" x2="142.71" y2="204.3"/><line class="cls-6" x1="142.71" y1="204.3" x2="143.99" y2="203.48"/><line class="cls-6" x1="143.99" y1="203.48" x2="145.24" y2="202.58"/><line class="cls-6" x1="145.24" y1="202.58" x2="146.44" y2="201.59"/><line class="cls-6" x1="146.44" y1="201.59" x2="147.6" y2="200.51"/><line class="cls-6" x1="147.6" y1="200.51" x2="148.7" y2="199.33"/><line class="cls-6" x1="148.7" y1="199.33" x2="149.75" y2="198.06"/><line class="cls-6" x1="149.75" y1="198.06" x2="150.73" y2="196.69"/><line class="cls-6" x1="150.73" y1="196.69" x2="151.64" y2="195.21"/><line class="cls-6" x1="151.64" y1="195.21" x2="152.48" y2="193.63"/><line class="cls-6" x1="152.48" y1="193.63" x2="153.23" y2="191.93"/><line class="cls-6" x1="153.23" y1="191.93" x2="153.88" y2="190.1"/><line class="cls-6" x1="153.88" y1="190.1" x2="154.43" y2="188.15"/><line class="cls-6" x1="154.43" y1="188.15" x2="154.85" y2="186.04"/><line class="cls-6" x1="154.85" y1="186.04" x2="155.14" y2="183.78"/><line class="cls-6" x1="155.14" y1="183.78" x2="155.27" y2="181.33"/><line class="cls-6" x1="155.27" y1="181.33" x2="155.21" y2="178.66"/><line class="cls-6" x1="155.21" y1="178.66" x2="154.93" y2="175.73"/><line class="cls-6" x1="154.93" y1="175.73" x2="154.37" y2="172.46"/><line class="cls-6" x1="154.37" y1="172.46" x2="153.45" y2="168.74"/><line class="cls-6" x1="153.45" y1="168.74" x2="152.01" y2="164.37"/><line class="cls-6" x1="152.01" y1="164.37" x2="149.79" y2="158.98"/><line class="cls-6" x1="149.79" y1="158.98" x2="146.54" y2="152.26"/><line class="cls-6" x1="146.54" y1="152.26" x2="145.1" y2="148.91"/><line class="cls-6" x1="145.1" y1="148.91" x2="147.68" y2="151.94"/><line class="cls-6" x1="147.68" y1="151.94" x2="149.72" y2="153.93"/><line class="cls-6" x1="149.72" y1="153.93" x2="150.92" y2="154.56"/><line class="cls-6" x1="150.92" y1="154.56" x2="151.48" y2="154.24"/><line class="cls-6" x1="151.48" y1="154.24" x2="151.47" y2="153.17"/><line class="cls-6" x1="151.47" y1="153.17" x2="150.87" y2="151.38"/><line class="cls-6" x1="150.87" y1="151.38" x2="149.53" y2="148.8"/><line class="cls-6" x1="149.53" y1="148.8" x2="147.27" y2="145.28"/><line class="cls-6" x1="147.27" y1="145.28" x2="144.87" y2="141.81"/><line class="cls-6" x1="144.87" y1="141.81" x2="146.35" y2="142.84"/><line class="cls-6" x1="146.35" y1="142.84" x2="149.78" y2="145.88"/><line class="cls-6" x1="149.78" y1="145.88" x2="152.57" y2="148.03"/><line class="cls-8" x1="92.61" y1="99.06" x2="97.9" y2="103.49"/><line class="cls-8" x1="97.9" y1="103.49" x2="119.77" y2="118.16"/><line class="cls-8" x1="119.77" y1="118.16" x2="98.95" y2="105.69"/><line class="cls-8" x1="98.95" y1="105.69" x2="91.77" y2="102.2"/><line class="cls-8" x1="91.77" y1="102.2" x2="87.61" y2="100.73"/><line class="cls-8" x1="87.61" y1="100.73" x2="84.67" y2="100.1"/><line class="cls-8" x1="84.67" y1="100.1" x2="82.44" y2="99.95"/><line class="cls-8" x1="82.44" y1="99.95" x2="80.7" y2="100.12"/><line class="cls-8" x1="80.7" y1="100.12" x2="79.32" y2="100.52"/><line class="cls-8" x1="79.32" y1="100.52" x2="78.26" y2="101.1"/><line class="cls-8" x1="78.26" y1="101.1" x2="77.47" y2="101.83"/><line class="cls-8" x1="77.47" y1="101.83" x2="76.93" y2="102.68"/><line class="cls-8" x1="76.93" y1="102.68" x2="76.63" y2="103.64"/><line class="cls-8" x1="76.63" y1="103.64" x2="76.59" y2="104.68"/><line class="cls-8" x1="76.59" y1="104.68" x2="76.81" y2="105.81"/><line class="cls-8" x1="76.81" y1="105.81" x2="77.33" y2="107.01"/><line class="cls-8" x1="77.33" y1="107.01" x2="78.19" y2="108.29"/><line class="cls-8" x1="78.19" y1="108.29" x2="79.47" y2="109.65"/><line class="cls-8" x1="79.47" y1="109.65" x2="81.31" y2="111.1"/><line class="cls-8" x1="81.31" y1="111.1" x2="83.99" y2="112.7"/><line class="cls-8" x1="83.99" y1="112.7" x2="88.14" y2="114.54"/><line class="cls-8" x1="88.14" y1="114.54" x2="95.93" y2="117.02"/><line class="cls-8" x1="95.93" y1="117.02" x2="117.26" y2="121.96"/><line class="cls-8" x1="117.26" y1="121.96" x2="93.23" y2="117.75"/><line class="cls-8" x1="93.23" y1="117.75" x2="86.41" y2="117.26"/><line class="cls-8" x1="86.41" y1="117.26" x2="82.35" y2="117.43"/><line class="cls-8" x1="82.35" y1="117.43" x2="79.52" y2="117.9"/><line class="cls-8" x1="79.52" y1="117.9" x2="77.42" y2="118.55"/><line class="cls-8" x1="77.42" y1="118.55" x2="75.83" y2="119.32"/><line class="cls-8" x1="75.83" y1="119.32" x2="74.63" y2="120.17"/><line class="cls-8" x1="74.63" y1="120.17" x2="73.74" y2="121.08"/><line class="cls-8" x1="73.74" y1="121.08" x2="73.12" y2="122.03"/><line class="cls-8" x1="73.12" y1="122.03" x2="72.76" y2="123.01"/><line class="cls-8" x1="72.76" y1="123.01" x2="72.63" y2="124"/><line class="cls-8" x1="72.63" y1="124" x2="72.73" y2="124.99"/><line class="cls-8" x1="72.73" y1="124.99" x2="73.06" y2="125.98"/><line class="cls-8" x1="73.06" y1="125.98" x2="73.64" y2="126.94"/><line class="cls-8" x1="73.64" y1="126.94" x2="74.5" y2="127.87"/><line class="cls-8" x1="74.5" y1="127.87" x2="75.68" y2="128.74"/><line class="cls-8" x1="75.68" y1="128.74" x2="77.24" y2="129.54"/><line class="cls-8" x1="77.24" y1="129.54" x2="79.31" y2="130.23"/><line class="cls-8" x1="79.31" y1="130.23" x2="82.12" y2="130.75"/><line class="cls-8" x1="82.12" y1="130.75" x2="86.16" y2="130.99"/><line class="cls-8" x1="86.16" y1="130.99" x2="92.98" y2="130.63"/><line class="cls-8" x1="92.98" y1="130.63" x2="117.06" y2="126.84"/><line class="cls-8" x1="117.06" y1="126.84" x2="95.63" y2="131.42"/><line class="cls-8" x1="95.63" y1="131.42" x2="87.79" y2="133.77"/><line class="cls-8" x1="87.79" y1="133.77" x2="83.6" y2="135.54"/><line class="cls-8" x1="83.6" y1="135.54" x2="80.88" y2="137.1"/><line class="cls-8" x1="80.88" y1="137.1" x2="79" y2="138.53"/><line class="cls-8" x1="79" y1="138.53" x2="77.68" y2="139.88"/><line class="cls-8" x1="77.68" y1="139.87" x2="76.79" y2="141.15"/><line class="cls-8" x1="76.79" y1="141.15" x2="76.24" y2="142.35"/><line class="cls-8" x1="76.24" y1="142.35" x2="75.99" y2="143.48"/><line class="cls-8" x1="75.99" y1="143.48" x2="76" y2="144.53"/><line class="cls-8" x1="76" y1="144.53" x2="76.27" y2="145.5"/><line class="cls-8" x1="76.27" y1="145.5" x2="76.78" y2="146.37"/><line class="cls-8" x1="76.78" y1="146.37" x2="77.55" y2="147.12"/><line class="cls-8" x1="77.55" y1="147.12" x2="78.6" y2="147.74"/><line class="cls-8" x1="78.6" y1="147.74" x2="79.95" y2="148.17"/><line class="cls-8" x1="79.95" y1="148.17" x2="81.69" y2="148.38"/><line class="cls-8" x1="81.69" y1="148.38" x2="83.91" y2="148.28"/><line class="cls-8" x1="83.91" y1="148.28" x2="86.85" y2="147.71"/><line class="cls-8" x1="86.85" y1="147.71" x2="91.03" y2="146.33"/><line class="cls-8" x1="91.03" y1="146.33" x2="98.27" y2="142.98"/><line class="cls-8" x1="98.26" y1="142.98" x2="119.29" y2="130.88"/><line class="cls-8" x1="119.29" y1="130.88" x2="97.16" y2="145.19"/><line class="cls-8" x1="97.16" y1="145.19" x2="91.79" y2="149.53"/><line class="cls-8" x1="91.79" y1="149.53" x2="88.97" y2="152.42"/><line class="cls-8" x1="88.97" y1="152.42" x2="87.32" y2="154.65"/><line class="cls-8" x1="87.32" y1="154.65" x2="86.39" y2="156.46"/><line class="cls-8" x1="157.58" y1="34.61" x2="156.32" y2="33.08"/><line class="cls-8" x1="86.39" y1="156.46" x2="85.97" y2="157.96"/><line class="cls-8" x1="85.97" y1="157.96" x2="85.96" y2="159.19"/><line class="cls-8" x1="85.96" y1="159.19" x2="86.31" y2="160.16"/><line class="cls-8" x1="86.31" y1="160.16" x2="87" y2="160.86"/><line class="cls-8" x1="87" y1="160.86" x2="88.03" y2="161.26"/><line class="cls-8" x1="88.03" y1="161.26" x2="89.44" y2="161.28"/><line class="cls-8" x1="89.44" y1="161.28" x2="91.31" y2="160.82"/><line class="cls-8" x1="91.31" y1="160.82" x2="93.82" y2="159.65"/><line class="cls-8" x1="93.82" y1="159.65" x2="97.41" y2="157.26"/><line class="cls-8" x1="97.41" y1="157.26" x2="103.7" y2="151.82"/><line class="cls-8" x1="103.7" y1="151.82" x2="115.53" y2="139.94"/><line class="cls-8" x1="115.53" y1="139.94" x2="102.06" y2="155.64"/><line class="cls-8" x1="102.06" y1="155.64" x2="98.43" y2="160.99"/><line class="cls-8" x1="98.43" y1="160.99" x2="96.79" y2="164.28"/><line class="cls-8" x1="96.79" y1="164.28" x2="96.17" y2="166.5"/><line class="cls-8" x1="96.17" y1="166.5" x2="96.28" y2="167.89"/><line class="cls-8" x1="96.28" y1="167.89" x2="97.05" y2="168.44"/><line class="cls-8" x1="97.05" y1="168.44" x2="98.62" y2="167.9"/><line class="cls-8" x1="98.62" y1="167.9" x2="101.5" y2="165.36"/><line class="cls-8" x1="101.5" y1="165.36" x2="108.91" y2="155.8"/><line class="cls-8" x1="108.91" y1="155.8" x2="105.58" y2="162.21"/><line class="cls-8" x1="105.58" y1="162.21" x2="99.91" y2="172.88"/><line class="cls-8" x1="99.91" y1="172.88" x2="97.33" y2="179.17"/><line class="cls-8" x1="97.33" y1="179.17" x2="95.86" y2="183.98"/><line class="cls-8" x1="95.86" y1="183.98" x2="95.02" y2="188.01"/><line class="cls-8" x1="95.02" y1="188.01" x2="94.59" y2="191.54"/><line class="cls-8" x1="94.59" y1="191.54" x2="94.48" y2="194.7"/><line class="cls-8" x1="94.48" y1="194.7" x2="94.6" y2="197.59"/><line class="cls-8" x1="94.6" y1="197.59" x2="94.93" y2="200.26"/><line class="cls-8" x1="94.93" y1="200.26" x2="95.43" y2="202.73"/><line class="cls-8" x1="95.43" y1="202.73" x2="96.08" y2="205.03"/><line class="cls-8" x1="96.08" y1="205.03" x2="96.86" y2="207.18"/><line class="cls-8" x1="96.86" y1="207.18" x2="97.76" y2="209.19"/><line class="cls-8" x1="97.76" y1="209.19" x2="98.76" y2="211.08"/><line class="cls-8" x1="98.76" y1="211.08" x2="99.85" y2="212.84"/><line class="cls-8" x1="99.85" y1="212.84" x2="101.03" y2="214.49"/><line class="cls-8" x1="101.03" y1="214.49" x2="102.28" y2="216.03"/><line class="cls-8" x1="102.28" y1="216.03" x2="103.61" y2="217.46"/><line class="cls-8" x1="103.61" y1="217.46" x2="105" y2="218.78"/><line class="cls-8" x1="105" y1="218.78" x2="106.45" y2="220.01"/><line class="cls-8" x1="106.45" y1="220.01" x2="107.95" y2="221.14"/><line class="cls-8" x1="107.94" y1="221.14" x2="109.49" y2="222.17"/><line class="cls-8" x1="109.49" y1="222.17" x2="111.08" y2="223.1"/><line class="cls-8" x1="111.08" y1="223.1" x2="112.71" y2="223.95"/><line class="cls-8" x1="112.71" y1="223.95" x2="114.37" y2="224.7"/><line class="cls-8" x1="114.37" y1="224.69" x2="116.06" y2="225.35"/><line class="cls-8" x1="116.06" y1="225.35" x2="117.78" y2="225.92"/><line class="cls-8" x1="117.78" y1="225.92" x2="119.52" y2="226.39"/><line class="cls-8" x1="119.52" y1="226.39" x2="121.27" y2="226.78"/><line class="cls-8" x1="121.27" y1="226.78" x2="123.05" y2="227.08"/><line class="cls-8" x1="123.04" y1="227.08" x2="124.83" y2="227.29"/><line class="cls-8" x1="124.83" y1="227.29" x2="126.61" y2="227.41"/><line class="cls-8" x1="126.61" y1="227.41" x2="128.41" y2="227.45"/><line class="cls-8" x1="128.41" y1="227.45" x2="130.2" y2="227.39"/><line class="cls-8" x1="130.2" y1="227.39" x2="131.99" y2="227.25"/><line class="cls-8" x1="131.99" y1="227.25" x2="133.77" y2="227.02"/><line class="cls-8" x1="133.77" y1="227.02" x2="135.54" y2="226.71"/><line class="cls-8" x1="135.54" y1="226.71" x2="137.29" y2="226.31"/><line class="cls-8" x1="137.29" y1="226.31" x2="139.03" y2="225.82"/><line class="cls-8" x1="139.03" y1="225.82" x2="140.75" y2="225.24"/><line class="cls-8" x1="140.75" y1="225.24" x2="142.45" y2="224.57"/><line class="cls-8" x1="142.45" y1="224.57" x2="144.11" y2="223.81"/><line class="cls-8" x1="144.11" y1="223.81" x2="145.74" y2="222.96"/><line class="cls-8" x1="145.74" y1="222.96" x2="147.34" y2="222.02"/><line class="cls-8" x1="147.34" y1="222.02" x2="148.89" y2="220.99"/><line class="cls-8" x1="148.89" y1="220.99" x2="150.4" y2="219.86"/><line class="cls-8" x1="150.4" y1="219.86" x2="151.85" y2="218.64"/><line class="cls-8" x1="151.85" y1="218.64" x2="153.26" y2="217.32"/><line class="cls-8" x1="153.26" y1="217.32" x2="154.59" y2="215.89"/><line class="cls-8" x1="154.6" y1="215.89" x2="155.87" y2="214.36"/><line class="cls-8" x1="155.87" y1="214.36" x2="157.07" y2="212.73"/><line class="cls-8" x1="157.07" y1="212.73" x2="158.18" y2="210.97"/><line class="cls-8" x1="159.21" y1="209.1" x2="160.13" y2="207.1"/><line class="cls-8" x1="160.13" y1="207.1" x2="160.95" y2="204.96"/><line class="cls-8" x1="160.95" y1="204.96" x2="161.63" y2="202.67"/><line class="cls-8" x1="161.63" y1="202.67" x2="162.18" y2="200.21"/><line class="cls-8" x1="162.18" y1="200.21" x2="162.56" y2="197.56"/><line class="cls-8" x1="162.56" y1="197.56" x2="162.74" y2="194.67"/><line class="cls-8" x1="162.74" y1="194.67" x2="162.69" y2="191.51"/><line class="cls-8" x1="162.69" y1="191.51" x2="162.34" y2="187.98"/><line class="cls-8" x1="162.34" y1="187.98" x2="161.59" y2="183.94"/><line class="cls-8" x1="161.59" y1="183.94" x2="160.23" y2="179.1"/><line class="cls-8" x1="160.23" y1="179.1" x2="157.8" y2="172.76"/><line class="cls-8" x1="157.8" y1="172.76" x2="152.4" y2="161.95"/><line class="cls-8" x1="152.4" y1="161.95" x2="149.23" y2="155.48"/><line class="cls-8" x1="149.23" y1="155.48" x2="156.37" y2="165.24"/><line class="cls-8" x1="156.37" y1="165.24" x2="159.18" y2="167.88"/><line class="cls-8" x1="159.18" y1="167.88" x2="160.72" y2="168.48"/><line class="cls-8" x1="160.72" y1="168.48" x2="161.5" y2="167.96"/><line class="cls-8" x1="161.5" y1="167.96" x2="161.65" y2="166.6"/><line class="cls-8" x1="161.65" y1="166.6" x2="161.08" y2="164.39"/><line class="cls-8" x1="161.08" y1="164.39" x2="159.52" y2="161.08"/><line class="cls-8" x1="159.52" y1="161.08" x2="156.03" y2="155.66"/><line class="cls-8" x1="156.03" y1="155.66" x2="142.97" y2="139.63"/><line class="cls-8" x1="142.97" y1="139.63" x2="154.48" y2="151.84"/><line class="cls-8" x1="154.48" y1="151.84" x2="160.63" y2="157.46"/><line class="cls-8" x1="160.63" y1="157.46" x2="164.16" y2="159.97"/><line class="cls-8" x1="164.16" y1="159.97" x2="166.64" y2="161.23"/><line class="cls-8" x1="166.64" y1="161.23" x2="168.5" y2="161.76"/><line class="cls-8" x1="168.5" y1="161.76" x2="169.92" y2="161.8"/><line class="cls-8" x1="169.92" y1="161.8" x2="170.96" y2="161.45"/><line class="cls-8" x1="170.96" y1="161.46" x2="171.68" y2="160.8"/><line class="cls-8" x1="171.68" y1="160.8" x2="172.06" y2="159.86"/><line class="cls-8" x1="172.06" y1="159.86" x2="172.09" y2="158.65"/><line class="cls-8" x1="172.09" y1="158.65" x2="171.72" y2="157.16"/><line class="cls-8" x1="171.72" y1="157.16" x2="170.85" y2="155.35"/><line class="cls-8" x1="170.85" y1="155.35" x2="169.27" y2="153.1"/><line class="cls-8" x1="169.27" y1="153.1" x2="166.54" y2="150.16"/><line class="cls-8" x1="166.54" y1="150.16" x2="161.29" y2="145.7"/><line class="cls-8" x1="161.29" y1="145.7" x2="139.56" y2="130.84"/><line class="cls-8" x1="139.56" y1="130.84" x2="160.27" y2="143.5"/><line class="cls-8" x1="160.27" y1="143.5" x2="167.43" y2="147.06"/><line class="cls-8" x1="167.43" y1="147.06" x2="171.59" y2="148.57"/><line class="cls-8" x1="171.59" y1="148.57" x2="174.53" y2="149.24"/><line class="cls-8" x1="174.53" y1="149.24" x2="176.77" y2="149.41"/><line class="cls-8" x1="176.77" y1="149.41" x2="178.52" y2="149.27"/><line class="cls-8" x1="178.52" y1="149.27" x2="179.9" y2="148.88"/><line class="cls-8" x1="179.9" y1="148.88" x2="180.98" y2="148.31"/><line class="cls-8" x1="180.98" y1="148.31" x2="181.79" y2="147.59"/><line class="cls-8" x1="181.79" y1="147.59" x2="182.34" y2="146.75"/><line class="cls-8" x1="182.34" y1="146.75" x2="182.65" y2="145.81"/><line class="cls-8" x1="182.65" y1="145.81" x2="182.71" y2="144.77"/><line class="cls-8" x1="182.71" y1="144.77" x2="182.51" y2="143.64"/><line class="cls-8" x1="182.51" y1="143.64" x2="182.01" y2="142.44"/><line class="cls-8" x1="182.01" y1="142.44" x2="181.17" y2="141.15"/><line class="cls-8" x1="181.17" y1="141.15" x2="179.91" y2="139.79"/><line class="cls-8" x1="179.91" y1="139.79" x2="178.08" y2="138.32"/><line class="cls-8" x1="178.08" y1="138.32" x2="175.42" y2="136.7"/><line class="cls-8" x1="175.42" y1="136.7" x2="171.3" y2="134.82"/><line class="cls-8" x1="171.3" y1="134.83" x2="163.54" y2="132.27"/><line class="cls-8" x1="163.54" y1="132.27" x2="142.25" y2="127.15"/><line class="cls-8" x1="142.25" y1="127.15" x2="166.25" y2="131.57"/><line class="cls-8" x1="166.25" y1="131.57" x2="173.07" y2="132.11"/><line class="cls-8" x1="173.07" y1="132.11" x2="177.14" y2="131.98"/><line class="cls-8" x1="177.14" y1="131.98" x2="179.98" y2="131.54"/><line class="cls-8" x1="179.98" y1="131.54" x2="182.09" y2="130.9"/><line class="cls-8" x1="182.09" y1="130.9" x2="183.68" y2="130.15"/><line class="cls-8" x1="183.68" y1="130.15" x2="184.9" y2="129.31"/><line class="cls-8" x1="184.9" y1="129.31" x2="185.8" y2="128.41"/><line class="cls-8" x1="185.8" y1="128.4" x2="186.42" y2="127.46"/><line class="cls-8" x1="186.42" y1="127.46" x2="186.8" y2="126.48"/><line class="cls-9" x1="186.8" y1="126.48" x2="186.94" y2="125.49"/><line class="cls-9" x1="186.95" y1="124.5" x2="186.84" y2="123.5"/><line class="cls-8" x1="186.84" y1="123.5" x2="186.5" y2="122.52"/><line class="cls-8" x1="186.5" y1="122.52" x2="185.91" y2="121.56"/><line class="cls-8" x1="185.91" y1="121.56" x2="185.04" y2="120.64"/><line class="cls-8" x1="185.04" y1="120.64" x2="183.86" y2="119.78"/><line class="cls-8" x1="183.86" y1="119.78" x2="182.29" y2="118.99"/><line class="cls-8" x1="182.29" y1="118.99" x2="180.21" y2="118.32"/><line class="cls-8" x1="180.21" y1="118.32" x2="177.4" y2="117.82"/><line class="cls-8" x1="177.4" y1="117.82" x2="173.35" y2="117.61"/><line class="cls-8" x1="173.35" y1="117.61" x2="166.53" y2="118.03"/><line class="cls-8" x1="166.53" y1="118.03" x2="142.47" y2="122.03"/><line class="cls-8" x1="142.47" y1="122.03" x2="163.86" y2="117.27"/><line class="cls-8" x1="163.86" y1="117.27" x2="171.68" y2="114.84"/><line class="cls-8" x1="171.68" y1="114.84" x2="175.85" y2="113.04"/><line class="cls-8" x1="175.85" y1="113.04" x2="178.55" y2="111.46"/><line class="cls-8" x1="178.55" y1="111.46" x2="180.42" y2="110.01"/><line class="cls-8" x1="180.42" y1="110.01" x2="181.72" y2="108.66"/><line class="cls-8" x1="181.72" y1="108.66" x2="182.59" y2="107.38"/><line class="cls-8" x1="182.59" y1="107.38" x2="183.13" y2="106.17"/><line class="cls-8" x1="183.13" y1="106.17" x2="183.36" y2="105.04"/><line class="cls-8" x1="183.36" y1="105.04" x2="183.34" y2="103.99"/><line class="cls-8" x1="183.34" y1="103.99" x2="183.05" y2="103.03"/><line class="cls-8" x1="183.05" y1="103.03" x2="182.53" y2="102.16"/><line class="cls-8" x1="182.53" y1="102.16" x2="181.74" y2="101.42"/><line class="cls-8" x1="181.74" y1="101.42" x2="180.68" y2="100.82"/><line class="cls-8" x1="180.68" y1="100.82" x2="179.32" y2="100.4"/><line class="cls-8" x1="179.32" y1="100.4" x2="177.58" y2="100.21"/><line class="cls-8" x1="177.58" y1="100.21" x2="175.35" y2="100.33"/><line class="cls-8" x1="175.35" y1="100.33" x2="172.41" y2="100.93"/><line class="cls-8" x1="172.41" y1="100.93" x2="168.23" y2="102.36"/><line class="cls-8" x1="168.23" y1="102.36" x2="161.02" y2="105.77"/><line class="cls-8" x1="161.02" y1="105.77" x2="140.09" y2="118.06"/><line class="cls-8" x1="140.09" y1="118.06" x2="162.09" y2="103.57"/><line class="cls-8" x1="162.09" y1="103.57" x2="167.41" y2="99.18"/><line class="cls-8" x1="167.41" y1="99.18" x2="170.2" y2="96.28"/><line class="cls-8" x1="170.2" y1="96.27" x2="171.82" y2="94.04"/><line class="cls-8" x1="171.82" y1="94.04" x2="172.73" y2="92.23"/><line class="cls-8" x1="172.73" y1="92.23" x2="173.13" y2="90.73"/><line class="cls-8" x1="173.13" y1="90.73" x2="173.12" y2="89.51"/><line class="cls-8" x1="173.12" y1="89.51" x2="172.76" y2="88.55"/><line class="cls-8" x1="172.76" y1="88.55" x2="172.06" y2="87.86"/><line class="cls-8" x1="172.06" y1="87.86" x2="171.02" y2="87.49"/><line class="cls-8" x1="171.02" y1="87.49" x2="169.61" y2="87.48"/><line class="cls-8" x1="169.61" y1="87.48" x2="167.74" y2="87.97"/><line class="cls-8" x1="167.74" y1="87.97" x2="165.23" y2="89.17"/><line class="cls-8" x1="165.23" y1="89.17" x2="161.65" y2="91.61"/><line class="cls-8" x1="161.65" y1="91.61" x2="155.41" y2="97.11"/><line class="cls-8" x1="155.41" y1="97.11" x2="143.68" y2="109.1"/><line class="cls-8" x1="143.68" y1="109.1" x2="157.01" y2="93.29"/><line class="cls-8" x1="157.01" y1="93.29" x2="160.59" y2="87.92"/><line class="cls-8" x1="160.59" y1="87.92" x2="162.2" y2="84.62"/><line class="cls-8" x1="162.2" y1="84.62" x2="162.8" y2="82.41"/><line class="cls-8" x1="162.8" y1="82.42" x2="162.67" y2="81.04"/><line class="cls-8" x1="162.67" y1="81.04" x2="161.89" y2="80.5"/><line class="cls-8" x1="161.89" y1="80.5" x2="160.33" y2="81.07"/><line class="cls-8" x1="160.33" y1="81.07" x2="157.47" y2="83.64"/><line class="cls-8" x1="157.47" y1="83.64" x2="150.15" y2="93.27"/><line class="cls-8" x1="150.15" y1="93.27" x2="153.42" y2="86.85"/><line class="cls-8" x1="153.42" y1="86.85" x2="158.99" y2="76.14"/><line class="cls-8" x1="158.99" y1="76.14" x2="161.52" y2="69.83"/><line class="cls-8" x1="161.52" y1="69.83" x2="162.95" y2="65.02"/><line class="cls-8" x1="162.95" y1="65.02" x2="163.76" y2="60.99"/><line class="cls-8" x1="163.76" y1="60.99" x2="164.16" y2="57.47"/><line class="cls-8" x1="164.16" y1="57.47" x2="164.25" y2="54.31"/><line class="cls-8" x1="164.25" y1="54.31" x2="164.1" y2="51.43"/><line class="cls-8" x1="164.1" y1="51.43" x2="163.75" y2="48.77"/><line class="cls-8" x1="163.75" y1="48.77" x2="163.24" y2="46.31"/><line class="cls-8" x1="163.24" y1="46.31" x2="162.57" y2="44.02"/><line class="cls-8" x1="162.57" y1="44.02" x2="161.78" y2="41.88"/><line class="cls-8" x1="161.78" y1="41.88" x2="160.87" y2="39.88"/><line class="cls-8" x1="160.87" y1="39.88" x2="159.86" y2="38"/><line class="cls-8" x1="159.86" y1="38" x2="158.76" y2="36.25"/><line class="cls-8" x1="158.76" y1="36.25" x2="157.58" y2="34.61"/><line class="cls-8" x1="158.18" y1="210.97" x2="159.21" y2="209.1"/><line class="cls-8" x1="156.32" y1="33.08" x2="154.99" y2="31.66"/><line class="cls-8" x1="154.99" y1="31.66" x2="153.59" y2="30.34"/><line class="cls-8" x1="153.59" y1="30.34" x2="152.14" y2="29.12"/><line class="cls-8" x1="152.14" y1="29.12" x2="150.64" y2="28"/><line class="cls-8" x1="150.64" y1="28" x2="149.09" y2="26.97"/><line class="cls-8" x1="149.09" y1="26.97" x2="147.5" y2="26.04"/><line class="cls-8" x1="147.5" y1="26.04" x2="145.88" y2="25.2"/><line class="cls-8" x1="145.88" y1="25.2" x2="144.22" y2="24.45"/><line class="cls-8" x1="144.22" y1="24.45" x2="142.53" y2="23.79"/><line class="cls-8" x1="142.53" y1="23.79" x2="140.81" y2="23.22"/><line class="cls-8" x1="140.81" y1="23.22" x2="139.07" y2="22.74"/><line class="cls-8" x1="139.07" y1="22.74" x2="137.32" y2="22.34"/><line class="cls-8" x1="137.32" y1="22.34" x2="135.55" y2="22.04"/><line class="cls-8" x1="135.55" y1="22.04" x2="133.77" y2="21.82"/><line class="cls-8" x1="133.77" y1="21.82" x2="131.99" y2="21.69"/><line class="cls-8" x1="131.99" y1="21.69" x2="130.2" y2="21.65"/><line class="cls-8" x1="130.2" y1="21.65" x2="128.41" y2="21.69"/><line class="cls-8" x1="128.41" y1="21.69" x2="126.62" y2="21.82"/><line class="cls-8" x1="126.62" y1="21.82" x2="124.84" y2="22.04"/><line class="cls-8" x1="124.84" y1="22.04" x2="123.07" y2="22.34"/><line class="cls-8" x1="123.07" y1="22.34" x2="121.32" y2="22.73"/><line class="cls-8" x1="121.32" y1="22.73" x2="119.58" y2="23.21"/><line class="cls-8" x1="119.58" y1="23.21" x2="117.86" y2="23.78"/><line class="cls-8" x1="117.86" y1="23.78" x2="116.17" y2="24.43"/><line class="cls-8" x1="116.17" y1="24.43" x2="114.51" y2="25.18"/><line class="cls-8" x1="114.51" y1="25.18" x2="112.88" y2="26.02"/><line class="cls-8" x1="112.88" y1="26.02" x2="111.28" y2="26.95"/><line class="cls-8" x1="111.28" y1="26.95" x2="109.73" y2="27.98"/><line class="cls-8" x1="109.73" y1="27.98" x2="108.22" y2="29.1"/><line class="cls-8" x1="108.23" y1="29.1" x2="106.77" y2="30.31"/><line class="cls-8" x1="106.77" y1="30.31" x2="105.37" y2="31.63"/><line class="cls-8" x1="105.37" y1="31.63" x2="104.04" y2="33.05"/><line class="cls-8" x1="104.04" y1="33.05" x2="102.77" y2="34.58"/><line class="cls-8" x1="102.77" y1="34.58" x2="101.57" y2="36.22"/><line class="cls-8" x1="101.57" y1="36.22" x2="100.46" y2="37.97"/><line class="cls-8" x1="100.46" y1="37.97" x2="99.45" y2="39.84"/><line class="cls-8" x1="99.45" y1="39.84" x2="98.53" y2="41.84"/><line class="cls-8" x1="98.53" y1="41.84" x2="97.72" y2="43.98"/><line class="cls-8" x1="97.73" y1="43.98" x2="97.05" y2="46.27"/><line class="cls-8" x1="97.05" y1="46.27" x2="96.52" y2="48.73"/><line class="cls-8" x1="96.52" y1="48.73" x2="96.15" y2="51.39"/><line class="cls-8" x1="96.15" y1="51.39" x2="95.99" y2="54.27"/><line class="cls-8" x1="95.99" y1="54.27" x2="96.06" y2="57.44"/><line class="cls-8" x1="96.06" y1="57.44" x2="96.43" y2="60.97"/><line class="cls-8" x1="96.43" y1="60.97" x2="97.22" y2="65"/><line class="cls-8" x1="97.22" y1="65" x2="98.61" y2="69.83"/><line class="cls-8" x1="98.61" y1="69.83" x2="101.09" y2="76.16"/><line class="cls-8" x1="101.09" y1="76.16" x2="106.58" y2="86.92"/><line class="cls-8" x1="106.58" y1="86.92" x2="109.8" y2="93.38"/><line class="cls-8" x1="109.8" y1="93.38" x2="102.57" y2="83.68"/><line class="cls-8" x1="102.57" y1="83.68" x2="99.74" y2="81.08"/><line class="cls-8" x1="99.74" y1="81.08" x2="98.19" y2="80.5"/><line class="cls-8" x1="98.19" y1="80.5" x2="97.41" y2="81.03"/><line class="cls-8" x1="97.41" y1="81.03" x2="97.28" y2="82.41"/><line class="cls-8" x1="97.28" y1="82.41" x2="97.87" y2="84.62"/><line class="cls-8" x1="97.87" y1="84.62" x2="99.45" y2="87.93"/><line class="cls-8" x1="99.45" y1="87.93" x2="103" y2="93.32"/><line class="cls-8" x1="103" y1="93.32" x2="116.19" y2="109.25"/><line class="cls-8" x1="116.19" y1="109.25" x2="104.58" y2="97.15"/><line class="cls-8" x1="104.58" y1="97.15" x2="98.39" y2="91.59"/><line class="cls-8" x1="98.39" y1="91.59" x2="94.83" y2="89.12"/><line class="cls-8" x1="94.83" y1="89.12" x2="92.35" y2="87.9"/><line class="cls-8" x1="92.35" y1="87.9" x2="90.49" y2="87.39"/><line class="cls-8" x1="90.49" y1="87.39" x2="89.08" y2="87.38"/><line class="cls-8" x1="89.08" y1="87.38" x2="88.04" y2="87.74"/><line class="cls-8" x1="88.04" y1="87.74" x2="87.34" y2="88.42"/><line class="cls-8" x1="87.34" y1="88.42" x2="86.97" y2="89.37"/><line class="cls-8" x1="86.97" y1="89.37" x2="86.95" y2="90.58"/><line class="cls-8" x1="86.95" y1="90.58" x2="87.34" y2="92.08"/><line class="cls-8" x1="87.34" y1="92.08" x2="88.24" y2="93.89"/><line class="cls-8" x1="88.24" y1="93.89" x2="89.85" y2="96.14"/><line class="cls-8" x1="89.85" y1="96.14" x2="92.61" y2="99.06"/><text class="cls-10" transform="matrix(0.97, 0.26, -0.26, 0.97, 134.91, 79.16)">-40</text><text class="cls-10" transform="matrix(0.97, 0.26, -0.26, 0.97, 121.97, 127.46)">-80</text><text class="cls-10" transform="matrix(0.97, 0.26, -0.26, 0.97, 128.44, 103.31)">-60</text><text class="cls-10" transform="matrix(0.97, 0.26, -0.26, 0.97, 141.38, 55.02)">-20</text><text class="cls-10" transform="matrix(0.97, 0.26, -0.26, 0.97, 151.83, 31.94)">0</text><text class="cls-11" transform="translate(184.69 23.72)">60</text><text class="cls-11" transform="translate(60.56 23.72)">120</text><text class="cls-11" transform="translate(35.48 42.97)">135</text><text class="cls-11" transform="translate(16.23 68.06)">150</text><text class="cls-11" transform="translate(4.13 97.27)">165</text><text class="cls-11" transform="translate(0 128.62)">180</text><text class="cls-11" transform="translate(4.13 159.97)">195</text><text class="cls-11" transform="translate(16.23 189.18)">210</text><text class="cls-11" transform="translate(35.48 214.27)">225</text><text class="cls-11" transform="translate(60.56 233.52)">240</text><text class="cls-11" transform="translate(89.78 245.62)">255</text><text class="cls-11" transform="translate(121.12 249.75)">270</text><text class="cls-11" transform="translate(152.47 245.62)">285</text><text class="cls-11" transform="translate(181.69 233.52)">300</text><text class="cls-11" transform="translate(206.77 214.27)">315</text><text class="cls-11" transform="translate(226.02 189.18)">330</text><text class="cls-11" transform="translate(238.12 159.97)">345</text><text class="cls-11" transform="translate(241.12 97.27)">15</text><text class="cls-11" transform="translate(229.02 68.06)">30</text><text class="cls-11" transform="translate(247.88 128.62)">0</text><text class="cls-11" transform="translate(209.77 42.97)">45</text><text class="cls-12" transform="translate(91.1 13.12)"> </text><text class="cls-13" transform="translate(94.15 13.12)">105</text><text class="cls-13" transform="translate(110.83 13.12)"> </text><text class="cls-13" transform="translate(128.51 8.58)">90</text><text class="cls-13" transform="translate(139.63 8.58)"> </text><text class="cls-13" transform="translate(159.86 13.12)">75</text></svg>