<svg id="Livello_1" data-name="Livello 1" xmlns="http://www.w3.org/2000/svg" viewBox="0 0 530.47 532.04"><defs><style>.cls-1,.cls-2,.cls-5,.cls-6{fill:none;stroke-linejoin:round;stroke-width:0.5px;}.cls-1,.cls-2{stroke:#262626;}.cls-1{opacity:0.15;}.cls-2{stroke-linecap:square;}.cls-3{font-size:9.5px;}.cls-3,.cls-4{fill:#262626;font-family:ArialMT, Arial;}.cls-4{font-size:10.45px;}.cls-5{stroke:#d95319;}.cls-6{stroke:#0072bd;}</style></defs><line class="cls-1" x1="42.97" y1="502" x2="42.97" y2="0.25"/><line class="cls-1" x1="99.28" y1="502" x2="99.28" y2="0.25"/><line class="cls-1" x1="155.59" y1="502" x2="155.59" y2="0.25"/><line class="cls-1" x1="211.9" y1="502" x2="211.9" y2="0.25"/><line class="cls-1" x1="268.21" y1="502" x2="268.21" y2="0.25"/><line class="cls-1" x1="324.52" y1="502" x2="324.52" y2="0.25"/><line class="cls-1" x1="380.83" y1="502" x2="380.83" y2="0.25"/><line class="cls-1" x1="437.14" y1="502" x2="437.14" y2="0.25"/><line class="cls-1" x1="493.45" y1="502" x2="493.45" y2="0.25"/><line class="cls-1" x1="530.22" y1="498.68" x2="39.62" y2="498.68"/><line class="cls-1" x1="530.22" y1="442.37" x2="39.62" y2="442.37"/><line class="cls-1" x1="530.22" y1="386.06" x2="39.62" y2="386.06"/><line class="cls-1" x1="530.22" y1="329.75" x2="39.62" y2="329.75"/><line class="cls-1" x1="530.22" y1="273.45" x2="39.62" y2="273.45"/><line class="cls-1" x1="530.22" y1="217.14" x2="39.62" y2="217.14"/><line class="cls-1" x1="530.22" y1="160.83" x2="39.62" y2="160.83"/><line class="cls-1" x1="530.22" y1="104.52" x2="39.62" y2="104.52"/><line class="cls-1" x1="530.22" y1="48.21" x2="39.62" y2="48.21"/><line class="cls-2" x1="39.62" y1="502" x2="530.22" y2="502"/><line class="cls-2" x1="42.97" y1="502" x2="42.97" y2="496.98"/><line class="cls-2" x1="99.28" y1="502" x2="99.28" y2="496.98"/><line class="cls-2" x1="155.59" y1="502" x2="155.59" y2="496.98"/><line class="cls-2" x1="211.9" y1="502" x2="211.9" y2="496.98"/><line class="cls-2" x1="268.21" y1="502" x2="268.21" y2="496.98"/><line class="cls-2" x1="324.52" y1="502" x2="324.52" y2="496.98"/><line class="cls-2" x1="380.83" y1="502" x2="380.83" y2="496.98"/><line class="cls-2" x1="437.14" y1="502" x2="437.14" y2="496.98"/><line class="cls-2" x1="493.45" y1="502" x2="493.45" y2="496.98"/><text class="cls-3" transform="translate(34.72 515.15)">-0.2</text><text class="cls-3" transform="translate(88.41 515.15)">-0.15</text><text class="cls-3" transform="translate(147.34 515.15)">-0.1</text><text class="cls-3" transform="translate(201.03 515.15)">-0.05</text><text class="cls-3" transform="translate(265.21 515.15)">0</text><text class="cls-3" transform="translate(315.14 515.15)">0.05</text><text class="cls-3" transform="translate(374.08 515.15)">0.1</text><text class="cls-3" transform="translate(427.76 515.15)">0.15</text><text class="cls-3" transform="translate(486.7 515.15)">0.2</text><text class="cls-4" transform="translate(281.17 528.65)">X</text><line class="cls-2" x1="39.62" y1="502" x2="39.62" y2="0.25"/><line class="cls-2" x1="39.62" y1="498.68" x2="44.63" y2="498.68"/><line class="cls-2" x1="39.62" y1="442.37" x2="44.63" y2="442.37"/><line class="cls-2" x1="39.62" y1="386.06" x2="44.63" y2="386.06"/><line class="cls-2" x1="39.62" y1="329.75" x2="44.63" y2="329.75"/><line class="cls-2" x1="39.62" y1="273.45" x2="44.63" y2="273.45"/><line class="cls-2" x1="39.62" y1="217.14" x2="44.63" y2="217.14"/><line class="cls-2" x1="39.62" y1="160.83" x2="44.63" y2="160.83"/><line class="cls-2" x1="39.62" y1="104.52" x2="44.63" y2="104.52"/><line class="cls-2" x1="39.62" y1="48.21" x2="44.63" y2="48.21"/><text class="cls-3" transform="translate(19.72 502.43)">-0.2</text><text class="cls-3" transform="translate(14.47 446.12)">-0.15</text><text class="cls-3" transform="translate(19.72 389.81)">-0.1</text><text class="cls-3" transform="translate(14.47 333.5)">-0.05</text><text class="cls-3" transform="translate(30.22 277.2)">0</text><text class="cls-3" transform="translate(17.47 220.89)">0.05</text><text class="cls-3" transform="translate(22.72 164.58)">0.1</text><text class="cls-3" transform="translate(17.47 108.27)">0.15</text><text class="cls-3" transform="translate(22.72 51.96)">0.2</text><text class="cls-4" transform="translate(8.97 254.88) rotate(-90)">Y</text><line class="cls-5" x1="243.72" y1="53.05" x2="234.38" y2="0.71"/><line class="cls-5" x1="234.38" y1="0.71" x2="241.85" y2="17.2"/><line class="cls-5" x1="233.07" y1="18.76" x2="234.38" y2="0.71"/><line class="cls-5" x1="194.75" y1="53.05" x2="185.75" y2="2.71"/><line class="cls-5" x1="185.75" y1="2.71" x2="192.95" y2="18.57"/><line class="cls-5" x1="184.49" y1="20.08" x2="185.75" y2="2.71"/><line class="cls-5" x1="283.29" y1="0.25" x2="290.82" y2="16.89"/><line class="cls-5" x1="281.97" y1="18.46" x2="283.29" y2="0.25"/><line class="cls-5" x1="292.7" y1="53.05" x2="283.29" y2="0.25"/><line class="cls-5" x1="137.37" y1="6.08" x2="144.09" y2="20.88"/><line class="cls-5" x1="145.77" y1="53.05" x2="137.37" y2="6.08"/><line class="cls-5" x1="136.2" y1="22.29" x2="137.37" y2="6.08"/><line class="cls-5" x1="331.21" y1="19.2" x2="332.5" y2="1.39"/><line class="cls-5" x1="332.5" y1="1.39" x2="339.85" y2="17.67"/><line class="cls-5" x1="332.63" y1="49.39" x2="340" y2="66.01"/><line class="cls-6" x1="292.7" y1="102.03" x2="347.02" y2="92.79"/><line class="cls-5" x1="332.75" y1="97.62" x2="340.12" y2="114.5"/><line class="cls-5" x1="331.27" y1="115.97" x2="332.75" y2="97.62"/><line class="cls-6" x1="292.7" y1="151.01" x2="347.54" y2="141.82"/><line class="cls-6" x1="328.69" y1="140.32" x2="347.54" y2="141.82"/><line class="cls-5" x1="331.31" y1="164.61" x2="332.85" y2="146.1"/><line class="cls-6" x1="292.7" y1="199.98" x2="347.89" y2="190.83"/><line class="cls-6" x1="329.03" y1="238.28" x2="348.05" y2="239.83"/><line class="cls-6" x1="348.05" y1="239.83" x2="330.54" y2="247.41"/><line class="cls-6" x1="292.7" y1="248.96" x2="348.05" y2="239.83"/><line class="cls-5" x1="341.67" y1="248.96" x2="332.93" y2="194.84"/><line class="cls-5" x1="331.35" y1="213.42" x2="332.93" y2="194.84"/><line class="cls-6" x1="347.89" y1="190.83" x2="330.43" y2="198.41"/><line class="cls-6" x1="328.92" y1="189.3" x2="347.89" y2="190.83"/><line class="cls-5" x1="341.67" y1="199.98" x2="332.85" y2="146.1"/><line class="cls-5" x1="332.85" y1="146.1" x2="340.21" y2="163.15"/><line class="cls-6" x1="347.54" y1="141.82" x2="330.2" y2="149.38"/><line class="cls-5" x1="341.67" y1="151.01" x2="332.75" y2="97.62"/><line class="cls-6" x1="347.02" y1="92.79" x2="329.85" y2="100.32"/><line class="cls-6" x1="328.33" y1="91.36" x2="347.02" y2="92.79"/><line class="cls-5" x1="341.67" y1="102.03" x2="332.63" y2="49.39"/><line class="cls-5" x1="331.24" y1="67.51" x2="332.63" y2="49.39"/><line class="cls-6" x1="346.32" y1="43.76" x2="329.39" y2="51.25"/><line class="cls-6" x1="327.86" y1="42.4" x2="346.32" y2="43.76"/><line class="cls-6" x1="292.7" y1="53.05" x2="346.32" y2="43.76"/><line class="cls-5" x1="341.67" y1="53.05" x2="332.5" y2="1.39"/><line class="cls-5" x1="89.19" y1="10.52" x2="95.28" y2="23.91"/><line class="cls-5" x1="88.12" y1="25.19" x2="89.19" y2="10.52"/><line class="cls-5" x1="96.79" y1="53.05" x2="89.19" y2="10.52"/><line class="cls-6" x1="72.19" y1="486.41" x2="85" y2="487.43"/><line class="cls-6" x1="85" y1="487.43" x2="73.27" y2="492.68"/><line class="cls-6" x1="47.82" y1="493.84" x2="85" y2="487.43"/><line class="cls-6" x1="376.03" y1="42.82" x2="394.04" y2="44.25"/><line class="cls-6" x1="394.04" y1="44.25" x2="377.49" y2="51.49"/><line class="cls-6" x1="341.67" y1="53.05" x2="394.04" y2="44.25"/><line class="cls-5" x1="390.65" y1="53.05" x2="381.98" y2="4.01"/><line class="cls-5" x1="380.75" y1="20.92" x2="381.98" y2="4.01"/><line class="cls-5" x1="381.98" y1="4.01" x2="388.94" y2="19.47"/><line class="cls-5" x1="41.12" y1="15.64" x2="46.48" y2="27.42"/><line class="cls-5" x1="40.18" y1="28.55" x2="41.12" y2="15.64"/><line class="cls-5" x1="47.82" y1="53.05" x2="41.12" y2="15.64"/><line class="cls-5" x1="185.85" y1="50.73" x2="193.07" y2="66.92"/><line class="cls-5" x1="194.75" y1="102.03" x2="185.85" y2="50.73"/><line class="cls-5" x1="184.51" y1="68.4" x2="185.85" y2="50.73"/><line class="cls-5" x1="233.09" y1="67.05" x2="234.49" y2="48.67"/><line class="cls-5" x1="234.49" y1="48.67" x2="241.98" y2="65.51"/><line class="cls-5" x1="243.72" y1="102.03" x2="234.49" y2="48.67"/><line class="cls-5" x1="145.77" y1="102.03" x2="137.47" y2="54.2"/><line class="cls-5" x1="137.47" y1="54.2" x2="144.2" y2="69.29"/><line class="cls-5" x1="136.22" y1="70.68" x2="137.47" y2="54.2"/><line class="cls-5" x1="282" y1="66.74" x2="283.41" y2="48.21"/><line class="cls-5" x1="292.7" y1="102.03" x2="283.41" y2="48.21"/><line class="cls-5" x1="283.41" y1="48.21" x2="290.96" y2="65.19"/><line class="cls-6" x1="529.13" y1="46.95" x2="516.27" y2="52.36"/><line class="cls-6" x1="515.24" y1="45.57" x2="529.13" y2="46.95"/><line class="cls-6" x1="488.6" y1="53.05" x2="529.13" y2="46.95"/><line class="cls-6" x1="529.55" y1="95.88" x2="516.55" y2="101.34"/><line class="cls-6" x1="515.52" y1="94.48" x2="529.55" y2="95.88"/><line class="cls-6" x1="488.6" y1="102.03" x2="529.55" y2="95.88"/><line class="cls-6" x1="515.74" y1="143.39" x2="529.87" y2="144.8"/><line class="cls-6" x1="529.87" y1="144.8" x2="516.77" y2="150.3"/><line class="cls-6" x1="488.6" y1="151.01" x2="529.87" y2="144.8"/><line class="cls-6" x1="440.22" y1="44.99" x2="424.53" y2="51.76"/><line class="cls-6" x1="423.2" y1="43.54" x2="440.22" y2="44.99"/><line class="cls-6" x1="390.65" y1="53.05" x2="440.22" y2="44.99"/><line class="cls-5" x1="439.63" y1="53.05" x2="431.7" y2="7.87"/><line class="cls-5" x1="431.7" y1="7.87" x2="438.09" y2="22.12"/><line class="cls-5" x1="430.54" y1="23.44" x2="431.7" y2="7.87"/><line class="cls-5" x1="96.79" y1="102.03" x2="89.28" y2="58.76"/><line class="cls-5" x1="88.14" y1="73.67" x2="89.28" y2="58.76"/><line class="cls-5" x1="89.28" y1="58.76" x2="95.38" y2="72.41"/><line class="cls-6" x1="488.6" y1="199.98" x2="530.1" y2="193.68"/><line class="cls-6" x1="515.88" y1="192.29" x2="530.1" y2="193.68"/><line class="cls-6" x1="530.1" y1="193.68" x2="516.93" y2="199.23"/><line class="cls-6" x1="530.21" y1="242.55" x2="517.02" y2="248.14"/><line class="cls-6" x1="515.95" y1="241.19" x2="530.21" y2="242.55"/><line class="cls-6" x1="488.6" y1="248.96" x2="530.21" y2="242.55"/><line class="cls-6" x1="469.52" y1="44.48" x2="485.13" y2="45.91"/><line class="cls-6" x1="439.63" y1="53.05" x2="485.13" y2="45.91"/><line class="cls-6" x1="485.13" y1="45.91" x2="470.71" y2="52.06"/><line class="cls-5" x1="41.22" y1="64.03" x2="46.57" y2="76.01"/><line class="cls-5" x1="47.82" y1="102.03" x2="41.22" y2="64.03"/><line class="cls-5" x1="40.22" y1="77.12" x2="41.22" y2="64.03"/><line class="cls-6" x1="485.66" y1="94.87" x2="471.06" y2="101.07"/><line class="cls-6" x1="439.63" y1="102.03" x2="485.66" y2="94.87"/><line class="cls-6" x1="469.87" y1="93.4" x2="485.66" y2="94.87"/><line class="cls-6" x1="488.6" y1="297.93" x2="530.22" y2="291.39"/><line class="cls-6" x1="530.22" y1="291.39" x2="517.03" y2="297.02"/><line class="cls-6" x1="515.94" y1="290.08" x2="530.22" y2="291.39"/><line class="cls-6" x1="439.63" y1="151.01" x2="486.06" y2="143.8"/><line class="cls-6" x1="486.06" y1="143.8" x2="471.34" y2="150.04"/><line class="cls-6" x1="470.14" y1="142.31" x2="486.06" y2="143.8"/><line class="cls-5" x1="380.79" y1="69.28" x2="382.13" y2="52.09"/><line class="cls-5" x1="382.13" y1="52.09" x2="389.09" y2="67.86"/><line class="cls-6" x1="376.49" y1="91.76" x2="394.72" y2="93.25"/><line class="cls-6" x1="394.72" y1="93.25" x2="377.94" y2="100.53"/><line class="cls-6" x1="341.67" y1="102.03" x2="394.72" y2="93.25"/><line class="cls-5" x1="390.65" y1="102.03" x2="382.13" y2="52.09"/><line class="cls-6" x1="488.6" y1="346.91" x2="530.12" y2="340.22"/><line class="cls-6" x1="515.86" y1="338.96" x2="530.12" y2="340.22"/><line class="cls-6" x1="530.12" y1="340.22" x2="516.98" y2="345.89"/><line class="cls-5" x1="488.6" y1="53.05" x2="481.59" y2="12.64"/><line class="cls-5" x1="480.53" y1="26.56" x2="481.59" y2="12.64"/><line class="cls-5" x1="481.59" y1="12.64" x2="487.27" y2="25.39"/><line class="cls-6" x1="85.62" y1="45.58" x2="73.77" y2="51.2"/><line class="cls-6" x1="47.82" y1="53.05" x2="85.62" y2="45.58"/><line class="cls-6" x1="72.52" y1="44.89" x2="85.62" y2="45.58"/><line class="cls-6" x1="439.63" y1="199.98" x2="486.34" y2="192.71"/><line class="cls-6" x1="486.34" y1="192.71" x2="471.53" y2="199"/><line class="cls-6" x1="470.32" y1="191.22" x2="486.34" y2="192.71"/><line class="cls-6" x1="488.6" y1="395.89" x2="529.91" y2="389.04"/><line class="cls-6" x1="515.71" y1="387.86" x2="529.91" y2="389.04"/><line class="cls-6" x1="529.91" y1="389.04" x2="516.85" y2="394.74"/><line class="cls-6" x1="439.63" y1="248.96" x2="486.48" y2="241.6"/><line class="cls-6" x1="486.48" y1="241.6" x2="471.63" y2="247.92"/><line class="cls-6" x1="470.41" y1="240.13" x2="486.48" y2="241.6"/><line class="cls-5" x1="185.92" y1="98.98" x2="193.15" y2="115.42"/><line class="cls-5" x1="184.52" y1="116.88" x2="185.92" y2="98.98"/><line class="cls-5" x1="194.75" y1="151.01" x2="185.92" y2="98.98"/><line class="cls-5" x1="137.53" y1="102.53" x2="144.27" y2="117.84"/><line class="cls-5" x1="145.77" y1="151.01" x2="137.53" y2="102.53"/><line class="cls-5" x1="136.22" y1="119.21" x2="137.53" y2="102.53"/><line class="cls-5" x1="243.72" y1="151.01" x2="234.57" y2="96.87"/><line class="cls-5" x1="234.57" y1="96.87" x2="242.08" y2="113.98"/><line class="cls-5" x1="233.1" y1="115.5" x2="234.57" y2="96.87"/><line class="cls-6" x1="439.63" y1="297.93" x2="486.48" y2="290.47"/><line class="cls-6" x1="470.4" y1="289.04" x2="486.48" y2="290.47"/><line class="cls-6" x1="486.48" y1="290.47" x2="471.64" y2="296.82"/><line class="cls-6" x1="488.6" y1="444.86" x2="529.6" y2="437.86"/><line class="cls-6" x1="529.6" y1="437.86" x2="516.65" y2="443.59"/><line class="cls-6" x1="515.49" y1="436.76" x2="529.6" y2="437.86"/><line class="cls-5" x1="430.6" y1="71.89" x2="431.86" y2="56.08"/><line class="cls-5" x1="431.86" y1="56.08" x2="438.24" y2="70.6"/><line class="cls-6" x1="390.65" y1="102.03" x2="440.84" y2="93.97"/><line class="cls-6" x1="423.61" y1="92.46" x2="440.84" y2="93.97"/><line class="cls-6" x1="440.84" y1="93.97" x2="424.95" y2="100.79"/><line class="cls-5" x1="439.63" y1="102.03" x2="431.86" y2="56.08"/><line class="cls-5" x1="96.79" y1="151.01" x2="89.33" y2="107.18"/><line class="cls-5" x1="89.33" y1="107.18" x2="95.44" y2="121.02"/><line class="cls-5" x1="88.15" y1="122.27" x2="89.33" y2="107.18"/><line class="cls-5" x1="283.51" y1="96.4" x2="291.07" y2="113.66"/><line class="cls-5" x1="282.02" y1="115.18" x2="283.51" y2="96.4"/><line class="cls-5" x1="292.7" y1="151.01" x2="283.51" y2="96.4"/><line class="cls-6" x1="486.34" y1="339.32" x2="471.56" y2="345.7"/><line class="cls-6" x1="470.3" y1="337.95" x2="486.34" y2="339.32"/><line class="cls-6" x1="439.63" y1="346.91" x2="486.34" y2="339.32"/><line class="cls-6" x1="488.6" y1="493.84" x2="529.19" y2="500.98"/><line class="cls-6" x1="516.39" y1="495.25" x2="529.19" y2="500.98"/><line class="cls-6" x1="529.19" y1="500.98" x2="515.2" y2="502"/><line class="cls-5" x1="40.23" y1="125.79" x2="41.26" y2="112.56"/><line class="cls-5" x1="41.26" y1="112.56" x2="46.62" y2="124.7"/><line class="cls-5" x1="47.82" y1="151.01" x2="41.26" y2="112.56"/><line class="cls-6" x1="423.93" y1="141.39" x2="441.31" y2="142.93"/><line class="cls-6" x1="390.65" y1="151.01" x2="441.31" y2="142.93"/><line class="cls-6" x1="441.31" y1="142.93" x2="425.26" y2="149.79"/><line class="cls-6" x1="470.1" y1="386.86" x2="486.07" y2="388.17"/><line class="cls-6" x1="439.63" y1="395.89" x2="486.07" y2="388.17"/><line class="cls-6" x1="486.07" y1="388.17" x2="471.38" y2="394.57"/><line class="cls-6" x1="441.63" y1="191.87" x2="425.48" y2="198.77"/><line class="cls-6" x1="424.14" y1="190.32" x2="441.63" y2="191.87"/><line class="cls-6" x1="390.65" y1="199.98" x2="441.63" y2="191.87"/><line class="cls-5" x1="488.6" y1="102.03" x2="481.75" y2="60.99"/><line class="cls-5" x1="480.6" y1="75.1" x2="481.75" y2="60.99"/><line class="cls-5" x1="481.75" y1="60.99" x2="487.42" y2="73.96"/><line class="cls-6" x1="485.66" y1="437.02" x2="471.12" y2="443.42"/><line class="cls-6" x1="469.82" y1="435.79" x2="485.66" y2="437.02"/><line class="cls-6" x1="439.63" y1="444.86" x2="485.66" y2="437.02"/><line class="cls-6" x1="441.79" y1="240.79" x2="425.59" y2="247.72"/><line class="cls-6" x1="424.24" y1="239.25" x2="441.79" y2="240.79"/><line class="cls-6" x1="390.65" y1="248.96" x2="441.79" y2="240.79"/><line class="cls-6" x1="376.84" y1="140.71" x2="395.24" y2="142.25"/><line class="cls-6" x1="341.67" y1="151.01" x2="395.24" y2="142.25"/><line class="cls-6" x1="395.24" y1="142.25" x2="378.28" y2="149.56"/><line class="cls-5" x1="390.65" y1="151.01" x2="382.26" y2="100.39"/><line class="cls-5" x1="382.26" y1="100.39" x2="389.22" y2="116.4"/><line class="cls-5" x1="380.84" y1="117.79" x2="382.26" y2="100.39"/><line class="cls-6" x1="441.78" y1="289.69" x2="425.59" y2="296.64"/><line class="cls-6" x1="390.65" y1="297.93" x2="441.78" y2="289.69"/><line class="cls-6" x1="424.22" y1="288.18" x2="441.78" y2="289.69"/><line class="cls-6" x1="439.63" y1="493.84" x2="485.14" y2="485.87"/><line class="cls-6" x1="485.14" y1="485.87" x2="470.78" y2="492.27"/><line class="cls-6" x1="469.46" y1="484.73" x2="485.14" y2="485.87"/><line class="cls-6" x1="390.65" y1="346.91" x2="441.61" y2="338.58"/><line class="cls-6" x1="441.61" y1="338.58" x2="425.48" y2="345.54"/><line class="cls-6" x1="424.1" y1="337.11" x2="441.61" y2="338.58"/><line class="cls-5" x1="136.21" y1="167.89" x2="137.54" y2="151.07"/><line class="cls-5" x1="145.77" y1="199.98" x2="137.54" y2="151.07"/><line class="cls-5" x1="137.54" y1="151.07" x2="144.3" y2="166.53"/><line class="cls-5" x1="439.63" y1="151.01" x2="432" y2="104.47"/><line class="cls-5" x1="432" y1="104.47" x2="438.37" y2="119.2"/><line class="cls-5" x1="430.67" y1="120.46" x2="432" y2="104.47"/><line class="cls-5" x1="194.75" y1="199.98" x2="185.95" y2="147.48"/><line class="cls-5" x1="184.51" y1="165.53" x2="185.95" y2="147.48"/><line class="cls-5" x1="185.95" y1="147.48" x2="193.19" y2="164.08"/><line class="cls-5" x1="88.14" y1="170.99" x2="89.33" y2="155.8"/><line class="cls-5" x1="89.33" y1="155.8" x2="95.45" y2="169.76"/><line class="cls-5" x1="96.79" y1="199.98" x2="89.33" y2="155.8"/><line class="cls-5" x1="243.72" y1="199.98" x2="234.62" y2="145.34"/><line class="cls-5" x1="234.62" y1="145.34" x2="242.14" y2="162.62"/><line class="cls-5" x1="233.11" y1="164.12" x2="234.62" y2="145.34"/><line class="cls-5" x1="41.26" y1="161.24" x2="46.63" y2="173.48"/><line class="cls-5" x1="47.82" y1="199.98" x2="41.26" y2="161.24"/><line class="cls-5" x1="40.21" y1="174.57" x2="41.26" y2="161.24"/><line class="cls-6" x1="423.87" y1="386.05" x2="441.27" y2="387.46"/><line class="cls-6" x1="441.27" y1="387.46" x2="425.26" y2="394.43"/><line class="cls-6" x1="390.65" y1="395.89" x2="441.27" y2="387.46"/><line class="cls-5" x1="292.7" y1="199.98" x2="283.59" y2="144.86"/><line class="cls-5" x1="282.04" y1="163.81" x2="283.59" y2="144.86"/><line class="cls-5" x1="283.59" y1="144.86" x2="291.15" y2="162.3"/><line class="cls-5" x1="480.68" y1="123.74" x2="481.9" y2="109.49"/><line class="cls-5" x1="488.6" y1="151.01" x2="481.9" y2="109.49"/><line class="cls-5" x1="481.9" y1="109.49" x2="487.55" y2="122.64"/><line class="cls-6" x1="423.53" y1="435.01" x2="440.78" y2="436.34"/><line class="cls-6" x1="440.78" y1="436.34" x2="424.94" y2="443.29"/><line class="cls-6" x1="390.65" y1="444.86" x2="440.78" y2="436.34"/><line class="cls-6" x1="395.58" y1="191.22" x2="378.51" y2="198.57"/><line class="cls-6" x1="377.07" y1="189.66" x2="395.58" y2="191.22"/><line class="cls-6" x1="341.67" y1="199.98" x2="395.58" y2="191.22"/><line class="cls-6" x1="395.74" y1="240.18" x2="378.62" y2="247.54"/><line class="cls-6" x1="377.17" y1="238.61" x2="395.74" y2="240.18"/><line class="cls-6" x1="341.67" y1="248.96" x2="395.74" y2="240.18"/><line class="cls-6" x1="423.1" y1="483.98" x2="440.15" y2="485.22"/><line class="cls-6" x1="440.15" y1="485.22" x2="424.53" y2="492.16"/><line class="cls-6" x1="390.65" y1="493.84" x2="440.15" y2="485.22"/><line class="cls-5" x1="390.65" y1="199.98" x2="382.39" y2="148.92"/><line class="cls-5" x1="382.39" y1="148.92" x2="389.33" y2="165.09"/><line class="cls-5" x1="380.9" y1="166.45" x2="382.39" y2="148.92"/><line class="cls-6" x1="395.72" y1="289.12" x2="378.61" y2="296.49"/><line class="cls-6" x1="341.67" y1="297.93" x2="395.72" y2="289.12"/><line class="cls-6" x1="377.16" y1="287.57" x2="395.72" y2="289.12"/><line class="cls-5" x1="432.14" y1="153.06" x2="438.49" y2="167.93"/><line class="cls-5" x1="430.74" y1="169.16" x2="432.14" y2="153.06"/><line class="cls-5" x1="439.63" y1="199.98" x2="432.14" y2="153.06"/><line class="cls-6" x1="341.67" y1="346.91" x2="395.52" y2="338.05"/><line class="cls-6" x1="395.52" y1="338.05" x2="378.48" y2="345.42"/><line class="cls-6" x1="377.02" y1="336.53" x2="395.52" y2="338.05"/><line class="cls-5" x1="40.17" y1="223.46" x2="41.19" y2="210.08"/><line class="cls-5" x1="41.19" y1="210.08" x2="46.59" y2="222.37"/><line class="cls-5" x1="47.82" y1="248.96" x2="41.19" y2="210.08"/><line class="cls-5" x1="88.09" y1="219.86" x2="89.27" y2="204.6"/><line class="cls-5" x1="96.79" y1="248.96" x2="89.27" y2="204.6"/><line class="cls-5" x1="89.27" y1="204.6" x2="95.42" y2="218.62"/><line class="cls-5" x1="145.77" y1="248.96" x2="137.5" y2="199.85"/><line class="cls-5" x1="137.5" y1="199.85" x2="144.28" y2="215.37"/><line class="cls-5" x1="136.17" y1="216.74" x2="137.5" y2="199.85"/><line class="cls-5" x1="480.76" y1="172.5" x2="482.05" y2="158.15"/><line class="cls-5" x1="482.05" y1="158.15" x2="487.67" y2="171.42"/><line class="cls-5" x1="488.6" y1="199.98" x2="482.05" y2="158.15"/><line class="cls-5" x1="184.49" y1="214.36" x2="185.94" y2="196.23"/><line class="cls-5" x1="185.94" y1="196.23" x2="193.19" y2="212.9"/><line class="cls-5" x1="194.75" y1="248.96" x2="185.94" y2="196.23"/><line class="cls-6" x1="395.13" y1="386.97" x2="378.23" y2="394.32"/><line class="cls-6" x1="376.76" y1="385.5" x2="395.13" y2="386.97"/><line class="cls-6" x1="341.67" y1="395.89" x2="395.13" y2="386.97"/><line class="cls-5" x1="243.72" y1="248.96" x2="234.64" y2="194.08"/><line class="cls-5" x1="234.64" y1="194.08" x2="242.16" y2="211.44"/><line class="cls-5" x1="233.11" y1="212.94" x2="234.64" y2="194.08"/><line class="cls-6" x1="278.58" y1="42.31" x2="296.92" y2="43.56"/><line class="cls-6" x1="296.92" y1="43.56" x2="280.15" y2="51.09"/><line class="cls-6" x1="243.72" y1="53.05" x2="296.92" y2="43.56"/><line class="cls-6" x1="341.67" y1="444.86" x2="394.58" y2="435.88"/><line class="cls-6" x1="376.38" y1="434.48" x2="394.58" y2="435.88"/><line class="cls-6" x1="394.58" y1="435.88" x2="377.86" y2="443.21"/><line class="cls-5" x1="282.06" y1="212.62" x2="283.64" y2="193.6"/><line class="cls-5" x1="283.64" y1="193.6" x2="291.19" y2="211.12"/><line class="cls-5" x1="292.7" y1="248.96" x2="283.64" y2="193.6"/><line class="cls-6" x1="375.9" y1="483.48" x2="393.87" y2="484.8"/><line class="cls-6" x1="393.87" y1="484.8" x2="377.39" y2="492.09"/><line class="cls-6" x1="341.67" y1="493.84" x2="393.87" y2="484.8"/><line class="cls-5" x1="332.93" y1="194.84" x2="340.28" y2="211.98"/><line class="cls-5" x1="480.84" y1="221.37" x2="482.18" y2="206.99"/><line class="cls-5" x1="482.18" y1="206.99" x2="487.77" y2="220.31"/><line class="cls-5" x1="488.6" y1="248.96" x2="482.18" y2="206.99"/><line class="cls-5" x1="439.63" y1="248.96" x2="432.27" y2="201.86"/><line class="cls-5" x1="430.81" y1="218.01" x2="432.27" y2="201.86"/><line class="cls-5" x1="432.27" y1="201.86" x2="438.58" y2="216.8"/><line class="cls-5" x1="382.49" y1="197.69" x2="389.41" y2="213.93"/><line class="cls-5" x1="390.65" y1="248.96" x2="382.49" y2="197.69"/><line class="cls-5" x1="380.95" y1="215.28" x2="382.49" y2="197.69"/><line class="cls-5" x1="47.82" y1="297.93" x2="41.08" y2="259.09"/><line class="cls-5" x1="40.1" y1="272.46" x2="41.08" y2="259.09"/><line class="cls-5" x1="41.08" y1="259.09" x2="46.5" y2="271.35"/><line class="cls-6" x1="348.02" y1="288.82" x2="330.52" y2="296.39"/><line class="cls-6" x1="292.7" y1="297.93" x2="348.02" y2="288.82"/><line class="cls-6" x1="329.01" y1="287.26" x2="348.02" y2="288.82"/><line class="cls-5" x1="145.77" y1="297.93" x2="137.41" y2="248.86"/><line class="cls-5" x1="194.75" y1="297.93" x2="185.88" y2="245.24"/><line class="cls-6" x1="145.77" y1="297.93" x2="194.63" y2="289.59"/><line class="cls-5" x1="47.82" y1="493.84" x2="40.21" y2="456.68"/><line class="cls-5" x1="47.82" y1="444.86" x2="40.46" y2="407.06"/><line class="cls-5" x1="47.82" y1="395.89" x2="40.7" y2="357.59"/><line class="cls-5" x1="47.82" y1="346.91" x2="40.91" y2="308.26"/><line class="cls-6" x1="47.82" y1="444.86" x2="85.43" y2="438.41"/><line class="cls-6" x1="47.82" y1="395.89" x2="85.78" y2="389.36"/><line class="cls-6" x1="47.82" y1="346.91" x2="86.04" y2="340.29"/><line class="cls-6" x1="47.82" y1="297.93" x2="86.21" y2="291.21"/><line class="cls-6" x1="47.82" y1="248.96" x2="86.28" y2="242.1"/><line class="cls-6" x1="47.82" y1="199.98" x2="86.25" y2="192.98"/><line class="cls-5" x1="96.79" y1="493.84" x2="88.36" y2="451.59"/><line class="cls-5" x1="96.79" y1="444.86" x2="88.6" y2="401.83"/><line class="cls-5" x1="96.79" y1="395.89" x2="88.82" y2="352.23"/><line class="cls-5" x1="96.79" y1="346.91" x2="89.01" y2="302.83"/><line class="cls-5" x1="96.79" y1="297.93" x2="89.17" y2="253.61"/><line class="cls-6" x1="47.82" y1="151.01" x2="86.13" y2="143.85"/><line class="cls-6" x1="47.82" y1="102.03" x2="85.92" y2="94.71"/><line class="cls-6" x1="96.79" y1="493.84" x2="139.28" y2="486.54"/><line class="cls-6" x1="96.79" y1="444.86" x2="139.82" y2="437.51"/><line class="cls-6" x1="96.79" y1="395.89" x2="140.26" y2="388.47"/><line class="cls-5" x1="145.77" y1="493.84" x2="136.71" y2="447.19"/><line class="cls-5" x1="145.77" y1="444.86" x2="136.92" y2="397.29"/><line class="cls-5" x1="145.77" y1="395.89" x2="137.12" y2="347.59"/><line class="cls-5" x1="145.77" y1="346.91" x2="137.28" y2="298.11"/><line class="cls-6" x1="96.79" y1="346.91" x2="140.58" y2="339.41"/><line class="cls-6" x1="96.79" y1="297.93" x2="140.77" y2="290.33"/><line class="cls-6" x1="96.79" y1="248.96" x2="140.84" y2="241.23"/><line class="cls-6" x1="96.79" y1="199.98" x2="140.79" y2="192.11"/><line class="cls-6" x1="96.79" y1="151.01" x2="140.61" y2="142.99"/><line class="cls-5" x1="194.75" y1="493.84" x2="185.33" y2="443.83"/><line class="cls-5" x1="194.75" y1="444.86" x2="185.5" y2="393.83"/><line class="cls-5" x1="194.75" y1="395.89" x2="185.66" y2="344.06"/><line class="cls-5" x1="194.75" y1="346.91" x2="185.78" y2="294.52"/><line class="cls-6" x1="96.79" y1="102.03" x2="140.3" y2="93.86"/><line class="cls-6" x1="96.79" y1="53.05" x2="139.89" y2="44.73"/><line class="cls-6" x1="145.77" y1="493.84" x2="192.88" y2="485.75"/><line class="cls-6" x1="145.77" y1="444.86" x2="193.53" y2="436.73"/><line class="cls-6" x1="145.77" y1="395.89" x2="194.04" y2="387.7"/><line class="cls-5" x1="243.72" y1="493.84" x2="234.25" y2="441.84"/><line class="cls-5" x1="243.72" y1="297.93" x2="234.62" y2="243.09"/><line class="cls-6" x1="247.34" y1="289.06" x2="230.71" y2="296.34"/><line class="cls-5" x1="243.72" y1="346.91" x2="234.56" y2="292.39"/><line class="cls-6" x1="247.1" y1="338.1" x2="230.55" y2="345.34"/><line class="cls-5" x1="243.72" y1="395.89" x2="234.48" y2="341.95"/><line class="cls-6" x1="246.7" y1="387.13" x2="230.28" y2="394.32"/><line class="cls-5" x1="243.72" y1="444.86" x2="234.37" y2="391.78"/><line class="cls-6" x1="145.77" y1="346.91" x2="194.41" y2="338.66"/><line class="cls-6" x1="145.77" y1="248.96" x2="194.69" y2="240.51"/><line class="cls-6" x1="145.77" y1="199.98" x2="194.6" y2="191.41"/><line class="cls-6" x1="145.77" y1="151.01" x2="194.36" y2="142.3"/><line class="cls-6" x1="145.77" y1="102.03" x2="193.97" y2="93.19"/><line class="cls-6" x1="298.59" y1="239.77" x2="281.24" y2="247.33"/><line class="cls-5" x1="292.7" y1="297.93" x2="283.65" y2="242.62"/><line class="cls-6" x1="298.54" y1="288.8" x2="281.2" y2="296.34"/><line class="cls-5" x1="292.7" y1="346.91" x2="283.64" y2="291.91"/><line class="cls-6" x1="298.3" y1="337.8" x2="281.04" y2="345.32"/><line class="cls-5" x1="292.7" y1="395.89" x2="283.61" y2="341.48"/><line class="cls-6" x1="297.88" y1="386.8" x2="280.76" y2="394.27"/><line class="cls-5" x1="292.7" y1="444.86" x2="283.55" y2="391.31"/><line class="cls-6" x1="297.29" y1="435.78" x2="280.36" y2="443.2"/><line class="cls-5" x1="292.7" y1="493.84" x2="283.47" y2="441.38"/><line class="cls-6" x1="145.77" y1="53.05" x2="193.45" y2="44.08"/><line class="cls-6" x1="194.75" y1="493.84" x2="245.41" y2="485.14"/><line class="cls-6" x1="194.75" y1="444.86" x2="246.13" y2="436.14"/><line class="cls-6" x1="194.75" y1="395.89" x2="246.7" y2="387.13"/><line class="cls-6" x1="194.75" y1="346.91" x2="247.1" y2="338.1"/><line class="cls-6" x1="292.7" y1="493.84" x2="346.03" y2="484.64"/><line class="cls-6" x1="346.03" y1="484.64" x2="329.19" y2="492.08"/><line class="cls-6" x1="327.67" y1="483.28" x2="346.03" y2="484.64"/><line class="cls-5" x1="341.67" y1="493.84" x2="332.98" y2="442.5"/><line class="cls-6" x1="292.7" y1="444.86" x2="346.79" y2="435.69"/><line class="cls-6" x1="347.38" y1="386.74" x2="330.09" y2="394.27"/><line class="cls-6" x1="346.79" y1="435.69" x2="329.7" y2="443.18"/><line class="cls-6" x1="328.18" y1="434.26" x2="346.79" y2="435.69"/><line class="cls-5" x1="341.67" y1="444.86" x2="333.01" y2="392.48"/><line class="cls-6" x1="292.7" y1="395.89" x2="347.38" y2="386.74"/><line class="cls-6" x1="347.79" y1="337.79" x2="330.36" y2="345.34"/><line class="cls-6" x1="328.58" y1="385.25" x2="347.38" y2="386.74"/><line class="cls-5" x1="341.67" y1="395.89" x2="333.02" y2="342.69"/><line class="cls-6" x1="292.7" y1="346.91" x2="347.79" y2="337.79"/><line class="cls-6" x1="328.86" y1="336.25" x2="347.79" y2="337.79"/><line class="cls-5" x1="341.67" y1="346.91" x2="333.01" y2="293.14"/><line class="cls-5" x1="341.67" y1="297.93" x2="332.98" y2="243.86"/><line class="cls-6" x1="194.75" y1="297.93" x2="247.34" y2="289.06"/><line class="cls-6" x1="194.75" y1="248.96" x2="247.39" y2="240.01"/><line class="cls-6" x1="194.75" y1="199.98" x2="247.27" y2="190.93"/><line class="cls-6" x1="194.75" y1="151.01" x2="246.98" y2="141.85"/><line class="cls-6" x1="194.75" y1="102.03" x2="246.52" y2="92.76"/><line class="cls-5" x1="390.65" y1="493.84" x2="382.71" y2="445.11"/><line class="cls-5" x1="390.65" y1="444.86" x2="382.71" y2="395.18"/><line class="cls-5" x1="390.65" y1="395.89" x2="382.68" y2="345.45"/><line class="cls-5" x1="390.65" y1="346.91" x2="382.64" y2="295.96"/><line class="cls-5" x1="390.65" y1="297.93" x2="382.58" y2="246.7"/><line class="cls-6" x1="194.75" y1="53.05" x2="245.9" y2="43.67"/><line class="cls-6" x1="243.72" y1="493.84" x2="296.53" y2="484.76"/><line class="cls-6" x1="243.72" y1="444.86" x2="297.29" y2="435.78"/><line class="cls-6" x1="243.72" y1="395.89" x2="297.88" y2="386.8"/><line class="cls-6" x1="243.72" y1="346.91" x2="298.3" y2="337.8"/><line class="cls-5" x1="439.63" y1="493.84" x2="432.61" y2="448.94"/><line class="cls-5" x1="439.63" y1="444.86" x2="432.58" y2="399.14"/><line class="cls-5" x1="439.63" y1="395.89" x2="432.53" y2="349.52"/><line class="cls-5" x1="439.63" y1="346.91" x2="432.46" y2="300.09"/><line class="cls-5" x1="439.63" y1="297.93" x2="432.37" y2="250.87"/><line class="cls-6" x1="243.72" y1="297.93" x2="298.54" y2="288.8"/><line class="cls-6" x1="243.72" y1="248.96" x2="298.59" y2="239.77"/><line class="cls-6" x1="243.72" y1="199.98" x2="298.44" y2="190.73"/><line class="cls-6" x1="243.72" y1="151.01" x2="298.11" y2="141.68"/><line class="cls-6" x1="243.72" y1="102.03" x2="297.6" y2="92.62"/><line class="cls-5" x1="488.6" y1="493.84" x2="494.6" y2="453.68"/><line class="cls-5" x1="488.6" y1="444.86" x2="482.56" y2="404.02"/><line class="cls-5" x1="488.6" y1="395.89" x2="482.49" y2="354.52"/><line class="cls-5" x1="488.6" y1="346.91" x2="482.41" y2="305.17"/><line class="cls-5" x1="488.6" y1="297.93" x2="482.3" y2="255.99"/><line class="cls-5" x1="89.17" y1="253.61" x2="95.34" y2="267.61"/><line class="cls-5" x1="88.03" y1="268.87" x2="89.17" y2="253.61"/><line class="cls-5" x1="136.12" y1="265.75" x2="137.41" y2="248.86"/><line class="cls-5" x1="137.41" y1="248.86" x2="144.22" y2="264.37"/><line class="cls-5" x1="185.88" y1="245.24" x2="193.15" y2="261.9"/><line class="cls-5" x1="184.46" y1="263.36" x2="185.88" y2="245.24"/><line class="cls-5" x1="234.62" y1="243.09" x2="242.15" y2="260.44"/><line class="cls-5" x1="233.1" y1="261.94" x2="234.62" y2="243.09"/><line class="cls-6" x1="297.6" y1="92.62" x2="280.6" y2="100.17"/><line class="cls-6" x1="279.04" y1="91.28" x2="297.6" y2="92.62"/><line class="cls-6" x1="298.11" y1="141.68" x2="280.93" y2="149.25"/><line class="cls-6" x1="279.39" y1="140.27" x2="298.11" y2="141.68"/><line class="cls-5" x1="283.65" y1="242.62" x2="291.2" y2="260.12"/><line class="cls-5" x1="282.07" y1="261.62" x2="283.65" y2="242.62"/><line class="cls-6" x1="298.44" y1="190.73" x2="281.15" y2="198.3"/><line class="cls-6" x1="279.62" y1="189.27" x2="298.44" y2="190.73"/><line class="cls-5" x1="40" y1="321.58" x2="40.91" y2="308.26"/><line class="cls-5" x1="40.91" y1="308.26" x2="46.38" y2="320.44"/><line class="cls-5" x1="332.98" y1="243.86" x2="340.32" y2="260.99"/><line class="cls-5" x1="331.39" y1="262.42" x2="332.98" y2="243.86"/><line class="cls-6" x1="279.72" y1="238.28" x2="298.59" y2="239.77"/><line class="cls-5" x1="382.58" y1="246.7" x2="389.47" y2="262.94"/><line class="cls-5" x1="381.01" y1="264.28" x2="382.58" y2="246.7"/><line class="cls-5" x1="87.94" y1="318.02" x2="89.01" y2="302.83"/><line class="cls-5" x1="89.01" y1="302.83" x2="95.22" y2="316.73"/><line class="cls-5" x1="432.37" y1="250.87" x2="438.65" y2="265.8"/><line class="cls-5" x1="430.88" y1="267" x2="432.37" y2="250.87"/><line class="cls-5" x1="482.3" y1="255.99" x2="487.85" y2="269.31"/><line class="cls-5" x1="480.92" y1="270.35" x2="482.3" y2="255.99"/><line class="cls-6" x1="279.7" y1="287.29" x2="298.54" y2="288.8"/><line class="cls-5" x1="136.05" y1="314.92" x2="137.28" y2="298.11"/><line class="cls-5" x1="137.28" y1="298.11" x2="144.11" y2="313.51"/><line class="cls-6" x1="279.54" y1="336.3" x2="298.3" y2="337.8"/><line class="cls-6" x1="245.9" y1="43.67" x2="229.79" y2="51"/><line class="cls-6" x1="228.24" y1="42.54" x2="245.9" y2="43.67"/><line class="cls-6" x1="279.26" y1="385.32" x2="297.88" y2="386.8"/><line class="cls-5" x1="184.41" y1="312.55" x2="185.78" y2="294.52"/><line class="cls-5" x1="185.78" y1="294.52" x2="193.07" y2="311.07"/><line class="cls-6" x1="246.52" y1="92.76" x2="230.2" y2="100.1"/><line class="cls-6" x1="228.67" y1="91.54" x2="246.52" y2="92.76"/><line class="cls-5" x1="39.88" y1="370.81" x2="40.7" y2="357.59"/><line class="cls-5" x1="40.7" y1="357.59" x2="46.22" y2="369.64"/><line class="cls-6" x1="228.99" y1="140.56" x2="246.98" y2="141.85"/><line class="cls-6" x1="246.98" y1="141.85" x2="230.5" y2="149.19"/><line class="cls-6" x1="278.86" y1="434.35" x2="297.29" y2="435.78"/><line class="cls-5" x1="233.08" y1="311.14" x2="234.56" y2="292.39"/><line class="cls-5" x1="234.56" y1="292.39" x2="242.09" y2="309.62"/><line class="cls-6" x1="247.27" y1="190.93" x2="230.69" y2="198.26"/><line class="cls-6" x1="229.19" y1="189.58" x2="247.27" y2="190.93"/><line class="cls-6" x1="296.53" y1="484.76" x2="279.85" y2="492.12"/><line class="cls-6" x1="278.35" y1="483.39" x2="296.53" y2="484.76"/><line class="cls-5" x1="481" y1="319.46" x2="482.41" y2="305.17"/><line class="cls-5" x1="482.41" y1="305.17" x2="487.91" y2="318.43"/><line class="cls-5" x1="282.08" y1="310.81" x2="283.64" y2="291.91"/><line class="cls-5" x1="283.64" y1="291.91" x2="291.18" y2="309.31"/><line class="cls-5" x1="88.82" y1="352.23" x2="95.06" y2="365.98"/><line class="cls-5" x1="87.84" y1="367.3" x2="88.82" y2="352.23"/><line class="cls-6" x1="229.28" y1="238.61" x2="247.39" y2="240.01"/><line class="cls-6" x1="247.39" y1="240.01" x2="230.76" y2="247.31"/><line class="cls-5" x1="432.46" y1="300.09" x2="438.7" y2="314.95"/><line class="cls-5" x1="430.95" y1="316.13" x2="432.46" y2="300.09"/><line class="cls-5" x1="331.43" y1="311.6" x2="333.01" y2="293.14"/><line class="cls-5" x1="333.01" y1="293.14" x2="340.32" y2="310.17"/><line class="cls-5" x1="382.64" y1="295.96" x2="389.5" y2="312.11"/><line class="cls-5" x1="381.07" y1="313.44" x2="382.64" y2="295.96"/><line class="cls-6" x1="229.25" y1="287.64" x2="247.34" y2="289.06"/><line class="cls-6" x1="193.45" y1="44.08" x2="178.46" y2="50.99"/><line class="cls-6" x1="176.97" y1="43.09" x2="193.45" y2="44.08"/><line class="cls-5" x1="135.97" y1="364.24" x2="137.12" y2="347.59"/><line class="cls-5" x1="137.12" y1="347.59" x2="143.97" y2="362.81"/><line class="cls-6" x1="229.1" y1="336.68" x2="247.1" y2="338.1"/><line class="cls-6" x1="177.33" y1="92.11" x2="193.97" y2="93.19"/><line class="cls-6" x1="193.97" y1="93.19" x2="178.8" y2="100.1"/><line class="cls-5" x1="40.46" y1="407.06" x2="46.03" y2="418.93"/><line class="cls-5" x1="39.75" y1="420.15" x2="40.46" y2="407.06"/><line class="cls-6" x1="228.83" y1="385.72" x2="246.7" y2="387.13"/><line class="cls-6" x1="194.36" y1="142.3" x2="179.05" y2="149.2"/><line class="cls-6" x1="177.61" y1="141.15" x2="194.36" y2="142.3"/><line class="cls-5" x1="184.36" y1="361.91" x2="185.66" y2="344.06"/><line class="cls-5" x1="185.66" y1="344.06" x2="192.95" y2="360.41"/><line class="cls-6" x1="177.78" y1="190.19" x2="194.6" y2="191.41"/><line class="cls-6" x1="194.6" y1="191.41" x2="179.2" y2="198.29"/><line class="cls-6" x1="246.13" y1="436.14" x2="229.9" y2="443.28"/><line class="cls-6" x1="228.45" y1="434.76" x2="246.13" y2="436.14"/><line class="cls-5" x1="481.07" y1="368.68" x2="482.49" y2="354.52"/><line class="cls-5" x1="482.49" y1="354.52" x2="487.95" y2="367.66"/><line class="cls-6" x1="177.85" y1="239.24" x2="194.69" y2="240.51"/><line class="cls-6" x1="194.69" y1="240.51" x2="179.25" y2="247.35"/><line class="cls-6" x1="245.41" y1="485.14" x2="229.41" y2="492.21"/><line class="cls-6" x1="227.97" y1="483.81" x2="245.41" y2="485.14"/><line class="cls-5" x1="88.6" y1="401.83" x2="94.88" y2="415.35"/><line class="cls-5" x1="87.73" y1="416.71" x2="88.6" y2="401.83"/><line class="cls-5" x1="233.06" y1="360.52" x2="234.48" y2="341.95"/><line class="cls-5" x1="234.48" y1="341.95" x2="242" y2="358.99"/><line class="cls-6" x1="124.97" y1="43.9" x2="139.89" y2="44.73"/><line class="cls-6" x1="139.89" y1="44.73" x2="126.36" y2="51.06"/><line class="cls-5" x1="432.53" y1="349.52" x2="438.72" y2="364.23"/><line class="cls-5" x1="431.02" y1="365.41" x2="432.53" y2="349.52"/><line class="cls-6" x1="177.81" y1="288.29" x2="194.63" y2="289.59"/><line class="cls-6" x1="194.63" y1="289.59" x2="179.2" y2="296.4"/><line class="cls-6" x1="125.27" y1="92.94" x2="140.3" y2="93.86"/><line class="cls-6" x1="140.3" y1="93.86" x2="126.63" y2="100.17"/><line class="cls-5" x1="283.61" y1="341.48" x2="291.12" y2="358.68"/><line class="cls-5" x1="282.09" y1="360.19" x2="283.61" y2="341.48"/><line class="cls-5" x1="382.68" y1="345.45" x2="389.5" y2="361.44"/><line class="cls-5" x1="381.13" y1="362.76" x2="382.68" y2="345.45"/><line class="cls-5" x1="333.02" y1="342.69" x2="340.29" y2="359.53"/><line class="cls-5" x1="331.46" y1="360.96" x2="333.02" y2="342.69"/><line class="cls-6" x1="125.48" y1="141.99" x2="140.61" y2="142.99"/><line class="cls-6" x1="140.61" y1="142.99" x2="126.82" y2="149.28"/><line class="cls-5" x1="39.62" y1="469.58" x2="40.21" y2="456.68"/><line class="cls-5" x1="40.21" y1="456.68" x2="45.82" y2="468.31"/><line class="cls-6" x1="194.41" y1="338.66" x2="179.04" y2="345.42"/><line class="cls-6" x1="177.67" y1="337.34" x2="194.41" y2="338.66"/><line class="cls-5" x1="135.89" y1="413.72" x2="136.92" y2="397.29"/><line class="cls-5" x1="136.92" y1="397.29" x2="143.8" y2="412.25"/><line class="cls-6" x1="125.61" y1="191.05" x2="140.79" y2="192.11"/><line class="cls-6" x1="140.79" y1="192.11" x2="126.93" y2="198.37"/><line class="cls-6" x1="177.43" y1="386.39" x2="194.04" y2="387.7"/><line class="cls-6" x1="194.04" y1="387.7" x2="178.79" y2="394.42"/><line class="cls-6" x1="85.92" y1="94.71" x2="73.96" y2="100.31"/><line class="cls-6" x1="72.73" y1="93.94" x2="85.92" y2="94.71"/><line class="cls-6" x1="125.66" y1="240.11" x2="140.84" y2="241.23"/><line class="cls-6" x1="140.84" y1="241.23" x2="126.95" y2="247.45"/><line class="cls-6" x1="177.09" y1="435.44" x2="193.53" y2="436.73"/><line class="cls-6" x1="193.53" y1="436.73" x2="178.44" y2="443.39"/><line class="cls-6" x1="86.13" y1="143.85" x2="74.09" y2="149.41"/><line class="cls-6" x1="72.89" y1="143" x2="86.13" y2="143.85"/><line class="cls-5" x1="482.56" y1="404.02" x2="487.96" y2="417"/><line class="cls-5" x1="481.14" y1="418.01" x2="482.56" y2="404.02"/><line class="cls-6" x1="125.63" y1="289.17" x2="140.77" y2="290.33"/><line class="cls-6" x1="140.77" y1="290.33" x2="126.9" y2="296.5"/><line class="cls-6" x1="176.66" y1="484.5" x2="192.88" y2="485.75"/><line class="cls-6" x1="192.88" y1="485.75" x2="178.01" y2="492.34"/><line class="cls-6" x1="86.25" y1="192.98" x2="74.16" y2="198.51"/><line class="cls-6" x1="72.98" y1="192.07" x2="86.25" y2="192.98"/><line class="cls-5" x1="184.31" y1="411.44" x2="185.5" y2="393.83"/><line class="cls-5" x1="185.5" y1="393.83" x2="192.8" y2="409.9"/><line class="cls-5" x1="88.36" y1="451.59" x2="94.67" y2="464.83"/><line class="cls-5" x1="87.61" y1="466.24" x2="88.36" y2="451.59"/><line class="cls-6" x1="125.5" y1="338.23" x2="140.58" y2="339.41"/><line class="cls-6" x1="140.58" y1="339.41" x2="126.76" y2="345.54"/><line class="cls-6" x1="86.28" y1="242.1" x2="74.16" y2="247.59"/><line class="cls-6" x1="73.01" y1="241.14" x2="86.28" y2="242.1"/><line class="cls-6" x1="125.3" y1="387.28" x2="140.26" y2="388.47"/><line class="cls-6" x1="140.26" y1="388.47" x2="126.54" y2="394.55"/><line class="cls-5" x1="432.58" y1="399.14" x2="438.72" y2="413.64"/><line class="cls-5" x1="431.09" y1="414.82" x2="432.58" y2="399.14"/><line class="cls-6" x1="86.21" y1="291.21" x2="74.1" y2="296.65"/><line class="cls-6" x1="72.97" y1="290.21" x2="86.21" y2="291.21"/><line class="cls-5" x1="233.04" y1="410.07" x2="234.37" y2="391.78"/><line class="cls-5" x1="234.37" y1="391.78" x2="241.88" y2="408.52"/><line class="cls-6" x1="125.01" y1="436.34" x2="139.82" y2="437.51"/><line class="cls-6" x1="139.82" y1="437.51" x2="126.24" y2="443.54"/><line class="cls-6" x1="72.87" y1="339.27" x2="86.04" y2="340.29"/><line class="cls-6" x1="86.04" y1="340.29" x2="73.98" y2="345.69"/><line class="cls-5" x1="381.18" y1="412.24" x2="382.71" y2="395.18"/><line class="cls-5" x1="382.71" y1="395.18" x2="389.47" y2="410.91"/><line class="cls-6" x1="124.65" y1="485.39" x2="139.28" y2="486.54"/><line class="cls-6" x1="139.28" y1="486.54" x2="125.87" y2="492.51"/><line class="cls-6" x1="72.7" y1="388.32" x2="85.78" y2="389.36"/><line class="cls-6" x1="85.78" y1="389.36" x2="73.8" y2="394.71"/><line class="cls-5" x1="283.55" y1="391.31" x2="291.03" y2="408.22"/><line class="cls-5" x1="282.1" y1="409.75" x2="283.55" y2="391.31"/><line class="cls-5" x1="331.5" y1="410.49" x2="333.01" y2="392.48"/><line class="cls-5" x1="333.01" y1="392.48" x2="340.24" y2="409.05"/><line class="cls-5" x1="135.8" y1="463.34" x2="136.71" y2="447.19"/><line class="cls-5" x1="136.71" y1="447.19" x2="143.6" y2="461.82"/><line class="cls-6" x1="85.43" y1="438.41" x2="73.56" y2="443.71"/><line class="cls-6" x1="72.48" y1="437.37" x2="85.43" y2="438.41"/><line class="cls-5" x1="494.6" y1="453.68" x2="496" y2="467.44"/><line class="cls-5" x1="489.25" y1="466.43" x2="494.6" y2="453.68"/><line class="cls-5" x1="185.33" y1="443.83" x2="192.62" y2="459.55"/><line class="cls-5" x1="184.25" y1="461.12" x2="185.33" y2="443.83"/><line class="cls-5" x1="432.61" y1="448.94" x2="438.7" y2="463.17"/><line class="cls-5" x1="431.16" y1="464.35" x2="432.61" y2="448.94"/><line class="cls-5" x1="233.02" y1="459.79" x2="234.25" y2="441.84"/><line class="cls-5" x1="234.25" y1="441.84" x2="241.73" y2="458.2"/><line class="cls-5" x1="381.24" y1="461.85" x2="382.71" y2="445.11"/><line class="cls-5" x1="382.71" y1="445.11" x2="389.43" y2="460.52"/><line class="cls-5" x1="283.47" y1="441.38" x2="290.92" y2="457.92"/><line class="cls-5" x1="282.12" y1="459.46" x2="283.47" y2="441.38"/><line class="cls-5" x1="332.98" y1="442.5" x2="340.15" y2="458.71"/><line class="cls-5" x1="331.54" y1="460.17" x2="332.98" y2="442.5"/></svg>