<svg id="Livello_1" data-name="Livello 1" xmlns="http://www.w3.org/2000/svg" viewBox="0 0 314.95 194"><defs><style>.cls-1,.cls-2,.cls-6,.cls-7{fill:none;stroke-linejoin:round;stroke-width:0.5px;}.cls-1,.cls-2{stroke:#262626;}.cls-1{opacity:0.15;}.cls-2{stroke-linecap:square;}.cls-3{font-size:9.51px;}.cls-3,.cls-4,.cls-5{fill:#262626;font-family:ArialMT, Arial;}.cls-4{font-size:10.46px;}.cls-5{font-size:10.46px;}.cls-6{stroke:#0072bd;}.cls-7{stroke:#d95319;}</style></defs><line class="cls-1" x1="47.4" y1="163.93" x2="47.4" y2="0.25"/><line class="cls-1" x1="77.31" y1="163.93" x2="77.31" y2="0.25"/><line class="cls-1" x1="107.23" y1="163.93" x2="107.23" y2="0.25"/><line class="cls-1" x1="137.14" y1="163.93" x2="137.14" y2="0.25"/><line class="cls-1" x1="167.06" y1="163.93" x2="167.06" y2="0.25"/><line class="cls-1" x1="196.97" y1="163.93" x2="196.97" y2="0.25"/><line class="cls-1" x1="226.89" y1="163.93" x2="226.89" y2="0.25"/><line class="cls-1" x1="256.8" y1="163.93" x2="256.8" y2="0.25"/><line class="cls-1" x1="286.72" y1="163.93" x2="286.72" y2="0.25"/><line class="cls-1" x1="314.7" y1="163.25" x2="39.64" y2="163.25"/><line class="cls-1" x1="314.7" y1="133.32" x2="39.64" y2="133.32"/><line class="cls-1" x1="314.7" y1="103.39" x2="39.64" y2="103.39"/><line class="cls-1" x1="314.7" y1="73.46" x2="39.64" y2="73.46"/><line class="cls-1" x1="314.7" y1="43.52" x2="39.64" y2="43.52"/><line class="cls-1" x1="314.7" y1="13.59" x2="39.64" y2="13.59"/><line class="cls-2" x1="39.64" y1="163.93" x2="314.7" y2="163.93"/><line class="cls-2" x1="47.4" y1="163.93" x2="47.4" y2="161.17"/><line class="cls-2" x1="77.31" y1="163.93" x2="77.31" y2="161.17"/><line class="cls-2" x1="107.23" y1="163.93" x2="107.23" y2="161.17"/><line class="cls-2" x1="137.14" y1="163.93" x2="137.14" y2="161.17"/><line class="cls-2" x1="167.06" y1="163.93" x2="167.06" y2="161.17"/><line class="cls-2" x1="196.97" y1="163.93" x2="196.97" y2="161.17"/><line class="cls-2" x1="226.89" y1="163.93" x2="226.89" y2="161.17"/><line class="cls-2" x1="256.8" y1="163.93" x2="256.8" y2="161.17"/><line class="cls-2" x1="286.72" y1="163.93" x2="286.72" y2="161.17"/><text class="cls-3" transform="translate(36.52 177.09)">-0.25</text><text class="cls-3" transform="translate(69.06 177.09)">-0.2</text><text class="cls-3" transform="translate(96.35 177.09)">-0.15</text><text class="cls-3" transform="translate(128.89 177.09)">-0.1</text><text class="cls-3" transform="translate(156.18 177.09)">-0.05</text><text class="cls-3" transform="translate(193.97 177.09)">0</text><text class="cls-3" transform="translate(217.51 177.09)">0.05</text><text class="cls-3" transform="translate(250.05 177.09)">0.1</text><text class="cls-3" transform="translate(277.34 177.09)">0.15</text><text class="cls-4" transform="translate(173.42 190.6)">X</text><line class="cls-2" x1="39.64" y1="163.93" x2="39.64" y2="0.25"/><line class="cls-2" x1="39.64" y1="163.25" x2="42.39" y2="163.25"/><line class="cls-2" x1="39.64" y1="133.32" x2="42.39" y2="133.32"/><line class="cls-2" x1="39.64" y1="103.39" x2="42.39" y2="103.39"/><line class="cls-2" x1="39.64" y1="73.46" x2="42.39" y2="73.46"/><line class="cls-2" x1="39.64" y1="43.52" x2="42.39" y2="43.52"/><line class="cls-2" x1="39.64" y1="13.59" x2="42.39" y2="13.59"/><text class="cls-3" transform="translate(14.48 167)">-0.15</text><text class="cls-3" transform="translate(19.73 137.07)">-0.1</text><text class="cls-3" transform="translate(14.48 107.14)">-0.05</text><text class="cls-3" transform="translate(30.23 77.21)">0</text><text class="cls-3" transform="translate(17.48 47.28)">0.05</text><text class="cls-3" transform="translate(22.73 17.35)">0.1</text><text class="cls-5" transform="matrix(0, -1, 1, 0, 8.97, 85.84)">Y</text><line class="cls-6" x1="51.82" y1="87.91" x2="39.64" y2="86.84"/><line class="cls-6" x1="39.64" y1="86.84" x2="49.26" y2="79.28"/><line class="cls-6" x1="84.61" y1="73.46" x2="39.64" y2="86.84"/><line class="cls-6" x1="297.34" y1="65.39" x2="312.51" y2="68.7"/><line class="cls-6" x1="312.51" y1="68.7" x2="298.05" y2="74.37"/><line class="cls-6" x1="253.15" y1="73.46" x2="312.51" y2="68.7"/><line class="cls-7" x1="133.33" y1="34.13" x2="135.66" y2="18.99"/><line class="cls-7" x1="135.66" y1="18.99" x2="140.77" y2="33.43"/><line class="cls-7" x1="140.79" y1="73.46" x2="135.66" y2="18.99"/><line class="cls-7" x1="246.16" y1="15.4" x2="249.06" y2="0.25"/><line class="cls-7" x1="249.06" y1="0.25" x2="253.63" y2="14.98"/><line class="cls-7" x1="253.15" y1="73.46" x2="249.06" y2="0.25"/><line class="cls-7" x1="314.7" y1="148.88" x2="311.29" y2="163.93"/><line class="cls-7" x1="311.29" y1="163.93" x2="307.23" y2="149.04"/><line class="cls-7" x1="309.33" y1="73.46" x2="311.29" y2="163.93"/><line class="cls-6" x1="140.79" y1="73.46" x2="182.38" y2="66.38"/><line class="cls-6" x1="196.97" y1="73.46" x2="142.5" y2="77.18"/><line class="cls-6" x1="309.33" y1="73.46" x2="244.01" y2="75.5"/><line class="cls-7" x1="84.61" y1="73.46" x2="94.42" y2="144.65"/><line class="cls-7" x1="196.97" y1="73.46" x2="200.67" y2="135.93"/><line class="cls-6" x1="160.76" y1="80.45" x2="142.5" y2="77.18"/><line class="cls-6" x1="142.5" y1="77.18" x2="160.14" y2="71.46"/><line class="cls-7" x1="203.52" y1="120.8" x2="200.67" y2="135.93"/><line class="cls-7" x1="200.67" y1="135.93" x2="196.06" y2="121.24"/><line class="cls-7" x1="96.1" y1="129.42" x2="94.42" y2="144.65"/><line class="cls-7" x1="94.42" y1="144.65" x2="88.69" y2="130.44"/><line class="cls-6" x1="168.14" y1="64.23" x2="182.38" y2="66.38"/><line class="cls-6" x1="182.38" y1="66.38" x2="169.65" y2="73.12"/><line class="cls-6" x1="257.16" y1="79.6" x2="244.01" y2="75.5"/><line class="cls-6" x1="244.01" y1="75.5" x2="256.88" y2="70.59"/></svg>