<svg id="Livello_1" data-name="Livello 1" xmlns="http://www.w3.org/2000/svg" viewBox="0 0 545.03 534.57"><defs><style>.cls-1,.cls-2,.cls-5,.cls-6{fill:none;stroke-linejoin:round;stroke-width:0.5px;}.cls-1,.cls-2{stroke:#262626;}.cls-1{opacity:0.15;}.cls-2{stroke-linecap:square;}.cls-3{font-size:10px;}.cls-3,.cls-4{fill:#262626;font-family:ArialMT, Arial;}.cls-4{font-size:11px;}.cls-5{stroke:#d95319;}.cls-6{stroke:#0072bd;}</style></defs><line class="cls-1" x1="82.43" y1="502" x2="82.43" y2="0.25"/><line class="cls-1" x1="136.78" y1="502" x2="136.78" y2="0.25"/><line class="cls-1" x1="191.14" y1="502" x2="191.14" y2="0.25"/><line class="cls-1" x1="245.49" y1="502" x2="245.49" y2="0.25"/><line class="cls-1" x1="299.84" y1="502" x2="299.84" y2="0.25"/><line class="cls-1" x1="354.19" y1="502" x2="354.19" y2="0.25"/><line class="cls-1" x1="408.54" y1="502" x2="408.54" y2="0.25"/><line class="cls-1" x1="462.89" y1="502" x2="462.89" y2="0.25"/><line class="cls-1" x1="517.24" y1="502" x2="517.24" y2="0.25"/><line class="cls-1" x1="544.78" y1="462.42" x2="42.69" y2="462.42"/><line class="cls-1" x1="544.78" y1="408.07" x2="42.69" y2="408.07"/><line class="cls-1" x1="544.78" y1="353.72" x2="42.69" y2="353.72"/><line class="cls-1" x1="544.78" y1="299.37" x2="42.69" y2="299.37"/><line class="cls-1" x1="544.78" y1="245.02" x2="42.69" y2="245.02"/><line class="cls-1" x1="544.78" y1="190.67" x2="42.69" y2="190.67"/><line class="cls-1" x1="544.78" y1="136.32" x2="42.69" y2="136.32"/><line class="cls-1" x1="544.78" y1="81.97" x2="42.69" y2="81.97"/><line class="cls-1" x1="544.78" y1="27.62" x2="42.69" y2="27.62"/><line class="cls-2" x1="42.69" y1="502" x2="544.78" y2="502"/><line class="cls-2" x1="82.43" y1="502" x2="82.43" y2="496.98"/><line class="cls-2" x1="136.78" y1="502" x2="136.78" y2="496.98"/><line class="cls-2" x1="191.14" y1="502" x2="191.14" y2="496.98"/><line class="cls-2" x1="245.49" y1="502" x2="245.49" y2="496.98"/><line class="cls-2" x1="299.84" y1="502" x2="299.84" y2="496.98"/><line class="cls-2" x1="354.19" y1="502" x2="354.19" y2="496.98"/><line class="cls-2" x1="408.54" y1="502" x2="408.54" y2="496.98"/><line class="cls-2" x1="462.89" y1="502" x2="462.89" y2="496.98"/><line class="cls-2" x1="517.24" y1="502" x2="517.24" y2="496.98"/><text class="cls-3" transform="translate(73.81 516.5)">-0.2</text><text class="cls-3" transform="translate(125.16 516.5)">-0.15</text><text class="cls-3" transform="translate(182.51 516.5)">-0.1</text><text class="cls-3" transform="translate(233.86 516.5)">-0.05</text><text class="cls-3" transform="translate(296.84 516.5)">0</text><text class="cls-3" transform="translate(344.44 516.5)">0.05</text><text class="cls-3" transform="translate(401.41 516.5)">0.1</text><text class="cls-3" transform="translate(453.14 516.5)">0.15</text><text class="cls-3" transform="translate(510.11 516.5)">0.2</text><text class="cls-4" transform="translate(289.99 531)">X</text><line class="cls-2" x1="42.69" y1="502" x2="42.69" y2="0.25"/><line class="cls-2" x1="42.69" y1="462.42" x2="47.71" y2="462.42"/><line class="cls-2" x1="42.69" y1="408.07" x2="47.71" y2="408.07"/><line class="cls-2" x1="42.69" y1="353.72" x2="47.71" y2="353.72"/><line class="cls-2" x1="42.69" y1="299.37" x2="47.71" y2="299.37"/><line class="cls-2" x1="42.69" y1="245.02" x2="47.71" y2="245.02"/><line class="cls-2" x1="42.69" y1="190.67" x2="47.71" y2="190.67"/><line class="cls-2" x1="42.69" y1="136.32" x2="47.71" y2="136.32"/><line class="cls-2" x1="42.69" y1="81.97" x2="47.71" y2="81.97"/><line class="cls-2" x1="42.69" y1="27.62" x2="47.71" y2="27.62"/><text class="cls-3" transform="translate(21.44 466.54)">-0.2</text><text class="cls-3" transform="translate(15.44 412.19)">-0.15</text><text class="cls-3" transform="translate(21.44 357.84)">-0.1</text><text class="cls-3" transform="translate(15.44 303.49)">-0.05</text><text class="cls-3" transform="translate(32.69 249.14)">0</text><text class="cls-3" transform="translate(19.19 194.79)">0.05</text><text class="cls-3" transform="translate(24.44 140.44)">0.1</text><text class="cls-3" transform="translate(19.19 86.09)">0.15</text><text class="cls-3" transform="translate(24.44 31.74)">0.2</text><text class="cls-4" transform="translate(9.44 254.88) rotate(-90)">Y</text><line class="cls-5" x1="480.35" y1="481.22" x2="489.04" y2="470.81"/><line class="cls-5" x1="492.92" y1="476.13" x2="480.35" y2="481.22"/><line class="cls-5" x1="512.56" y1="457.74" x2="480.35" y2="481.22"/><line class="cls-6" x1="189.61" y1="426.89" x2="205.13" y2="433.83"/><line class="cls-6" x1="200.04" y1="440.32" x2="189.61" y2="426.89"/><line class="cls-6" x1="228.93" y1="457.74" x2="189.61" y2="426.89"/><line class="cls-5" x1="512.56" y1="363.2" x2="480.33" y2="386.72"/><line class="cls-5" x1="480.33" y1="386.72" x2="489.03" y2="376.29"/><line class="cls-5" x1="492.91" y1="381.62" x2="480.33" y2="386.72"/><line class="cls-5" x1="512.56" y1="410.47" x2="480.34" y2="433.97"/><line class="cls-5" x1="480.34" y1="433.97" x2="489.03" y2="423.55"/><line class="cls-5" x1="492.91" y1="428.87" x2="480.34" y2="433.97"/><line class="cls-6" x1="189.58" y1="379.58" x2="205.11" y2="386.53"/><line class="cls-6" x1="228.93" y1="410.47" x2="189.58" y2="379.58"/><line class="cls-6" x1="200.01" y1="393.02" x2="189.58" y2="379.58"/><line class="cls-6" x1="151.5" y1="440.54" x2="140.44" y2="426.99"/><line class="cls-6" x1="140.44" y1="426.99" x2="156.58" y2="433.74"/><line class="cls-6" x1="181.65" y1="457.74" x2="140.44" y2="426.99"/><line class="cls-5" x1="433.38" y1="484.32" x2="441.72" y2="472.91"/><line class="cls-5" x1="446.1" y1="478.18" x2="433.38" y2="484.32"/><line class="cls-5" x1="465.29" y1="457.74" x2="433.38" y2="484.32"/><line class="cls-5" x1="433.37" y1="437.07" x2="441.71" y2="425.66"/><line class="cls-5" x1="446.1" y1="430.93" x2="433.37" y2="437.07"/><line class="cls-5" x1="465.29" y1="410.47" x2="433.37" y2="437.07"/><line class="cls-6" x1="42.69" y1="1.35" x2="59.9" y2="7.89"/><line class="cls-6" x1="54.79" y1="15.23" x2="42.69" y2="1.35"/><line class="cls-6" x1="87.11" y1="32.29" x2="42.69" y2="1.35"/><line class="cls-6" x1="91.53" y1="427.06" x2="108.2" y2="433.65"/><line class="cls-6" x1="103.14" y1="440.72" x2="91.53" y2="427.06"/><line class="cls-6" x1="134.38" y1="457.74" x2="91.53" y2="427.06"/><line class="cls-6" x1="151.48" y1="393.25" x2="140.41" y2="379.68"/><line class="cls-6" x1="181.65" y1="410.47" x2="140.41" y2="379.68"/><line class="cls-6" x1="140.41" y1="379.68" x2="156.56" y2="386.44"/><line class="cls-6" x1="228.93" y1="363.2" x2="189.55" y2="332.27"/><line class="cls-6" x1="199.99" y1="345.73" x2="189.55" y2="332.27"/><line class="cls-6" x1="189.55" y1="332.27" x2="205.1" y2="339.23"/><line class="cls-6" x1="54.8" y1="62.51" x2="42.7" y2="48.64"/><line class="cls-6" x1="87.11" y1="79.56" x2="42.7" y2="48.64"/><line class="cls-6" x1="42.7" y1="48.64" x2="59.91" y2="55.18"/><line class="cls-6" x1="54.94" y1="440.85" x2="42.87" y2="427.08"/><line class="cls-6" x1="42.87" y1="427.08" x2="60" y2="433.55"/><line class="cls-6" x1="87.11" y1="457.74" x2="42.87" y2="427.08"/><line class="cls-6" x1="103.11" y1="393.42" x2="91.5" y2="379.74"/><line class="cls-6" x1="134.38" y1="410.47" x2="91.5" y2="379.74"/><line class="cls-6" x1="91.5" y1="379.74" x2="108.18" y2="386.34"/><line class="cls-6" x1="87.11" y1="126.84" x2="42.71" y2="95.94"/><line class="cls-6" x1="54.81" y1="109.8" x2="42.71" y2="95.94"/><line class="cls-6" x1="42.71" y1="95.94" x2="59.91" y2="102.47"/><line class="cls-6" x1="181.65" y1="363.2" x2="140.38" y2="332.37"/><line class="cls-6" x1="140.38" y1="332.37" x2="156.55" y2="339.14"/><line class="cls-6" x1="151.46" y1="345.95" x2="140.38" y2="332.37"/><line class="cls-5" x1="386.38" y1="487.26" x2="394.39" y2="474.91"/><line class="cls-5" x1="418.02" y1="457.74" x2="386.38" y2="487.26"/><line class="cls-5" x1="399.26" y1="480.13" x2="386.38" y2="487.26"/><line class="cls-6" x1="42.84" y1="379.77" x2="59.98" y2="386.25"/><line class="cls-6" x1="54.92" y1="393.55" x2="42.84" y2="379.77"/><line class="cls-6" x1="87.11" y1="410.47" x2="42.84" y2="379.77"/><line class="cls-5" x1="418.02" y1="410.47" x2="386.36" y2="440.01"/><line class="cls-5" x1="399.25" y1="432.88" x2="386.36" y2="440.01"/><line class="cls-5" x1="386.36" y1="440.01" x2="394.37" y2="427.65"/><line class="cls-6" x1="189.52" y1="284.96" x2="205.08" y2="291.93"/><line class="cls-6" x1="199.97" y1="298.43" x2="189.52" y2="284.96"/><line class="cls-6" x1="42.73" y1="143.24" x2="59.92" y2="149.76"/><line class="cls-6" x1="54.83" y1="157.09" x2="42.73" y2="143.24"/><line class="cls-6" x1="87.11" y1="174.11" x2="42.73" y2="143.24"/><line class="cls-6" x1="228.93" y1="315.93" x2="189.52" y2="284.96"/><line class="cls-6" x1="54.89" y1="346.26" x2="42.81" y2="332.46"/><line class="cls-6" x1="42.81" y1="332.46" x2="59.97" y2="338.95"/><line class="cls-6" x1="87.11" y1="363.2" x2="42.81" y2="332.46"/><line class="cls-6" x1="103.09" y1="346.13" x2="91.47" y2="332.43"/><line class="cls-6" x1="134.38" y1="363.2" x2="91.47" y2="332.43"/><line class="cls-6" x1="91.47" y1="332.43" x2="108.17" y2="339.04"/><line class="cls-6" x1="248.64" y1="250.87" x2="238.91" y2="237.52"/><line class="cls-6" x1="276.2" y1="268.65" x2="238.91" y2="237.52"/><line class="cls-6" x1="238.91" y1="237.52" x2="253.78" y2="244.72"/><line class="cls-6" x1="87.11" y1="221.38" x2="42.75" y2="190.54"/><line class="cls-6" x1="54.84" y1="204.38" x2="42.75" y2="190.54"/><line class="cls-6" x1="42.75" y1="190.54" x2="59.93" y2="197.06"/><line class="cls-6" x1="87.11" y1="315.93" x2="42.79" y2="285.15"/><line class="cls-6" x1="54.87" y1="298.96" x2="42.79" y2="285.15"/><line class="cls-6" x1="42.79" y1="285.15" x2="59.95" y2="291.65"/><line class="cls-6" x1="87.11" y1="268.65" x2="42.77" y2="237.84"/><line class="cls-6" x1="42.77" y1="237.84" x2="59.94" y2="244.35"/><line class="cls-6" x1="54.86" y1="251.67" x2="42.77" y2="237.84"/><line class="cls-6" x1="102.99" y1="15.09" x2="91.34" y2="1.32"/><line class="cls-6" x1="91.34" y1="1.32" x2="108.1" y2="7.99"/><line class="cls-6" x1="140.36" y1="285.06" x2="156.53" y2="291.84"/><line class="cls-6" x1="134.38" y1="32.29" x2="91.34" y2="1.32"/><line class="cls-6" x1="151.44" y1="298.65" x2="140.36" y2="285.06"/><line class="cls-6" x1="181.65" y1="315.93" x2="140.36" y2="285.06"/><line class="cls-6" x1="134.38" y1="315.93" x2="91.44" y2="285.12"/><line class="cls-6" x1="103.07" y1="298.83" x2="91.44" y2="285.12"/><line class="cls-6" x1="91.44" y1="285.12" x2="108.15" y2="291.74"/><line class="cls-6" x1="228.93" y1="268.65" x2="189.5" y2="237.66"/><line class="cls-6" x1="189.5" y1="237.66" x2="205.07" y2="244.63"/><line class="cls-6" x1="199.95" y1="251.14" x2="189.5" y2="237.66"/><line class="cls-6" x1="103" y1="62.38" x2="91.35" y2="48.62"/><line class="cls-6" x1="134.38" y1="79.56" x2="91.35" y2="48.62"/><line class="cls-6" x1="91.35" y1="48.62" x2="108.1" y2="55.28"/><line class="cls-6" x1="91.42" y1="237.82" x2="108.14" y2="244.45"/><line class="cls-6" x1="103.05" y1="251.54" x2="91.42" y2="237.82"/><line class="cls-6" x1="134.38" y1="268.65" x2="91.42" y2="237.82"/><line class="cls-5" x1="352.38" y1="481.96" x2="339.35" y2="490.02"/><line class="cls-5" x1="370.75" y1="457.74" x2="339.35" y2="490.02"/><line class="cls-5" x1="339.35" y1="490.02" x2="347.05" y2="476.78"/><line class="cls-6" x1="140.33" y1="237.75" x2="156.52" y2="244.54"/><line class="cls-6" x1="91.36" y1="95.91" x2="108.11" y2="102.57"/><line class="cls-6" x1="103.01" y1="109.67" x2="91.36" y2="95.91"/><line class="cls-6" x1="151.42" y1="251.36" x2="140.33" y2="237.75"/><line class="cls-6" x1="134.38" y1="126.84" x2="91.36" y2="95.91"/><line class="cls-6" x1="181.65" y1="268.65" x2="140.33" y2="237.75"/><line class="cls-5" x1="370.75" y1="410.47" x2="339.33" y2="442.77"/><line class="cls-5" x1="352.36" y1="434.71" x2="339.33" y2="442.77"/><line class="cls-5" x1="339.33" y1="442.77" x2="347.03" y2="429.52"/><line class="cls-6" x1="91.4" y1="190.51" x2="108.13" y2="197.15"/><line class="cls-6" x1="103.04" y1="204.25" x2="91.4" y2="190.51"/><line class="cls-6" x1="134.38" y1="221.38" x2="91.4" y2="190.51"/><line class="cls-6" x1="276.2" y1="221.38" x2="238.88" y2="190.22"/><line class="cls-6" x1="248.63" y1="203.58" x2="238.88" y2="190.22"/><line class="cls-6" x1="238.88" y1="190.22" x2="253.77" y2="197.43"/><line class="cls-6" x1="103.02" y1="156.96" x2="91.38" y2="143.21"/><line class="cls-6" x1="134.38" y1="174.11" x2="91.38" y2="143.21"/><line class="cls-6" x1="91.38" y1="143.21" x2="108.12" y2="149.86"/><line class="cls-6" x1="199.94" y1="203.85" x2="189.48" y2="190.35"/><line class="cls-6" x1="228.93" y1="221.38" x2="189.48" y2="190.35"/><line class="cls-6" x1="189.48" y1="190.35" x2="205.06" y2="197.34"/><line class="cls-6" x1="151.4" y1="204.07" x2="140.31" y2="190.45"/><line class="cls-6" x1="140.31" y1="190.45" x2="156.51" y2="197.25"/><line class="cls-6" x1="181.65" y1="221.38" x2="140.31" y2="190.45"/><line class="cls-6" x1="151.39" y1="156.78" x2="140.29" y2="143.15"/><line class="cls-6" x1="140.29" y1="143.15" x2="156.5" y2="149.95"/><line class="cls-6" x1="181.65" y1="174.11" x2="140.29" y2="143.15"/><line class="cls-5" x1="323.47" y1="457.74" x2="292.29" y2="492.59"/><line class="cls-5" x1="292.29" y1="492.59" x2="299.71" y2="478.52"/><line class="cls-5" x1="305.46" y1="483.66" x2="292.29" y2="492.59"/><line class="cls-6" x1="276.2" y1="174.11" x2="238.86" y2="142.93"/><line class="cls-6" x1="248.61" y1="156.3" x2="238.86" y2="142.93"/><line class="cls-6" x1="238.86" y1="142.93" x2="253.76" y2="150.13"/><line class="cls-6" x1="151.35" y1="14.92" x2="140.25" y2="1.27"/><line class="cls-6" x1="181.65" y1="32.29" x2="140.25" y2="1.27"/><line class="cls-6" x1="140.25" y1="1.27" x2="156.47" y2="8.09"/><line class="cls-6" x1="140.28" y1="95.85" x2="156.49" y2="102.66"/><line class="cls-6" x1="151.38" y1="109.49" x2="140.28" y2="95.85"/><line class="cls-6" x1="181.65" y1="126.84" x2="140.28" y2="95.85"/><line class="cls-6" x1="189.46" y1="143.05" x2="205.05" y2="150.05"/><line class="cls-6" x1="199.92" y1="156.56" x2="189.46" y2="143.05"/><line class="cls-6" x1="228.93" y1="174.11" x2="189.46" y2="143.05"/><line class="cls-6" x1="140.26" y1="48.56" x2="156.48" y2="55.37"/><line class="cls-6" x1="151.36" y1="62.2" x2="140.26" y2="48.56"/><line class="cls-6" x1="181.65" y1="79.56" x2="140.26" y2="48.56"/><line class="cls-5" x1="292.27" y1="445.34" x2="299.69" y2="431.26"/><line class="cls-5" x1="305.44" y1="436.41" x2="292.27" y2="445.34"/><line class="cls-5" x1="323.47" y1="410.47" x2="292.27" y2="445.34"/><line class="cls-6" x1="297.44" y1="108.71" x2="288.48" y2="95.47"/><line class="cls-6" x1="288.48" y1="95.47" x2="302.62" y2="102.93"/><line class="cls-6" x1="323.47" y1="126.84" x2="288.48" y2="95.47"/><line class="cls-5" x1="87.11" y1="457.74" x2="56.45" y2="502"/><line class="cls-5" x1="56.45" y1="502" x2="62.92" y2="484.87"/><line class="cls-5" x1="70.22" y1="489.93" x2="56.45" y2="502"/><line class="cls-6" x1="228.93" y1="126.84" x2="189.44" y2="95.76"/><line class="cls-6" x1="199.91" y1="109.27" x2="189.44" y2="95.76"/><line class="cls-6" x1="189.44" y1="95.76" x2="205.04" y2="102.76"/><line class="cls-5" x1="245.2" y1="494.95" x2="252.36" y2="480.11"/><line class="cls-5" x1="276.2" y1="457.74" x2="245.2" y2="494.95"/><line class="cls-5" x1="258.5" y1="485.23" x2="245.2" y2="494.95"/><line class="cls-6" x1="238.85" y1="95.63" x2="253.75" y2="102.85"/><line class="cls-6" x1="248.6" y1="109.01" x2="238.85" y2="95.63"/><line class="cls-6" x1="276.2" y1="126.84" x2="238.85" y2="95.63"/><line class="cls-6" x1="189.43" y1="48.46" x2="205.03" y2="55.47"/><line class="cls-6" x1="228.93" y1="79.56" x2="189.43" y2="48.46"/><line class="cls-6" x1="199.9" y1="61.99" x2="189.43" y2="48.46"/><line class="cls-5" x1="276.2" y1="410.47" x2="245.17" y2="447.7"/><line class="cls-5" x1="258.48" y1="437.98" x2="245.17" y2="447.7"/><line class="cls-5" x1="245.17" y1="447.7" x2="252.34" y2="432.86"/><line class="cls-5" x1="103.7" y1="500.62" x2="110.28" y2="483.94"/><line class="cls-5" x1="117.36" y1="489" x2="103.7" y2="500.62"/><line class="cls-5" x1="134.38" y1="457.74" x2="103.7" y2="500.62"/><line class="cls-5" x1="198.07" y1="497.08" x2="205.01" y2="481.55"/><line class="cls-5" x1="211.5" y1="486.64" x2="198.07" y2="497.08"/><line class="cls-5" x1="228.93" y1="457.74" x2="198.07" y2="497.08"/><line class="cls-6" x1="228.93" y1="32.29" x2="189.41" y2="1.17"/><line class="cls-6" x1="323.47" y1="79.56" x2="288.46" y2="48.18"/><line class="cls-6" x1="189.41" y1="1.17" x2="205.02" y2="8.18"/><line class="cls-6" x1="288.46" y1="48.18" x2="302.61" y2="55.65"/><line class="cls-6" x1="297.43" y1="61.42" x2="288.46" y2="48.18"/><line class="cls-6" x1="199.89" y1="14.7" x2="189.41" y2="1.17"/><line class="cls-5" x1="164.45" y1="487.9" x2="150.9" y2="498.97"/><line class="cls-5" x1="181.65" y1="457.74" x2="150.9" y2="498.97"/><line class="cls-5" x1="150.9" y1="498.97" x2="157.65" y2="482.83"/><line class="cls-6" x1="248.59" y1="61.73" x2="238.83" y2="48.34"/><line class="cls-6" x1="238.83" y1="48.34" x2="253.74" y2="55.56"/><line class="cls-6" x1="276.2" y1="79.56" x2="238.83" y2="48.34"/><line class="cls-6" x1="370.75" y1="32.29" x2="338.29" y2="0.71"/><line class="cls-6" x1="346.4" y1="13.81" x2="338.29" y2="0.71"/><line class="cls-6" x1="338.29" y1="0.71" x2="351.61" y2="8.45"/><line class="cls-5" x1="228.93" y1="410.47" x2="198.03" y2="449.84"/><line class="cls-5" x1="211.48" y1="439.39" x2="198.03" y2="449.84"/><line class="cls-5" x1="198.03" y1="449.84" x2="204.98" y2="434.3"/><line class="cls-6" x1="248.58" y1="14.44" x2="238.82" y2="1.05"/><line class="cls-6" x1="238.82" y1="1.05" x2="253.73" y2="8.27"/><line class="cls-6" x1="276.2" y1="32.29" x2="238.82" y2="1.05"/><line class="cls-5" x1="87.11" y1="410.47" x2="56.41" y2="454.76"/><line class="cls-5" x1="56.41" y1="454.76" x2="62.89" y2="437.61"/><line class="cls-5" x1="70.2" y1="442.68" x2="56.41" y2="454.76"/><line class="cls-6" x1="297.42" y1="14.14" x2="288.45" y2="0.89"/><line class="cls-6" x1="288.45" y1="0.89" x2="302.6" y2="8.36"/><line class="cls-6" x1="323.47" y1="32.29" x2="288.45" y2="0.89"/><line class="cls-5" x1="228.93" y1="363.2" x2="198" y2="402.59"/><line class="cls-5" x1="211.46" y1="392.14" x2="198" y2="402.59"/><line class="cls-5" x1="198" y1="402.59" x2="204.96" y2="387.04"/><line class="cls-5" x1="164.43" y1="440.66" x2="150.86" y2="451.73"/><line class="cls-5" x1="150.86" y1="451.73" x2="157.62" y2="435.58"/><line class="cls-5" x1="181.65" y1="410.47" x2="150.86" y2="451.73"/><line class="cls-5" x1="103.66" y1="453.38" x2="110.26" y2="436.68"/><line class="cls-5" x1="117.34" y1="441.75" x2="103.66" y2="453.38"/><line class="cls-5" x1="134.38" y1="410.47" x2="103.66" y2="453.38"/><line class="cls-5" x1="181.65" y1="363.2" x2="150.83" y2="404.49"/><line class="cls-5" x1="164.41" y1="393.41" x2="150.83" y2="404.49"/><line class="cls-5" x1="150.83" y1="404.49" x2="157.6" y2="388.32"/><line class="cls-5" x1="87.11" y1="363.2" x2="56.38" y2="407.52"/><line class="cls-5" x1="56.38" y1="407.52" x2="62.86" y2="390.36"/><line class="cls-5" x1="70.17" y1="395.43" x2="56.38" y2="407.52"/><line class="cls-5" x1="103.62" y1="406.13" x2="110.23" y2="389.43"/><line class="cls-5" x1="117.31" y1="394.5" x2="103.62" y2="406.13"/><line class="cls-5" x1="134.38" y1="363.2" x2="103.62" y2="406.13"/><line class="cls-5" x1="117.29" y1="347.25" x2="103.59" y2="358.89"/><line class="cls-5" x1="103.59" y1="358.89" x2="110.21" y2="342.17"/><line class="cls-5" x1="134.38" y1="315.93" x2="103.59" y2="358.89"/><line class="cls-5" x1="56.34" y1="360.27" x2="62.84" y2="343.1"/><line class="cls-5" x1="70.15" y1="348.18" x2="56.34" y2="360.27"/><line class="cls-5" x1="87.11" y1="315.93" x2="56.34" y2="360.27"/><line class="cls-6" x1="512.56" y1="32.29" x2="488.94" y2="64.6"/><line class="cls-5" x1="418.02" y1="221.38" x2="386.31" y2="251"/><line class="cls-5" x1="386.3" y1="203.75" x2="394.32" y2="191.35"/><line class="cls-6" x1="395.56" y1="202.55" x2="388.4" y2="189.63"/><line class="cls-5" x1="418.02" y1="174.11" x2="386.3" y2="203.75"/><line class="cls-6" x1="418.02" y1="174.11" x2="388.39" y2="142.34"/><line class="cls-6" x1="395.54" y1="155.27" x2="388.39" y2="142.34"/><line class="cls-5" x1="386.3" y1="156.49" x2="394.32" y2="144.08"/><line class="cls-6" x1="388.39" y1="142.34" x2="400.79" y2="150.38"/><line class="cls-5" x1="418.02" y1="126.84" x2="386.3" y2="156.49"/><line class="cls-6" x1="418.02" y1="126.84" x2="388.37" y2="95.05"/><line class="cls-6" x1="388.37" y1="95.05" x2="400.77" y2="103.1"/><line class="cls-6" x1="395.53" y1="107.99" x2="388.37" y2="95.05"/><line class="cls-5" x1="418.02" y1="79.56" x2="386.29" y2="109.23"/><line class="cls-6" x1="418.02" y1="79.56" x2="388.35" y2="47.77"/><line class="cls-6" x1="388.35" y1="47.77" x2="400.76" y2="55.81"/><line class="cls-6" x1="395.52" y1="60.71" x2="388.35" y2="47.77"/><line class="cls-5" x1="418.02" y1="32.29" x2="386.29" y2="61.97"/><line class="cls-5" x1="465.29" y1="363.2" x2="433.35" y2="389.82"/><line class="cls-5" x1="465.29" y1="315.93" x2="433.34" y2="342.57"/><line class="cls-5" x1="465.29" y1="268.65" x2="433.34" y2="295.31"/><line class="cls-5" x1="465.29" y1="221.38" x2="433.33" y2="248.06"/><line class="cls-5" x1="465.29" y1="174.11" x2="433.33" y2="200.8"/><line class="cls-5" x1="433.33" y1="153.54" x2="441.67" y2="142.09"/><line class="cls-6" x1="444.77" y1="154.86" x2="438.61" y2="142.08"/><line class="cls-5" x1="465.29" y1="126.84" x2="433.33" y2="153.54"/><line class="cls-6" x1="465.29" y1="126.84" x2="438.59" y2="94.8"/><line class="cls-6" x1="438.59" y1="94.8" x2="450.04" y2="103.17"/><line class="cls-6" x1="444.76" y1="107.58" x2="438.59" y2="94.8"/><line class="cls-5" x1="465.29" y1="79.56" x2="433.33" y2="106.28"/><line class="cls-6" x1="465.29" y1="79.56" x2="438.57" y2="47.53"/><line class="cls-6" x1="438.57" y1="47.53" x2="450.03" y2="55.89"/><line class="cls-6" x1="444.74" y1="60.3" x2="438.57" y2="47.53"/><line class="cls-5" x1="465.29" y1="32.29" x2="433.33" y2="59.02"/><line class="cls-5" x1="512.56" y1="315.93" x2="480.33" y2="339.46"/><line class="cls-5" x1="512.56" y1="268.65" x2="480.33" y2="292.21"/><line class="cls-5" x1="512.56" y1="221.38" x2="480.33" y2="244.95"/><line class="cls-5" x1="512.56" y1="174.11" x2="480.33" y2="197.69"/><line class="cls-5" x1="512.56" y1="126.84" x2="480.33" y2="150.44"/><line class="cls-6" x1="512.56" y1="126.84" x2="488.97" y2="94.53"/><line class="cls-6" x1="494.09" y1="107.14" x2="488.97" y2="94.53"/><line class="cls-5" x1="512.56" y1="79.56" x2="480.34" y2="103.18"/><line class="cls-6" x1="276.2" y1="457.74" x2="239.01" y2="426.75"/><line class="cls-5" x1="276.2" y1="363.2" x2="245.14" y2="400.46"/><line class="cls-5" x1="245.14" y1="400.46" x2="252.32" y2="385.6"/><line class="cls-5" x1="258.46" y1="390.73" x2="245.14" y2="400.46"/><line class="cls-6" x1="276.2" y1="410.47" x2="238.98" y2="379.44"/><line class="cls-5" x1="276.2" y1="315.93" x2="245.11" y2="353.21"/><line class="cls-5" x1="258.45" y1="343.47" x2="245.11" y2="353.21"/><line class="cls-5" x1="245.11" y1="353.21" x2="252.3" y2="338.34"/><line class="cls-6" x1="276.2" y1="363.2" x2="238.95" y2="332.13"/><line class="cls-5" x1="276.2" y1="268.65" x2="245.09" y2="305.96"/><line class="cls-5" x1="258.43" y1="296.22" x2="245.09" y2="305.96"/><line class="cls-5" x1="245.09" y1="305.96" x2="252.28" y2="291.08"/><line class="cls-6" x1="276.2" y1="315.93" x2="238.93" y2="284.83"/><line class="cls-6" x1="323.47" y1="457.74" x2="288.64" y2="426.57"/><line class="cls-5" x1="323.47" y1="363.2" x2="292.24" y2="398.1"/><line class="cls-5" x1="292.24" y1="398.1" x2="299.67" y2="384"/><line class="cls-5" x1="305.43" y1="389.16" x2="292.24" y2="398.1"/><line class="cls-6" x1="323.47" y1="410.47" x2="288.61" y2="379.26"/><line class="cls-5" x1="323.47" y1="315.93" x2="292.22" y2="350.85"/><line class="cls-5" x1="305.41" y1="341.9" x2="292.22" y2="350.85"/><line class="cls-5" x1="292.22" y1="350.85" x2="299.65" y2="336.75"/><line class="cls-6" x1="323.47" y1="363.2" x2="288.59" y2="331.96"/><line class="cls-5" x1="323.47" y1="268.65" x2="292.2" y2="303.6"/><line class="cls-5" x1="305.4" y1="294.65" x2="292.2" y2="303.6"/><line class="cls-5" x1="292.2" y1="303.6" x2="299.64" y2="289.49"/><line class="cls-6" x1="323.47" y1="315.93" x2="288.56" y2="284.65"/><line class="cls-5" x1="323.47" y1="221.38" x2="292.18" y2="256.34"/><line class="cls-5" x1="305.39" y1="247.39" x2="292.18" y2="256.34"/><line class="cls-5" x1="292.18" y1="256.34" x2="299.62" y2="242.22"/><line class="cls-6" x1="323.47" y1="268.65" x2="288.54" y2="237.35"/><line class="cls-6" x1="323.47" y1="221.38" x2="288.52" y2="190.06"/><line class="cls-6" x1="323.47" y1="174.11" x2="288.5" y2="142.76"/><line class="cls-6" x1="370.75" y1="457.74" x2="338.48" y2="426.36"/><line class="cls-5" x1="370.75" y1="363.2" x2="339.31" y2="395.53"/><line class="cls-5" x1="352.35" y1="387.45" x2="339.31" y2="395.53"/><line class="cls-5" x1="339.31" y1="395.53" x2="347.02" y2="382.27"/><line class="cls-6" x1="370.75" y1="410.47" x2="338.46" y2="379.05"/><line class="cls-5" x1="370.75" y1="315.93" x2="339.29" y2="348.28"/><line class="cls-5" x1="339.29" y1="348.28" x2="347" y2="335.01"/><line class="cls-5" x1="352.34" y1="340.2" x2="339.29" y2="348.28"/><line class="cls-6" x1="370.75" y1="363.2" x2="338.43" y2="331.75"/><line class="cls-5" x1="370.75" y1="268.65" x2="339.28" y2="301.03"/><line class="cls-5" x1="339.28" y1="301.03" x2="346.99" y2="287.75"/><line class="cls-5" x1="352.33" y1="292.94" x2="339.28" y2="301.03"/><line class="cls-6" x1="370.75" y1="315.93" x2="338.41" y2="284.45"/><line class="cls-5" x1="370.75" y1="221.38" x2="339.26" y2="253.77"/><line class="cls-5" x1="339.26" y1="253.77" x2="346.98" y2="240.48"/><line class="cls-6" x1="346.46" y1="250.22" x2="338.38" y2="237.15"/><line class="cls-5" x1="352.32" y1="245.68" x2="339.26" y2="253.77"/><line class="cls-6" x1="370.75" y1="268.65" x2="338.38" y2="237.15"/><line class="cls-6" x1="346.45" y1="202.93" x2="338.36" y2="189.86"/><line class="cls-5" x1="339.25" y1="206.52" x2="346.97" y2="193.22"/><line class="cls-6" x1="370.75" y1="221.38" x2="338.36" y2="189.86"/><line class="cls-6" x1="370.75" y1="174.11" x2="338.34" y2="142.57"/><line class="cls-6" x1="370.75" y1="126.84" x2="338.33" y2="95.28"/><line class="cls-6" x1="370.75" y1="79.56" x2="338.31" y2="47.99"/><line class="cls-6" x1="418.02" y1="457.74" x2="388.52" y2="426.11"/><line class="cls-5" x1="418.02" y1="363.2" x2="386.35" y2="392.76"/><line class="cls-5" x1="399.24" y1="385.62" x2="386.35" y2="392.76"/><line class="cls-5" x1="386.35" y1="392.76" x2="394.36" y2="380.39"/><line class="cls-6" x1="418.02" y1="410.47" x2="388.49" y2="378.81"/><line class="cls-5" x1="418.02" y1="315.93" x2="386.33" y2="345.51"/><line class="cls-5" x1="386.33" y1="345.51" x2="394.35" y2="333.13"/><line class="cls-5" x1="399.23" y1="338.36" x2="386.33" y2="345.51"/><line class="cls-6" x1="418.02" y1="363.2" x2="388.47" y2="331.51"/><line class="cls-5" x1="418.02" y1="268.65" x2="386.32" y2="298.26"/><line class="cls-5" x1="386.32" y1="298.26" x2="394.34" y2="285.87"/><line class="cls-5" x1="399.22" y1="291.11" x2="386.32" y2="298.26"/><line class="cls-6" x1="418.02" y1="315.93" x2="388.45" y2="284.21"/><line class="cls-5" x1="399.22" y1="243.85" x2="386.31" y2="251"/><line class="cls-5" x1="386.31" y1="251" x2="394.33" y2="238.61"/><line class="cls-6" x1="418.02" y1="268.65" x2="388.42" y2="236.92"/><line class="cls-6" x1="418.02" y1="221.38" x2="388.4" y2="189.63"/><line class="cls-6" x1="418.02" y1="32.29" x2="388.34" y2="0.49"/><line class="cls-6" x1="465.29" y1="457.74" x2="438.73" y2="425.83"/><line class="cls-5" x1="433.35" y1="389.82" x2="441.7" y2="378.4"/><line class="cls-5" x1="446.09" y1="383.67" x2="433.35" y2="389.82"/><line class="cls-6" x1="465.29" y1="410.47" x2="438.71" y2="378.53"/><line class="cls-5" x1="433.34" y1="342.57" x2="441.69" y2="331.14"/><line class="cls-5" x1="446.09" y1="336.41" x2="433.34" y2="342.57"/><line class="cls-6" x1="465.29" y1="363.2" x2="438.69" y2="331.24"/><line class="cls-5" x1="446.08" y1="289.15" x2="433.34" y2="295.31"/><line class="cls-5" x1="433.34" y1="295.31" x2="441.68" y2="283.88"/><line class="cls-6" x1="465.29" y1="315.93" x2="438.66" y2="283.94"/><line class="cls-5" x1="433.33" y1="248.06" x2="441.68" y2="236.62"/><line class="cls-5" x1="446.08" y1="241.89" x2="433.33" y2="248.06"/><line class="cls-6" x1="465.29" y1="268.65" x2="438.64" y2="236.66"/><line class="cls-5" x1="433.33" y1="200.8" x2="441.67" y2="189.35"/><line class="cls-5" x1="446.08" y1="194.63" x2="433.33" y2="200.8"/><line class="cls-6" x1="465.29" y1="221.38" x2="438.62" y2="189.37"/><line class="cls-6" x1="465.29" y1="174.11" x2="438.61" y2="142.08"/><line class="cls-6" x1="465.29" y1="32.29" x2="438.56" y2="0.25"/><line class="cls-6" x1="512.56" y1="457.74" x2="489.1" y2="425.52"/><line class="cls-6" x1="512.56" y1="410.47" x2="489.08" y2="378.23"/><line class="cls-5" x1="492.91" y1="334.36" x2="480.33" y2="339.46"/><line class="cls-6" x1="512.56" y1="363.2" x2="489.06" y2="330.94"/><line class="cls-5" x1="492.91" y1="287.1" x2="480.33" y2="292.21"/><line class="cls-6" x1="512.56" y1="315.93" x2="489.04" y2="283.65"/><line class="cls-5" x1="492.91" y1="239.84" x2="480.33" y2="244.95"/><line class="cls-6" x1="512.56" y1="268.65" x2="489.02" y2="236.36"/><line class="cls-5" x1="492.91" y1="192.57" x2="480.33" y2="197.69"/><line class="cls-6" x1="512.56" y1="221.38" x2="489" y2="189.08"/><line class="cls-5" x1="492.92" y1="145.31" x2="480.33" y2="150.44"/><line class="cls-6" x1="512.56" y1="174.11" x2="488.98" y2="141.8"/><line class="cls-6" x1="499.4" y1="55.89" x2="488.94" y2="64.6"/><line class="cls-6" x1="488.94" y1="64.6" x2="494.07" y2="51.99"/><line class="cls-6" x1="512.56" y1="79.56" x2="488.95" y2="47.25"/><line class="cls-5" x1="512.56" y1="32.29" x2="544.78" y2="55.92"/><line class="cls-5" x1="181.65" y1="268.65" x2="150.77" y2="309.99"/><line class="cls-5" x1="87.11" y1="268.65" x2="56.31" y2="313.02"/><line class="cls-5" x1="87.11" y1="221.38" x2="56.28" y2="265.77"/><line class="cls-5" x1="87.11" y1="174.11" x2="56.25" y2="218.51"/><line class="cls-5" x1="87.11" y1="126.84" x2="56.22" y2="171.25"/><line class="cls-5" x1="87.11" y1="79.56" x2="56.19" y2="123.99"/><line class="cls-5" x1="87.11" y1="32.29" x2="56.17" y2="76.72"/><line class="cls-5" x1="134.38" y1="268.65" x2="103.56" y2="311.64"/><line class="cls-5" x1="134.38" y1="221.38" x2="103.53" y2="264.38"/><line class="cls-5" x1="134.38" y1="174.11" x2="103.5" y2="217.13"/><line class="cls-5" x1="134.38" y1="126.84" x2="103.47" y2="169.87"/><line class="cls-5" x1="134.38" y1="79.56" x2="103.45" y2="122.6"/><line class="cls-5" x1="134.38" y1="32.29" x2="103.43" y2="75.33"/><line class="cls-5" x1="181.65" y1="315.93" x2="150.8" y2="357.24"/><line class="cls-5" x1="181.65" y1="221.38" x2="150.74" y2="262.74"/><line class="cls-5" x1="181.65" y1="174.11" x2="150.72" y2="215.48"/><line class="cls-5" x1="181.65" y1="126.84" x2="150.69" y2="168.22"/><line class="cls-5" x1="181.65" y1="79.56" x2="150.67" y2="120.96"/><line class="cls-5" x1="181.65" y1="32.29" x2="150.65" y2="73.69"/><line class="cls-5" x1="228.93" y1="315.93" x2="197.97" y2="355.34"/><line class="cls-5" x1="228.93" y1="268.65" x2="197.95" y2="308.09"/><line class="cls-5" x1="228.93" y1="221.38" x2="197.92" y2="260.84"/><line class="cls-5" x1="228.93" y1="174.11" x2="197.9" y2="213.58"/><line class="cls-5" x1="228.93" y1="126.84" x2="197.88" y2="166.32"/><line class="cls-5" x1="228.93" y1="79.56" x2="197.86" y2="119.06"/><line class="cls-5" x1="228.93" y1="32.29" x2="197.84" y2="71.8"/><line class="cls-5" x1="276.2" y1="221.38" x2="245.07" y2="258.71"/><line class="cls-5" x1="276.2" y1="174.11" x2="245.05" y2="211.45"/><line class="cls-5" x1="276.2" y1="126.84" x2="245.03" y2="164.19"/><line class="cls-5" x1="276.2" y1="79.56" x2="245.01" y2="116.93"/><line class="cls-5" x1="276.2" y1="32.29" x2="245" y2="69.66"/><line class="cls-6" x1="297.47" y1="203.28" x2="288.52" y2="190.06"/><line class="cls-5" x1="323.47" y1="174.11" x2="292.16" y2="209.09"/><line class="cls-6" x1="288.5" y1="142.76" x2="302.63" y2="150.22"/><line class="cls-6" x1="297.45" y1="155.99" x2="288.5" y2="142.76"/><line class="cls-5" x1="323.47" y1="126.84" x2="292.15" y2="161.83"/><line class="cls-5" x1="323.47" y1="79.56" x2="292.14" y2="114.57"/><line class="cls-5" x1="323.47" y1="32.29" x2="292.12" y2="67.3"/><line class="cls-5" x1="370.75" y1="174.11" x2="339.25" y2="206.52"/><line class="cls-6" x1="346.43" y1="155.65" x2="338.34" y2="142.57"/><line class="cls-6" x1="338.34" y1="142.57" x2="351.64" y2="150.3"/><line class="cls-5" x1="370.75" y1="126.84" x2="339.24" y2="159.26"/><line class="cls-6" x1="338.33" y1="95.28" x2="351.63" y2="103.02"/><line class="cls-6" x1="346.42" y1="108.37" x2="338.33" y2="95.28"/><line class="cls-5" x1="370.75" y1="79.56" x2="339.23" y2="112"/><line class="cls-6" x1="346.41" y1="61.09" x2="338.31" y2="47.99"/><line class="cls-6" x1="338.31" y1="47.99" x2="351.62" y2="55.73"/><line class="cls-5" x1="370.75" y1="32.29" x2="339.22" y2="64.73"/><line class="cls-5" x1="70.13" y1="300.92" x2="56.31" y2="313.02"/><line class="cls-5" x1="56.31" y1="313.02" x2="62.81" y2="295.84"/><line class="cls-5" x1="56.28" y1="265.77" x2="62.79" y2="248.58"/><line class="cls-5" x1="70.11" y1="253.66" x2="56.28" y2="265.77"/><line class="cls-5" x1="117.27" y1="299.99" x2="103.56" y2="311.64"/><line class="cls-5" x1="103.56" y1="311.64" x2="110.18" y2="294.91"/><line class="cls-5" x1="150.8" y1="357.24" x2="157.57" y2="341.06"/><line class="cls-5" x1="164.39" y1="346.15" x2="150.8" y2="357.24"/><line class="cls-5" x1="117.26" y1="252.74" x2="103.53" y2="264.38"/><line class="cls-5" x1="103.53" y1="264.38" x2="110.16" y2="247.65"/><line class="cls-5" x1="150.77" y1="309.99" x2="157.55" y2="293.8"/><line class="cls-5" x1="164.37" y1="298.9" x2="150.77" y2="309.99"/><line class="cls-5" x1="56.25" y1="218.51" x2="62.77" y2="201.31"/><line class="cls-5" x1="70.1" y1="206.4" x2="56.25" y2="218.51"/><line class="cls-5" x1="197.97" y1="355.34" x2="204.94" y2="339.78"/><line class="cls-5" x1="211.44" y1="344.89" x2="197.97" y2="355.34"/><line class="cls-5" x1="164.35" y1="251.64" x2="150.74" y2="262.74"/><line class="cls-5" x1="150.74" y1="262.74" x2="157.53" y2="246.54"/><line class="cls-5" x1="117.24" y1="205.48" x2="103.5" y2="217.13"/><line class="cls-5" x1="103.5" y1="217.13" x2="110.14" y2="200.38"/><line class="cls-5" x1="197.95" y1="308.09" x2="204.92" y2="292.52"/><line class="cls-5" x1="211.42" y1="297.64" x2="197.95" y2="308.09"/><line class="cls-5" x1="56.22" y1="171.25" x2="62.75" y2="154.04"/><line class="cls-5" x1="70.08" y1="159.14" x2="56.22" y2="171.25"/><line class="cls-5" x1="197.92" y1="260.84" x2="204.9" y2="245.26"/><line class="cls-5" x1="211.41" y1="250.38" x2="197.92" y2="260.84"/><line class="cls-5" x1="164.34" y1="204.38" x2="150.72" y2="215.48"/><line class="cls-5" x1="150.72" y1="215.48" x2="157.51" y2="199.27"/><line class="cls-6" x1="388.34" y1="0.49" x2="400.75" y2="8.54"/><line class="cls-6" x1="395.51" y1="13.43" x2="388.34" y2="0.49"/><line class="cls-5" x1="103.47" y1="169.87" x2="110.12" y2="153.12"/><line class="cls-5" x1="117.22" y1="158.22" x2="103.47" y2="169.87"/><line class="cls-6" x1="438.56" y1="0.25" x2="450.02" y2="8.62"/><line class="cls-6" x1="444.73" y1="13.03" x2="438.56" y2="0.25"/><line class="cls-5" x1="197.9" y1="213.58" x2="204.88" y2="198"/><line class="cls-5" x1="211.39" y1="203.12" x2="197.9" y2="213.58"/><line class="cls-5" x1="245.07" y1="258.71" x2="252.26" y2="243.82"/><line class="cls-5" x1="258.42" y1="248.96" x2="245.07" y2="258.71"/><line class="cls-5" x1="56.19" y1="123.99" x2="62.73" y2="106.78"/><line class="cls-5" x1="70.06" y1="111.88" x2="56.19" y2="123.99"/><line class="cls-5" x1="164.32" y1="157.12" x2="150.69" y2="168.22"/><line class="cls-5" x1="150.69" y1="168.22" x2="157.49" y2="152.01"/><line class="cls-5" x1="258.41" y1="201.7" x2="245.05" y2="211.45"/><line class="cls-5" x1="245.05" y1="211.45" x2="252.25" y2="196.56"/><line class="cls-5" x1="117.21" y1="110.95" x2="103.45" y2="122.6"/><line class="cls-5" x1="103.45" y1="122.6" x2="110.1" y2="105.85"/><line class="cls-5" x1="211.38" y1="155.86" x2="197.88" y2="166.32"/><line class="cls-5" x1="197.88" y1="166.32" x2="204.86" y2="150.73"/><line class="cls-5" x1="150.67" y1="120.96" x2="157.48" y2="104.74"/><line class="cls-5" x1="164.31" y1="109.85" x2="150.67" y2="120.96"/><line class="cls-6" x1="488.95" y1="47.25" x2="499.41" y2="55.97"/><line class="cls-6" x1="494.08" y1="59.86" x2="488.95" y2="47.25"/><line class="cls-5" x1="56.17" y1="76.72" x2="62.71" y2="59.5"/><line class="cls-5" x1="70.05" y1="64.61" x2="56.17" y2="76.72"/><line class="cls-5" x1="292.16" y1="209.09" x2="299.61" y2="194.96"/><line class="cls-5" x1="305.38" y1="200.13" x2="292.16" y2="209.09"/><line class="cls-5" x1="245.03" y1="164.19" x2="252.23" y2="149.29"/><line class="cls-5" x1="258.4" y1="154.44" x2="245.03" y2="164.19"/><line class="cls-6" x1="288.52" y1="190.06" x2="302.64" y2="197.51"/><line class="cls-5" x1="197.86" y1="119.06" x2="204.85" y2="103.46"/><line class="cls-5" x1="211.37" y1="108.59" x2="197.86" y2="119.06"/><line class="cls-5" x1="117.19" y1="63.68" x2="103.43" y2="75.33"/><line class="cls-5" x1="103.43" y1="75.33" x2="110.09" y2="58.58"/><line class="cls-5" x1="292.15" y1="161.83" x2="299.6" y2="147.7"/><line class="cls-5" x1="305.37" y1="152.87" x2="292.15" y2="161.83"/><line class="cls-5" x1="352.32" y1="198.42" x2="339.25" y2="206.52"/><line class="cls-6" x1="488.97" y1="94.53" x2="499.42" y2="103.24"/><line class="cls-6" x1="338.36" y1="189.86" x2="351.65" y2="197.59"/><line class="cls-5" x1="258.39" y1="107.17" x2="245.01" y2="116.93"/><line class="cls-5" x1="245.01" y1="116.93" x2="252.22" y2="102.02"/><line class="cls-5" x1="164.3" y1="62.59" x2="150.65" y2="73.69"/><line class="cls-5" x1="150.65" y1="73.69" x2="157.46" y2="57.47"/><line class="cls-6" x1="297.48" y1="250.57" x2="288.54" y2="237.35"/><line class="cls-6" x1="288.54" y1="237.35" x2="302.65" y2="244.8"/><line class="cls-6" x1="248.66" y1="298.17" x2="238.93" y2="284.83"/><line class="cls-6" x1="238.93" y1="284.83" x2="253.8" y2="292.01"/><line class="cls-6" x1="438.61" y1="142.08" x2="450.05" y2="150.45"/><line class="cls-5" x1="339.24" y1="159.26" x2="346.96" y2="145.96"/><line class="cls-5" x1="352.31" y1="151.16" x2="339.24" y2="159.26"/><line class="cls-5" x1="211.36" y1="61.32" x2="197.84" y2="71.8"/><line class="cls-5" x1="197.84" y1="71.8" x2="204.84" y2="56.19"/><line class="cls-5" x1="292.14" y1="114.57" x2="299.59" y2="100.43"/><line class="cls-5" x1="305.37" y1="105.6" x2="292.14" y2="114.57"/><line class="cls-5" x1="399.21" y1="196.58" x2="386.3" y2="203.75"/><line class="cls-6" x1="388.4" y1="189.63" x2="400.8" y2="197.66"/><line class="cls-6" x1="488.98" y1="141.8" x2="499.43" y2="150.52"/><line class="cls-6" x1="494.1" y1="154.41" x2="488.98" y2="141.8"/><line class="cls-6" x1="338.38" y1="237.15" x2="351.66" y2="244.88"/><line class="cls-5" x1="245" y1="69.66" x2="252.21" y2="54.75"/><line class="cls-5" x1="258.38" y1="59.91" x2="245" y2="69.66"/><line class="cls-6" x1="297.5" y1="297.86" x2="288.56" y2="284.65"/><line class="cls-6" x1="288.56" y1="284.65" x2="302.66" y2="292.09"/><line class="cls-5" x1="339.23" y1="112" x2="346.95" y2="98.69"/><line class="cls-5" x1="352.31" y1="103.89" x2="339.23" y2="112"/><line class="cls-6" x1="238.95" y1="332.13" x2="253.81" y2="339.31"/><line class="cls-6" x1="248.68" y1="345.46" x2="238.95" y2="332.13"/><line class="cls-5" x1="399.21" y1="149.32" x2="386.3" y2="156.49"/><line class="cls-6" x1="444.78" y1="202.13" x2="438.62" y2="189.37"/><line class="cls-6" x1="438.62" y1="189.37" x2="450.07" y2="197.73"/><line class="cls-5" x1="292.12" y1="67.3" x2="299.58" y2="53.16"/><line class="cls-5" x1="305.36" y1="58.34" x2="292.12" y2="67.3"/><line class="cls-6" x1="395.57" y1="249.83" x2="388.42" y2="236.92"/><line class="cls-6" x1="388.42" y1="236.92" x2="400.81" y2="244.95"/><line class="cls-5" x1="399.21" y1="102.06" x2="386.29" y2="109.23"/><line class="cls-5" x1="386.29" y1="109.23" x2="394.31" y2="96.82"/><line class="cls-5" x1="339.22" y1="64.73" x2="346.95" y2="51.42"/><line class="cls-5" x1="352.3" y1="56.63" x2="339.22" y2="64.73"/><line class="cls-6" x1="338.41" y1="284.45" x2="351.68" y2="292.17"/><line class="cls-6" x1="346.48" y1="297.51" x2="338.41" y2="284.45"/><line class="cls-6" x1="489" y1="189.08" x2="499.44" y2="197.79"/><line class="cls-6" x1="494.11" y1="201.69" x2="489" y2="189.08"/><line class="cls-5" x1="446.08" y1="147.37" x2="433.33" y2="153.54"/><line class="cls-6" x1="297.52" y1="345.15" x2="288.59" y2="331.96"/><line class="cls-6" x1="288.59" y1="331.96" x2="302.68" y2="339.39"/><line class="cls-6" x1="238.98" y1="379.44" x2="253.83" y2="386.61"/><line class="cls-6" x1="248.7" y1="392.75" x2="238.98" y2="379.44"/><line class="cls-5" x1="480.33" y1="339.46" x2="489.02" y2="329.03"/><line class="cls-5" x1="480.33" y1="292.21" x2="489.02" y2="281.77"/><line class="cls-6" x1="438.64" y1="236.66" x2="450.08" y2="245.01"/><line class="cls-5" x1="386.29" y1="61.97" x2="394.31" y2="49.55"/><line class="cls-5" x1="399.21" y1="54.79" x2="386.29" y2="61.97"/><line class="cls-6" x1="444.8" y1="249.41" x2="438.64" y2="236.66"/><line class="cls-5" x1="480.33" y1="244.95" x2="489.02" y2="234.51"/><line class="cls-5" x1="446.08" y1="100.1" x2="433.33" y2="106.28"/><line class="cls-5" x1="433.33" y1="106.28" x2="441.67" y2="94.83"/><line class="cls-5" x1="480.33" y1="197.69" x2="489.02" y2="187.25"/><line class="cls-6" x1="388.45" y1="284.21" x2="400.82" y2="292.24"/><line class="cls-6" x1="395.59" y1="297.12" x2="388.45" y2="284.21"/><line class="cls-5" x1="480.33" y1="150.44" x2="489.02" y2="139.99"/><line class="cls-5" x1="446.08" y1="52.84" x2="433.33" y2="59.02"/><line class="cls-5" x1="433.33" y1="59.02" x2="441.67" y2="47.56"/><line class="cls-6" x1="338.43" y1="331.75" x2="351.69" y2="339.46"/><line class="cls-6" x1="346.5" y1="344.8" x2="338.43" y2="331.75"/><line class="cls-6" x1="489.02" y1="236.36" x2="499.46" y2="245.07"/><line class="cls-6" x1="494.12" y1="248.96" x2="489.02" y2="236.36"/><line class="cls-6" x1="297.54" y1="392.44" x2="288.61" y2="379.26"/><line class="cls-6" x1="288.61" y1="379.26" x2="302.69" y2="386.68"/><line class="cls-6" x1="248.72" y1="440.05" x2="239.01" y2="426.75"/><line class="cls-6" x1="239.01" y1="426.75" x2="253.84" y2="433.91"/><line class="cls-5" x1="492.92" y1="98.05" x2="480.34" y2="103.18"/><line class="cls-5" x1="480.34" y1="103.18" x2="489.02" y2="92.72"/><line class="cls-6" x1="444.81" y1="296.7" x2="438.66" y2="283.94"/><line class="cls-6" x1="438.66" y1="283.94" x2="450.09" y2="292.3"/><line class="cls-5" x1="544.78" y1="55.92" x2="532.2" y2="50.78"/><line class="cls-5" x1="536.1" y1="45.46" x2="544.78" y2="55.92"/><line class="cls-6" x1="395.6" y1="344.41" x2="388.47" y2="331.51"/><line class="cls-6" x1="388.47" y1="331.51" x2="400.84" y2="339.53"/><line class="cls-6" x1="338.46" y1="379.05" x2="351.71" y2="386.76"/><line class="cls-6" x1="346.52" y1="392.09" x2="338.46" y2="379.05"/><line class="cls-6" x1="494.14" y1="296.24" x2="489.04" y2="283.65"/><line class="cls-6" x1="489.04" y1="283.65" x2="499.47" y2="292.36"/><line class="cls-6" x1="297.56" y1="439.74" x2="288.64" y2="426.57"/><line class="cls-6" x1="288.64" y1="426.57" x2="302.71" y2="433.98"/><line class="cls-6" x1="444.83" y1="343.98" x2="438.69" y2="331.24"/><line class="cls-6" x1="438.69" y1="331.24" x2="450.11" y2="339.59"/><line class="cls-6" x1="395.62" y1="391.7" x2="388.49" y2="378.81"/><line class="cls-6" x1="388.49" y1="378.81" x2="400.85" y2="386.82"/><line class="cls-6" x1="338.48" y1="426.36" x2="351.72" y2="434.05"/><line class="cls-6" x1="346.54" y1="439.38" x2="338.48" y2="426.36"/><line class="cls-6" x1="489.06" y1="330.94" x2="499.48" y2="339.64"/><line class="cls-6" x1="494.15" y1="343.52" x2="489.06" y2="330.94"/><line class="cls-6" x1="438.71" y1="378.53" x2="450.12" y2="386.88"/><line class="cls-6" x1="444.84" y1="391.27" x2="438.71" y2="378.53"/><line class="cls-6" x1="388.52" y1="426.11" x2="400.87" y2="434.11"/><line class="cls-6" x1="395.64" y1="438.99" x2="388.52" y2="426.11"/><line class="cls-6" x1="489.08" y1="378.23" x2="499.5" y2="386.93"/><line class="cls-6" x1="494.17" y1="390.81" x2="489.08" y2="378.23"/><line class="cls-6" x1="444.86" y1="438.56" x2="438.73" y2="425.83"/><line class="cls-6" x1="438.73" y1="425.83" x2="450.13" y2="434.17"/><line class="cls-6" x1="494.18" y1="438.09" x2="489.1" y2="425.52"/><line class="cls-6" x1="489.1" y1="425.52" x2="499.51" y2="434.22"/></svg>