<?xml version="1.0" encoding="UTF-8" standalone="no"?>
<svg
   id="Livello_1"
   data-name="Livello 1"
   viewBox="0 0 505.03 210.85"
   version="1.1"
   sodipodi:docname="EHfield_prfe_broadside_center.svg"
   inkscape:version="1.1.1 (3bf5ae0d25, 2021-09-20)"
   xmlns:inkscape="http://www.inkscape.org/namespaces/inkscape"
   xmlns:sodipodi="http://sodipodi.sourceforge.net/DTD/sodipodi-0.dtd"
   xmlns="http://www.w3.org/2000/svg"
   xmlns:svg="http://www.w3.org/2000/svg">
  <sodipodi:namedview
     id="namedview179"
     pagecolor="#ffffff"
     bordercolor="#666666"
     borderopacity="1.0"
     inkscape:pageshadow="2"
     inkscape:pageopacity="0.0"
     inkscape:pagecheckerboard="0"
     showgrid="false"
     inkscape:zoom="1.1840881"
     inkscape:cx="310.78769"
     inkscape:cy="106.83327"
     inkscape:window-width="1920"
     inkscape:window-height="1009"
     inkscape:window-x="3432"
     inkscape:window-y="344"
     inkscape:window-maximized="1"
     inkscape:current-layer="Livello_1" />
  <defs
     id="defs4">
    <style
       id="style2">.cls-1{fill:#fff;}.cls-10,.cls-2,.cls-3,.cls-5,.cls-7,.cls-8,.cls-9{fill:none;stroke-linejoin:round;stroke-width:0.5px;}.cls-2,.cls-3,.cls-7,.cls-9{stroke:#262626;}.cls-2{opacity:0.15;}.cls-10,.cls-3,.cls-5{stroke-linecap:square;}.cls-4{font-size:9.5px;}.cls-4,.cls-6{fill:#262626;font-family:ArialMT, Arial;}.cls-5{stroke:#d95319;}.cls-6{font-size:10.45px;}.cls-7{stroke-linecap:round;}.cls-10,.cls-8{stroke:#0072bd;}</style>
  </defs>
  <line
     class="cls-2"
     x1="96.610001"
     y1="223.20689"
     x2="96.449997"
     y2="24.876671"
     id="line8" />
  <line
     class="cls-2"
     x1="149.53999"
     y1="223.14023"
     x2="149.39"
     y2="24.809999"
     id="line10" />
  <line
     class="cls-2"
     x1="202.48"
     y1="222.76779"
     x2="202.32001"
     y2="24.773247"
     id="line12" />
  <line
     class="cls-2"
     x1="255.41"
     y1="222.71455"
     x2="255.25999"
     y2="24.719999"
     id="line14" />
  <line
     class="cls-2"
     x1="308.33972"
     y1="222.69513"
     x2="308.19028"
     y2="24.668701"
     id="line16" />
  <line
     class="cls-2"
     x1="361.28"
     y1="222.66399"
     x2="361.13"
     y2="24.653126"
     id="line18" />
  <line
     class="cls-2"
     x1="414.20999"
     y1="222.59743"
     x2="414.06"
     y2="24.586563"
     id="line20" />
  <line
     class="cls-2"
     x1="467.14999"
     y1="222.53085"
     x2="466.98999"
     y2="24.52"
     id="line22" />
  <line
     class="cls-2"
     x1="96.45"
     y1="24.86"
     x2="96.45"
     y2="11.08"
     id="line24" />
  <line
     class="cls-2"
     x1="149.39"
     y1="24.81"
     x2="149.39"
     y2="11.04"
     id="line26" />
  <line
     class="cls-2"
     x1="202.32"
     y1="24.76"
     x2="202.32"
     y2="10.99"
     id="line28" />
  <line
     class="cls-2"
     x1="255.26"
     y1="24.72"
     x2="255.26"
     y2="10.94"
     id="line30" />
  <line
     class="cls-2"
     x1="308.19"
     y1="24.67"
     x2="308.19"
     y2="10.89"
     id="line32" />
  <line
     class="cls-2"
     x1="361.13"
     y1="24.62"
     x2="361.13"
     y2="10.84"
     id="line34" />
  <line
     class="cls-2"
     x1="414.06"
     y1="24.57"
     x2="414.06"
     y2="10.79"
     id="line36" />
  <line
     class="cls-2"
     x1="466.99"
     y1="24.52"
     x2="466.99"
     y2="10.75"
     id="line38" />
  <line
     class="cls-2"
     x1="504.83002"
     y1="222.20001"
     x2="48.240002"
     y2="222.62003"
     id="line40" />
  <line
     class="cls-2"
     x1="504.79001"
     y1="173.23"
     x2="48.189999"
     y2="173.64999"
     id="line42" />
  <line
     class="cls-2"
     x1="504.73001"
     y1="122.94"
     x2="48.130001"
     y2="123.36"
     id="line42-8"
     style="opacity:0.15;fill:none;stroke:#262626;stroke-width:0.5px;stroke-linejoin:round" />
  <line
     class="cls-2"
     x1="504.68"
     y1="73.31"
     x2="48.08"
     y2="73.73"
     id="line44" />
  <line
     class="cls-2"
     x1="504.78"
     y1="158.8"
     x2="504.78"
     y2="172.57"
     id="line46" />
  <line
     class="cls-2"
     x1="504.73"
     y1="109.17"
     x2="504.73"
     y2="122.94"
     id="line48" />
  <line
     class="cls-2"
     x1="504.68"
     y1="59.54"
     x2="504.68"
     y2="73.31"
     id="line50" />
  <line
     class="cls-2"
     x1="504.63"
     y1="18.8"
     x2="48.03"
     y2="19.22"
     id="line52" />
  <line
     class="cls-2"
     x1="504.78"
     y1="167.54"
     x2="504.63"
     y2="18.8"
     id="line54" />
  <line
     class="cls-2"
     x1="504.78"
     y1="160.18"
     x2="504.63"
     y2="11.44"
     id="line56" />
  <line
     class="cls-3"
     x1="48.189999"
     y1="223.27356"
     x2="48.029999"
     y2="24.94334"
     id="line58" />
  <line
     class="cls-3"
     x1="48.03"
     y1="24.91"
     x2="48.03"
     y2="11.13"
     id="line60" />
  <text
     class="cls-4"
     id="text62"
     x="5.8059201"
     y="19.973444">0.15</text>
  <line
     class="cls-3"
     x1="48.03"
     y1="19.22"
     x2="48.02"
     y2="7.8"
     id="line64" />
  <line
     class="cls-5"
     x1="229.41"
     y1="18.32"
     x2="240.36"
     y2="42.12"
     id="line66" />
  <line
     class="cls-5"
     x1="227.16"
     y1="44.16"
     x2="229.41"
     y2="18.32"
     id="line68" />
  <line
     class="cls-5"
     x1="255.41"
     y1="166.79"
     x2="229.41"
     y2="18.32"
     id="line70" />
  <line
     class="cls-3"
     x1="48.08"
     y1="73.73"
     x2="36.67"
     y2="73.74"
     id="line72" />
  <text
     class="cls-4"
     id="text74"
     x="6.2574916"
     y="77.489998">0.1</text>
  <text
     class="cls-6"
     transform="rotate(-90)"
     id="text76"
     x="-103.02"
     y="-18.899548">Y</text>
  <line
     class="cls-5"
     x1="156"
     y1="166.88"
     x2="135.42"
     y2="64.16"
     id="line78" />
  <line
     class="cls-5"
     x1="135.42"
     y1="64.16"
     x2="146.89"
     y2="87.41"
     id="line80" />
  <line
     class="cls-5"
     x1="133.73"
     y1="89.71"
     x2="135.42"
     y2="64.16"
     id="line82" />
  <line
     class="cls-5"
     x1="354.82"
     y1="166.7"
     x2="337.28"
     y2="48.76"
     id="line84" />
  <line
     class="cls-5"
     x1="334.38"
     y1="74.7"
     x2="337.28"
     y2="48.76"
     id="line86" />
  <line
     class="cls-5"
     x1="337.28"
     y1="48.76"
     x2="347.63"
     y2="72.95"
     id="line88" />
  <line
     class="cls-3"
     x1="48.03"
     y1="11.85"
     x2="48.02"
     y2="0.44"
     id="line90" />
  <line
     class="cls-7"
     x1="48.13"
     y1="123.36"
     x2="36.72"
     y2="123.37"
     id="line92" />
  <text
     class="cls-4"
     id="text94"
     x="1.0574917"
     y="127.12">0.05</text>
  <text
     class="cls-4"
     id="text94-7"
     style="font-size:9.5px;font-family:ArialMT, Arial;fill:#262626"
     x="-8.407299"
     y="226.31247">-0.05</text>
  <line
     class="cls-3"
     x1="48.189999"
     y1="173.64999"
     x2="36.779999"
     y2="173.66"
     id="line72-2"
     style="fill:none;stroke:#262626;stroke-width:0.5px;stroke-linecap:square;stroke-linejoin:round" />
  <line
     class="cls-7"
     x1="48.240002"
     y1="223.28"
     x2="36.830002"
     y2="223.28999"
     id="line92-2"
     style="fill:none;stroke:#262626;stroke-width:0.5px;stroke-linecap:round;stroke-linejoin:round" />
  <line
     class="cls-8"
     x1="448.96"
     y1="151.7"
     x2="479.02"
     y2="156.09"
     id="line96" />
  <line
     class="cls-8"
     x1="354.82"
     y1="166.7"
     x2="479.02"
     y2="156.09"
     id="line98" />
  <line
     class="cls-8"
     x1="479.02"
     y1="156.09"
     x2="451.05"
     y2="165.43"
     id="line100" />
  <line
     class="cls-8"
     x1="454.23"
     y1="166.61"
     x2="504.78"
     y2="167.04"
     id="line102" />
  <line
     class="cls-8"
     x1="487.62"
     y1="162.8"
     x2="504.78"
     y2="167.04"
     id="line104" />
  <line
     class="cls-8"
     x1="504.78"
     y1="167.04"
     x2="488.58"
     y2="171"
     id="line106" />
  <line
     class="cls-9"
     x1="48.240002"
     y1="222.62003"
     x2="36.820004"
     y2="222.63"
     id="line108" />
  <text
     class="cls-4"
     id="text110"
     x="7.9457703"
     y="175.90546">0</text>
  <line
     class="cls-9"
     x1="48.240002"
     y1="223.28"
     x2="504.83002"
     y2="222.86002"
     id="line112" />
  <line
     class="cls-9"
     x1="467.20001"
     y1="222.89001"
     x2="467.21002"
     y2="234.31"
     id="line114" />
  <line
     class="cls-7"
     x1="414.26001"
     y1="222.94"
     x2="414.28003"
     y2="234.36002"
     id="line116" />
  <line
     class="cls-7"
     x1="361.33002"
     y1="222.99002"
     x2="361.34003"
     y2="234.40002"
     id="line118" />
  <line
     class="cls-7"
     x1="308.39001"
     y1="223.04001"
     x2="308.41"
     y2="234.45001"
     id="line120" />
  <text
     class="cls-6"
     id="text122"
     x="248.33205"
     y="269.758">X</text>
  <line
     class="cls-7"
     x1="255.46001"
     y1="223.09003"
     x2="255.47"
     y2="234.5"
     id="line124" />
  <line
     class="cls-7"
     x1="202.53"
     y1="223.13"
     x2="202.54001"
     y2="234.55002"
     id="line126" />
  <line
     class="cls-7"
     x1="149.59"
     y1="223.18002"
     x2="149.60001"
     y2="234.60001"
     id="line128" />
  <line
     class="cls-3"
     x1="96.660004"
     y1="223.23001"
     x2="96.670013"
     y2="234.65002"
     id="line130" />
  <line
     class="cls-5"
     x1="48.74"
     y1="131.96"
     x2="54.5"
     y2="142.9"
     id="line132" />
  <line
     class="cls-5"
     x1="48.16"
     y1="144.12"
     x2="48.74"
     y2="131.96"
     id="line134" />
  <line
     class="cls-5"
     x1="56.59"
     y1="166.97"
     x2="48.74"
     y2="131.96"
     id="line136" />
  <line
     class="cls-5"
     x1="446.28"
     y1="135.83"
     x2="448.4"
     y2="119.99"
     id="line138" />
  <line
     class="cls-5"
     x1="448.4"
     y1="119.99"
     x2="454.36"
     y2="134.93"
     id="line140" />
  <line
     class="cls-5"
     x1="454.23"
     y1="166.61"
     x2="448.4"
     y2="119.99"
     id="line142" />
  <text
     class="cls-4"
     id="text144"
     x="460.46002"
     y="247.46002">0.2</text>
  <text
     class="cls-4"
     id="text146"
     x="404.90002"
     y="247.51001">0.15</text>
  <text
     class="cls-4"
     id="text148"
     x="354.59003"
     y="247.56003">0.1</text>
  <text
     class="cls-4"
     id="text150"
     x="299.04001"
     y="247.60001">0.05</text>
  <text
     class="cls-4"
     id="text152"
     x="252.48"
     y="247.65002">0</text>
  <text
     class="cls-4"
     id="text154"
     x="191.67"
     y="247.70001">-0.05</text>
  <text
     class="cls-4"
     id="text156"
     x="141.36"
     y="247.75003">-0.1</text>
  <text
     class="cls-4"
     id="text158"
     x="85.800003"
     y="247.80002">-0.15</text>
  <line
     class="cls-10"
     x1="382.72"
     y1="137.67"
     x2="413.09"
     y2="139.46"
     id="line160" />
  <line
     class="cls-10"
     x1="413.09"
     y1="139.46"
     x2="385.17"
     y2="151.35"
     id="line162" />
  <line
     class="cls-10"
     x1="255.41"
     y1="166.79"
     x2="413.09"
     y2="139.46"
     id="line164" />
  <line
     class="cls-10"
     x1="156"
     y1="166.88"
     x2="266.85"
     y2="139.53"
     id="line166" />
  <line
     class="cls-10"
     x1="56.59"
     y1="166.97"
     x2="95.73"
     y2="154.07"
     id="line168" />
  <line
     class="cls-10"
     x1="82.12"
     y1="155.06"
     x2="95.73"
     y2="154.07"
     id="line170" />
  <line
     class="cls-10"
     x1="236.96"
     y1="139.75"
     x2="266.85"
     y2="139.53"
     id="line172" />
  <line
     class="cls-10"
     x1="95.73"
     y1="154.07"
     x2="83.51"
     y2="161.59"
     id="line174" />
  <line
     class="cls-10"
     x1="266.85"
     y1="139.53"
     x2="239.7"
     y2="153.38"
     id="line176" />
</svg>
