<svg id="Livello_1" data-name="Livello 1" xmlns="http://www.w3.org/2000/svg" viewBox="0 0 457.38 484.1"><defs><style>.cls-1{fill:#fff;}.cls-2,.cls-3,.cls-4,.cls-5,.cls-6,.cls-7,.cls-8,.cls-9{fill:none;}.cls-2,.cls-3,.cls-4,.cls-5{stroke:#ccc;stroke-width:0.5px;}.cls-2{stroke-linecap:square;}.cls-2,.cls-3{stroke-miterlimit:10;}.cls-3,.cls-4,.cls-6,.cls-8{stroke-linecap:round;}.cls-4,.cls-5,.cls-6,.cls-7,.cls-8,.cls-9{stroke-linejoin:round;}.cls-6,.cls-7{stroke:#0072bd;}.cls-8,.cls-9{stroke:#d95319;}.cls-10{font-size:17.1px;}.cls-10,.cls-11{font-family:ArialMT, Arial;}.cls-11{font-size:19px;}.cls-12{font-size:20.9px;font-family:Arial-BoldMT, Arial;font-weight:700;}</style></defs><polygon class="cls-1" points="74.56 377.42 78.97 382.86 83.56 388.14 88.34 393.26 93.29 398.22 98.41 402.99 103.69 407.59 109.14 411.99 114.73 416.21 120.47 420.23 126.34 424.04 132.34 427.65 138.47 431.04 144.71 434.22 151.05 437.18 157.5 439.92 164.04 442.43 170.66 444.7 177.35 446.75 184.12 448.56 190.94 450.14 197.82 451.48 204.73 452.57 211.68 453.43 218.66 454.04 225.65 454.4 232.65 454.52 239.66 454.4 246.65 454.04 253.63 453.43 260.58 452.57 267.49 451.48 274.37 450.14 281.19 448.56 287.95 446.75 294.65 444.7 301.27 442.43 307.81 439.92 314.26 437.18 320.6 434.22 326.84 431.04 332.97 427.65 338.97 424.04 344.84 420.23 350.58 416.21 356.17 411.99 361.61 407.59 366.9 402.99 372.02 398.22 376.97 393.26 381.75 388.14 386.34 382.86 390.75 377.42 394.96 371.82 398.98 366.09 402.79 360.21 406.4 354.21 409.8 348.09 412.98 341.85 415.93 335.5 418.67 329.06 421.18 322.52 423.46 315.9 425.51 309.2 427.32 302.44 428.89 295.61 430.23 288.74 431.33 281.82 432.18 274.87 432.79 267.89 433.16 260.9 433.28 253.9 433.16 246.9 432.79 239.91 432.18 232.93 431.33 225.98 430.23 219.06 428.89 212.19 427.32 205.36 425.51 198.6 423.46 191.9 421.18 185.28 418.67 178.74 415.93 172.3 412.98 165.95 409.8 159.71 406.4 153.59 402.79 147.58 398.98 141.71 394.96 135.97 390.75 130.38 386.34 124.94 381.75 119.66 376.97 114.53 372.02 109.58 366.9 104.81 361.61 100.21 356.17 95.81 350.58 91.59 344.84 87.57 338.97 83.76 332.97 80.15 326.84 76.76 320.6 73.58 314.26 70.62 307.81 67.88 301.27 65.37 294.65 63.09 287.95 61.05 281.19 59.23 274.37 57.66 267.49 56.32 260.58 55.23 253.63 54.37 246.65 53.76 239.66 53.4 232.65 53.27 225.65 53.4 218.66 53.76 211.68 54.37 204.73 55.23 197.82 56.32 190.94 57.66 184.12 59.23 177.35 61.05 170.66 63.09 164.04 65.37 157.5 67.88 151.05 70.62 144.71 73.58 138.47 76.76 132.34 80.15 126.34 83.76 120.47 87.57 114.73 91.59 109.14 95.81 103.69 100.21 98.41 104.81 93.29 109.58 88.34 114.53 83.56 119.66 78.97 124.94 74.56 130.38 70.34 135.97 66.33 141.71 62.52 147.58 58.91 153.59 55.51 159.71 52.33 165.95 49.37 172.3 46.64 178.74 44.13 185.28 41.85 191.9 39.8 198.6 37.99 205.36 36.41 212.19 35.08 219.06 33.98 225.98 33.13 232.93 32.52 239.91 32.15 246.9 32.03 253.9 32.15 260.9 32.52 267.89 33.13 274.87 33.98 281.82 35.08 288.74 36.41 295.61 37.99 302.44 39.8 309.2 41.85 315.9 44.13 322.52 46.64 329.06 49.37 335.5 52.33 341.85 55.51 348.09 58.91 354.21 62.52 360.21 66.33 366.09 70.34 371.82 74.56 377.42"/><line class="cls-2" x1="433.28" y1="253.9" x2="433.16" y2="246.9"/><line class="cls-3" x1="433.16" y1="246.9" x2="432.79" y2="239.9"/><line class="cls-3" x1="432.79" y1="239.9" x2="432.18" y2="232.93"/><line class="cls-3" x1="432.18" y1="232.93" x2="431.33" y2="225.98"/><line class="cls-3" x1="431.33" y1="225.98" x2="430.23" y2="219.06"/><line class="cls-3" x1="430.23" y1="219.06" x2="428.9" y2="212.19"/><line class="cls-3" x1="428.9" y1="212.19" x2="427.32" y2="205.36"/><line class="cls-3" x1="427.32" y1="205.36" x2="425.51" y2="198.6"/><line class="cls-3" x1="425.51" y1="198.6" x2="423.46" y2="191.9"/><line class="cls-3" x1="423.46" y1="191.9" x2="421.18" y2="185.28"/><line class="cls-3" x1="421.18" y1="185.28" x2="418.67" y2="178.74"/><line class="cls-3" x1="418.67" y1="178.74" x2="415.93" y2="172.3"/><line class="cls-3" x1="415.93" y1="172.3" x2="412.97" y2="165.95"/><line class="cls-3" x1="412.97" y1="165.95" x2="409.8" y2="159.71"/><line class="cls-3" x1="409.8" y1="159.71" x2="406.4" y2="153.59"/><line class="cls-3" x1="406.4" y1="153.59" x2="402.79" y2="147.58"/><line class="cls-3" x1="402.79" y1="147.58" x2="398.98" y2="141.71"/><line class="cls-3" x1="398.98" y1="141.71" x2="394.96" y2="135.98"/><line class="cls-3" x1="394.96" y1="135.98" x2="390.75" y2="130.38"/><line class="cls-3" x1="390.75" y1="130.38" x2="386.34" y2="124.94"/><line class="cls-3" x1="386.34" y1="124.94" x2="381.75" y2="119.66"/><line class="cls-3" x1="381.75" y1="119.66" x2="376.97" y2="114.53"/><line class="cls-3" x1="376.97" y1="114.53" x2="372.02" y2="109.58"/><line class="cls-3" x1="372.02" y1="109.58" x2="366.9" y2="104.81"/><line class="cls-3" x1="366.9" y1="104.81" x2="361.61" y2="100.21"/><line class="cls-3" x1="361.61" y1="100.21" x2="356.17" y2="95.8"/><line class="cls-3" x1="356.17" y1="95.8" x2="350.58" y2="91.59"/><line class="cls-3" x1="350.58" y1="91.59" x2="344.84" y2="87.57"/><line class="cls-3" x1="344.84" y1="87.57" x2="338.97" y2="83.76"/><line class="cls-3" x1="338.97" y1="83.76" x2="332.97" y2="80.15"/><line class="cls-3" x1="332.97" y1="80.15" x2="326.84" y2="76.76"/><line class="cls-3" x1="326.84" y1="76.76" x2="320.6" y2="73.58"/><line class="cls-3" x1="320.6" y1="73.58" x2="314.26" y2="70.62"/><line class="cls-3" x1="314.26" y1="70.62" x2="307.81" y2="67.88"/><line class="cls-3" x1="307.81" y1="67.88" x2="301.27" y2="65.37"/><line class="cls-3" x1="301.27" y1="65.37" x2="294.65" y2="63.09"/><line class="cls-3" x1="294.65" y1="63.09" x2="287.95" y2="61.05"/><line class="cls-3" x1="287.95" y1="61.05" x2="281.19" y2="59.23"/><line class="cls-3" x1="281.19" y1="59.23" x2="274.37" y2="57.66"/><line class="cls-3" x1="274.37" y1="57.66" x2="267.49" y2="56.32"/><line class="cls-3" x1="267.49" y1="56.32" x2="260.58" y2="55.23"/><line class="cls-3" x1="260.58" y1="55.23" x2="253.63" y2="54.37"/><line class="cls-3" x1="253.63" y1="54.37" x2="246.65" y2="53.76"/><line class="cls-3" x1="246.65" y1="53.76" x2="239.66" y2="53.4"/><line class="cls-3" x1="239.66" y1="53.4" x2="232.65" y2="53.27"/><line class="cls-3" x1="232.65" y1="53.27" x2="225.65" y2="53.4"/><line class="cls-3" x1="225.65" y1="53.4" x2="218.66" y2="53.76"/><line class="cls-3" x1="218.66" y1="53.76" x2="211.68" y2="54.37"/><line class="cls-3" x1="211.68" y1="54.37" x2="204.73" y2="55.23"/><line class="cls-3" x1="204.73" y1="55.23" x2="197.82" y2="56.32"/><line class="cls-3" x1="197.82" y1="56.32" x2="190.94" y2="57.66"/><line class="cls-3" x1="190.94" y1="57.66" x2="184.12" y2="59.23"/><line class="cls-3" x1="184.12" y1="59.23" x2="177.35" y2="61.05"/><line class="cls-3" x1="177.35" y1="61.05" x2="170.66" y2="63.09"/><line class="cls-3" x1="170.66" y1="63.09" x2="164.04" y2="65.37"/><line class="cls-3" x1="164.04" y1="65.37" x2="157.5" y2="67.88"/><line class="cls-3" x1="157.5" y1="67.88" x2="151.05" y2="70.62"/><line class="cls-3" x1="151.05" y1="70.62" x2="144.71" y2="73.58"/><line class="cls-3" x1="144.71" y1="73.58" x2="138.47" y2="76.76"/><line class="cls-3" x1="138.47" y1="76.76" x2="132.34" y2="80.15"/><line class="cls-3" x1="132.34" y1="80.15" x2="126.34" y2="83.76"/><line class="cls-3" x1="126.34" y1="83.76" x2="120.47" y2="87.57"/><line class="cls-3" x1="120.47" y1="87.57" x2="114.73" y2="91.59"/><line class="cls-3" x1="114.73" y1="91.59" x2="109.14" y2="95.8"/><line class="cls-3" x1="109.14" y1="95.8" x2="103.7" y2="100.21"/><line class="cls-3" x1="103.7" y1="100.21" x2="98.41" y2="104.81"/><line class="cls-3" x1="98.41" y1="104.81" x2="93.29" y2="109.58"/><line class="cls-3" x1="93.29" y1="109.58" x2="88.34" y2="114.53"/><line class="cls-3" x1="88.34" y1="114.53" x2="83.56" y2="119.66"/><line class="cls-3" x1="83.56" y1="119.66" x2="78.97" y2="124.94"/><line class="cls-3" x1="78.97" y1="124.94" x2="74.56" y2="130.38"/><line class="cls-3" x1="74.56" y1="130.38" x2="70.35" y2="135.98"/><line class="cls-3" x1="70.35" y1="135.98" x2="66.33" y2="141.71"/><line class="cls-3" x1="66.33" y1="141.71" x2="62.51" y2="147.58"/><line class="cls-3" x1="62.51" y1="147.58" x2="58.91" y2="153.59"/><line class="cls-3" x1="58.91" y1="153.59" x2="55.51" y2="159.71"/><line class="cls-3" x1="55.51" y1="159.71" x2="52.33" y2="165.95"/><line class="cls-3" x1="52.33" y1="165.95" x2="49.37" y2="172.3"/><line class="cls-3" x1="49.37" y1="172.3" x2="46.64" y2="178.74"/><line class="cls-3" x1="46.64" y1="178.74" x2="44.13" y2="185.28"/><line class="cls-3" x1="44.13" y1="185.28" x2="41.85" y2="191.9"/><line class="cls-3" x1="41.85" y1="191.9" x2="39.8" y2="198.6"/><line class="cls-3" x1="39.8" y1="198.6" x2="37.99" y2="205.36"/><line class="cls-3" x1="37.99" y1="205.36" x2="36.41" y2="212.19"/><line class="cls-3" x1="36.41" y1="212.19" x2="35.08" y2="219.06"/><line class="cls-3" x1="35.08" y1="219.06" x2="33.98" y2="225.98"/><line class="cls-3" x1="33.98" y1="225.98" x2="33.13" y2="232.93"/><line class="cls-3" x1="33.13" y1="232.93" x2="32.52" y2="239.9"/><line class="cls-3" x1="32.52" y1="239.9" x2="32.15" y2="246.9"/><line class="cls-3" x1="32.15" y1="246.9" x2="32.03" y2="253.9"/><line class="cls-3" x1="32.03" y1="253.9" x2="32.15" y2="260.9"/><line class="cls-3" x1="32.15" y1="260.9" x2="32.52" y2="267.89"/><line class="cls-3" x1="32.52" y1="267.89" x2="33.13" y2="274.87"/><line class="cls-3" x1="33.13" y1="274.87" x2="33.98" y2="281.82"/><line class="cls-3" x1="33.98" y1="281.82" x2="35.08" y2="288.74"/><line class="cls-3" x1="35.08" y1="288.74" x2="36.41" y2="295.61"/><line class="cls-3" x1="36.41" y1="295.61" x2="37.99" y2="302.43"/><line class="cls-3" x1="37.99" y1="302.43" x2="39.8" y2="309.2"/><line class="cls-3" x1="39.8" y1="309.2" x2="41.85" y2="315.9"/><line class="cls-3" x1="41.85" y1="315.9" x2="44.13" y2="322.52"/><line class="cls-3" x1="44.13" y1="322.52" x2="46.64" y2="329.05"/><line class="cls-3" x1="46.64" y1="329.05" x2="49.37" y2="335.5"/><line class="cls-3" x1="49.37" y1="335.5" x2="52.33" y2="341.85"/><line class="cls-3" x1="52.33" y1="341.85" x2="55.51" y2="348.09"/><line class="cls-3" x1="55.51" y1="348.09" x2="58.91" y2="354.21"/><line class="cls-3" x1="58.91" y1="354.21" x2="62.51" y2="360.21"/><line class="cls-3" x1="62.51" y1="360.21" x2="66.33" y2="366.09"/><line class="cls-3" x1="66.33" y1="366.09" x2="70.35" y2="371.82"/><line class="cls-3" x1="70.35" y1="371.82" x2="74.56" y2="377.42"/><line class="cls-3" x1="74.56" y1="377.42" x2="78.97" y2="382.86"/><line class="cls-3" x1="78.97" y1="382.86" x2="83.56" y2="388.14"/><line class="cls-3" x1="83.56" y1="388.14" x2="88.34" y2="393.27"/><line class="cls-3" x1="88.34" y1="393.27" x2="93.29" y2="398.22"/><line class="cls-3" x1="93.29" y1="398.22" x2="98.41" y2="402.99"/><line class="cls-3" x1="98.41" y1="402.99" x2="103.7" y2="407.59"/><line class="cls-3" x1="103.7" y1="407.59" x2="109.14" y2="411.99"/><line class="cls-3" x1="109.14" y1="411.99" x2="114.73" y2="416.21"/><line class="cls-3" x1="114.73" y1="416.21" x2="120.47" y2="420.23"/><line class="cls-3" x1="120.47" y1="420.23" x2="126.34" y2="424.04"/><line class="cls-3" x1="126.34" y1="424.04" x2="132.34" y2="427.65"/><line class="cls-3" x1="132.34" y1="427.65" x2="138.47" y2="431.04"/><line class="cls-3" x1="138.47" y1="431.04" x2="144.71" y2="434.22"/><line class="cls-3" x1="144.71" y1="434.22" x2="151.05" y2="437.18"/><line class="cls-3" x1="151.05" y1="437.18" x2="157.5" y2="439.92"/><line class="cls-3" x1="157.5" y1="439.92" x2="164.04" y2="442.43"/><line class="cls-3" x1="164.04" y1="442.43" x2="170.66" y2="444.71"/><line class="cls-3" x1="170.66" y1="444.71" x2="177.35" y2="446.75"/><line class="cls-3" x1="177.35" y1="446.75" x2="184.12" y2="448.56"/><line class="cls-3" x1="184.12" y1="448.56" x2="190.94" y2="450.14"/><line class="cls-3" x1="190.94" y1="450.14" x2="197.82" y2="451.48"/><line class="cls-3" x1="197.82" y1="451.48" x2="204.73" y2="452.57"/><line class="cls-3" x1="204.73" y1="452.57" x2="211.68" y2="453.43"/><line class="cls-3" x1="211.68" y1="453.43" x2="218.66" y2="454.04"/><line class="cls-3" x1="218.66" y1="454.04" x2="225.65" y2="454.4"/><line class="cls-3" x1="225.65" y1="454.4" x2="232.65" y2="454.52"/><line class="cls-3" x1="232.65" y1="454.52" x2="239.66" y2="454.4"/><line class="cls-3" x1="239.66" y1="454.4" x2="246.65" y2="454.04"/><line class="cls-3" x1="246.65" y1="454.04" x2="253.63" y2="453.43"/><line class="cls-3" x1="253.63" y1="453.43" x2="260.58" y2="452.57"/><line class="cls-3" x1="260.58" y1="452.57" x2="267.49" y2="451.48"/><line class="cls-3" x1="267.49" y1="451.48" x2="274.37" y2="450.14"/><line class="cls-3" x1="274.37" y1="450.14" x2="281.19" y2="448.56"/><line class="cls-3" x1="281.19" y1="448.56" x2="287.95" y2="446.75"/><line class="cls-3" x1="287.95" y1="446.75" x2="294.65" y2="444.71"/><line class="cls-3" x1="294.65" y1="444.71" x2="301.27" y2="442.43"/><line class="cls-3" x1="301.27" y1="442.43" x2="307.81" y2="439.92"/><line class="cls-3" x1="307.81" y1="439.92" x2="314.26" y2="437.18"/><line class="cls-3" x1="314.26" y1="437.18" x2="320.6" y2="434.22"/><line class="cls-3" x1="320.6" y1="434.22" x2="326.84" y2="431.04"/><line class="cls-3" x1="326.84" y1="431.04" x2="332.97" y2="427.65"/><line class="cls-3" x1="332.97" y1="427.65" x2="338.97" y2="424.04"/><line class="cls-3" x1="338.97" y1="424.04" x2="344.84" y2="420.23"/><line class="cls-3" x1="344.84" y1="420.23" x2="350.58" y2="416.21"/><line class="cls-3" x1="350.58" y1="416.21" x2="356.17" y2="411.99"/><line class="cls-3" x1="356.17" y1="411.99" x2="361.61" y2="407.59"/><line class="cls-3" x1="361.61" y1="407.59" x2="366.9" y2="402.99"/><line class="cls-3" x1="366.9" y1="402.99" x2="372.02" y2="398.22"/><line class="cls-3" x1="372.02" y1="398.22" x2="376.97" y2="393.27"/><line class="cls-3" x1="376.97" y1="393.27" x2="381.75" y2="388.14"/><line class="cls-3" x1="381.75" y1="388.14" x2="386.34" y2="382.86"/><line class="cls-3" x1="386.34" y1="382.86" x2="390.75" y2="377.42"/><line class="cls-3" x1="390.75" y1="377.42" x2="394.96" y2="371.82"/><line class="cls-3" x1="394.96" y1="371.82" x2="398.98" y2="366.09"/><line class="cls-3" x1="398.98" y1="366.09" x2="402.79" y2="360.21"/><line class="cls-3" x1="402.79" y1="360.21" x2="406.4" y2="354.21"/><line class="cls-3" x1="406.4" y1="354.21" x2="409.8" y2="348.09"/><line class="cls-3" x1="409.8" y1="348.09" x2="412.97" y2="341.85"/><line class="cls-3" x1="412.97" y1="341.85" x2="415.93" y2="335.5"/><line class="cls-3" x1="415.93" y1="335.5" x2="418.67" y2="329.05"/><line class="cls-3" x1="418.67" y1="329.05" x2="421.18" y2="322.52"/><line class="cls-3" x1="421.18" y1="322.52" x2="423.46" y2="315.9"/><line class="cls-3" x1="423.46" y1="315.9" x2="425.51" y2="309.2"/><line class="cls-3" x1="425.51" y1="309.2" x2="427.32" y2="302.43"/><line class="cls-3" x1="427.32" y1="302.43" x2="428.9" y2="295.61"/><line class="cls-3" x1="428.9" y1="295.61" x2="430.23" y2="288.74"/><line class="cls-3" x1="430.23" y1="288.74" x2="431.33" y2="281.82"/><line class="cls-3" x1="431.33" y1="281.82" x2="432.18" y2="274.87"/><line class="cls-3" x1="432.18" y1="274.87" x2="432.79" y2="267.89"/><line class="cls-3" x1="432.79" y1="267.89" x2="433.16" y2="260.9"/><line class="cls-3" x1="433.16" y1="260.9" x2="433.28" y2="253.9"/><line class="cls-3" x1="433.28" y1="253.9" x2="433.28" y2="253.9"/><line class="cls-2" x1="433.28" y1="253.9" x2="433.28" y2="253.9"/><line class="cls-2" x1="261.32" y1="253.9" x2="260.88" y2="248.92"/><line class="cls-4" x1="260.88" y1="248.92" x2="259.59" y2="244.1"/><line class="cls-4" x1="259.59" y1="244.1" x2="257.48" y2="239.57"/><line class="cls-4" x1="257.48" y1="239.57" x2="254.61" y2="235.48"/><line class="cls-4" x1="254.61" y1="235.48" x2="251.08" y2="231.94"/><line class="cls-4" x1="251.08" y1="231.94" x2="246.98" y2="229.08"/><line class="cls-4" x1="246.98" y1="229.08" x2="242.46" y2="226.97"/><line class="cls-4" x1="242.46" y1="226.97" x2="237.63" y2="225.67"/><line class="cls-4" x1="237.63" y1="225.67" x2="232.65" y2="225.24"/><line class="cls-4" x1="232.65" y1="225.24" x2="227.68" y2="225.67"/><line class="cls-4" x1="227.68" y1="225.67" x2="222.85" y2="226.97"/><line class="cls-4" x1="222.85" y1="226.97" x2="218.32" y2="229.08"/><line class="cls-4" x1="218.32" y1="229.08" x2="214.23" y2="231.94"/><line class="cls-4" x1="214.23" y1="231.94" x2="210.7" y2="235.48"/><line class="cls-4" x1="210.7" y1="235.48" x2="207.83" y2="239.57"/><line class="cls-4" x1="207.83" y1="239.57" x2="205.72" y2="244.1"/><line class="cls-4" x1="205.72" y1="244.1" x2="204.43" y2="248.92"/><line class="cls-4" x1="204.43" y1="248.92" x2="203.99" y2="253.9"/><line class="cls-4" x1="203.99" y1="253.9" x2="204.43" y2="258.88"/><line class="cls-4" x1="204.43" y1="258.88" x2="205.72" y2="263.7"/><line class="cls-4" x1="205.72" y1="263.7" x2="207.83" y2="268.23"/><line class="cls-4" x1="207.83" y1="268.23" x2="210.7" y2="272.32"/><line class="cls-4" x1="210.7" y1="272.32" x2="214.23" y2="275.85"/><line class="cls-4" x1="214.23" y1="275.85" x2="218.32" y2="278.72"/><line class="cls-4" x1="218.32" y1="278.72" x2="222.85" y2="280.83"/><line class="cls-4" x1="222.85" y1="280.83" x2="227.68" y2="282.12"/><line class="cls-4" x1="227.68" y1="282.12" x2="232.65" y2="282.56"/><line class="cls-4" x1="232.65" y1="282.56" x2="237.63" y2="282.12"/><line class="cls-4" x1="237.63" y1="282.12" x2="242.46" y2="280.83"/><line class="cls-4" x1="242.46" y1="280.83" x2="246.98" y2="278.72"/><line class="cls-4" x1="246.98" y1="278.72" x2="251.08" y2="275.85"/><line class="cls-4" x1="251.08" y1="275.85" x2="254.61" y2="272.32"/><line class="cls-4" x1="254.61" y1="272.32" x2="257.48" y2="268.23"/><line class="cls-4" x1="257.48" y1="268.23" x2="259.59" y2="263.7"/><line class="cls-4" x1="259.59" y1="263.7" x2="260.88" y2="258.88"/><line class="cls-4" x1="260.88" y1="258.88" x2="261.32" y2="253.9"/><line class="cls-5" x1="261.32" y1="253.9" x2="261.32" y2="253.9"/><line class="cls-5" x1="318.64" y1="253.9" x2="318.35" y2="246.9"/><line class="cls-4" x1="318.35" y1="246.9" x2="317.5" y2="239.96"/><line class="cls-4" x1="317.5" y1="239.96" x2="316.08" y2="233.1"/><line class="cls-4" x1="316.08" y1="233.1" x2="314.11" y2="226.38"/><line class="cls-4" x1="314.11" y1="226.38" x2="311.6" y2="219.84"/><line class="cls-4" x1="311.6" y1="219.84" x2="308.57" y2="213.53"/><line class="cls-4" x1="308.57" y1="213.53" x2="305.04" y2="207.49"/><line class="cls-4" x1="305.04" y1="207.49" x2="301.02" y2="201.76"/><line class="cls-4" x1="301.02" y1="201.76" x2="296.55" y2="196.37"/><line class="cls-4" x1="296.55" y1="196.37" x2="291.66" y2="191.36"/><line class="cls-4" x1="291.66" y1="191.36" x2="286.37" y2="186.77"/><line class="cls-4" x1="286.37" y1="186.77" x2="280.73" y2="182.62"/><line class="cls-4" x1="280.73" y1="182.62" x2="274.78" y2="178.94"/><line class="cls-4" x1="274.78" y1="178.94" x2="268.54" y2="175.76"/><line class="cls-4" x1="268.54" y1="175.76" x2="262.06" y2="173.1"/><line class="cls-4" x1="262.06" y1="173.1" x2="255.39" y2="170.98"/><line class="cls-4" x1="255.39" y1="170.98" x2="248.57" y2="169.4"/><line class="cls-4" x1="248.57" y1="169.4" x2="241.64" y2="168.39"/><line class="cls-4" x1="241.64" y1="168.39" x2="234.65" y2="167.94"/><line class="cls-4" x1="234.65" y1="167.94" x2="227.65" y2="168.06"/><line class="cls-4" x1="227.65" y1="168.06" x2="220.69" y2="168.75"/><line class="cls-4" x1="220.69" y1="168.75" x2="213.8" y2="170.01"/><line class="cls-4" x1="213.8" y1="170.01" x2="207.04" y2="171.82"/><line class="cls-4" x1="207.04" y1="171.82" x2="200.44" y2="174.18"/><line class="cls-4" x1="200.44" y1="174.18" x2="194.07" y2="177.06"/><line class="cls-4" x1="194.07" y1="177.06" x2="187.94" y2="180.46"/><line class="cls-4" x1="187.94" y1="180.46" x2="182.12" y2="184.34"/><line class="cls-4" x1="182.12" y1="184.34" x2="176.62" y2="188.68"/><line class="cls-4" x1="176.62" y1="188.68" x2="171.5" y2="193.46"/><line class="cls-4" x1="171.5" y1="193.46" x2="166.79" y2="198.63"/><line class="cls-4" x1="166.79" y1="198.63" x2="162.51" y2="204.17"/><line class="cls-4" x1="162.51" y1="204.17" x2="158.7" y2="210.04"/><line class="cls-4" x1="158.7" y1="210.04" x2="155.37" y2="216.21"/><line class="cls-4" x1="155.37" y1="216.21" x2="152.56" y2="222.62"/><line class="cls-4" x1="152.56" y1="222.62" x2="150.28" y2="229.24"/><line class="cls-4" x1="150.28" y1="229.24" x2="148.55" y2="236.02"/><line class="cls-4" x1="148.55" y1="236.02" x2="147.38" y2="242.92"/><line class="cls-4" x1="147.38" y1="242.92" x2="146.77" y2="249.9"/><line class="cls-4" x1="146.77" y1="249.9" x2="146.72" y2="256.9"/><line class="cls-4" x1="146.72" y1="256.9" x2="147.25" y2="263.88"/><line class="cls-4" x1="147.25" y1="263.88" x2="148.35" y2="270.8"/><line class="cls-4" x1="148.35" y1="270.8" x2="150" y2="277.6"/><line class="cls-4" x1="150" y1="277.6" x2="152.21" y2="284.25"/><line class="cls-4" x1="152.21" y1="284.25" x2="154.94" y2="290.69"/><line class="cls-4" x1="154.94" y1="290.69" x2="158.19" y2="296.89"/><line class="cls-4" x1="158.19" y1="296.89" x2="161.94" y2="302.81"/><line class="cls-4" x1="161.94" y1="302.81" x2="166.15" y2="308.4"/><line class="cls-4" x1="166.15" y1="308.4" x2="170.8" y2="313.63"/><line class="cls-4" x1="170.8" y1="313.63" x2="175.87" y2="318.46"/><line class="cls-4" x1="175.87" y1="318.46" x2="181.31" y2="322.87"/><line class="cls-4" x1="181.31" y1="322.87" x2="187.09" y2="326.82"/><line class="cls-4" x1="187.09" y1="326.82" x2="193.17" y2="330.28"/><line class="cls-4" x1="193.17" y1="330.28" x2="199.52" y2="333.24"/><line class="cls-4" x1="199.52" y1="333.24" x2="206.08" y2="335.67"/><line class="cls-4" x1="206.08" y1="335.67" x2="212.83" y2="337.56"/><line class="cls-4" x1="212.83" y1="337.56" x2="219.7" y2="338.9"/><line class="cls-4" x1="219.7" y1="338.9" x2="226.66" y2="339.67"/><line class="cls-4" x1="226.66" y1="339.67" x2="233.65" y2="339.88"/><line class="cls-4" x1="233.65" y1="339.88" x2="240.65" y2="339.51"/><line class="cls-4" x1="240.65" y1="339.51" x2="247.58" y2="338.58"/><line class="cls-4" x1="247.58" y1="338.58" x2="254.42" y2="337.08"/><line class="cls-4" x1="254.42" y1="337.08" x2="261.12" y2="335.03"/><line class="cls-4" x1="261.12" y1="335.03" x2="267.63" y2="332.45"/><line class="cls-4" x1="267.63" y1="332.45" x2="273.9" y2="329.34"/><line class="cls-4" x1="273.9" y1="329.34" x2="279.9" y2="325.74"/><line class="cls-4" x1="279.9" y1="325.74" x2="285.59" y2="321.65"/><line class="cls-4" x1="285.59" y1="321.65" x2="290.93" y2="317.12"/><line class="cls-4" x1="290.93" y1="317.12" x2="295.88" y2="312.17"/><line class="cls-4" x1="295.88" y1="312.17" x2="300.41" y2="306.84"/><line class="cls-4" x1="300.41" y1="306.84" x2="304.49" y2="301.15"/><line class="cls-4" x1="304.49" y1="301.15" x2="308.1" y2="295.15"/><line class="cls-4" x1="308.1" y1="295.15" x2="311.2" y2="288.87"/><line class="cls-4" x1="311.2" y1="288.87" x2="313.79" y2="282.36"/><line class="cls-4" x1="313.79" y1="282.36" x2="315.83" y2="275.67"/><line class="cls-4" x1="315.83" y1="275.67" x2="317.33" y2="268.83"/><line class="cls-4" x1="317.33" y1="268.83" x2="318.26" y2="261.89"/><line class="cls-4" x1="318.26" y1="261.89" x2="318.63" y2="254.9"/><line class="cls-5" x1="318.63" y1="254.9" x2="318.64" y2="253.9"/><line class="cls-5" x1="375.96" y1="253.9" x2="375.79" y2="246.9"/><line class="cls-4" x1="375.79" y1="246.9" x2="375.27" y2="239.92"/><line class="cls-4" x1="375.27" y1="239.92" x2="374.42" y2="232.97"/><line class="cls-4" x1="374.42" y1="232.97" x2="373.23" y2="226.06"/><line class="cls-4" x1="373.23" y1="226.06" x2="371.7" y2="219.23"/><line class="cls-4" x1="371.7" y1="219.23" x2="369.84" y2="212.48"/><line class="cls-4" x1="369.84" y1="212.48" x2="367.65" y2="205.83"/><line class="cls-4" x1="367.65" y1="205.83" x2="365.15" y2="199.29"/><line class="cls-4" x1="365.15" y1="199.29" x2="362.32" y2="192.88"/><line class="cls-4" x1="362.32" y1="192.88" x2="359.18" y2="186.62"/><line class="cls-4" x1="359.18" y1="186.62" x2="355.75" y2="180.52"/><line class="cls-4" x1="355.75" y1="180.52" x2="352.01" y2="174.6"/><line class="cls-4" x1="352.01" y1="174.6" x2="348" y2="168.86"/><line class="cls-4" x1="348" y1="168.86" x2="343.71" y2="163.33"/><line class="cls-4" x1="343.71" y1="163.33" x2="339.15" y2="158.01"/><line class="cls-4" x1="339.15" y1="158.01" x2="334.34" y2="152.92"/><line class="cls-4" x1="334.34" y1="152.92" x2="329.28" y2="148.08"/><line class="cls-4" x1="329.28" y1="148.08" x2="324" y2="143.48"/><line class="cls-4" x1="324" y1="143.48" x2="318.5" y2="139.15"/><line class="cls-4" x1="318.5" y1="139.15" x2="312.79" y2="135.1"/><line class="cls-4" x1="312.79" y1="135.1" x2="306.89" y2="131.32"/><line class="cls-4" x1="306.89" y1="131.32" x2="300.81" y2="127.84"/><line class="cls-4" x1="300.81" y1="127.84" x2="294.57" y2="124.66"/><line class="cls-4" x1="294.57" y1="124.66" x2="288.19" y2="121.79"/><line class="cls-4" x1="288.19" y1="121.79" x2="281.67" y2="119.24"/><line class="cls-4" x1="281.67" y1="119.24" x2="275.03" y2="117"/><line class="cls-4" x1="275.03" y1="117" x2="268.29" y2="115.1"/><line class="cls-4" x1="268.29" y1="115.1" x2="261.47" y2="113.52"/><line class="cls-4" x1="261.47" y1="113.52" x2="254.58" y2="112.28"/><line class="cls-4" x1="254.58" y1="112.28" x2="247.63" y2="111.38"/><line class="cls-4" x1="247.63" y1="111.38" x2="240.65" y2="110.82"/><line class="cls-4" x1="240.65" y1="110.82" x2="233.65" y2="110.6"/><line class="cls-4" x1="233.65" y1="110.6" x2="226.65" y2="110.72"/><line class="cls-4" x1="226.65" y1="110.72" x2="219.67" y2="111.19"/><line class="cls-4" x1="219.67" y1="111.19" x2="212.71" y2="111.99"/><line class="cls-4" x1="212.71" y1="111.99" x2="205.8" y2="113.13"/><line class="cls-4" x1="205.8" y1="113.13" x2="198.96" y2="114.61"/><line class="cls-4" x1="198.96" y1="114.61" x2="192.19" y2="116.43"/><line class="cls-4" x1="192.19" y1="116.43" x2="185.53" y2="118.57"/><line class="cls-4" x1="185.53" y1="118.57" x2="178.97" y2="121.03"/><line class="cls-4" x1="178.97" y1="121.03" x2="172.55" y2="123.81"/><line class="cls-4" x1="172.55" y1="123.81" x2="166.26" y2="126.9"/><line class="cls-4" x1="166.26" y1="126.9" x2="160.14" y2="130.3"/><line class="cls-4" x1="160.14" y1="130.3" x2="154.19" y2="133.99"/><line class="cls-4" x1="154.19" y1="133.99" x2="148.42" y2="137.96"/><line class="cls-4" x1="148.42" y1="137.96" x2="142.86" y2="142.22"/><line class="cls-4" x1="142.86" y1="142.22" x2="137.51" y2="146.74"/><line class="cls-4" x1="137.51" y1="146.74" x2="132.39" y2="151.51"/><line class="cls-4" x1="132.39" y1="151.51" x2="127.51" y2="156.53"/><line class="cls-4" x1="127.51" y1="156.53" x2="122.88" y2="161.79"/><line class="cls-4" x1="122.88" y1="161.79" x2="118.51" y2="167.26"/><line class="cls-4" x1="118.51" y1="167.26" x2="114.41" y2="172.94"/><line class="cls-4" x1="114.41" y1="172.94" x2="110.6" y2="178.81"/><line class="cls-4" x1="110.6" y1="178.81" x2="107.08" y2="184.86"/><line class="cls-4" x1="107.08" y1="184.86" x2="103.85" y2="191.08"/><line class="cls-4" x1="103.85" y1="191.08" x2="100.94" y2="197.45"/><line class="cls-4" x1="100.94" y1="197.45" x2="98.34" y2="203.95"/><line class="cls-4" x1="98.34" y1="203.95" x2="96.06" y2="210.57"/><line class="cls-4" x1="96.06" y1="210.57" x2="94.11" y2="217.29"/><line class="cls-4" x1="94.11" y1="217.29" x2="92.48" y2="224.1"/><line class="cls-4" x1="92.48" y1="224.1" x2="91.19" y2="230.99"/><line class="cls-4" x1="91.19" y1="230.99" x2="90.24" y2="237.93"/><line class="cls-4" x1="90.24" y1="237.93" x2="89.63" y2="244.9"/><line class="cls-4" x1="89.63" y1="244.9" x2="89.36" y2="251.9"/><line class="cls-4" x1="89.36" y1="251.9" x2="89.44" y2="258.9"/><line class="cls-4" x1="89.44" y1="258.9" x2="89.85" y2="265.89"/><line class="cls-4" x1="89.85" y1="265.89" x2="90.61" y2="272.85"/><line class="cls-4" x1="90.61" y1="272.85" x2="91.7" y2="279.77"/><line class="cls-4" x1="91.7" y1="279.77" x2="93.14" y2="286.62"/><line class="cls-4" x1="93.14" y1="286.62" x2="94.9" y2="293.4"/><line class="cls-4" x1="94.9" y1="293.4" x2="97" y2="300.08"/><line class="cls-4" x1="97" y1="300.08" x2="99.41" y2="306.65"/><line class="cls-4" x1="99.41" y1="306.65" x2="102.15" y2="313.1"/><line class="cls-4" x1="102.15" y1="313.1" x2="105.2" y2="319.4"/><line class="cls-4" x1="105.2" y1="319.4" x2="108.55" y2="325.55"/><line class="cls-4" x1="108.55" y1="325.55" x2="112.2" y2="331.53"/><line class="cls-4" x1="112.2" y1="331.53" x2="116.13" y2="337.32"/><line class="cls-4" x1="116.13" y1="337.32" x2="120.35" y2="342.91"/><line class="cls-4" x1="120.35" y1="342.91" x2="124.83" y2="348.29"/><line class="cls-4" x1="124.83" y1="348.29" x2="129.57" y2="353.45"/><line class="cls-4" x1="129.57" y1="353.45" x2="134.56" y2="358.36"/><line class="cls-4" x1="134.56" y1="358.36" x2="139.78" y2="363.03"/><line class="cls-4" x1="139.78" y1="363.03" x2="145.22" y2="367.44"/><line class="cls-4" x1="145.22" y1="367.44" x2="150.87" y2="371.57"/><line class="cls-4" x1="150.87" y1="371.57" x2="156.71" y2="375.43"/><line class="cls-4" x1="156.71" y1="375.43" x2="162.74" y2="378.99"/><line class="cls-4" x1="162.74" y1="378.99" x2="168.94" y2="382.26"/><line class="cls-4" x1="168.94" y1="382.26" x2="175.28" y2="385.22"/><line class="cls-4" x1="175.28" y1="385.22" x2="181.77" y2="387.86"/><line class="cls-4" x1="181.77" y1="387.86" x2="188.37" y2="390.19"/><line class="cls-4" x1="188.37" y1="390.19" x2="195.08" y2="392.19"/><line class="cls-4" x1="195.08" y1="392.19" x2="201.88" y2="393.86"/><line class="cls-4" x1="201.88" y1="393.86" x2="208.76" y2="395.2"/><line class="cls-4" x1="208.76" y1="395.2" x2="215.69" y2="396.19"/><line class="cls-4" x1="215.69" y1="396.19" x2="222.66" y2="396.85"/><line class="cls-4" x1="222.66" y1="396.85" x2="229.65" y2="397.17"/><line class="cls-4" x1="229.65" y1="397.17" x2="236.66" y2="397.15"/><line class="cls-4" x1="236.66" y1="397.15" x2="243.65" y2="396.78"/><line class="cls-4" x1="243.65" y1="396.78" x2="250.61" y2="396.07"/><line class="cls-4" x1="250.61" y1="396.07" x2="257.54" y2="395.03"/><line class="cls-4" x1="257.54" y1="395.03" x2="264.4" y2="393.64"/><line class="cls-4" x1="264.4" y1="393.64" x2="271.19" y2="391.92"/><line class="cls-4" x1="271.19" y1="391.92" x2="277.89" y2="389.88"/><line class="cls-4" x1="277.89" y1="389.88" x2="284.48" y2="387.5"/><line class="cls-4" x1="284.48" y1="387.5" x2="290.94" y2="384.81"/><line class="cls-4" x1="290.94" y1="384.81" x2="297.27" y2="381.81"/><line class="cls-4" x1="297.27" y1="381.81" x2="303.44" y2="378.5"/><line class="cls-4" x1="303.44" y1="378.5" x2="309.44" y2="374.89"/><line class="cls-4" x1="309.44" y1="374.89" x2="315.26" y2="371"/><line class="cls-4" x1="315.26" y1="371" x2="320.88" y2="366.82"/><line class="cls-4" x1="320.88" y1="366.82" x2="326.29" y2="362.38"/><line class="cls-4" x1="326.29" y1="362.38" x2="331.48" y2="357.68"/><line class="cls-4" x1="331.48" y1="357.68" x2="336.43" y2="352.72"/><line class="cls-4" x1="336.43" y1="352.72" x2="341.13" y2="347.54"/><line class="cls-4" x1="341.13" y1="347.54" x2="345.58" y2="342.13"/><line class="cls-4" x1="345.58" y1="342.13" x2="349.75" y2="336.5"/><line class="cls-4" x1="349.75" y1="336.5" x2="353.65" y2="330.69"/><line class="cls-4" x1="353.65" y1="330.69" x2="357.26" y2="324.68"/><line class="cls-4" x1="357.26" y1="324.68" x2="360.57" y2="318.51"/><line class="cls-4" x1="360.57" y1="318.51" x2="363.57" y2="312.19"/><line class="cls-4" x1="363.57" y1="312.19" x2="366.26" y2="305.72"/><line class="cls-4" x1="366.26" y1="305.72" x2="368.63" y2="299.13"/><line class="cls-4" x1="368.63" y1="299.13" x2="370.68" y2="292.44"/><line class="cls-4" x1="370.68" y1="292.44" x2="372.4" y2="285.65"/><line class="cls-4" x1="372.4" y1="285.65" x2="373.78" y2="278.78"/><line class="cls-4" x1="373.78" y1="278.78" x2="374.83" y2="271.86"/><line class="cls-4" x1="374.83" y1="271.86" x2="375.54" y2="264.89"/><line class="cls-4" x1="375.54" y1="264.89" x2="375.9" y2="257.9"/><line class="cls-5" x1="375.9" y1="257.9" x2="375.96" y2="253.9"/><line class="cls-5" x1="433.28" y1="253.9" x2="433.16" y2="246.9"/><line class="cls-4" x1="433.16" y1="246.9" x2="432.79" y2="239.9"/><line class="cls-4" x1="432.79" y1="239.9" x2="432.18" y2="232.93"/><line class="cls-4" x1="432.18" y1="232.93" x2="431.33" y2="225.98"/><line class="cls-4" x1="431.33" y1="225.98" x2="430.23" y2="219.06"/><line class="cls-4" x1="430.23" y1="219.06" x2="428.9" y2="212.19"/><line class="cls-4" x1="428.9" y1="212.19" x2="427.32" y2="205.36"/><line class="cls-4" x1="427.32" y1="205.36" x2="425.51" y2="198.6"/><line class="cls-4" x1="425.51" y1="198.6" x2="423.46" y2="191.9"/><line class="cls-4" x1="423.46" y1="191.9" x2="421.18" y2="185.28"/><line class="cls-4" x1="421.18" y1="185.28" x2="418.67" y2="178.74"/><line class="cls-4" x1="418.67" y1="178.74" x2="415.93" y2="172.3"/><line class="cls-4" x1="415.93" y1="172.3" x2="412.97" y2="165.95"/><line class="cls-4" x1="412.97" y1="165.95" x2="409.8" y2="159.71"/><line class="cls-4" x1="409.8" y1="159.71" x2="406.4" y2="153.59"/><line class="cls-4" x1="406.4" y1="153.59" x2="402.79" y2="147.58"/><line class="cls-4" x1="402.79" y1="147.58" x2="398.98" y2="141.71"/><line class="cls-4" x1="398.98" y1="141.71" x2="394.96" y2="135.98"/><line class="cls-4" x1="394.96" y1="135.98" x2="390.75" y2="130.38"/><line class="cls-4" x1="390.75" y1="130.38" x2="386.34" y2="124.94"/><line class="cls-4" x1="386.34" y1="124.94" x2="381.75" y2="119.66"/><line class="cls-4" x1="381.75" y1="119.66" x2="376.97" y2="114.53"/><line class="cls-4" x1="376.97" y1="114.53" x2="372.02" y2="109.58"/><line class="cls-4" x1="372.02" y1="109.58" x2="366.9" y2="104.81"/><line class="cls-4" x1="366.9" y1="104.81" x2="361.61" y2="100.21"/><line class="cls-4" x1="361.61" y1="100.21" x2="356.17" y2="95.8"/><line class="cls-4" x1="356.17" y1="95.8" x2="350.58" y2="91.59"/><line class="cls-4" x1="350.58" y1="91.59" x2="344.84" y2="87.57"/><line class="cls-4" x1="344.84" y1="87.57" x2="338.97" y2="83.76"/><line class="cls-4" x1="338.97" y1="83.76" x2="332.97" y2="80.15"/><line class="cls-4" x1="332.97" y1="80.15" x2="326.84" y2="76.76"/><line class="cls-4" x1="326.84" y1="76.76" x2="320.6" y2="73.58"/><line class="cls-4" x1="320.6" y1="73.58" x2="314.26" y2="70.62"/><line class="cls-4" x1="314.26" y1="70.62" x2="307.81" y2="67.88"/><line class="cls-4" x1="307.81" y1="67.88" x2="301.27" y2="65.37"/><line class="cls-4" x1="301.27" y1="65.37" x2="294.65" y2="63.09"/><line class="cls-4" x1="294.65" y1="63.09" x2="287.95" y2="61.05"/><line class="cls-4" x1="287.95" y1="61.05" x2="281.19" y2="59.23"/><line class="cls-4" x1="281.19" y1="59.23" x2="274.37" y2="57.66"/><line class="cls-4" x1="274.37" y1="57.66" x2="267.49" y2="56.32"/><line class="cls-4" x1="267.49" y1="56.32" x2="260.58" y2="55.23"/><line class="cls-4" x1="260.58" y1="55.23" x2="253.63" y2="54.37"/><line class="cls-4" x1="253.63" y1="54.37" x2="246.65" y2="53.76"/><line class="cls-4" x1="246.65" y1="53.76" x2="239.66" y2="53.4"/><line class="cls-4" x1="239.66" y1="53.4" x2="232.65" y2="53.27"/><line class="cls-4" x1="232.65" y1="53.27" x2="225.65" y2="53.4"/><line class="cls-4" x1="225.65" y1="53.4" x2="218.66" y2="53.76"/><line class="cls-4" x1="218.66" y1="53.76" x2="211.68" y2="54.37"/><line class="cls-4" x1="211.68" y1="54.37" x2="204.73" y2="55.23"/><line class="cls-4" x1="204.73" y1="55.23" x2="197.82" y2="56.32"/><line class="cls-4" x1="197.82" y1="56.32" x2="190.94" y2="57.66"/><line class="cls-4" x1="190.94" y1="57.66" x2="184.12" y2="59.23"/><line class="cls-4" x1="184.12" y1="59.23" x2="177.35" y2="61.05"/><line class="cls-4" x1="177.35" y1="61.05" x2="170.66" y2="63.09"/><line class="cls-4" x1="170.66" y1="63.09" x2="164.04" y2="65.37"/><line class="cls-4" x1="164.04" y1="65.37" x2="157.5" y2="67.88"/><line class="cls-4" x1="157.5" y1="67.88" x2="151.05" y2="70.62"/><line class="cls-4" x1="151.05" y1="70.62" x2="144.71" y2="73.58"/><line class="cls-4" x1="144.71" y1="73.58" x2="138.47" y2="76.76"/><line class="cls-4" x1="138.47" y1="76.76" x2="132.34" y2="80.15"/><line class="cls-4" x1="132.34" y1="80.15" x2="126.34" y2="83.76"/><line class="cls-4" x1="126.34" y1="83.76" x2="120.47" y2="87.57"/><line class="cls-4" x1="120.47" y1="87.57" x2="114.73" y2="91.59"/><line class="cls-4" x1="114.73" y1="91.59" x2="109.14" y2="95.8"/><line class="cls-4" x1="109.14" y1="95.8" x2="103.7" y2="100.21"/><line class="cls-4" x1="103.7" y1="100.21" x2="98.41" y2="104.81"/><line class="cls-4" x1="98.41" y1="104.81" x2="93.29" y2="109.58"/><line class="cls-4" x1="93.29" y1="109.58" x2="88.34" y2="114.53"/><line class="cls-4" x1="88.34" y1="114.53" x2="83.56" y2="119.66"/><line class="cls-4" x1="83.56" y1="119.66" x2="78.97" y2="124.94"/><line class="cls-4" x1="78.97" y1="124.94" x2="74.56" y2="130.38"/><line class="cls-4" x1="74.56" y1="130.38" x2="70.35" y2="135.98"/><line class="cls-4" x1="70.35" y1="135.98" x2="66.33" y2="141.71"/><line class="cls-4" x1="66.33" y1="141.71" x2="62.51" y2="147.58"/><line class="cls-4" x1="62.51" y1="147.58" x2="58.91" y2="153.59"/><line class="cls-4" x1="58.91" y1="153.59" x2="55.51" y2="159.71"/><line class="cls-4" x1="55.51" y1="159.71" x2="52.33" y2="165.95"/><line class="cls-4" x1="52.33" y1="165.95" x2="49.37" y2="172.3"/><line class="cls-4" x1="49.37" y1="172.3" x2="46.64" y2="178.74"/><line class="cls-4" x1="46.64" y1="178.74" x2="44.13" y2="185.28"/><line class="cls-4" x1="44.13" y1="185.28" x2="41.85" y2="191.9"/><line class="cls-4" x1="41.85" y1="191.9" x2="39.8" y2="198.6"/><line class="cls-4" x1="39.8" y1="198.6" x2="37.99" y2="205.36"/><line class="cls-4" x1="37.99" y1="205.36" x2="36.41" y2="212.19"/><line class="cls-4" x1="36.41" y1="212.19" x2="35.08" y2="219.06"/><line class="cls-4" x1="35.08" y1="219.06" x2="33.98" y2="225.98"/><line class="cls-4" x1="33.98" y1="225.98" x2="33.13" y2="232.93"/><line class="cls-4" x1="33.13" y1="232.93" x2="32.52" y2="239.9"/><line class="cls-4" x1="32.52" y1="239.9" x2="32.15" y2="246.9"/><line class="cls-4" x1="32.15" y1="246.9" x2="32.03" y2="253.9"/><line class="cls-4" x1="32.03" y1="253.9" x2="32.15" y2="260.9"/><line class="cls-4" x1="32.15" y1="260.9" x2="32.52" y2="267.89"/><line class="cls-4" x1="32.52" y1="267.89" x2="33.13" y2="274.87"/><line class="cls-4" x1="33.13" y1="274.87" x2="33.98" y2="281.82"/><line class="cls-4" x1="33.98" y1="281.82" x2="35.08" y2="288.74"/><line class="cls-4" x1="35.08" y1="288.74" x2="36.41" y2="295.61"/><line class="cls-4" x1="36.41" y1="295.61" x2="37.99" y2="302.43"/><line class="cls-4" x1="37.99" y1="302.43" x2="39.8" y2="309.2"/><line class="cls-4" x1="39.8" y1="309.2" x2="41.85" y2="315.9"/><line class="cls-4" x1="41.85" y1="315.9" x2="44.13" y2="322.52"/><line class="cls-4" x1="44.13" y1="322.52" x2="46.64" y2="329.05"/><line class="cls-4" x1="46.64" y1="329.05" x2="49.37" y2="335.5"/><line class="cls-4" x1="49.37" y1="335.5" x2="52.33" y2="341.85"/><line class="cls-4" x1="52.33" y1="341.85" x2="55.51" y2="348.09"/><line class="cls-4" x1="55.51" y1="348.09" x2="58.91" y2="354.21"/><line class="cls-4" x1="58.91" y1="354.21" x2="62.51" y2="360.21"/><line class="cls-4" x1="62.51" y1="360.21" x2="66.33" y2="366.09"/><line class="cls-4" x1="66.33" y1="366.09" x2="70.35" y2="371.82"/><line class="cls-4" x1="70.35" y1="371.82" x2="74.56" y2="377.42"/><line class="cls-4" x1="74.56" y1="377.42" x2="78.97" y2="382.86"/><line class="cls-4" x1="78.97" y1="382.86" x2="83.56" y2="388.14"/><line class="cls-4" x1="83.56" y1="388.14" x2="88.34" y2="393.27"/><line class="cls-4" x1="88.34" y1="393.27" x2="93.29" y2="398.22"/><line class="cls-4" x1="93.29" y1="398.22" x2="98.41" y2="402.99"/><line class="cls-4" x1="98.41" y1="402.99" x2="103.7" y2="407.59"/><line class="cls-4" x1="103.7" y1="407.59" x2="109.14" y2="411.99"/><line class="cls-4" x1="109.14" y1="411.99" x2="114.73" y2="416.21"/><line class="cls-4" x1="114.73" y1="416.21" x2="120.47" y2="420.23"/><line class="cls-4" x1="120.47" y1="420.23" x2="126.34" y2="424.04"/><line class="cls-4" x1="126.34" y1="424.04" x2="132.34" y2="427.65"/><line class="cls-4" x1="132.34" y1="427.65" x2="138.47" y2="431.04"/><line class="cls-4" x1="138.47" y1="431.04" x2="144.71" y2="434.22"/><line class="cls-4" x1="144.71" y1="434.22" x2="151.05" y2="437.18"/><line class="cls-4" x1="151.05" y1="437.18" x2="157.5" y2="439.92"/><line class="cls-4" x1="157.5" y1="439.92" x2="164.04" y2="442.43"/><line class="cls-4" x1="164.04" y1="442.43" x2="170.66" y2="444.71"/><line class="cls-4" x1="170.66" y1="444.71" x2="177.35" y2="446.75"/><line class="cls-4" x1="177.35" y1="446.75" x2="184.12" y2="448.56"/><line class="cls-4" x1="184.12" y1="448.56" x2="190.94" y2="450.14"/><line class="cls-4" x1="190.94" y1="450.14" x2="197.82" y2="451.48"/><line class="cls-4" x1="197.82" y1="451.48" x2="204.73" y2="452.57"/><line class="cls-4" x1="204.73" y1="452.57" x2="211.68" y2="453.43"/><line class="cls-4" x1="211.68" y1="453.43" x2="218.66" y2="454.04"/><line class="cls-4" x1="218.66" y1="454.04" x2="225.65" y2="454.4"/><line class="cls-4" x1="225.65" y1="454.4" x2="232.65" y2="454.52"/><line class="cls-4" x1="232.65" y1="454.52" x2="239.66" y2="454.4"/><line class="cls-4" x1="239.66" y1="454.4" x2="246.65" y2="454.04"/><line class="cls-4" x1="246.65" y1="454.04" x2="253.63" y2="453.43"/><line class="cls-4" x1="253.63" y1="453.43" x2="260.58" y2="452.57"/><line class="cls-4" x1="260.58" y1="452.57" x2="267.49" y2="451.48"/><line class="cls-4" x1="267.49" y1="451.48" x2="274.37" y2="450.14"/><line class="cls-4" x1="274.37" y1="450.14" x2="281.19" y2="448.56"/><line class="cls-4" x1="281.19" y1="448.56" x2="287.95" y2="446.75"/><line class="cls-4" x1="287.95" y1="446.75" x2="294.65" y2="444.71"/><line class="cls-4" x1="294.65" y1="444.71" x2="301.27" y2="442.43"/><line class="cls-4" x1="301.27" y1="442.43" x2="307.81" y2="439.92"/><line class="cls-4" x1="307.81" y1="439.92" x2="314.26" y2="437.18"/><line class="cls-4" x1="314.26" y1="437.18" x2="320.6" y2="434.22"/><line class="cls-4" x1="320.6" y1="434.22" x2="326.84" y2="431.04"/><line class="cls-4" x1="326.84" y1="431.04" x2="332.97" y2="427.65"/><line class="cls-4" x1="332.97" y1="427.65" x2="338.97" y2="424.04"/><line class="cls-4" x1="338.97" y1="424.04" x2="344.84" y2="420.23"/><line class="cls-4" x1="344.84" y1="420.23" x2="350.58" y2="416.21"/><line class="cls-4" x1="350.58" y1="416.21" x2="356.17" y2="411.99"/><line class="cls-4" x1="356.17" y1="411.99" x2="361.61" y2="407.59"/><line class="cls-4" x1="361.61" y1="407.59" x2="366.9" y2="402.99"/><line class="cls-4" x1="366.9" y1="402.99" x2="372.02" y2="398.22"/><line class="cls-4" x1="372.02" y1="398.22" x2="376.97" y2="393.27"/><line class="cls-4" x1="376.97" y1="393.27" x2="381.75" y2="388.14"/><line class="cls-4" x1="381.75" y1="388.14" x2="386.34" y2="382.86"/><line class="cls-4" x1="386.34" y1="382.86" x2="390.75" y2="377.42"/><line class="cls-4" x1="390.75" y1="377.42" x2="394.96" y2="371.82"/><line class="cls-4" x1="394.96" y1="371.82" x2="398.98" y2="366.09"/><line class="cls-4" x1="398.98" y1="366.09" x2="402.79" y2="360.21"/><line class="cls-4" x1="402.79" y1="360.21" x2="406.4" y2="354.21"/><line class="cls-4" x1="406.4" y1="354.21" x2="409.8" y2="348.09"/><line class="cls-4" x1="409.8" y1="348.09" x2="412.97" y2="341.85"/><line class="cls-4" x1="412.97" y1="341.85" x2="415.93" y2="335.5"/><line class="cls-4" x1="415.93" y1="335.5" x2="418.67" y2="329.05"/><line class="cls-4" x1="418.67" y1="329.05" x2="421.18" y2="322.52"/><line class="cls-4" x1="421.18" y1="322.52" x2="423.46" y2="315.9"/><line class="cls-4" x1="423.46" y1="315.9" x2="425.51" y2="309.2"/><line class="cls-4" x1="425.51" y1="309.2" x2="427.32" y2="302.43"/><line class="cls-4" x1="427.32" y1="302.43" x2="428.9" y2="295.61"/><line class="cls-4" x1="428.9" y1="295.61" x2="430.23" y2="288.74"/><line class="cls-4" x1="430.23" y1="288.74" x2="431.33" y2="281.82"/><line class="cls-4" x1="431.33" y1="281.82" x2="432.18" y2="274.87"/><line class="cls-4" x1="432.18" y1="274.87" x2="432.79" y2="267.89"/><line class="cls-4" x1="432.79" y1="267.89" x2="433.16" y2="260.9"/><line class="cls-4" x1="433.16" y1="260.9" x2="433.28" y2="253.9"/><line class="cls-5" x1="433.28" y1="253.9" x2="433.28" y2="253.9"/><line class="cls-4" x1="207.83" y1="268.23" x2="58.91" y2="354.21"/><line class="cls-4" x1="204.97" y1="261.32" x2="38.87" y2="305.83"/><line class="cls-4" x1="203.99" y1="253.9" x2="32.03" y2="253.9"/><line class="cls-4" x1="204.97" y1="246.48" x2="38.87" y2="201.97"/><line class="cls-4" x1="207.83" y1="239.57" x2="58.91" y2="153.59"/><line class="cls-4" x1="212.39" y1="233.63" x2="90.79" y2="112.04"/><line class="cls-4" x1="218.32" y1="229.08" x2="132.34" y2="80.15"/><line class="cls-4" x1="225.24" y1="226.22" x2="180.73" y2="60.11"/><line class="cls-4" x1="232.65" y1="225.24" x2="232.65" y2="53.27"/><line class="cls-4" x1="240.07" y1="226.22" x2="284.58" y2="60.11"/><line class="cls-4" x1="246.98" y1="229.08" x2="332.97" y2="80.15"/><line class="cls-4" x1="252.92" y1="233.63" x2="374.52" y2="112.04"/><line class="cls-4" x1="257.48" y1="239.57" x2="406.4" y2="153.59"/><line class="cls-4" x1="260.34" y1="246.48" x2="426.44" y2="201.97"/><line class="cls-5" x1="261.32" y1="253.9" x2="433.28" y2="253.9"/><line class="cls-5" x1="260.34" y1="261.32" x2="426.44" y2="305.83"/><line class="cls-4" x1="257.48" y1="268.23" x2="406.4" y2="354.21"/><line class="cls-4" x1="252.92" y1="274.17" x2="374.52" y2="395.76"/><line class="cls-4" x1="246.98" y1="278.72" x2="332.97" y2="427.65"/><line class="cls-4" x1="240.07" y1="281.58" x2="284.58" y2="447.69"/><line class="cls-4" x1="232.65" y1="282.56" x2="232.65" y2="454.52"/><line class="cls-4" x1="225.24" y1="281.58" x2="180.73" y2="447.69"/><line class="cls-4" x1="218.32" y1="278.72" x2="132.34" y2="427.65"/><line class="cls-4" x1="212.39" y1="274.17" x2="90.79" y2="395.76"/><line class="cls-6" x1="286.51" y1="363.46" x2="285.7" y2="357.23"/><line class="cls-6" x1="285.7" y1="357.23" x2="284.25" y2="350.25"/><line class="cls-6" x1="284.25" y1="350.25" x2="281.97" y2="342.26"/><line class="cls-6" x1="281.97" y1="342.26" x2="278.59" y2="332.94"/><line class="cls-6" x1="278.59" y1="332.94" x2="274.39" y2="322.91"/><line class="cls-6" x1="274.39" y1="322.91" x2="273.09" y2="318.2"/><line class="cls-6" x1="273.09" y1="318.2" x2="276.12" y2="320.43"/><line class="cls-6" x1="276.12" y1="320.43" x2="279.12" y2="322.39"/><line class="cls-6" x1="279.12" y1="322.39" x2="281.1" y2="322.69"/><line class="cls-6" x1="281.1" y1="322.69" x2="282.12" y2="321.61"/><line class="cls-6" x1="282.12" y1="321.61" x2="282.26" y2="319.38"/><line class="cls-6" x1="282.26" y1="319.38" x2="281.48" y2="316.07"/><line class="cls-6" x1="281.48" y1="316.07" x2="279.63" y2="311.62"/><line class="cls-6" x1="279.63" y1="311.62" x2="276.57" y2="305.99"/><line class="cls-6" x1="276.57" y1="305.99" x2="272.93" y2="300.01"/><line class="cls-6" x1="272.93" y1="300.01" x2="272.7" y2="298.16"/><line class="cls-6" x1="272.7" y1="298.16" x2="277.11" y2="301.36"/><line class="cls-6" x1="277.11" y1="301.36" x2="281.81" y2="304.58"/><line class="cls-6" x1="281.81" y1="304.58" x2="285.57" y2="306.59"/><line class="cls-6" x1="285.57" y1="306.59" x2="288.45" y2="307.55"/><line class="cls-6" x1="288.45" y1="307.55" x2="290.59" y2="307.7"/><line class="cls-6" x1="290.59" y1="307.7" x2="292.1" y2="307.21"/><line class="cls-6" x1="292.1" y1="307.21" x2="293.03" y2="306.17"/><line class="cls-6" x1="293.03" y1="306.17" x2="293.38" y2="304.66"/><line class="cls-6" x1="293.38" y1="304.66" x2="293.14" y2="302.69"/><line class="cls-6" x1="293.14" y1="302.69" x2="292.23" y2="300.27"/><line class="cls-6" x1="292.23" y1="300.27" x2="290.59" y2="297.4"/><line class="cls-6" x1="290.59" y1="297.4" x2="288.14" y2="294.07"/><line class="cls-6" x1="288.14" y1="294.07" x2="285.04" y2="290.45"/><line class="cls-6" x1="285.04" y1="290.45" x2="282.48" y2="287.39"/><line class="cls-6" x1="282.48" y1="287.39" x2="283.1" y2="286.55"/><line class="cls-6" x1="283.1" y1="286.55" x2="287.03" y2="287.76"/><line class="cls-6" x1="287.03" y1="287.76" x2="291.71" y2="289.26"/><line class="cls-6" x1="291.71" y1="289.26" x2="295.92" y2="290.31"/><line class="cls-6" x1="295.92" y1="290.31" x2="299.48" y2="290.82"/><line class="cls-6" x1="299.48" y1="290.82" x2="302.43" y2="290.88"/><line class="cls-6" x1="302.43" y1="290.88" x2="304.85" y2="290.56"/><line class="cls-6" x1="304.85" y1="290.56" x2="306.81" y2="289.95"/><line class="cls-6" x1="306.81" y1="289.95" x2="308.35" y2="289.09"/><line class="cls-6" x1="308.35" y1="289.09" x2="309.52" y2="288.01"/><line class="cls-6" x1="309.52" y1="288.01" x2="310.32" y2="286.76"/><line class="cls-6" x1="310.32" y1="286.76" x2="310.76" y2="285.36"/><line class="cls-6" x1="310.76" y1="285.36" x2="310.85" y2="283.82"/><line class="cls-6" x1="310.85" y1="283.82" x2="310.56" y2="282.17"/><line class="cls-6" x1="310.56" y1="282.17" x2="309.87" y2="280.41"/><line class="cls-6" x1="309.87" y1="280.41" x2="308.75" y2="278.55"/><line class="cls-6" x1="308.75" y1="278.55" x2="307.12" y2="276.6"/><line class="cls-6" x1="307.12" y1="276.6" x2="304.9" y2="274.56"/><line class="cls-6" x1="304.9" y1="274.56" x2="301.96" y2="272.42"/><line class="cls-6" x1="301.96" y1="272.42" x2="298.09" y2="270.17"/><line class="cls-6" x1="298.09" y1="270.17" x2="293.02" y2="267.8"/><line class="cls-6" x1="293.02" y1="267.8" x2="286.7" y2="265.36"/><line class="cls-6" x1="286.7" y1="265.36" x2="281.33" y2="263.33"/><line class="cls-6" x1="281.33" y1="263.33" x2="283.01" y2="262.75"/><line class="cls-6" x1="283.01" y1="262.75" x2="289.24" y2="262.84"/><line class="cls-6" x1="289.24" y1="262.84" x2="294.99" y2="262.64"/><line class="cls-6" x1="294.99" y1="262.64" x2="299.47" y2="262.08"/><line class="cls-6" x1="299.47" y1="262.08" x2="302.89" y2="261.26"/><line class="cls-6" x1="302.89" y1="261.26" x2="305.48" y2="260.25"/><line class="cls-6" x1="305.48" y1="260.25" x2="307.4" y2="259.11"/><line class="cls-6" x1="307.4" y1="259.11" x2="308.74" y2="257.88"/><line class="cls-6" x1="308.74" y1="257.88" x2="309.57" y2="256.58"/><line class="cls-7" x1="309.57" y1="256.58" x2="309.92" y2="255.24"/><line class="cls-6" x1="290.3" y1="125.52" x2="289.58" y2="120.99"/><line class="cls-7" x1="309.93" y1="253.9" x2="309.79" y2="252.56"/><line class="cls-6" x1="309.79" y1="252.56" x2="309.16" y2="251.24"/><line class="cls-6" x1="309.16" y1="251.24" x2="308.02" y2="249.96"/><line class="cls-6" x1="308.02" y1="249.96" x2="306.3" y2="248.76"/><line class="cls-6" x1="306.3" y1="248.76" x2="303.89" y2="247.68"/><line class="cls-6" x1="303.89" y1="247.68" x2="300.62" y2="246.78"/><line class="cls-6" x1="300.62" y1="246.78" x2="296.18" y2="246.12"/><line class="cls-6" x1="296.18" y1="246.12" x2="290.18" y2="245.84"/><line class="cls-6" x1="290.18" y1="245.84" x2="282.77" y2="245.98"/><line class="cls-6" x1="282.77" y1="245.98" x2="279.67" y2="245.63"/><line class="cls-6" x1="279.67" y1="245.63" x2="286.26" y2="243.51"/><line class="cls-6" x1="286.26" y1="243.51" x2="293.77" y2="240.95"/><line class="cls-6" x1="293.77" y1="240.95" x2="299.53" y2="238.5"/><line class="cls-6" x1="299.53" y1="238.5" x2="303.86" y2="236.2"/><line class="cls-6" x1="303.86" y1="236.2" x2="307.15" y2="234"/><line class="cls-6" x1="307.15" y1="234" x2="309.66" y2="231.88"/><line class="cls-6" x1="309.66" y1="231.88" x2="311.54" y2="229.85"/><line class="cls-6" x1="311.54" y1="229.85" x2="312.89" y2="227.91"/><line class="cls-6" x1="312.89" y1="227.91" x2="313.8" y2="226.04"/><line class="cls-6" x1="313.8" y1="226.04" x2="314.3" y2="224.27"/><line class="cls-6" x1="314.3" y1="224.27" x2="314.41" y2="222.61"/><line class="cls-6" x1="314.41" y1="222.61" x2="314.17" y2="221.07"/><line class="cls-6" x1="314.17" y1="221.07" x2="313.56" y2="219.66"/><line class="cls-6" x1="313.56" y1="219.66" x2="312.6" y2="218.42"/><line class="cls-6" x1="312.6" y1="218.42" x2="311.26" y2="217.36"/><line class="cls-6" x1="311.26" y1="217.36" x2="309.51" y2="216.53"/><line class="cls-6" x1="309.51" y1="216.53" x2="307.33" y2="215.97"/><line class="cls-6" x1="307.33" y1="215.97" x2="304.66" y2="215.74"/><line class="cls-6" x1="304.66" y1="215.74" x2="301.41" y2="215.91"/><line class="cls-6" x1="301.41" y1="215.91" x2="297.54" y2="216.57"/><line class="cls-6" x1="297.54" y1="216.57" x2="293.09" y2="217.71"/><line class="cls-6" x1="293.09" y1="217.71" x2="288.72" y2="218.99"/><line class="cls-6" x1="288.72" y1="218.99" x2="286.46" y2="219.08"/><line class="cls-6" x1="286.46" y1="219.08" x2="287.78" y2="216.85"/><line class="cls-6" x1="287.78" y1="216.85" x2="290.7" y2="213.4"/><line class="cls-6" x1="290.7" y1="213.4" x2="293.36" y2="209.96"/><line class="cls-6" x1="293.36" y1="209.96" x2="295.25" y2="206.91"/><line class="cls-6" x1="295.25" y1="206.91" x2="296.37" y2="204.31"/><line class="cls-6" x1="296.37" y1="204.31" x2="296.79" y2="202.16"/><line class="cls-6" x1="296.79" y1="202.16" x2="296.58" y2="200.47"/><line class="cls-6" x1="296.58" y1="200.47" x2="295.76" y2="199.26"/><line class="cls-6" x1="295.76" y1="199.26" x2="294.34" y2="198.58"/><line class="cls-6" x1="294.34" y1="198.58" x2="292.29" y2="198.52"/><line class="cls-6" x1="292.29" y1="198.52" x2="289.53" y2="199.21"/><line class="cls-6" x1="289.53" y1="199.21" x2="286.02" y2="200.77"/><line class="cls-6" x1="286.02" y1="200.77" x2="281.97" y2="203.06"/><line class="cls-6" x1="281.97" y1="203.06" x2="278.91" y2="204.52"/><line class="cls-6" x1="278.91" y1="204.52" x2="279.49" y2="202.13"/><line class="cls-6" x1="279.49" y1="202.13" x2="282.3" y2="197.06"/><line class="cls-6" x1="282.3" y1="197.06" x2="284.8" y2="192.06"/><line class="cls-6" x1="284.8" y1="192.06" x2="286.36" y2="187.91"/><line class="cls-6" x1="286.36" y1="187.91" x2="286.99" y2="184.71"/><line class="cls-6" x1="286.99" y1="184.71" x2="286.76" y2="182.48"/><line class="cls-6" x1="286.76" y1="182.48" x2="285.68" y2="181.31"/><line class="cls-6" x1="285.68" y1="181.31" x2="283.68" y2="181.44"/><line class="cls-6" x1="283.68" y1="181.44" x2="280.66" y2="183.15"/><line class="cls-6" x1="280.66" y1="183.15" x2="277.36" y2="185.48"/><line class="cls-6" x1="277.36" y1="185.48" x2="277.94" y2="181.87"/><line class="cls-6" x1="277.94" y1="181.87" x2="282.09" y2="172.15"/><line class="cls-6" x1="282.09" y1="172.15" x2="285.62" y2="162.77"/><line class="cls-6" x1="285.62" y1="162.77" x2="288.02" y2="154.7"/><line class="cls-6" x1="288.02" y1="154.7" x2="289.56" y2="147.65"/><line class="cls-6" x1="289.56" y1="147.65" x2="290.43" y2="141.36"/><line class="cls-6" x1="290.43" y1="141.36" x2="290.78" y2="135.65"/><line class="cls-6" x1="290.78" y1="135.65" x2="290.72" y2="130.39"/><line class="cls-6" x1="290.72" y1="130.39" x2="290.3" y2="125.52"/><line class="cls-6" x1="289.58" y1="120.99" x2="288.6" y2="116.74"/><line class="cls-6" x1="288.6" y1="116.74" x2="287.38" y2="112.75"/><line class="cls-6" x1="287.38" y1="112.75" x2="285.94" y2="109.01"/><line class="cls-6" x1="285.94" y1="109.01" x2="284.32" y2="105.5"/><line class="cls-6" x1="284.32" y1="105.5" x2="282.53" y2="102.2"/><line class="cls-6" x1="282.53" y1="102.2" x2="280.58" y2="99.11"/><line class="cls-6" x1="280.58" y1="99.11" x2="278.48" y2="96.22"/><line class="cls-6" x1="278.48" y1="96.22" x2="276.25" y2="93.52"/><line class="cls-6" x1="276.25" y1="93.52" x2="273.91" y2="91"/><line class="cls-6" x1="273.91" y1="91" x2="271.45" y2="88.67"/><line class="cls-6" x1="271.45" y1="88.67" x2="268.89" y2="86.52"/><line class="cls-6" x1="268.89" y1="86.52" x2="266.24" y2="84.55"/><line class="cls-6" x1="266.24" y1="84.55" x2="263.51" y2="82.76"/><line class="cls-6" x1="263.51" y1="82.76" x2="260.71" y2="81.14"/><line class="cls-6" x1="260.71" y1="81.14" x2="257.84" y2="79.7"/><line class="cls-6" x1="257.84" y1="79.7" x2="254.91" y2="78.43"/><line class="cls-6" x1="254.91" y1="78.43" x2="251.94" y2="77.34"/><line class="cls-6" x1="251.94" y1="77.34" x2="248.92" y2="76.41"/><line class="cls-6" x1="248.92" y1="76.41" x2="245.86" y2="75.66"/><line class="cls-6" x1="245.86" y1="75.66" x2="242.78" y2="75.08"/><line class="cls-6" x1="242.78" y1="75.08" x2="239.68" y2="74.67"/><line class="cls-6" x1="239.68" y1="74.67" x2="236.56" y2="74.43"/><line class="cls-6" x1="236.56" y1="74.43" x2="233.44" y2="74.37"/><line class="cls-6" x1="233.44" y1="74.37" x2="230.31" y2="74.47"/><line class="cls-6" x1="230.31" y1="74.47" x2="227.2" y2="74.74"/><line class="cls-6" x1="227.2" y1="74.74" x2="224.09" y2="75.19"/><line class="cls-6" x1="224.09" y1="75.19" x2="221.01" y2="75.81"/><line class="cls-6" x1="221.01" y1="75.81" x2="217.96" y2="76.6"/><line class="cls-6" x1="217.96" y1="76.6" x2="214.95" y2="77.56"/><line class="cls-6" x1="214.95" y1="77.56" x2="211.97" y2="78.69"/><line class="cls-6" x1="211.97" y1="78.69" x2="209.05" y2="80"/><line class="cls-6" x1="209.05" y1="80" x2="206.19" y2="81.48"/><line class="cls-6" x1="206.19" y1="81.48" x2="203.39" y2="83.13"/><line class="cls-6" x1="203.39" y1="83.13" x2="200.67" y2="84.96"/><line class="cls-6" x1="200.67" y1="84.96" x2="198.03" y2="86.97"/><line class="cls-6" x1="198.03" y1="86.97" x2="195.48" y2="89.16"/><line class="cls-6" x1="195.48" y1="89.16" x2="193.04" y2="91.52"/><line class="cls-6" x1="193.04" y1="91.52" x2="190.7" y2="94.08"/><line class="cls-6" x1="190.7" y1="94.08" x2="188.48" y2="96.82"/><line class="cls-6" x1="188.48" y1="96.82" x2="186.4" y2="99.76"/><line class="cls-6" x1="186.4" y1="99.76" x2="184.46" y2="102.89"/><line class="cls-6" x1="184.46" y1="102.89" x2="182.68" y2="106.23"/><line class="cls-6" x1="182.68" y1="106.23" x2="181.07" y2="109.79"/><line class="cls-6" x1="181.07" y1="109.79" x2="179.65" y2="113.58"/><line class="cls-6" x1="179.65" y1="113.58" x2="178.45" y2="117.62"/><line class="cls-6" x1="178.45" y1="117.62" x2="177.48" y2="121.92"/><line class="cls-6" x1="177.48" y1="121.92" x2="176.78" y2="126.52"/><line class="cls-6" x1="176.78" y1="126.52" x2="176.39" y2="131.46"/><line class="cls-6" x1="176.39" y1="131.46" x2="176.35" y2="136.8"/><line class="cls-6" x1="176.35" y1="136.8" x2="176.74" y2="142.61"/><line class="cls-6" x1="176.74" y1="142.61" x2="177.65" y2="149.02"/><line class="cls-6" x1="177.65" y1="149.02" x2="179.25" y2="156.23"/><line class="cls-6" x1="179.25" y1="156.23" x2="181.74" y2="164.52"/><line class="cls-6" x1="181.74" y1="164.52" x2="185.41" y2="174.22"/><line class="cls-6" x1="185.41" y1="174.22" x2="189.59" y2="184.07"/><line class="cls-6" x1="189.59" y1="184.07" x2="189.68" y2="186.85"/><line class="cls-6" x1="189.68" y1="186.85" x2="186.26" y2="184.21"/><line class="cls-6" x1="186.26" y1="184.21" x2="183.38" y2="182.61"/><line class="cls-6" x1="183.38" y1="182.61" x2="181.56" y2="182.67"/><line class="cls-6" x1="181.56" y1="182.67" x2="180.7" y2="184.06"/><line class="cls-6" x1="180.7" y1="184.06" x2="180.74" y2="186.59"/><line class="cls-6" x1="180.74" y1="186.59" x2="181.75" y2="190.23"/><line class="cls-6" x1="181.75" y1="190.23" x2="183.9" y2="195.05"/><line class="cls-6" x1="183.9" y1="195.05" x2="187.37" y2="201.13"/><line class="cls-6" x1="187.37" y1="201.13" x2="191.06" y2="207.11"/><line class="cls-6" x1="191.06" y1="207.11" x2="189.94" y2="207.5"/><line class="cls-6" x1="189.94" y1="207.5" x2="184.85" y2="203.75"/><line class="cls-6" x1="184.85" y1="203.75" x2="180.16" y2="200.72"/><line class="cls-6" x1="180.16" y1="200.72" x2="176.52" y2="198.97"/><line class="cls-6" x1="176.52" y1="198.97" x2="173.76" y2="198.24"/><line class="cls-6" x1="173.76" y1="198.24" x2="171.72" y2="198.3"/><line class="cls-6" x1="171.72" y1="198.3" x2="170.32" y2="198.97"/><line class="cls-6" x1="170.32" y1="198.97" x2="169.5" y2="200.17"/><line class="cls-6" x1="169.5" y1="200.17" x2="169.26" y2="201.84"/><line class="cls-6" x1="169.26" y1="201.84" x2="169.63" y2="203.96"/><line class="cls-6" x1="169.63" y1="203.96" x2="170.66" y2="206.51"/><line class="cls-6" x1="170.66" y1="206.51" x2="172.44" y2="209.51"/><line class="cls-6" x1="172.44" y1="209.51" x2="174.99" y2="212.92"/><line class="cls-6" x1="174.99" y1="212.92" x2="178.03" y2="216.49"/><line class="cls-6" x1="178.03" y1="216.49" x2="180.05" y2="219.21"/><line class="cls-6" x1="180.05" y1="219.21" x2="178.69" y2="219.64"/><line class="cls-6" x1="178.69" y1="219.64" x2="174.58" y2="218.44"/><line class="cls-6" x1="174.58" y1="218.44" x2="170.06" y2="217.15"/><line class="cls-6" x1="170.06" y1="217.15" x2="166.03" y2="216.33"/><line class="cls-6" x1="166.03" y1="216.33" x2="162.64" y2="216.01"/><line class="cls-6" x1="162.64" y1="216.01" x2="159.83" y2="216.11"/><line class="cls-6" x1="159.83" y1="216.11" x2="157.52" y2="216.56"/><line class="cls-6" x1="157.52" y1="216.56" x2="155.65" y2="217.29"/><line class="cls-6" x1="155.65" y1="217.29" x2="154.18" y2="218.25"/><line class="cls-6" x1="154.18" y1="218.25" x2="153.07" y2="219.4"/><line class="cls-6" x1="153.07" y1="219.4" x2="152.3" y2="220.72"/><line class="cls-6" x1="152.3" y1="220.72" x2="151.87" y2="222.17"/><line class="cls-6" x1="151.87" y1="222.17" x2="151.76" y2="223.75"/><line class="cls-6" x1="151.76" y1="223.75" x2="151.99" y2="225.42"/><line class="cls-6" x1="151.99" y1="225.42" x2="152.55" y2="227.18"/><line class="cls-6" x1="152.55" y1="227.18" x2="153.46" y2="229"/><line class="cls-6" x1="153.46" y1="229" x2="154.73" y2="230.88"/><line class="cls-6" x1="154.73" y1="230.88" x2="156.35" y2="232.8"/><line class="cls-6" x1="156.35" y1="232.8" x2="158.31" y2="234.73"/><line class="cls-6" x1="158.31" y1="234.73" x2="160.51" y2="236.63"/><line class="cls-6" x1="160.51" y1="236.63" x2="162.73" y2="238.44"/><line class="cls-6" x1="162.73" y1="238.44" x2="164.55" y2="240.08"/><line class="cls-6" x1="164.55" y1="240.08" x2="165.38" y2="241.47"/><line class="cls-6" x1="165.38" y1="241.47" x2="164.89" y2="242.59"/><line class="cls-6" x1="164.89" y1="242.59" x2="163.33" y2="243.57"/><line class="cls-6" x1="163.33" y1="243.57" x2="161.25" y2="244.52"/><line class="cls-6" x1="161.25" y1="244.52" x2="159.11" y2="245.54"/><line class="cls-6" x1="159.11" y1="245.54" x2="157.17" y2="246.65"/><line class="cls-6" x1="157.17" y1="246.65" x2="155.54" y2="247.85"/><line class="cls-6" x1="155.54" y1="247.85" x2="154.26" y2="249.12"/><line class="cls-6" x1="154.26" y1="249.12" x2="153.34" y2="250.45"/><line class="cls-6" x1="153.34" y1="250.45" x2="152.78" y2="251.81"/><line class="cls-6" x1="152.78" y1="251.81" x2="152.56" y2="253.2"/><line class="cls-6" x1="152.56" y1="253.2" x2="152.7" y2="254.6"/><line class="cls-6" x1="152.7" y1="254.6" x2="153.18" y2="255.97"/><line class="cls-6" x1="153.18" y1="255.97" x2="154.02" y2="257.32"/><line class="cls-6" x1="154.02" y1="257.32" x2="155.22" y2="258.62"/><line class="cls-6" x1="155.22" y1="258.62" x2="156.77" y2="259.85"/><line class="cls-6" x1="156.77" y1="259.85" x2="158.65" y2="261.01"/><line class="cls-6" x1="158.65" y1="261.01" x2="160.75" y2="262.07"/><line class="cls-6" x1="160.75" y1="262.07" x2="162.84" y2="263.07"/><line class="cls-6" x1="162.84" y1="263.07" x2="164.48" y2="264.06"/><line class="cls-6" x1="164.48" y1="264.06" x2="165.12" y2="265.17"/><line class="cls-6" x1="165.12" y1="265.17" x2="164.43" y2="266.51"/><line class="cls-6" x1="164.43" y1="266.51" x2="162.68" y2="268.09"/><line class="cls-6" x1="162.68" y1="268.09" x2="160.45" y2="269.86"/><line class="cls-6" x1="160.45" y1="269.86" x2="158.19" y2="271.73"/><line class="cls-6" x1="158.19" y1="271.73" x2="156.15" y2="273.63"/><line class="cls-6" x1="156.15" y1="273.63" x2="154.44" y2="275.53"/><line class="cls-6" x1="154.44" y1="275.53" x2="153.08" y2="277.4"/><line class="cls-6" x1="153.08" y1="277.4" x2="152.09" y2="279.23"/><line class="cls-6" x1="152.09" y1="279.23" x2="151.44" y2="280.99"/><line class="cls-6" x1="151.44" y1="280.99" x2="151.13" y2="282.68"/><line class="cls-6" x1="151.13" y1="282.68" x2="151.15" y2="284.28"/><line class="cls-6" x1="151.15" y1="284.28" x2="151.5" y2="285.77"/><line class="cls-6" x1="151.5" y1="285.77" x2="152.18" y2="287.13"/><line class="cls-6" x1="152.18" y1="287.13" x2="153.2" y2="288.34"/><line class="cls-6" x1="153.2" y1="288.34" x2="154.57" y2="289.37"/><line class="cls-6" x1="154.57" y1="289.37" x2="156.33" y2="290.19"/><line class="cls-6" x1="156.33" y1="290.19" x2="158.5" y2="290.75"/><line class="cls-6" x1="158.5" y1="290.75" x2="161.15" y2="291"/><line class="cls-6" x1="161.15" y1="291" x2="164.35" y2="290.86"/><line class="cls-6" x1="164.35" y1="290.86" x2="168.19" y2="290.25"/><line class="cls-6" x1="168.19" y1="290.25" x2="172.67" y2="289.12"/><line class="cls-6" x1="172.67" y1="289.12" x2="177.41" y2="287.64"/><line class="cls-6" x1="177.41" y1="287.64" x2="180.74" y2="286.86"/><line class="cls-6" x1="180.74" y1="286.86" x2="180.37" y2="288.39"/><line class="cls-6" x1="180.37" y1="288.39" x2="177.58" y2="291.62"/><line class="cls-6" x1="177.58" y1="291.62" x2="174.76" y2="295.05"/><line class="cls-6" x1="174.76" y1="295.05" x2="172.69" y2="298.11"/><line class="cls-6" x1="172.69" y1="298.11" x2="171.44" y2="300.7"/><line class="cls-6" x1="171.44" y1="300.7" x2="170.93" y2="302.81"/><line class="cls-6" x1="170.93" y1="302.81" x2="171.11" y2="304.44"/><line class="cls-6" x1="171.11" y1="304.44" x2="171.94" y2="305.55"/><line class="cls-6" x1="171.94" y1="305.55" x2="173.43" y2="306.08"/><line class="cls-6" x1="173.43" y1="306.08" x2="175.65" y2="305.92"/><line class="cls-6" x1="175.65" y1="305.92" x2="178.74" y2="304.85"/><line class="cls-6" x1="178.74" y1="304.85" x2="182.9" y2="302.58"/><line class="cls-6" x1="182.9" y1="302.58" x2="188.25" y2="298.89"/><line class="cls-6" x1="188.25" y1="298.89" x2="192.61" y2="295.91"/><line class="cls-6" x1="192.61" y1="295.91" x2="190.34" y2="299.87"/><line class="cls-6" x1="190.34" y1="299.87" x2="185.81" y2="306.6"/><line class="cls-6" x1="185.81" y1="306.6" x2="182.6" y2="312.22"/><line class="cls-6" x1="182.6" y1="312.22" x2="180.77" y2="316.53"/><line class="cls-6" x1="180.77" y1="316.53" x2="180.04" y2="319.71"/><line class="cls-6" x1="180.04" y1="319.71" x2="180.28" y2="321.8"/><line class="cls-6" x1="180.28" y1="321.8" x2="181.47" y2="322.7"/><line class="cls-6" x1="181.47" y1="322.7" x2="183.77" y2="322.05"/><line class="cls-6" x1="183.77" y1="322.05" x2="187.48" y2="319.25"/><line class="cls-6" x1="187.48" y1="319.25" x2="191.81" y2="315.25"/><line class="cls-6" x1="191.81" y1="315.25" x2="189.62" y2="321.04"/><line class="cls-6" x1="189.62" y1="321.04" x2="184.11" y2="332.61"/><line class="cls-6" x1="184.11" y1="332.61" x2="180.21" y2="342.34"/><line class="cls-6" x1="180.21" y1="342.34" x2="177.67" y2="350.43"/><line class="cls-6" x1="177.67" y1="350.43" x2="176.05" y2="357.42"/><line class="cls-6" x1="176.05" y1="357.42" x2="175.11" y2="363.64"/><line class="cls-6" x1="175.11" y1="363.64" x2="174.68" y2="369.28"/><line class="cls-6" x1="174.68" y1="369.28" x2="174.68" y2="374.47"/><line class="cls-6" x1="174.68" y1="374.47" x2="175.03" y2="379.29"/><line class="cls-6" x1="175.03" y1="379.29" x2="175.69" y2="383.77"/><line class="cls-6" x1="175.69" y1="383.77" x2="176.6" y2="387.98"/><line class="cls-6" x1="176.6" y1="387.98" x2="177.76" y2="391.92"/><line class="cls-6" x1="177.76" y1="391.92" x2="179.12" y2="395.62"/><line class="cls-6" x1="179.12" y1="395.62" x2="180.68" y2="399.1"/><line class="cls-6" x1="180.68" y1="399.1" x2="182.4" y2="402.37"/><line class="cls-6" x1="182.4" y1="402.37" x2="184.29" y2="405.44"/><line class="cls-6" x1="184.29" y1="405.44" x2="186.32" y2="408.31"/><line class="cls-6" x1="186.32" y1="408.31" x2="188.48" y2="410.99"/><line class="cls-6" x1="188.48" y1="410.99" x2="190.76" y2="413.49"/><line class="cls-6" x1="190.76" y1="413.49" x2="193.15" y2="415.81"/><line class="cls-6" x1="193.15" y1="415.81" x2="195.64" y2="417.95"/><line class="cls-6" x1="195.64" y1="417.95" x2="198.22" y2="419.91"/><line class="cls-6" x1="198.22" y1="419.91" x2="200.89" y2="421.69"/><line class="cls-6" x1="200.89" y1="421.69" x2="203.63" y2="423.31"/><line class="cls-6" x1="203.63" y1="423.31" x2="206.43" y2="424.75"/><line class="cls-6" x1="206.43" y1="424.75" x2="209.3" y2="426.02"/><line class="cls-6" x1="209.3" y1="426.02" x2="212.21" y2="427.12"/><line class="cls-6" x1="212.21" y1="427.12" x2="215.17" y2="428.05"/><line class="cls-6" x1="215.17" y1="428.05" x2="218.16" y2="428.81"/><line class="cls-6" x1="218.16" y1="428.81" x2="221.18" y2="429.41"/><line class="cls-6" x1="221.18" y1="429.41" x2="224.23" y2="429.83"/><line class="cls-6" x1="224.23" y1="429.83" x2="227.29" y2="430.08"/><line class="cls-6" x1="227.29" y1="430.08" x2="230.35" y2="430.17"/><line class="cls-6" x1="230.35" y1="430.17" x2="233.42" y2="430.08"/><line class="cls-6" x1="233.42" y1="430.08" x2="236.48" y2="429.83"/><line class="cls-6" x1="236.48" y1="429.83" x2="239.53" y2="429.41"/><line class="cls-6" x1="239.53" y1="429.41" x2="242.56" y2="428.82"/><line class="cls-6" x1="242.56" y1="428.82" x2="245.56" y2="428.06"/><line class="cls-6" x1="245.56" y1="428.06" x2="248.53" y2="427.13"/><line class="cls-6" x1="248.53" y1="427.13" x2="251.45" y2="426.03"/><line class="cls-6" x1="251.45" y1="426.03" x2="254.33" y2="424.76"/><line class="cls-6" x1="254.33" y1="424.76" x2="257.15" y2="423.31"/><line class="cls-6" x1="257.15" y1="423.31" x2="259.9" y2="421.7"/><line class="cls-6" x1="259.9" y1="421.7" x2="262.59" y2="419.91"/><line class="cls-6" x1="262.59" y1="419.91" x2="265.19" y2="417.95"/><line class="cls-6" x1="265.19" y1="417.95" x2="267.71" y2="415.81"/><line class="cls-6" x1="267.71" y1="415.81" x2="270.12" y2="413.49"/><line class="cls-6" x1="270.12" y1="413.49" x2="272.43" y2="410.99"/><line class="cls-6" x1="272.43" y1="410.99" x2="274.63" y2="408.3"/><line class="cls-6" x1="274.63" y1="408.3" x2="276.69" y2="405.42"/><line class="cls-6" x1="276.69" y1="405.42" x2="278.61" y2="402.35"/><line class="cls-6" x1="278.61" y1="402.35" x2="280.38" y2="399.07"/><line class="cls-6" x1="280.38" y1="399.07" x2="281.98" y2="395.58"/><line class="cls-6" x1="281.98" y1="395.58" x2="283.4" y2="391.86"/><line class="cls-6" x1="283.4" y1="391.86" x2="284.61" y2="387.91"/><line class="cls-6" x1="284.61" y1="387.91" x2="285.59" y2="383.69"/><line class="cls-6" x1="285.59" y1="383.69" x2="286.31" y2="379.18"/><line class="cls-6" x1="286.31" y1="379.18" x2="286.74" y2="374.35"/><line class="cls-6" x1="286.74" y1="374.35" x2="286.83" y2="369.13"/><line class="cls-6" x1="286.83" y1="369.13" x2="286.51" y2="363.46"/><line class="cls-8" x1="178.72" y1="215.57" x2="183.94" y2="220.54"/><line class="cls-8" x1="183.94" y1="220.54" x2="193.61" y2="228.15"/><line class="cls-8" x1="193.61" y1="228.15" x2="230.89" y2="252.78"/><line class="cls-8" x1="230.89" y1="252.78" x2="196.53" y2="231.84"/><line class="cls-8" x1="196.53" y1="231.84" x2="183.91" y2="225.28"/><line class="cls-8" x1="183.91" y1="225.28" x2="176.74" y2="222.37"/><line class="cls-8" x1="176.74" y1="222.37" x2="171.78" y2="220.95"/><line class="cls-8" x1="171.78" y1="220.95" x2="167.93" y2="220.32"/><line class="cls-8" x1="167.93" y1="220.32" x2="165.09" y2="220.32"/><line class="cls-8" x1="165.09" y1="220.32" x2="162.91" y2="220.74"/><line class="cls-8" x1="162.91" y1="220.74" x2="161.27" y2="221.47"/><line class="cls-8" x1="161.27" y1="221.47" x2="160.11" y2="222.45"/><line class="cls-8" x1="160.11" y1="222.45" x2="159.14" y2="223.54"/><line class="cls-8" x1="159.14" y1="223.54" x2="158.85" y2="224.92"/><line class="cls-8" x1="158.85" y1="224.92" x2="159" y2="226.45"/><line class="cls-8" x1="159" y1="226.45" x2="159.62" y2="228.11"/><line class="cls-8" x1="159.62" y1="228.11" x2="160.75" y2="229.91"/><line class="cls-8" x1="160.75" y1="229.91" x2="162.15" y2="231.73"/><line class="cls-8" x1="162.15" y1="231.73" x2="164.63" y2="233.81"/><line class="cls-8" x1="164.63" y1="233.81" x2="168.1" y2="236.05"/><line class="cls-8" x1="168.1" y1="236.05" x2="173.07" y2="238.53"/><line class="cls-8" x1="173.07" y1="238.53" x2="180.66" y2="241.45"/><line class="cls-8" x1="180.66" y1="241.45" x2="194.41" y2="245.45"/><line class="cls-8" x1="194.41" y1="245.45" x2="230.61" y2="253.48"/><line class="cls-8" x1="230.61" y1="253.48" x2="189.43" y2="245.91"/><line class="cls-8" x1="189.43" y1="245.91" x2="177.47" y2="244.69"/><line class="cls-8" x1="177.47" y1="244.69" x2="170.36" y2="244.62"/><line class="cls-8" x1="170.36" y1="244.62" x2="164.95" y2="245.01"/><line class="cls-8" x1="164.95" y1="245.01" x2="161.3" y2="245.79"/><line class="cls-8" x1="161.3" y1="245.79" x2="158.55" y2="246.78"/><line class="cls-8" x1="158.55" y1="246.78" x2="156.47" y2="247.92"/><line class="cls-8" x1="156.47" y1="247.92" x2="154.94" y2="249.16"/><line class="cls-8" x1="154.94" y1="249.16" x2="153.37" y2="250.45"/><line class="cls-8" x1="153.37" y1="250.45" x2="152.75" y2="251.81"/><line class="cls-8" x1="152.75" y1="251.81" x2="152.53" y2="253.2"/><line class="cls-8" x1="152.53" y1="253.2" x2="152.72" y2="254.6"/><line class="cls-8" x1="152.72" y1="254.6" x2="153.32" y2="255.97"/><line class="cls-8" x1="153.32" y1="255.97" x2="153.8" y2="257.33"/><line class="cls-8" x1="153.8" y1="257.33" x2="155.31" y2="258.62"/><line class="cls-8" x1="155.31" y1="258.62" x2="157.37" y2="259.81"/><line class="cls-8" x1="157.37" y1="259.81" x2="160.11" y2="260.87"/><line class="cls-8" x1="160.11" y1="260.87" x2="163.74" y2="261.73"/><line class="cls-8" x1="163.74" y1="261.73" x2="168.12" y2="262.37"/><line class="cls-8" x1="168.12" y1="262.37" x2="175.24" y2="262.46"/><line class="cls-8" x1="175.24" y1="262.46" x2="187.22" y2="261.48"/><line class="cls-8" x1="187.22" y1="261.48" x2="228.54" y2="254.66"/><line class="cls-8" x1="228.54" y1="254.66" x2="192.21" y2="262.1"/><line class="cls-8" x1="192.21" y1="262.1" x2="177.45" y2="266.1"/><line class="cls-8" x1="177.45" y1="266.1" x2="169.81" y2="268.94"/><line class="cls-8" x1="169.81" y1="268.94" x2="164.82" y2="271.39"/><line class="cls-8" x1="164.82" y1="271.39" x2="161.32" y2="273.63"/><line class="cls-8" x1="161.32" y1="273.63" x2="158.82" y2="275.71"/><line class="cls-8" x1="158.82" y1="275.71" x2="156.55" y2="277.82"/><line class="cls-8" x1="156.55" y1="277.82" x2="155.41" y2="279.67"/><line class="cls-8" x1="155.41" y1="279.67" x2="154.79" y2="281.39"/><line class="cls-8" x1="154.79" y1="281.39" x2="154.64" y2="282.98"/><line class="cls-8" x1="154.64" y1="282.98" x2="154.92" y2="284.42"/><line class="cls-8" x1="154.92" y1="284.42" x2="155.17" y2="285.9"/><line class="cls-8" x1="155.17" y1="285.9" x2="156.35" y2="286.98"/><line class="cls-8" x1="156.35" y1="286.98" x2="158.01" y2="287.81"/><line class="cls-8" x1="158.01" y1="287.81" x2="160.22" y2="288.34"/><line class="cls-8" x1="160.22" y1="288.34" x2="163.09" y2="288.47"/><line class="cls-8" x1="163.09" y1="288.47" x2="166.41" y2="288.27"/><line class="cls-8" x1="166.41" y1="288.27" x2="171.43" y2="287.03"/><line class="cls-8" x1="171.43" y1="287.03" x2="178.7" y2="284.32"/><line class="cls-8" x1="178.7" y1="284.32" x2="191.48" y2="278.07"/><line class="cls-8" x1="191.48" y1="278.07" x2="226.25" y2="257.81"/><line class="cls-8" x1="226.25" y1="257.81" x2="188.16" y2="282.15"/><line class="cls-8" x1="188.16" y1="282.15" x2="178.42" y2="289.67"/><line class="cls-8" x1="178.42" y1="289.67" x2="173.16" y2="294.64"/><line class="cls-8" x1="173.16" y1="294.64" x2="169.97" y2="298.45"/><line class="cls-8" x1="281.35" y1="105.77" x2="279.43" y2="102.81"/><line class="cls-8" x1="169.97" y1="298.45" x2="168.04" y2="301.53"/><line class="cls-8" x1="168.04" y1="301.53" x2="166.69" y2="304.32"/><line class="cls-8" x1="166.69" y1="304.32" x2="166.4" y2="306.4"/><line class="cls-8" x1="166.4" y1="306.4" x2="166.75" y2="308.02"/><line class="cls-8" x1="166.75" y1="308.02" x2="167.69" y2="309.17"/><line class="cls-8" x1="167.69" y1="309.17" x2="169.24" y2="309.78"/><line class="cls-8" x1="169.24" y1="309.78" x2="171.18" y2="309.99"/><line class="cls-8" x1="171.18" y1="309.99" x2="174.22" y2="309.12"/><line class="cls-8" x1="174.22" y1="309.12" x2="178.4" y2="306.99"/><line class="cls-8" x1="178.4" y1="306.99" x2="184.49" y2="302.7"/><line class="cls-8" x1="184.49" y1="302.7" x2="195.32" y2="293.06"/><line class="cls-8" x1="195.32" y1="293.06" x2="216.83" y2="271.09"/><line class="cls-8" x1="216.83" y1="271.09" x2="191.86" y2="299.79"/><line class="cls-8" x1="191.86" y1="299.79" x2="185.04" y2="309.38"/><line class="cls-8" x1="185.04" y1="309.38" x2="181.8" y2="315.28"/><line class="cls-8" x1="181.8" y1="315.28" x2="180.4" y2="319.26"/><line class="cls-8" x1="180.4" y1="319.26" x2="180.14" y2="321.98"/><line class="cls-8" x1="180.14" y1="321.98" x2="181.23" y2="323.02"/><line class="cls-8" x1="181.23" y1="323.02" x2="183.74" y2="322.1"/><line class="cls-8" x1="183.74" y1="322.1" x2="188.61" y2="317.62"/><line class="cls-8" x1="188.61" y1="317.62" x2="201.58" y2="300.57"/><line class="cls-8" x1="201.58" y1="300.57" x2="195.14" y2="312.42"/><line class="cls-8" x1="195.14" y1="312.42" x2="184.8" y2="331.5"/><line class="cls-8" x1="184.8" y1="331.5" x2="179.93" y2="342.82"/><line class="cls-8" x1="179.93" y1="342.82" x2="177.06" y2="351.5"/><line class="cls-8" x1="177.06" y1="351.5" x2="175.29" y2="358.8"/><line class="cls-8" x1="175.29" y1="358.8" x2="174.21" y2="365.34"/><line class="cls-8" x1="174.21" y1="365.34" x2="173.76" y2="371.12"/><line class="cls-8" x1="173.76" y1="371.12" x2="173.75" y2="376.41"/><line class="cls-8" x1="173.75" y1="376.41" x2="174.1" y2="381.31"/><line class="cls-8" x1="174.1" y1="381.31" x2="174.77" y2="385.87"/><line class="cls-8" x1="174.77" y1="385.87" x2="175.67" y2="390.21"/><line class="cls-8" x1="175.67" y1="390.21" x2="176.85" y2="394.21"/><line class="cls-8" x1="176.85" y1="394.21" x2="178.24" y2="397.96"/><line class="cls-8" x1="178.24" y1="397.96" x2="179.82" y2="401.49"/><line class="cls-8" x1="179.82" y1="401.49" x2="181.58" y2="404.81"/><line class="cls-8" x1="181.58" y1="404.81" x2="183.49" y2="407.94"/><line class="cls-8" x1="183.49" y1="407.94" x2="185.56" y2="410.85"/><line class="cls-8" x1="185.56" y1="410.85" x2="187.75" y2="413.58"/><line class="cls-8" x1="187.75" y1="413.58" x2="190.07" y2="416.11"/><line class="cls-8" x1="190.07" y1="416.11" x2="192.5" y2="418.47"/><line class="cls-8" x1="192.5" y1="418.47" x2="195.04" y2="420.61"/><line class="cls-8" x1="195.04" y1="420.61" x2="197.66" y2="422.61"/><line class="cls-8" x1="197.66" y1="422.61" x2="200.37" y2="424.44"/><line class="cls-8" x1="200.37" y1="424.44" x2="203.15" y2="426.09"/><line class="cls-8" x1="203.15" y1="426.09" x2="206" y2="427.57"/><line class="cls-8" x1="206" y1="427.57" x2="208.92" y2="428.78"/><line class="cls-8" x1="208.92" y1="428.78" x2="211.88" y2="429.92"/><line class="cls-8" x1="211.88" y1="429.92" x2="214.88" y2="430.89"/><line class="cls-8" x1="214.88" y1="430.89" x2="217.92" y2="431.69"/><line class="cls-8" x1="217.92" y1="431.69" x2="220.99" y2="432.32"/><line class="cls-8" x1="220.99" y1="432.32" x2="224.09" y2="432.62"/><line class="cls-8" x1="224.09" y1="432.62" x2="227.2" y2="432.91"/><line class="cls-8" x1="227.2" y1="432.91" x2="230.32" y2="433.04"/><line class="cls-8" x1="230.32" y1="433.04" x2="233.43" y2="433"/><line class="cls-8" x1="233.43" y1="433" x2="236.55" y2="432.78"/><line class="cls-8" x1="236.55" y1="432.78" x2="239.64" y2="432.17"/><line class="cls-8" x1="239.64" y1="432.17" x2="242.72" y2="431.62"/><line class="cls-8" x1="242.72" y1="431.62" x2="245.77" y2="430.9"/><line class="cls-8" x1="245.77" y1="430.9" x2="248.79" y2="430.01"/><line class="cls-8" x1="248.79" y1="430.01" x2="251.77" y2="428.95"/><line class="cls-8" x1="251.77" y1="428.95" x2="254.67" y2="427.43"/><line class="cls-8" x1="254.67" y1="427.43" x2="257.54" y2="426.03"/><line class="cls-8" x1="257.54" y1="426.03" x2="260.35" y2="424.45"/><line class="cls-8" x1="260.35" y1="424.45" x2="263.09" y2="422.69"/><line class="cls-8" x1="263.09" y1="422.69" x2="265.75" y2="420.76"/><line class="cls-8" x1="265.75" y1="420.76" x2="268.25" y2="418.33"/><line class="cls-8" x1="268.25" y1="418.33" x2="270.72" y2="416.04"/><line class="cls-8" x1="270.72" y1="416.04" x2="273.09" y2="413.57"/><line class="cls-8" x1="273.09" y1="413.57" x2="275.33" y2="410.91"/><line class="cls-8" x1="275.33" y1="410.91" x2="277.45" y2="408.05"/><line class="cls-8" x1="277.45" y1="408.05" x2="279.32" y2="404.63"/><line class="cls-8" x1="281.14" y1="401.37" x2="282.79" y2="397.89"/><line class="cls-8" x1="282.79" y1="397.89" x2="284.25" y2="394.18"/><line class="cls-8" x1="284.25" y1="394.18" x2="285.51" y2="390.23"/><line class="cls-8" x1="285.51" y1="390.23" x2="286.37" y2="385.61"/><line class="cls-8" x1="286.37" y1="385.61" x2="287.13" y2="381.08"/><line class="cls-8" x1="287.13" y1="381.08" x2="287.58" y2="376.21"/><line class="cls-8" x1="287.58" y1="376.21" x2="287.68" y2="370.93"/><line class="cls-8" x1="287.68" y1="370.93" x2="287.34" y2="365.16"/><line class="cls-8" x1="287.34" y1="365.16" x2="286.27" y2="358.33"/><line class="cls-8" x1="286.27" y1="358.33" x2="284.66" y2="351.01"/><line class="cls-8" x1="284.66" y1="351.01" x2="281.98" y2="342.27"/><line class="cls-8" x1="281.98" y1="342.27" x2="277.38" y2="330.85"/><line class="cls-8" x1="277.38" y1="330.85" x2="267.5" y2="311.52"/><line class="cls-8" x1="267.5" y1="311.52" x2="261.2" y2="299.3"/><line class="cls-8" x1="261.2" y1="299.3" x2="273.69" y2="316.7"/><line class="cls-8" x1="273.69" y1="316.7" x2="278.4" y2="321.33"/><line class="cls-8" x1="278.4" y1="321.33" x2="280.85" y2="322.34"/><line class="cls-8" x1="280.85" y1="322.34" x2="281.94" y2="321.36"/><line class="cls-8" x1="281.94" y1="321.36" x2="281.58" y2="318.48"/><line class="cls-8" x1="281.58" y1="318.48" x2="280.24" y2="314.5"/><line class="cls-8" x1="280.24" y1="314.5" x2="277.13" y2="308.55"/><line class="cls-8" x1="277.13" y1="308.55" x2="270.52" y2="298.81"/><line class="cls-8" x1="270.52" y1="298.81" x2="246.27" y2="269.49"/><line class="cls-8" x1="246.27" y1="269.49" x2="267.06" y2="291.94"/><line class="cls-8" x1="267.06" y1="291.94" x2="277.61" y2="301.89"/><line class="cls-8" x1="277.61" y1="301.89" x2="283.55" y2="306.37"/><line class="cls-8" x1="283.55" y1="306.37" x2="287.63" y2="308.64"/><line class="cls-8" x1="287.63" y1="308.64" x2="290.61" y2="309.63"/><line class="cls-8" x1="290.61" y1="309.63" x2="292.47" y2="309.44"/><line class="cls-8" x1="292.47" y1="309.44" x2="294" y2="308.91"/><line class="cls-8" x1="294" y1="308.91" x2="294.93" y2="307.82"/><line class="cls-8" x1="294.93" y1="307.82" x2="295.29" y2="306.25"/><line class="cls-8" x1="295.29" y1="306.25" x2="295.02" y2="304.21"/><line class="cls-8" x1="295.02" y1="304.21" x2="293.71" y2="301.42"/><line class="cls-8" x1="293.71" y1="301.42" x2="291.83" y2="298.33"/><line class="cls-8" x1="291.83" y1="298.33" x2="288.71" y2="294.48"/><line class="cls-8" x1="288.71" y1="294.48" x2="283.56" y2="289.41"/><line class="cls-8" x1="283.56" y1="289.41" x2="273.99" y2="281.68"/><line class="cls-8" x1="273.99" y1="281.68" x2="236.6" y2="256.45"/><line class="cls-8" x1="236.6" y1="256.45" x2="270.79" y2="277.65"/><line class="cls-8" x1="270.79" y1="277.65" x2="283.38" y2="284.28"/><line class="cls-8" x1="283.38" y1="284.28" x2="290.55" y2="287.21"/><line class="cls-8" x1="290.55" y1="287.21" x2="295.52" y2="288.63"/><line class="cls-8" x1="295.52" y1="288.63" x2="298.97" y2="289.04"/><line class="cls-8" x1="298.97" y1="289.04" x2="301.82" y2="289.03"/><line class="cls-8" x1="301.82" y1="289.03" x2="304.03" y2="288.6"/><line class="cls-8" x1="304.03" y1="288.6" x2="305.69" y2="287.85"/><line class="cls-8" x1="305.69" y1="287.85" x2="306.87" y2="286.84"/><line class="cls-8" x1="306.87" y1="286.84" x2="307.41" y2="285.53"/><line class="cls-8" x1="307.41" y1="285.53" x2="307.72" y2="284.13"/><line class="cls-8" x1="307.72" y1="284.13" x2="307.59" y2="282.58"/><line class="cls-8" x1="307.59" y1="282.58" x2="307" y2="280.88"/><line class="cls-8" x1="307" y1="280.88" x2="305.89" y2="279.04"/><line class="cls-8" x1="305.89" y1="279.04" x2="304.04" y2="277.03"/><line class="cls-8" x1="304.04" y1="277.03" x2="301.59" y2="274.91"/><line class="cls-8" x1="301.59" y1="274.91" x2="298.14" y2="272.62"/><line class="cls-8" x1="298.14" y1="272.62" x2="293.2" y2="270.08"/><line class="cls-8" x1="293.2" y1="270.08" x2="285.63" y2="267.07"/><line class="cls-8" x1="285.63" y1="267.07" x2="271.45" y2="262.83"/><line class="cls-8" x1="271.45" y1="262.83" x2="235.32" y2="254.46"/><line class="cls-8" x1="235.32" y1="254.46" x2="276.44" y2="262.39"/><line class="cls-8" x1="276.44" y1="262.39" x2="288.39" y2="263.7"/><line class="cls-8" x1="288.39" y1="263.7" x2="295.5" y2="263.83"/><line class="cls-8" x1="295.5" y1="263.83" x2="300.45" y2="263.4"/><line class="cls-8" x1="300.45" y1="263.4" x2="304.1" y2="262.65"/><line class="cls-8" x1="304.1" y1="262.65" x2="306.86" y2="261.68"/><line class="cls-8" x1="306.86" y1="261.68" x2="308.95" y2="260.56"/><line class="cls-8" x1="308.95" y1="260.56" x2="310.49" y2="259.33"/><line class="cls-8" x1="310.49" y1="259.33" x2="311.64" y2="258.03"/><line class="cls-8" x1="311.64" y1="258.03" x2="312.27" y2="256.67"/><line class="cls-9" x1="312.27" y1="256.67" x2="312.5" y2="255.29"/><line class="cls-9" x1="312.51" y1="253.9" x2="312.31" y2="252.51"/><line class="cls-8" x1="312.31" y1="252.51" x2="311.7" y2="251.15"/><line class="cls-8" x1="311.7" y1="251.15" x2="310.81" y2="249.82"/><line class="cls-8" x1="310.81" y1="249.82" x2="309.29" y2="248.56"/><line class="cls-8" x1="309.29" y1="248.56" x2="307.22" y2="247.39"/><line class="cls-8" x1="307.22" y1="247.39" x2="304.47" y2="246.37"/><line class="cls-8" x1="304.47" y1="246.37" x2="300.83" y2="245.55"/><line class="cls-8" x1="300.83" y1="245.55" x2="296.1" y2="245.01"/><line class="cls-8" x1="296.1" y1="245.01" x2="288.98" y2="245"/><line class="cls-8" x1="288.98" y1="245" x2="277.01" y2="246.1"/><line class="cls-8" x1="277.01" y1="246.1" x2="235.76" y2="253.3"/><line class="cls-8" x1="235.76" y1="253.3" x2="272.02" y2="245.55"/><line class="cls-8" x1="272.02" y1="245.55" x2="286.45" y2="241.52"/><line class="cls-8" x1="286.45" y1="241.52" x2="294.06" y2="238.63"/><line class="cls-8" x1="294.06" y1="238.63" x2="299.04" y2="236.16"/><line class="cls-8" x1="299.04" y1="236.16" x2="302.53" y2="233.92"/><line class="cls-8" x1="302.53" y1="233.92" x2="305.01" y2="231.84"/><line class="cls-8" x1="305.01" y1="231.84" x2="307" y2="229.81"/><line class="cls-8" x1="307" y1="229.81" x2="308.13" y2="227.99"/><line class="cls-8" x1="308.13" y1="227.99" x2="308.75" y2="226.29"/><line class="cls-8" x1="308.75" y1="226.29" x2="308.9" y2="224.72"/><line class="cls-8" x1="308.9" y1="224.72" x2="308.61" y2="223.3"/><line class="cls-8" x1="308.61" y1="223.3" x2="308.13" y2="221.96"/><line class="cls-8" x1="308.13" y1="221.96" x2="306.96" y2="220.92"/><line class="cls-8" x1="306.96" y1="220.92" x2="305.31" y2="220.13"/><line class="cls-8" x1="305.31" y1="220.13" x2="303.11" y2="219.65"/><line class="cls-8" x1="303.11" y1="219.65" x2="300.24" y2="219.57"/><line class="cls-8" x1="300.24" y1="219.57" x2="296.75" y2="219.93"/><line class="cls-8" x1="296.75" y1="219.93" x2="291.75" y2="221.25"/><line class="cls-8" x1="291.75" y1="221.25" x2="284.53" y2="224.05"/><line class="cls-8" x1="284.53" y1="224.05" x2="271.82" y2="230.45"/><line class="cls-8" x1="271.82" y1="230.45" x2="237.25" y2="251.04"/><line class="cls-8" x1="237.25" y1="251.04" x2="274.98" y2="226.51"/><line class="cls-8" x1="274.98" y1="226.51" x2="284.68" y2="218.93"/><line class="cls-8" x1="284.68" y1="218.93" x2="289.91" y2="213.95"/><line class="cls-8" x1="289.91" y1="213.95" x2="293.09" y2="210.15"/><line class="cls-8" x1="293.09" y1="210.15" x2="295.02" y2="207.08"/><line class="cls-8" x1="295.02" y1="207.08" x2="296.22" y2="204.42"/><line class="cls-8" x1="296.22" y1="204.42" x2="296.52" y2="202.38"/><line class="cls-8" x1="296.52" y1="202.38" x2="296.19" y2="200.8"/><line class="cls-8" x1="296.19" y1="200.8" x2="295.27" y2="199.69"/><line class="cls-8" x1="295.27" y1="199.69" x2="293.74" y2="199.12"/><line class="cls-8" x1="293.74" y1="199.12" x2="291.7" y2="199.07"/><line class="cls-8" x1="291.7" y1="199.07" x2="288.7" y2="200.01"/><line class="cls-8" x1="288.7" y1="200.01" x2="284.58" y2="202.2"/><line class="cls-8" x1="284.58" y1="202.2" x2="278.56" y2="206.58"/><line class="cls-8" x1="278.56" y1="206.58" x2="267.84" y2="216.34"/><line class="cls-8" x1="267.84" y1="216.34" x2="246.45" y2="238.65"/><line class="cls-8" x1="246.45" y1="238.65" x2="271.2" y2="209.77"/><line class="cls-8" x1="271.2" y1="209.77" x2="277.98" y2="200.15"/><line class="cls-8" x1="277.98" y1="200.15" x2="281.2" y2="194.25"/><line class="cls-8" x1="281.2" y1="194.25" x2="282.61" y2="190.29"/><line class="cls-8" x1="282.61" y1="190.29" x2="282.79" y2="187.72"/><line class="cls-8" x1="282.79" y1="187.72" x2="281.73" y2="186.72"/><line class="cls-8" x1="281.73" y1="186.72" x2="279.27" y2="187.69"/><line class="cls-8" x1="279.27" y1="187.69" x2="274.48" y2="192.24"/><line class="cls-8" x1="274.48" y1="192.24" x2="261.7" y2="209.44"/><line class="cls-8" x1="261.7" y1="209.44" x2="268" y2="197.68"/><line class="cls-8" x1="268" y1="197.68" x2="278.23" y2="178.54"/><line class="cls-8" x1="278.23" y1="178.54" x2="283.04" y2="167.2"/><line class="cls-8" x1="283.04" y1="167.2" x2="285.89" y2="158.52"/><line class="cls-8" x1="285.89" y1="158.52" x2="287.64" y2="151.24"/><line class="cls-8" x1="287.64" y1="151.24" x2="288.64" y2="144.84"/><line class="cls-8" x1="288.64" y1="144.84" x2="289.1" y2="139.08"/><line class="cls-8" x1="289.1" y1="139.08" x2="289.11" y2="133.81"/><line class="cls-8" x1="289.11" y1="133.81" x2="288.77" y2="128.94"/><line class="cls-8" x1="288.77" y1="128.94" x2="288.11" y2="124.42"/><line class="cls-8" x1="288.11" y1="124.42" x2="287.17" y2="120.24"/><line class="cls-8" x1="287.17" y1="120.24" x2="286.01" y2="116.27"/><line class="cls-8" x1="286.01" y1="116.27" x2="284.64" y2="112.55"/><line class="cls-8" x1="284.64" y1="112.55" x2="283.09" y2="109.05"/><line class="cls-8" x1="283.09" y1="109.05" x2="281.35" y2="105.77"/><line class="cls-8" x1="279.32" y1="404.63" x2="281.14" y2="401.37"/><line class="cls-8" x1="279.43" y1="102.81" x2="277.4" y2="99.93"/><line class="cls-8" x1="277.4" y1="99.93" x2="275.24" y2="97.24"/><line class="cls-8" x1="275.24" y1="97.24" x2="272.96" y2="94.74"/><line class="cls-8" x1="272.96" y1="94.74" x2="270.57" y2="92.42"/><line class="cls-8" x1="270.57" y1="92.42" x2="268.04" y2="90.45"/><line class="cls-8" x1="268.04" y1="90.45" x2="265.46" y2="88.48"/><line class="cls-8" x1="265.46" y1="88.48" x2="262.8" y2="86.69"/><line class="cls-8" x1="262.8" y1="86.69" x2="260.07" y2="85.07"/><line class="cls-8" x1="260.07" y1="85.07" x2="257.27" y2="83.63"/><line class="cls-8" x1="257.27" y1="83.63" x2="254.39" y2="82.58"/><line class="cls-8" x1="254.39" y1="82.58" x2="251.48" y2="81.48"/><line class="cls-8" x1="251.48" y1="81.48" x2="248.54" y2="80.54"/><line class="cls-8" x1="248.54" y1="80.54" x2="245.56" y2="79.77"/><line class="cls-8" x1="245.56" y1="79.77" x2="242.55" y2="79.17"/><line class="cls-8" x1="242.55" y1="79.17" x2="239.51" y2="79.03"/><line class="cls-8" x1="239.51" y1="79.03" x2="236.47" y2="78.76"/><line class="cls-8" x1="236.47" y1="78.76" x2="233.42" y2="78.67"/><line class="cls-8" x1="233.42" y1="78.67" x2="230.37" y2="78.74"/><line class="cls-8" x1="230.37" y1="78.74" x2="227.32" y2="78.97"/><line class="cls-8" x1="227.32" y1="78.97" x2="224.31" y2="79.72"/><line class="cls-8" x1="224.31" y1="79.72" x2="221.31" y2="80.29"/><line class="cls-8" x1="221.31" y1="80.29" x2="218.33" y2="81.04"/><line class="cls-8" x1="218.33" y1="81.04" x2="215.39" y2="81.95"/><line class="cls-8" x1="215.39" y1="81.95" x2="212.49" y2="83.03"/><line class="cls-8" x1="212.49" y1="83.03" x2="209.69" y2="84.66"/><line class="cls-8" x1="209.69" y1="84.66" x2="206.9" y2="86.08"/><line class="cls-8" x1="206.9" y1="86.08" x2="204.17" y2="87.67"/><line class="cls-8" x1="204.17" y1="87.67" x2="201.52" y2="89.43"/><line class="cls-8" x1="201.52" y1="89.43" x2="198.94" y2="91.37"/><line class="cls-8" x1="198.94" y1="91.37" x2="196.55" y2="93.89"/><line class="cls-8" x1="196.55" y1="93.89" x2="194.17" y2="96.18"/><line class="cls-8" x1="194.17" y1="96.18" x2="191.9" y2="98.65"/><line class="cls-8" x1="191.9" y1="98.65" x2="189.75" y2="101.32"/><line class="cls-8" x1="189.75" y1="101.32" x2="187.72" y2="104.17"/><line class="cls-8" x1="187.72" y1="104.17" x2="185.97" y2="107.62"/><line class="cls-8" x1="185.97" y1="107.62" x2="184.25" y2="110.88"/><line class="cls-8" x1="184.25" y1="110.88" x2="182.7" y2="114.34"/><line class="cls-8" x1="182.7" y1="114.34" x2="181.34" y2="118.04"/><line class="cls-8" x1="181.34" y1="118.04" x2="180.18" y2="121.98"/><line class="cls-8" x1="180.18" y1="121.98" x2="179.43" y2="126.58"/><line class="cls-8" x1="179.43" y1="126.58" x2="178.78" y2="131.09"/><line class="cls-8" x1="178.78" y1="131.09" x2="178.44" y2="135.93"/><line class="cls-8" x1="178.44" y1="135.93" x2="178.46" y2="141.18"/><line class="cls-8" x1="178.46" y1="141.18" x2="178.9" y2="146.92"/><line class="cls-8" x1="178.9" y1="146.92" x2="180.09" y2="153.66"/><line class="cls-8" x1="180.09" y1="153.66" x2="181.82" y2="160.94"/><line class="cls-8" x1="181.82" y1="160.94" x2="184.64" y2="169.62"/><line class="cls-8" x1="184.64" y1="169.62" x2="189.41" y2="180.96"/><line class="cls-8" x1="189.41" y1="180.96" x2="199.51" y2="200.16"/><line class="cls-8" x1="199.51" y1="200.16" x2="205.93" y2="212.21"/><line class="cls-8" x1="205.93" y1="212.21" x2="193.35" y2="194.87"/><line class="cls-8" x1="193.35" y1="194.87" x2="188.65" y2="190.24"/><line class="cls-8" x1="188.65" y1="190.24" x2="186.26" y2="189.21"/><line class="cls-8" x1="186.26" y1="189.21" x2="185.24" y2="190.16"/><line class="cls-8" x1="185.24" y1="190.16" x2="185.57" y2="192.86"/><line class="cls-8" x1="185.57" y1="192.86" x2="187" y2="196.79"/><line class="cls-8" x1="187" y1="196.79" x2="190.22" y2="202.68"/><line class="cls-8" x1="190.22" y1="202.68" x2="196.96" y2="212.31"/><line class="cls-8" x1="196.96" y1="212.31" x2="221.52" y2="241.37"/><line class="cls-8" x1="221.52" y1="241.37" x2="200.42" y2="218.89"/><line class="cls-8" x1="200.42" y1="218.89" x2="189.84" y2="208.99"/><line class="cls-8" x1="189.84" y1="208.99" x2="183.91" y2="204.51"/><line class="cls-8" x1="183.91" y1="204.51" x2="179.85" y2="202.23"/><line class="cls-8" x1="179.85" y1="202.23" x2="176.91" y2="201.22"/><line class="cls-8" x1="176.91" y1="201.22" x2="174.87" y2="201.17"/><line class="cls-8" x1="174.87" y1="201.17" x2="173.39" y2="201.68"/><line class="cls-8" x1="173.39" y1="201.68" x2="172.5" y2="202.72"/><line class="cls-8" x1="172.5" y1="202.72" x2="172.2" y2="204.26"/><line class="cls-8" x1="172.2" y1="204.26" x2="172.52" y2="206.25"/><line class="cls-8" x1="172.52" y1="206.25" x2="173.59" y2="208.75"/><line class="cls-8" x1="173.59" y1="208.75" x2="175.53" y2="211.79"/><line class="cls-8" x1="175.53" y1="211.79" x2="178.72" y2="215.57"/><text class="cls-10" transform="matrix(0.97, 0.26, -0.26, 0.97, 224.3, 237.26)">-60</text><text class="cls-10" transform="matrix(0.97, 0.26, -0.26, 0.97, 235.84, 194.2)">-40</text><text class="cls-10" transform="matrix(0.97, 0.26, -0.26, 0.97, 247.38, 151.13)">-20</text><text class="cls-10" transform="matrix(0.97, 0.26, -0.26, 0.97, 266.16, 110.01)">0</text><text class="cls-10" transform="matrix(0.97, 0.26, -0.26, 0.97, 271.43, 71.5)">20</text><text class="cls-11" transform="translate(0 261.4)">180</text><text class="cls-11" transform="translate(7.38 317.44)">195</text><text class="cls-11" transform="translate(29.01 369.66)">210</text><text class="cls-11" transform="translate(63.42 414.51)">225</text><text class="cls-11" transform="translate(108.26 448.92)">240</text><text class="cls-11" transform="translate(160.49 470.55)">255</text><text class="cls-11" transform="translate(216.53 477.93)">270</text><text class="cls-11" transform="translate(272.57 470.55)">285</text><text class="cls-11" transform="translate(324.79 448.92)">300</text><text class="cls-11" transform="translate(369.64 414.51)">315</text><text class="cls-11" transform="translate(404.05 369.66)">330</text><text class="cls-11" transform="translate(425.68 317.44)">345</text><text class="cls-12" transform="translate(32.4 17.93)">Directivity patterns (dBi) in elevation cut</text><text class="cls-11" transform="translate(443.56 261.4)">0</text><text class="cls-11" transform="translate(430.93 205.36)">15</text><text class="cls-11" transform="translate(409.3 153.13)">30</text><text class="cls-11" transform="translate(374.89 108.29)">45</text><text class="cls-11" transform="translate(330.04 73.88)">60</text><text class="cls-11" transform="translate(277.82 52.25)">75</text><text class="cls-11" transform="translate(221.78 44.87)">90</text><text class="cls-11" transform="translate(160.49 52.25)">105</text><text class="cls-11" transform="translate(108.26 73.88)">120</text><text class="cls-11" transform="translate(63.42 108.29)">135</text><text class="cls-11" transform="translate(29.01 153.13)">150</text><text class="cls-11" transform="translate(7.38 205.36)">165</text></svg>