<?xml version="1.0" encoding="UTF-8" standalone="no"?>
<!-- Generator: Adobe Illustrator 25.0.0, SVG Export Plug-In . SVG Version: 6.00 Build 0)  -->

<svg
   version="1.1"
   id="Livello_1"
   x="0px"
   y="0px"
   viewBox="0 0 442.12897 403.76073"
   xml:space="preserve"
   sodipodi:docname="Array_Factor_Azimuth_Pattern_Rectangular_Coordinates_tex.svg"
   inkscape:version="1.1.1 (3bf5ae0d25, 2021-09-20)"
   width="442.12897"
   height="403.76074"
   xmlns:inkscape="http://www.inkscape.org/namespaces/inkscape"
   xmlns:sodipodi="http://sodipodi.sourceforge.net/DTD/sodipodi-0.dtd"
   xmlns:xlink="http://www.w3.org/1999/xlink"
   xmlns="http://www.w3.org/2000/svg"
   xmlns:svg="http://www.w3.org/2000/svg"><defs
   id="defs479"><clipPath
     id="SVGID_2_"><use
       xlink:href="#SVGID_1_"
       style="overflow:visible"
       id="use183"
       x="0"
       y="0"
       width="100%"
       height="100%" /></clipPath><clipPath
     id="SVGID_4_"><use
       xlink:href="#SVGID_3_"
       style="overflow:visible"
       id="use291"
       x="0"
       y="0"
       width="100%"
       height="100%" /></clipPath><clipPath
     id="SVGID_6_"><use
       xlink:href="#SVGID_5_"
       style="overflow:visible"
       id="use313"
       x="0"
       y="0"
       width="100%"
       height="100%" /></clipPath><rect
     id="SVGID_1_"
     x="-131"
     y="2"
     width="78"
     height="84" /><rect
     id="SVGID_3_"
     x="-52"
     y="2"
     width="5"
     height="84" /><rect
     id="SVGID_5_"
     x="-47"
     y="2"
     width="67"
     height="84" /></defs><sodipodi:namedview
   id="namedview477"
   pagecolor="#ffffff"
   bordercolor="#666666"
   borderopacity="1.0"
   inkscape:pageshadow="2"
   inkscape:pageopacity="0.0"
   inkscape:pagecheckerboard="0"
   showgrid="false"
   inkscape:zoom="1.4386568"
   inkscape:cx="271.0862"
   inkscape:cy="222.77725"
   inkscape:window-width="1920"
   inkscape:window-height="1009"
   inkscape:window-x="-8"
   inkscape:window-y="-8"
   inkscape:window-maximized="1"
   inkscape:current-layer="layer1"
   fit-margin-top="0"
   fit-margin-left="0"
   fit-margin-right="0"
   fit-margin-bottom="0"
   width="455.05417px" />
<style
   type="text/css"
   id="style2">
	.st0{fill:#FFFFFF;}
	.st1{fill:none;stroke:#DFDFDF;stroke-width:0.5;stroke-linejoin:round;stroke-miterlimit:10;}
	.st2{fill:none;stroke:#262626;stroke-width:0.5;stroke-linecap:square;stroke-linejoin:round;stroke-miterlimit:10;}
	.st3{fill:#262626;}
	.st4{font-family:'Helvetica';}
	.st5{font-size:10px;}
	.st6{letter-spacing:37;}
	.st7{letter-spacing:32;}
	.st8{letter-spacing:29;}
	.st9{font-size:11px;}
	.st10{fill:none;stroke:#FF0000;stroke-width:2;stroke-linejoin:round;stroke-miterlimit:10;}
	.st11{clip-path:url(#SVGID_2_);}
	.st12{clip-path:url(#SVGID_4_);}
	.st13{clip-path:url(#SVGID_6_);}
</style>
<g
   inkscape:groupmode="layer"
   id="layer2"
   inkscape:label="Layer 2"
   style="display:none"
   transform="translate(-8.6718838e-7,-3.7000085)"><g
     id="g286"
     transform="translate(54.000162,-0.21985475)"><defs
       id="defs181"><rect
         id="rect7961"
         x="-131"
         y="2"
         width="78"
         height="84" /></defs><clipPath
       id="clipPath7244"><use
         xlink:href="#SVGID_1_"
         style="overflow:visible"
         id="use7242"
         x="0"
         y="0"
         width="100%"
         height="100%" /></clipPath><g
       class="st11"
       clip-path="url(#SVGID_2_)"
       id="g284"><text
         transform="translate(-53.6084,4)"
         class="st4"
         style="font-size:0.11px"
         id="text186">n</text><text
         transform="translate(-53.6699,4)"
         class="st4"
         style="font-size:0.11px"
         id="text188">o</text><text
         transform="translate(-53.6943,4)"
         class="st4"
         style="font-size:0.11px"
         id="text190">i</text><text
         transform="translate(-53.7251,4)"
         class="st4"
         style="font-size:0.11px"
         id="text192">t</text><text
         transform="translate(-53.7861,4)"
         class="st4"
         style="font-size:0.11px"
         id="text194">a</text><text
         transform="translate(-53.8413,4)"
         class="st4"
         style="font-size:0.11px"
         id="text196">v</text><text
         transform="translate(-53.9023,4)"
         class="st4"
         style="font-size:0.11px"
         id="text198">e</text><text
         transform="translate(-53.9263,4)"
         class="st4"
         style="font-size:0.11px"
         id="text200">l</text><text
         transform="translate(-54,4)"
         class="st4"
         style="font-size:0.11px"
         id="text202">E</text><text
         transform="translate(-53.6636,4)"
         class="st4"
         style="font-size:0.11px"
         id="text204">h</text><text
         transform="translate(-53.6943,4)"
         class="st4"
         style="font-size:0.11px"
         id="text206">t</text><text
         transform="translate(-53.7554,4)"
         class="st4"
         style="font-size:0.11px"
         id="text208">u</text><text
         transform="translate(-53.8472,4)"
         class="st4"
         style="font-size:0.11px"
         id="text210">m</text><text
         transform="translate(-53.8716,4)"
         class="st4"
         style="font-size:0.11px"
         id="text212">i</text><text
         transform="translate(-53.9263,4)"
         class="st4"
         style="font-size:0.11px"
         id="text214">z</text><text
         transform="translate(-54,4)"
         class="st4"
         style="font-size:0.11px"
         id="text216">A</text><text
         transform="translate(-53.5903,4)"
         class="st4"
         style="font-size:0.11px"
         id="text218">e</text><text
         transform="translate(-53.6514,4)"
         class="st4"
         style="font-size:0.11px"
         id="text220">u</text><text
         transform="translate(-53.6763,4)"
         class="st4"
         style="font-size:0.11px"
         id="text222">l</text><text
         transform="translate(-53.7373,4)"
         class="st4"
         style="font-size:0.11px"
         id="text224">a</text><text
         transform="translate(-53.7925,4)"
         class="st4"
         style="font-size:0.11px"
         id="text226">v</text><text
         transform="translate(-53.8228,4)"
         class="st4"
         style="font-size:0.11px"
         id="text228" /><text
         transform="translate(-53.8843,4)"
         class="st4"
         style="font-size:0.11px"
         id="text230">n</text><text
         transform="translate(-53.9082,4)"
         class="st4"
         style="font-size:0.11px"
         id="text232">i</text><text
         transform="translate(-54,4)"
         class="st4"
         style="font-size:0.11px"
         id="text234">M</text><text
         transform="translate(-53.5596,4)"
         class="st4"
         style="font-size:0.11px"
         id="text236">e</text><text
         transform="translate(-53.6211,4)"
         class="st4"
         style="font-size:0.11px"
         id="text238">u</text><text
         transform="translate(-53.6455,4)"
         class="st4"
         style="font-size:0.11px"
         id="text240">l</text><text
         transform="translate(-53.7065,4)"
         class="st4"
         style="font-size:0.11px"
         id="text242">a</text><text
         transform="translate(-53.7617,4)"
         class="st4"
         style="font-size:0.11px"
         id="text244">v</text><text
         transform="translate(-53.7925,4)"
         class="st4"
         style="font-size:0.11px"
         id="text246" /><text
         transform="translate(-53.8472,4)"
         class="st4"
         style="font-size:0.11px"
         id="text248">x</text><text
         transform="translate(-53.9082,4)"
         class="st4"
         style="font-size:0.11px"
         id="text250">a</text><text
         transform="translate(-54,4)"
         class="st4"
         style="font-size:0.11px"
         id="text252">M</text><text
         transform="translate(-53.5352,4)"
         class="st4"
         style="font-size:0.11px"
         id="text254">y</text><text
         transform="translate(-53.5903,4)"
         class="st4"
         style="font-size:0.11px"
         id="text256">c</text><text
         transform="translate(-53.6514,4)"
         class="st4"
         style="font-size:0.11px"
         id="text258">n</text><text
         transform="translate(-53.7124,4)"
         class="st4"
         style="font-size:0.11px"
         id="text260">e</text><text
         transform="translate(-53.7739,4)"
         class="st4"
         style="font-size:0.11px"
         id="text262">u</text><text
         transform="translate(-53.835,4)"
         class="st4"
         style="font-size:0.11px"
         id="text264">q</text><text
         transform="translate(-53.8965,4)"
         class="st4"
         style="font-size:0.11px"
         id="text266">e</text><text
         transform="translate(-53.9326,4)"
         class="st4"
         style="font-size:0.11px"
         id="text268">r</text><text
         transform="translate(-54,4)"
         class="st4"
         style="font-size:0.11px"
         id="text270">F</text><text
         transform="translate(-53.7002,4)"
         class="st4"
         style="font-size:0.11px"
         id="text272">t</text><text
         transform="translate(-53.7612,4)"
         class="st4"
         style="font-size:0.11px"
         id="text274">u</text><text
         transform="translate(-53.8223,4)"
         class="st4"
         style="font-size:0.11px"
         id="text276">p</text><text
         transform="translate(-53.853,4)"
         class="st4"
         style="font-size:0.11px"
         id="text278">t</text><text
         transform="translate(-53.9146,4)"
         class="st4"
         style="font-size:0.11px"
         id="text280">u</text><text
         transform="translate(-54,4)"
         class="st4"
         style="font-size:0.11px"
         id="text282">O</text></g></g><g
     id="g308"
     transform="translate(54.000162,-0.21985475)"><defs
       id="defs289"><rect
         id="rect8017"
         x="-52"
         y="2"
         width="5"
         height="84" /></defs><clipPath
       id="clipPath7301"><use
         xlink:href="#SVGID_3_"
         style="overflow:visible"
         id="use7299"
         x="0"
         y="0"
         width="100%"
         height="100%" /></clipPath><g
       class="st12"
       clip-path="url(#SVGID_4_)"
       id="g306"><text
         transform="translate(-50,4)"
         class="st4"
         style="font-size:0.11px"
         id="text294">:</text><text
         transform="translate(-50,4)"
         class="st4"
         style="font-size:0.11px"
         id="text296">:</text><text
         transform="translate(-50,4)"
         class="st4"
         style="font-size:0.11px"
         id="text298">:</text><text
         transform="translate(-50,4)"
         class="st4"
         style="font-size:0.11px"
         id="text300">:</text><text
         transform="translate(-50,4)"
         class="st4"
         style="font-size:0.11px"
         id="text302">:</text><text
         transform="translate(-50,4)"
         class="st4"
         style="font-size:0.11px"
         id="text304">:</text></g></g><g
     id="g474"
     transform="translate(54.000162,-0.21985475)"><defs
       id="defs311"><rect
         id="rect8030"
         x="-47"
         y="2"
         width="67"
         height="84" /></defs><clipPath
       id="clipPath7315"><use
         xlink:href="#SVGID_5_"
         style="overflow:visible"
         id="use7313"
         x="0"
         y="0"
         width="100%"
         height="100%" /></clipPath><g
       class="st13"
       clip-path="url(#SVGID_6_)"
       id="g472"><text
         transform="translate(-45.5449,4)"
         class="st4"
         style="font-size:0.11px"
         id="text316" /><text
         transform="translate(-45.5757,4)"
         class="st4"
         style="font-size:0.11px"
         id="text318" /><text
         transform="translate(-45.606,4)"
         class="st4"
         style="font-size:0.11px"
         id="text320" /><text
         transform="translate(-45.6367,4)"
         class="st4"
         style="font-size:0.11px"
         id="text322" /><text
         transform="translate(-45.667,4)"
         class="st4"
         style="font-size:0.11px"
         id="text324">]</text><text
         transform="translate(-45.7114,4)"
         class="st4"
         style="font-size:0.11px"
         id="text326">째</text><text
         transform="translate(-45.7725,4)"
         class="st4"
         style="font-size:0.11px"
         id="text328">0</text><text
         transform="translate(-45.8032,4)"
         class="st4"
         style="font-size:0.11px"
         id="text330" /><text
         transform="translate(-45.8335,4)"
         class="st4"
         style="font-size:0.11px"
         id="text332">,</text><text
         transform="translate(-45.8643,4)"
         class="st4"
         style="font-size:0.11px"
         id="text334" /><text
         transform="translate(-45.9082,4)"
         class="st4"
         style="font-size:0.11px"
         id="text336">째</text><text
         transform="translate(-45.9692,4)"
         class="st4"
         style="font-size:0.11px"
         id="text338">0</text><text
         transform="translate(-46,4)"
         class="st4"
         style="font-size:0.11px"
         id="text340">[</text><text
         transform="translate(-45.4839,4)"
         class="st4"
         style="font-size:0.11px"
         id="text342" /><text
         transform="translate(-45.5142,4)"
         class="st4"
         style="font-size:0.11px"
         id="text344" /><text
         transform="translate(-45.5449,4)"
         class="st4"
         style="font-size:0.11px"
         id="text346">]</text><text
         transform="translate(-45.5894,4)"
         class="st4"
         style="font-size:0.11px"
         id="text348">째</text><text
         transform="translate(-45.6504,4)"
         class="st4"
         style="font-size:0.11px"
         id="text350">0</text><text
         transform="translate(-45.7114,4)"
         class="st4"
         style="font-size:0.11px"
         id="text352">6</text><text
         transform="translate(-45.7725,4)"
         class="st4"
         style="font-size:0.11px"
         id="text354">3</text><text
         transform="translate(-45.8032,4)"
         class="st4"
         style="font-size:0.11px"
         id="text356" /><text
         transform="translate(-45.8335,4)"
         class="st4"
         style="font-size:0.11px"
         id="text358">,</text><text
         transform="translate(-45.8643,4)"
         class="st4"
         style="font-size:0.11px"
         id="text360" /><text
         transform="translate(-45.9082,4)"
         class="st4"
         style="font-size:0.11px"
         id="text362">째</text><text
         transform="translate(-45.9692,4)"
         class="st4"
         style="font-size:0.11px"
         id="text364">0</text><text
         transform="translate(-46,4)"
         class="st4"
         style="font-size:0.11px"
         id="text366">[</text><text
         transform="translate(-45.4614,4)"
         class="st4"
         style="font-size:0.11px"
         id="text368" /><text
         transform="translate(-45.4927,4)"
         class="st4"
         style="font-size:0.11px"
         id="text370" /><text
         transform="translate(-45.5234,4)"
         class="st4"
         style="font-size:0.11px"
         id="text372" /><text
         transform="translate(-45.5537,4)"
         class="st4"
         style="font-size:0.11px"
         id="text374" /><text
         transform="translate(-45.5845,4)"
         class="st4"
         style="font-size:0.11px"
         id="text376" /><text
         transform="translate(-45.6577,4)"
         class="st4"
         style="font-size:0.11px"
         id="text378">B</text><text
         transform="translate(-45.7188,4)"
         class="st4"
         style="font-size:0.11px"
         id="text380">d</text><text
         transform="translate(-45.7495,4)"
         class="st4"
         style="font-size:0.11px"
         id="text382" /><text
         transform="translate(-45.8105,4)"
         class="st4"
         style="font-size:0.11px"
         id="text384">7</text><text
         transform="translate(-45.8413,4)"
         class="st4"
         style="font-size:0.11px"
         id="text386">.</text><text
         transform="translate(-45.9023,4)"
         class="st4"
         style="font-size:0.11px"
         id="text388">3</text><text
         transform="translate(-45.9634,4)"
         class="st4"
         style="font-size:0.11px"
         id="text390">3</text><text
         transform="translate(-46,4)"
         class="st4"
         style="font-size:0.11px"
         id="text392">-</text><text
         transform="translate(-45.4683,4)"
         class="st4"
         style="font-size:0.11px"
         id="text394" /><text
         transform="translate(-45.4985,4)"
         class="st4"
         style="font-size:0.11px"
         id="text396" /><text
         transform="translate(-45.5293,4)"
         class="st4"
         style="font-size:0.11px"
         id="text398" /><text
         transform="translate(-45.5596,4)"
         class="st4"
         style="font-size:0.11px"
         id="text400" /><text
         transform="translate(-45.5903,4)"
         class="st4"
         style="font-size:0.11px"
         id="text402" /><text
         transform="translate(-45.6206,4)"
         class="st4"
         style="font-size:0.11px"
         id="text404" /><text
         transform="translate(-45.6943,4)"
         class="st4"
         style="font-size:0.11px"
         id="text406">B</text><text
         transform="translate(-45.7554,4)"
         class="st4"
         style="font-size:0.11px"
         id="text408">d</text><text
         transform="translate(-45.7861,4)"
         class="st4"
         style="font-size:0.11px"
         id="text410" /><text
         transform="translate(-45.8472,4)"
         class="st4"
         style="font-size:0.11px"
         id="text412">4</text><text
         transform="translate(-45.9082,4)"
         class="st4"
         style="font-size:0.11px"
         id="text414">6</text><text
         transform="translate(-45.9385,4)"
         class="st4"
         style="font-size:0.11px"
         id="text416">.</text><text
         transform="translate(-46,4)"
         class="st4"
         style="font-size:0.11px"
         id="text418">4</text><text
         transform="translate(-45.4434,4)"
         class="st4"
         style="font-size:0.11px"
         id="text420" /><text
         transform="translate(-45.4741,4)"
         class="st4"
         style="font-size:0.11px"
         id="text422" /><text
         transform="translate(-45.5049,4)"
         class="st4"
         style="font-size:0.11px"
         id="text424" /><text
         transform="translate(-45.5356,4)"
         class="st4"
         style="font-size:0.11px"
         id="text426" /><text
         transform="translate(-45.5659,4)"
         class="st4"
         style="font-size:0.11px"
         id="text428" /><text
         transform="translate(-45.5967,4)"
         class="st4"
         style="font-size:0.11px"
         id="text430" /><text
         transform="translate(-45.6514,4)"
         class="st4"
         style="font-size:0.11px"
         id="text432">z</text><text
         transform="translate(-45.731,4)"
         class="st4"
         style="font-size:0.11px"
         id="text434">H</text><text
         transform="translate(-45.8164,4)"
         class="st4"
         style="font-size:0.11px"
         id="text436">G</text><text
         transform="translate(-45.8472,4)"
         class="st4"
         style="font-size:0.11px"
         id="text438" /><text
         transform="translate(-45.9082,4)"
         class="st4"
         style="font-size:0.11px"
         id="text440">1</text><text
         transform="translate(-45.9385,4)"
         class="st4"
         style="font-size:0.11px"
         id="text442">.</text><text
         transform="translate(-46,4)"
         class="st4"
         style="font-size:0.11px"
         id="text444">2</text><text
         transform="translate(-45.395,4)"
         class="st4"
         style="font-size:0.11px"
         id="text446" /><text
         transform="translate(-45.4316,4)"
         class="st4"
         style="font-size:0.11px"
         id="text448">r</text><text
         transform="translate(-45.4927,4)"
         class="st4"
         style="font-size:0.11px"
         id="text450">o</text><text
         transform="translate(-45.5234,4)"
         class="st4"
         style="font-size:0.11px"
         id="text452">t</text><text
         transform="translate(-45.5786,4)"
         class="st4"
         style="font-size:0.11px"
         id="text454">c</text><text
         transform="translate(-45.6396,4)"
         class="st4"
         style="font-size:0.11px"
         id="text456">a</text><text
         transform="translate(-45.7065,4)"
         class="st4"
         style="font-size:0.11px"
         id="text458">F</text><text
         transform="translate(-45.7373,4)"
         class="st4"
         style="font-size:0.11px"
         id="text460" /><text
         transform="translate(-45.7925,4)"
         class="st4"
         style="font-size:0.11px"
         id="text462">y</text><text
         transform="translate(-45.8535,4)"
         class="st4"
         style="font-size:0.11px"
         id="text464">a</text><text
         transform="translate(-45.8896,4)"
         class="st4"
         style="font-size:0.11px"
         id="text466">r</text><text
         transform="translate(-45.9268,4)"
         class="st4"
         style="font-size:0.11px"
         id="text468">r</text><text
         transform="translate(-46,4)"
         class="st4"
         style="font-size:0.11px"
         id="text470">A</text></g></g></g><g
   inkscape:groupmode="layer"
   id="layer4"
   inkscape:label="Layer 4"
   style="display:inline"><g
     id="g10151"
     style="display:inline"
     transform="translate(-8.6718838e-7,-3.7000085)"><line
       class="st1"
       x1="58.074963"
       y1="358.57339"
       x2="58.074963"
       y2="22.573378"
       id="line6"
       style="fill:none;stroke:#dfdfdf;stroke-width:0.5;stroke-linejoin:round;stroke-miterlimit:10" /><line
       class="st1"
       x1="104.27494"
       y1="358.57339"
       x2="104.27494"
       y2="22.573378"
       id="line8"
       style="fill:none;stroke:#dfdfdf;stroke-width:0.5;stroke-linejoin:round;stroke-miterlimit:10" /><line
       class="st1"
       x1="150.575"
       y1="358.57339"
       x2="150.575"
       y2="22.573378"
       id="line10"
       style="fill:none;stroke:#dfdfdf;stroke-width:0.5;stroke-linejoin:round;stroke-miterlimit:10" /><line
       class="st1"
       x1="196.87498"
       y1="358.57339"
       x2="196.87498"
       y2="22.573378"
       id="line12"
       style="fill:none;stroke:#dfdfdf;stroke-width:0.5;stroke-linejoin:round;stroke-miterlimit:10" /><line
       class="st1"
       x1="243.07494"
       y1="358.57339"
       x2="243.07494"
       y2="22.573378"
       id="line14"
       style="fill:none;stroke:#dfdfdf;stroke-width:0.5;stroke-linejoin:round;stroke-miterlimit:10" /><line
       class="st1"
       x1="289.27493"
       y1="358.57339"
       x2="289.27493"
       y2="22.573378"
       id="line16"
       style="fill:none;stroke:#dfdfdf;stroke-width:0.5;stroke-linejoin:round;stroke-miterlimit:10" /><line
       class="st1"
       x1="335.57492"
       y1="358.57339"
       x2="335.57492"
       y2="22.573378"
       id="line18"
       style="fill:none;stroke:#dfdfdf;stroke-width:0.5;stroke-linejoin:round;stroke-miterlimit:10" /><line
       class="st1"
       x1="381.87491"
       y1="358.57339"
       x2="381.87491"
       y2="22.573378"
       id="line20"
       style="fill:none;stroke:#dfdfdf;stroke-width:0.5;stroke-linejoin:round;stroke-miterlimit:10" /><line
       class="st1"
       x1="428.07492"
       y1="358.57339"
       x2="428.07492"
       y2="22.573378"
       id="line22"
       style="fill:none;stroke:#dfdfdf;stroke-width:0.5;stroke-linejoin:round;stroke-miterlimit:10" /><line
       class="st1"
       x1="428.07492"
       y1="358.57339"
       x2="58.074963"
       y2="358.57339"
       id="line24"
       style="fill:none;stroke:#dfdfdf;stroke-width:0.5;stroke-linejoin:round;stroke-miterlimit:10" /><line
       class="st1"
       x1="428.07492"
       y1="316.57339"
       x2="58.074963"
       y2="316.57339"
       id="line26"
       style="fill:none;stroke:#dfdfdf;stroke-width:0.5;stroke-linejoin:round;stroke-miterlimit:10" /><line
       class="st1"
       x1="428.07492"
       y1="274.57339"
       x2="58.074963"
       y2="274.57339"
       id="line28"
       style="fill:none;stroke:#dfdfdf;stroke-width:0.5;stroke-linejoin:round;stroke-miterlimit:10" /><line
       class="st1"
       x1="428.07492"
       y1="232.57339"
       x2="58.074963"
       y2="232.57339"
       id="line30"
       style="fill:none;stroke:#dfdfdf;stroke-width:0.5;stroke-linejoin:round;stroke-miterlimit:10" /><line
       class="st1"
       x1="428.07492"
       y1="190.57339"
       x2="58.074963"
       y2="190.57339"
       id="line32"
       style="fill:none;stroke:#dfdfdf;stroke-width:0.5;stroke-linejoin:round;stroke-miterlimit:10" /><line
       class="st1"
       x1="428.07492"
       y1="148.57339"
       x2="58.074963"
       y2="148.57339"
       id="line34"
       style="fill:none;stroke:#dfdfdf;stroke-width:0.5;stroke-linejoin:round;stroke-miterlimit:10" /><line
       class="st1"
       x1="428.07492"
       y1="106.57337"
       x2="58.074963"
       y2="106.57337"
       id="line36"
       style="fill:none;stroke:#dfdfdf;stroke-width:0.5;stroke-linejoin:round;stroke-miterlimit:10" /><line
       class="st1"
       x1="428.07492"
       y1="64.57338"
       x2="58.074963"
       y2="64.57338"
       id="line38"
       style="fill:none;stroke:#dfdfdf;stroke-width:0.5;stroke-linejoin:round;stroke-miterlimit:10" /><line
       class="st1"
       x1="428.07492"
       y1="22.573378"
       x2="58.074963"
       y2="22.573378"
       id="line40"
       style="fill:none;stroke:#dfdfdf;stroke-width:0.5;stroke-linejoin:round;stroke-miterlimit:10" /><line
       class="st2"
       x1="58.074963"
       y1="358.57339"
       x2="428.07492"
       y2="358.57339"
       id="line42"
       style="fill:none;stroke:#262626;stroke-width:0.5;stroke-linecap:square;stroke-linejoin:round;stroke-miterlimit:10" /><line
       class="st2"
       x1="58.074963"
       y1="22.573378"
       x2="428.07492"
       y2="22.573378"
       id="line44"
       style="fill:none;stroke:#262626;stroke-width:0.5;stroke-linecap:square;stroke-linejoin:round;stroke-miterlimit:10" /><line
       class="st2"
       x1="58.074963"
       y1="22.573378"
       x2="58.074963"
       y2="26.273394"
       id="line64"
       style="fill:none;stroke:#262626;stroke-width:0.5;stroke-linecap:square;stroke-linejoin:round;stroke-miterlimit:10" /><line
       class="st2"
       x1="104.27494"
       y1="22.573378"
       x2="104.27494"
       y2="26.273394"
       id="line66"
       style="fill:none;stroke:#262626;stroke-width:0.5;stroke-linecap:square;stroke-linejoin:round;stroke-miterlimit:10" /><line
       class="st2"
       x1="150.575"
       y1="22.573378"
       x2="150.575"
       y2="26.273394"
       id="line68"
       style="fill:none;stroke:#262626;stroke-width:0.5;stroke-linecap:square;stroke-linejoin:round;stroke-miterlimit:10" /><line
       class="st2"
       x1="196.87498"
       y1="22.573378"
       x2="196.87498"
       y2="26.273394"
       id="line70"
       style="fill:none;stroke:#262626;stroke-width:0.5;stroke-linecap:square;stroke-linejoin:round;stroke-miterlimit:10" /><line
       class="st2"
       x1="243.07494"
       y1="22.573378"
       x2="243.07494"
       y2="26.273394"
       id="line72"
       style="fill:none;stroke:#262626;stroke-width:0.5;stroke-linecap:square;stroke-linejoin:round;stroke-miterlimit:10" /><line
       class="st2"
       x1="289.27493"
       y1="22.573378"
       x2="289.27493"
       y2="26.273394"
       id="line74"
       style="fill:none;stroke:#262626;stroke-width:0.5;stroke-linecap:square;stroke-linejoin:round;stroke-miterlimit:10" /><line
       class="st2"
       x1="335.57492"
       y1="22.573378"
       x2="335.57492"
       y2="26.273394"
       id="line76"
       style="fill:none;stroke:#262626;stroke-width:0.5;stroke-linecap:square;stroke-linejoin:round;stroke-miterlimit:10" /><line
       class="st2"
       x1="381.87491"
       y1="22.573378"
       x2="381.87491"
       y2="26.273394"
       id="line78"
       style="fill:none;stroke:#262626;stroke-width:0.5;stroke-linecap:square;stroke-linejoin:round;stroke-miterlimit:10" /><line
       class="st2"
       x1="428.07492"
       y1="22.573378"
       x2="428.07492"
       y2="26.273394"
       id="line80"
       style="fill:none;stroke:#262626;stroke-width:0.5;stroke-linecap:square;stroke-linejoin:round;stroke-miterlimit:10" /><line
       class="st2"
       x1="58.074963"
       y1="358.57339"
       x2="58.074963"
       y2="22.573378"
       id="line118"
       style="fill:none;stroke:#262626;stroke-width:0.5;stroke-linecap:square;stroke-linejoin:round;stroke-miterlimit:10" /><line
       class="st2"
       x1="428.07492"
       y1="358.57339"
       x2="428.07492"
       y2="22.573378"
       id="line120"
       style="fill:none;stroke:#262626;stroke-width:0.5;stroke-linecap:square;stroke-linejoin:round;stroke-miterlimit:10" /><line
       class="st2"
       x1="58.074963"
       y1="316.57339"
       x2="61.774975"
       y2="316.57339"
       id="line124"
       style="fill:none;stroke:#262626;stroke-width:0.5;stroke-linecap:square;stroke-linejoin:round;stroke-miterlimit:10" /><line
       class="st2"
       x1="58.074963"
       y1="274.57339"
       x2="61.774975"
       y2="274.57339"
       id="line126"
       style="fill:none;stroke:#262626;stroke-width:0.5;stroke-linecap:square;stroke-linejoin:round;stroke-miterlimit:10" /><line
       class="st2"
       x1="58.074963"
       y1="232.57339"
       x2="61.774975"
       y2="232.57339"
       id="line128"
       style="fill:none;stroke:#262626;stroke-width:0.5;stroke-linecap:square;stroke-linejoin:round;stroke-miterlimit:10" /><line
       class="st2"
       x1="58.074963"
       y1="190.57339"
       x2="61.774975"
       y2="190.57339"
       id="line130"
       style="fill:none;stroke:#262626;stroke-width:0.5;stroke-linecap:square;stroke-linejoin:round;stroke-miterlimit:10" /><line
       class="st2"
       x1="58.074963"
       y1="148.57339"
       x2="61.774975"
       y2="148.57339"
       id="line132"
       style="fill:none;stroke:#262626;stroke-width:0.5;stroke-linecap:square;stroke-linejoin:round;stroke-miterlimit:10" /><line
       class="st2"
       x1="58.074963"
       y1="106.57337"
       x2="61.774975"
       y2="106.57337"
       id="line134"
       style="fill:none;stroke:#262626;stroke-width:0.5;stroke-linecap:square;stroke-linejoin:round;stroke-miterlimit:10" /><line
       class="st2"
       x1="58.074963"
       y1="64.57338"
       x2="61.774975"
       y2="64.57338"
       id="line136"
       style="fill:none;stroke:#262626;stroke-width:0.5;stroke-linecap:square;stroke-linejoin:round;stroke-miterlimit:10" /><line
       class="st2"
       x1="428.07492"
       y1="316.57339"
       x2="424.37491"
       y2="316.57339"
       id="line142"
       style="fill:none;stroke:#262626;stroke-width:0.5;stroke-linecap:square;stroke-linejoin:round;stroke-miterlimit:10" /><line
       class="st2"
       x1="428.07492"
       y1="274.57339"
       x2="424.37491"
       y2="274.57339"
       id="line144"
       style="fill:none;stroke:#262626;stroke-width:0.5;stroke-linecap:square;stroke-linejoin:round;stroke-miterlimit:10" /><line
       class="st2"
       x1="428.07492"
       y1="232.57339"
       x2="424.37491"
       y2="232.57339"
       id="line146"
       style="fill:none;stroke:#262626;stroke-width:0.5;stroke-linecap:square;stroke-linejoin:round;stroke-miterlimit:10" /><line
       class="st2"
       x1="428.07492"
       y1="190.57339"
       x2="424.37491"
       y2="190.57339"
       id="line148"
       style="fill:none;stroke:#262626;stroke-width:0.5;stroke-linecap:square;stroke-linejoin:round;stroke-miterlimit:10" /><line
       class="st2"
       x1="428.07492"
       y1="148.57339"
       x2="424.37491"
       y2="148.57339"
       id="line150"
       style="fill:none;stroke:#262626;stroke-width:0.5;stroke-linecap:square;stroke-linejoin:round;stroke-miterlimit:10" /><line
       class="st2"
       x1="428.07492"
       y1="106.57337"
       x2="424.37491"
       y2="106.57337"
       id="line152"
       style="fill:none;stroke:#262626;stroke-width:0.5;stroke-linecap:square;stroke-linejoin:round;stroke-miterlimit:10" /><line
       class="st2"
       x1="428.07492"
       y1="64.57338"
       x2="424.37491"
       y2="64.57338"
       id="line154"
       style="fill:none;stroke:#262626;stroke-width:0.5;stroke-linecap:square;stroke-linejoin:round;stroke-miterlimit:10" /><line
       class="st2"
       x1="428.07492"
       y1="22.573378"
       x2="424.37491"
       y2="22.573378"
       id="line156"
       style="fill:none;stroke:#262626;stroke-width:0.5;stroke-linecap:square;stroke-linejoin:round;stroke-miterlimit:10" /></g></g><g
   inkscape:groupmode="layer"
   id="layer3"
   inkscape:label="Layer 3"
   style="display:inline"><polyline
     class="st10"
     points="43,215.9 43.9,216.3 44.8,217.4 45.8,219.2 46.7,221.9 47.6,225.6 48.5,230.6 49.5,237.2 50.4,246.3   51.3,259.6 52.2,282.2 53.2,361.1 54.1,291.2 55,263.5 55.9,248.2 56.9,238 57.8,230.5 58.7,224.9 59.6,220.7 60.6,217.6   61.5,215.4 62.4,214.1 63.3,213.7 64.3,214 65.2,215.3 66.1,217.5 67,220.9 68,225.6 68.9,232.3 69.8,241.8 70.8,256.2 71.7,283   72.6,358.8 73.5,274.5 74.4,251.3 75.4,237.9 76.3,228.9 77.2,222.5 78.1,218.1 79.1,215.3 80,213.9 80.9,213.8 81.8,215.3   82.8,218.4 83.7,223.7 84.6,232.2 85.6,246 86.5,273.3 87.4,331.8 88.3,260.1 89.2,238.1 90.2,225.6 91.1,218.2 92,214.3 92.9,214   93.9,218.2 94.8,230.4 95.7,270.7 96.6,245.7 97.6,204.9 98.5,181.9 99.4,165.1 100.3,151.4 101.3,139.9 102.2,129.8 103.1,120.8   104.1,112.8 105,105.5 105.9,98.8 106.8,92.6 107.8,87 108.7,81.8 109.6,77 110.5,72.5 111.4,68.4 112.4,64.7 113.3,61.2 114.2,58   115.1,55.1 116.1,52.5 117,50.1 117.9,47.9 118.8,46 119.8,44.4 120.7,42.9 121.6,41.7 122.6,40.8 123.5,40 124.4,39.5 125.3,39.1   126.2,39 127.2,39.1 128.1,39.5 129,40 129.9,40.8 130.9,41.7 131.8,42.9 132.7,44.4 133.6,46 134.6,47.9 135.5,50.1 136.4,52.5   137.3,55.1 138.3,58 139.2,61.2 140.1,64.7 141,68.4 142,72.5 142.9,77 143.8,81.8 144.8,87 145.7,92.6 146.6,98.8 147.5,105.5   148.4,112.8 149.4,120.8 150.3,129.8 151.2,139.9 152.1,151.4 153.1,165.1 154,181.9 154.9,204.9 155.8,245.7 156.8,270.7   157.7,230.4 158.6,218.2 159.5,214 160.5,214.3 161.4,218.2 162.3,225.6 163.2,238.1 164.2,260.1 165.1,331.8 166,273.3 166.9,246   167.9,232.2 168.8,223.7 169.7,218.4 170.6,215.3 171.6,213.8 172.5,213.9 173.4,215.3 174.3,218.1 175.3,222.5 176.2,228.9   177.1,237.9 178,251.3 179,274.5 179.9,358.8 180.8,283 181.8,256.2 182.7,241.8 183.6,232.3 184.5,225.6 185.4,220.9 186.4,217.5   187.3,215.3 188.2,214 189.1,213.7 190.1,214.1 191,215.4 191.9,217.6 192.8,220.7 193.8,224.9 194.7,230.5 195.6,238 196.5,248.2   197.5,263.5 198.4,291.2 199.3,361.1 200.2,282.2 201.2,259.6 202.1,246.3 203,237.2 203.9,230.6 204.9,225.6 205.8,221.9   206.7,219.2 207.6,217.4 208.6,216.3 209.5,215.9 210.4,216.3 211.3,217.4 212.3,219.2 213.2,221.9 214.1,225.6 215,230.6   216,237.2 216.9,246.3 217.8,259.6 218.8,282.2 219.7,361.1 220.6,291.2 221.5,263.5 222.4,248.2 223.4,238 224.3,230.5   225.2,224.9 226.1,220.7 227.1,217.6 228,215.4 228.9,214.1 229.8,213.7 230.8,214 231.7,215.3 232.6,217.5 233.5,220.9   234.5,225.6 235.4,232.3 236.3,241.8 237.2,256.2 238.2,283 239.1,358.8 240,274.5 240.9,251.3 241.9,237.9 242.8,228.9   243.7,222.5 244.6,218.1 245.6,215.3 246.5,213.9 247.4,213.8 248.3,215.3 249.3,218.4 250.2,223.7 251.1,232.2 252,246 253,273.3   253.9,331.8 254.8,260.1 255.8,238.1 256.7,225.6 257.6,218.2 258.5,214.3 259.4,214 260.4,218.2 261.3,230.4 262.2,270.7   263.1,245.7 264.1,204.9 265,181.9 265.9,165.1 266.8,151.4 267.8,139.9 268.7,129.8 269.6,120.8 270.5,112.8 271.5,105.5   272.4,98.8 273.3,92.6 274.2,87 275.2,81.8 276.1,77 277,72.5 277.9,68.4 278.9,64.7 279.8,61.2 280.7,58 281.6,55.1 282.6,52.5   283.5,50.1 284.4,47.9 285.4,46 286.3,44.4 287.2,42.9 288.1,41.7 289,40.8 290,40 290.9,39.5 291.8,39.1 292.8,39 293.7,39.1   294.6,39.5 295.5,40 296.4,40.8 297.4,41.7 298.3,42.9 299.2,44.4 300.1,46 301.1,47.9 302,50.1 302.9,52.5 303.9,55.1 304.8,58   305.7,61.2 306.6,64.7 307.5,68.4 308.5,72.5 309.4,77 310.3,81.8 311.2,87 312.2,92.6 313.1,98.8 314,105.5 314.9,112.8   315.9,120.8 316.8,129.8 317.7,139.9 318.6,151.4 319.6,165.1 320.5,181.9 321.4,204.9 322.4,245.7 323.3,270.7 324.2,230.4   325.1,218.2 326,214 327,214.3 327.9,218.2 328.8,225.6 329.8,238.1 330.7,260.1 331.6,331.8 332.5,273.3 333.4,246 334.4,232.2   335.3,223.7 336.2,218.4 337.1,215.3 338.1,213.8 339,213.9 339.9,215.3 340.9,218.1 341.8,222.5 342.7,228.9 343.6,237.9   344.5,251.3 345.5,274.5 346.4,358.8 347.3,283 348.2,256.2 349.2,241.8 350.1,232.3 351,225.6 351.9,220.9 352.9,217.5   353.8,215.3 354.7,214 355.6,213.7 356.6,214.1 357.5,215.4 358.4,217.6 359.4,220.7 360.3,224.9 361.2,230.5 362.1,238 363,248.2   364,263.5 364.9,291.2 365.8,361.1 366.8,282.2 367.7,259.6 368.6,246.3 369.5,237.2 370.4,230.6 371.4,225.6 372.3,221.9   373.2,219.2 374.1,217.4 375.1,216.3 376,215.9 "
     id="polyline178"
     style="display:inline;fill:none;stroke:#fe5a00;stroke-width:2;stroke-linejoin:round;stroke-miterlimit:10;stroke-opacity:1"
     transform="translate(15.074961,-17.126628)" /></g>










































































<g
   inkscape:groupmode="layer"
   id="layer1"
   inkscape:label="Layer 1"
   transform="translate(54.00016,-7.6198718)"
   style="display:inline"><line
     class="st2"
     x1="4.0748014"
     y1="362.49326"
     x2="4.0748014"
     y2="358.79324"
     id="line46"
     style="fill:none;stroke:#262626;stroke-width:0.5;stroke-linecap:square;stroke-linejoin:round;stroke-miterlimit:10" /><line
     class="st2"
     x1="50.274815"
     y1="362.49326"
     x2="50.274815"
     y2="358.79324"
     id="line48"
     style="fill:none;stroke:#262626;stroke-width:0.5;stroke-linecap:square;stroke-linejoin:round;stroke-miterlimit:10" /><line
     class="st2"
     x1="96.574799"
     y1="362.49326"
     x2="96.574799"
     y2="358.79324"
     id="line50"
     style="fill:none;stroke:#262626;stroke-width:0.5;stroke-linecap:square;stroke-linejoin:round;stroke-miterlimit:10" /><line
     class="st2"
     x1="142.87482"
     y1="362.49326"
     x2="142.87482"
     y2="358.79324"
     id="line52"
     style="fill:none;stroke:#262626;stroke-width:0.5;stroke-linecap:square;stroke-linejoin:round;stroke-miterlimit:10" /><line
     class="st2"
     x1="189.0748"
     y1="362.49326"
     x2="189.0748"
     y2="358.79324"
     id="line54"
     style="fill:none;stroke:#262626;stroke-width:0.5;stroke-linecap:square;stroke-linejoin:round;stroke-miterlimit:10" /><line
     class="st2"
     x1="235.27481"
     y1="362.49326"
     x2="235.27481"
     y2="358.79324"
     id="line56"
     style="fill:none;stroke:#262626;stroke-width:0.5;stroke-linecap:square;stroke-linejoin:round;stroke-miterlimit:10" /><line
     class="st2"
     x1="281.5748"
     y1="362.49326"
     x2="281.5748"
     y2="358.79324"
     id="line58"
     style="fill:none;stroke:#262626;stroke-width:0.5;stroke-linecap:square;stroke-linejoin:round;stroke-miterlimit:10" /><line
     class="st2"
     x1="327.87479"
     y1="362.49326"
     x2="327.87479"
     y2="358.79324"
     id="line60"
     style="fill:none;stroke:#262626;stroke-width:0.5;stroke-linecap:square;stroke-linejoin:round;stroke-miterlimit:10" /><line
     class="st2"
     x1="374.0748"
     y1="362.49326"
     x2="374.0748"
     y2="358.79324"
     id="line62"
     style="fill:none;stroke:#262626;stroke-width:0.5;stroke-linecap:square;stroke-linejoin:round;stroke-miterlimit:10" /><text
     class="st3 st4 st9"
     id="text116"
     style="font-size:11px;font-family:Helvetica;fill:#262626"
     x="142.45332"
     y="409.06567">Angle (degree)</text><line
     class="st2"
     x1="4.0748014"
     y1="362.49326"
     x2="7.7748137"
     y2="362.49326"
     id="line122"
     style="fill:none;stroke:#262626;stroke-width:0.5;stroke-linecap:square;stroke-linejoin:round;stroke-miterlimit:10" /><line
     class="st2"
     x1="374.0748"
     y1="362.49326"
     x2="370.37479"
     y2="362.49326"
     id="line140"
     style="fill:none;stroke:#262626;stroke-width:0.5;stroke-linecap:square;stroke-linejoin:round;stroke-miterlimit:10" /><text
     class="st3 st4 st5"
     id="text158"
     style="font-size:10px;font-family:Helvetica;fill:#262626"
     x="-23.571218"
     y="367.38345">-35</text><text
     class="st3 st4 st5"
     id="text160"
     style="font-size:10px;font-family:Helvetica;fill:#262626"
     x="-23.571218"
     y="325.38345">-30</text><text
     class="st3 st4 st5"
     id="text162"
     style="font-size:10px;font-family:Helvetica;fill:#262626"
     x="-23.571218"
     y="283.38345">-25</text><text
     class="st3 st4 st5"
     id="text164"
     style="font-size:10px;font-family:Helvetica;fill:#262626"
     x="-23.571218"
     y="241.38344">-20</text><text
     class="st3 st4 st5"
     id="text166"
     style="font-size:10px;font-family:Helvetica;fill:#262626"
     x="-23.571218"
     y="199.38344">-15</text><text
     class="st3 st4 st5"
     id="text168"
     style="font-size:10px;font-family:Helvetica;fill:#262626"
     x="-23.571218"
     y="157.38344">-10</text><text
     class="st3 st4 st5"
     id="text170"
     style="font-size:10px;font-family:Helvetica;fill:#262626"
     x="-17.57122"
     y="115.38344">-5</text><text
     class="st3 st4 st5"
     id="text172"
     style="font-size:10px;font-family:Helvetica;fill:#262626"
     x="-13.571218"
     y="73.38343">0</text><text
     class="st3 st4 st5"
     id="text174"
     style="font-size:10px;font-family:Helvetica;fill:#262626"
     x="-13.571218"
     y="31.383434">5</text><text
     transform="rotate(-90)"
     class="st3 st4 st9"
     id="text176"
     style="font-size:11px;font-family:Helvetica;fill:#262626"
     x="-224.29816"
     y="-38.802521">Array factor</text><text
     xml:space="preserve"
     style="font-size:16px;line-height:1.25;font-family:sans-serif"
     x="-3.4754648"
     y="382.99615"
     id="text1989"><tspan
       sodipodi:role="line"
       id="tspan1987"
       x="-3.4754648"
       y="382.99615">0</tspan></text><text
     xml:space="preserve"
     style="font-size:16px;line-height:1.25;font-family:sans-serif"
     x="39.620293"
     y="383.69125"
     id="text2245"><tspan
       sodipodi:role="line"
       id="tspan2243"
       x="39.620293"
       y="383.69125">50</tspan></text><text
     xml:space="preserve"
     style="font-size:16px;line-height:1.25;font-family:sans-serif"
     x="82.02095"
     y="383.69125"
     id="text2765"><tspan
       sodipodi:role="line"
       id="tspan2763"
       x="82.02095"
       y="383.69125">100</tspan></text><text
     xml:space="preserve"
     style="font-size:16px;line-height:1.25;font-family:sans-serif"
     x="132.76273"
     y="384.38632"
     id="text3021"><tspan
       sodipodi:role="line"
       id="tspan3019"
       x="132.76273"
       y="384.38632">150</tspan></text><text
     xml:space="preserve"
     style="font-size:16px;line-height:1.25;font-family:sans-serif"
     x="178.63884"
     y="384.38635"
     id="text3277"><tspan
       sodipodi:role="line"
       id="tspan3275"
       x="178.63884"
       y="384.38635">200</tspan></text><text
     xml:space="preserve"
     style="font-size:16px;line-height:1.25;font-family:sans-serif"
     x="221.03949"
     y="384.38635"
     id="text3599"><tspan
       sodipodi:role="line"
       id="tspan3597"
       x="221.03949"
       y="384.38635">250</tspan></text><text
     xml:space="preserve"
     style="font-size:16px;line-height:1.25;font-family:sans-serif"
     x="268.30582"
     y="384.38635"
     id="text4251"><tspan
       sodipodi:role="line"
       id="tspan4249"
       x="268.30582"
       y="384.38635">300</tspan></text><text
     xml:space="preserve"
     style="font-size:16px;line-height:1.25;font-family:sans-serif"
     x="314.87704"
     y="385.08142"
     id="text4705"><tspan
       sodipodi:role="line"
       id="tspan4703"
       x="314.87704"
       y="385.08142">350</tspan></text><text
     xml:space="preserve"
     style="font-size:16px;line-height:1.25;font-family:sans-serif"
     x="358.66788"
     y="385.08142"
     id="text4961"><tspan
       sodipodi:role="line"
       id="tspan4959"
       x="358.66788"
       y="385.08142">400</tspan></text></g></svg>
