<?xml version="1.0" encoding="UTF-8" standalone="no"?>
<svg
   id="Livello_1"
   data-name="Livello 1"
   viewBox="0 0 462.18 364.83"
   version="1.1"
   sodipodi:docname="pcb_array_factor_with_toolbox_rectangular_el_tex.svg"
   inkscape:version="1.1.1 (3bf5ae0d25, 2021-09-20)"
   xmlns:inkscape="http://www.inkscape.org/namespaces/inkscape"
   xmlns:sodipodi="http://sodipodi.sourceforge.net/DTD/sodipodi-0.dtd"
   xmlns="http://www.w3.org/2000/svg"
   xmlns:svg="http://www.w3.org/2000/svg">
  <sodipodi:namedview
     id="namedview125"
     pagecolor="#ffffff"
     bordercolor="#666666"
     borderopacity="1.0"
     inkscape:pageshadow="2"
     inkscape:pageopacity="0.0"
     inkscape:pagecheckerboard="0"
     showgrid="false"
     inkscape:zoom="2.3928954"
     inkscape:cx="231.10078"
     inkscape:cy="182.41499"
     inkscape:window-width="3440"
     inkscape:window-height="1369"
     inkscape:window-x="-8"
     inkscape:window-y="-8"
     inkscape:window-maximized="1"
     inkscape:current-layer="layer1" />
  <defs
     id="defs4">
    <style
       id="style2">.cls-1,.cls-3{fill:none;stroke-linejoin:round;}.cls-1{stroke:#262626;stroke-linecap:square;stroke-width:0.5px;}.cls-2{font-size:10px;fill:#262626;font-family:ArialMT, Arial;}.cls-3{stroke:#fe5a00;}</style>
  </defs>
  <line
     class="cls-1"
     x1="20"
     y1="347.58"
     x2="454"
     y2="347.58"
     id="line6" />
  <line
     class="cls-1"
     x1="20"
     y1="5.08"
     x2="454"
     y2="5.08"
     id="line8" />
  <line
     class="cls-1"
     x1="20"
     y1="347.58"
     x2="20"
     y2="343.24"
     id="line10" />
  <line
     class="cls-1"
     x1="74.25"
     y1="347.58"
     x2="74.25"
     y2="343.24"
     id="line12" />
  <line
     class="cls-1"
     x1="128.5"
     y1="347.58"
     x2="128.5"
     y2="343.24"
     id="line14" />
  <line
     class="cls-1"
     x1="182.75"
     y1="347.58"
     x2="182.75"
     y2="343.24"
     id="line16" />
  <line
     class="cls-1"
     x1="237"
     y1="347.58"
     x2="237"
     y2="343.24"
     id="line18" />
  <line
     class="cls-1"
     x1="291.25"
     y1="347.58"
     x2="291.25"
     y2="343.24"
     id="line20" />
  <line
     class="cls-1"
     x1="345.5"
     y1="347.58"
     x2="345.5"
     y2="343.24"
     id="line22" />
  <line
     class="cls-1"
     x1="399.75"
     y1="347.58"
     x2="399.75"
     y2="343.24"
     id="line24" />
  <line
     class="cls-1"
     x1="454"
     y1="347.58"
     x2="454"
     y2="343.24"
     id="line26" />
  <line
     class="cls-1"
     x1="20"
     y1="5.08"
     x2="20"
     y2="9.42"
     id="line28" />
  <line
     class="cls-1"
     x1="74.25"
     y1="5.08"
     x2="74.25"
     y2="9.42"
     id="line30" />
  <line
     class="cls-1"
     x1="128.5"
     y1="5.08"
     x2="128.5"
     y2="9.42"
     id="line32" />
  <line
     class="cls-1"
     x1="182.75"
     y1="5.08"
     x2="182.75"
     y2="9.42"
     id="line34" />
  <line
     class="cls-1"
     x1="237"
     y1="5.08"
     x2="237"
     y2="9.42"
     id="line36" />
  <line
     class="cls-1"
     x1="291.25"
     y1="5.08"
     x2="291.25"
     y2="9.42"
     id="line38" />
  <line
     class="cls-1"
     x1="345.5"
     y1="5.08"
     x2="345.5"
     y2="9.42"
     id="line40" />
  <line
     class="cls-1"
     x1="399.75"
     y1="5.08"
     x2="399.75"
     y2="9.42"
     id="line42" />
  <line
     class="cls-1"
     x1="454"
     y1="5.08"
     x2="454"
     y2="9.42"
     id="line44" />
  <line
     class="cls-1"
     x1="20"
     y1="347.58"
     x2="20"
     y2="5.08"
     id="line64" />
  <line
     class="cls-1"
     x1="454"
     y1="347.58"
     x2="454"
     y2="5.08"
     id="line66" />
  <line
     class="cls-1"
     x1="20"
     y1="347.58"
     x2="24.34"
     y2="347.58"
     id="line68" />
  <line
     class="cls-1"
     x1="20"
     y1="304.77"
     x2="24.34"
     y2="304.77"
     id="line70" />
  <line
     class="cls-1"
     x1="20"
     y1="261.96"
     x2="24.34"
     y2="261.96"
     id="line72" />
  <line
     class="cls-1"
     x1="20"
     y1="219.14"
     x2="24.34"
     y2="219.14"
     id="line74" />
  <line
     class="cls-1"
     x1="20"
     y1="176.33"
     x2="24.34"
     y2="176.33"
     id="line76" />
  <line
     class="cls-1"
     x1="20"
     y1="133.52"
     x2="24.34"
     y2="133.52"
     id="line78" />
  <line
     class="cls-1"
     x1="20"
     y1="90.71"
     x2="24.34"
     y2="90.71"
     id="line80" />
  <line
     class="cls-1"
     x1="20"
     y1="47.89"
     x2="24.34"
     y2="47.89"
     id="line82" />
  <line
     class="cls-1"
     x1="20"
     y1="5.08"
     x2="24.34"
     y2="5.08"
     id="line84" />
  <line
     class="cls-1"
     x1="454"
     y1="347.58"
     x2="449.66"
     y2="347.58"
     id="line86" />
  <line
     class="cls-1"
     x1="454"
     y1="304.77"
     x2="449.66"
     y2="304.77"
     id="line88" />
  <line
     class="cls-1"
     x1="454"
     y1="261.96"
     x2="449.66"
     y2="261.96"
     id="line90" />
  <line
     class="cls-1"
     x1="454"
     y1="219.14"
     x2="449.66"
     y2="219.14"
     id="line92" />
  <line
     class="cls-1"
     x1="454"
     y1="176.33"
     x2="449.66"
     y2="176.33"
     id="line94" />
  <line
     class="cls-1"
     x1="454"
     y1="133.52"
     x2="449.66"
     y2="133.52"
     id="line96" />
  <line
     class="cls-1"
     x1="454"
     y1="90.71"
     x2="449.66"
     y2="90.71"
     id="line98" />
  <line
     class="cls-1"
     x1="454"
     y1="47.89"
     x2="449.66"
     y2="47.89"
     id="line100" />
  <line
     class="cls-1"
     x1="454"
     y1="5.08"
     x2="449.66"
     y2="5.08"
     id="line102" />
  <polyline
     class="cls-3"
     points="41.7 188.54 42.78 188.9 43.87 190 44.95 191.89 46.04 194.66 47.13 198.46 48.21 203.53 49.3 210.32 50.38 219.61 51.47 233.18 52.55 256.38 53.63 339.84 54.72 264.73 55.8 236.72 56.89 221.28 57.98 210.87 59.06 203.29 60.15 197.59 61.23 193.28 62.31 190.11 63.4 187.91 64.48 186.59 65.57 186.12 66.66 186.49 67.74 187.76 68.83 190.02 69.91 193.43 71 198.27 72.08 205.02 73.17 214.63 74.25 229.27 75.33 256.24 76.42 339.09 77.5 248.62 78.59 224.84 79.67 211.07 80.76 201.82 81.84 195.32 82.93 190.81 84.02 187.92 85.1 186.47 86.19 186.45 87.27 187.93 88.36 191.15 89.44 196.59 90.53 205.22 91.61 219.4 92.69 247.41 93.78 304.44 94.86 233.25 95.95 210.89 97.03 198.27 98.12 190.67 99.2 186.76 100.29 186.45 101.38 190.71 102.46 203.11 103.55 244.02 104.63 219 105.72 177.3 106.8 153.85 107.89 136.64 108.97 122.75 110.06 110.97 111.14 100.7 112.22 91.57 113.31 83.35 114.39 75.88 115.48 69.06 116.56 62.81 117.65 57.05 118.73 51.74 119.82 46.84 120.91 42.31 121.99 38.14 123.08 34.29 124.16 30.75 125.25 27.51 126.33 24.55 127.42 21.86 128.5 19.43 129.59 17.25 130.67 15.31 131.75 13.62 132.84 12.16 133.93 10.94 135.01 9.94 136.09 9.16 137.18 8.61 138.26 8.28 139.35 8.17 140.44 8.28 141.52 8.61 142.6 9.16 143.69 9.94 144.78 10.94 145.86 12.16 146.94 13.62 148.03 15.31 149.12 17.25 150.2 19.43 151.28 21.86 152.37 24.55 153.46 27.51 154.54 30.75 155.63 34.29 156.71 38.14 157.79 42.31 158.88 46.84 159.97 51.74 161.05 57.05 162.13 62.81 163.22 69.06 164.31 75.88 165.39 83.35 166.47 91.57 167.56 100.7 168.65 110.97 169.73 122.75 170.81 136.64 171.9 153.85 172.99 177.3 174.07 219 175.16 244.02 176.24 203.11 177.32 190.71 178.41 186.45 179.5 186.76 180.58 190.67 181.66 198.27 182.75 210.89 183.84 233.25 184.92 304.44 186 247.41 187.09 219.4 188.18 205.22 189.26 196.59 190.34 191.15 191.43 187.93 192.51 186.45 193.6 186.47 194.69 187.92 195.77 190.81 196.85 195.32 197.94 201.82 199.03 211.07 200.11 224.84 201.19 248.62 202.28 339.09 203.37 256.24 204.45 229.27 205.53 214.63 206.62 205.02 207.71 198.27 208.79 193.43 209.88 190.02 210.96 187.76 212.04 186.49 213.13 186.12 214.22 186.59 215.3 187.91 216.38 190.11 217.47 193.28 218.56 197.59 219.64 203.29 220.72 210.87 221.81 221.28 222.9 236.72 223.98 264.73 225.06 339.84 226.15 256.38 227.24 233.18 228.32 219.61 229.41 210.32 230.49 203.53 231.57 198.46 232.66 194.66 233.75 191.89 234.83 190 235.91 188.9 237 188.54 238.09 188.9 239.17 190 240.25 191.89 241.34 194.66 242.43 198.46 243.51 203.53 244.59 210.32 245.68 219.61 246.76 233.18 247.85 256.38 248.94 339.84 250.02 264.73 251.1 236.72 252.19 221.28 253.28 210.87 254.36 203.29 255.44 197.59 256.53 193.28 257.62 190.11 258.7 187.91 259.79 186.59 260.87 186.12 261.95 186.49 263.04 187.76 264.13 190.02 265.21 193.43 266.3 198.27 267.38 205.02 268.46 214.63 269.55 229.27 270.63 256.24 271.72 339.09 272.81 248.62 273.89 224.84 274.98 211.07 276.06 201.82 277.14 195.32 278.23 190.81 279.31 187.92 280.4 186.47 281.49 186.45 282.57 187.93 283.65 191.15 284.74 196.59 285.82 205.22 286.91 219.4 288 247.41 289.08 304.44 290.17 233.25 291.25 210.89 292.33 198.27 293.42 190.67 294.5 186.76 295.59 186.45 296.68 190.71 297.76 203.11 298.85 244.02 299.93 219 301.01 177.3 302.1 153.85 303.19 136.64 304.27 122.75 305.36 110.97 306.44 100.7 307.52 91.57 308.61 83.35 309.69 75.88 310.78 69.06 311.87 62.81 312.95 57.05 314.04 51.74 315.12 46.84 316.2 42.31 317.29 38.14 318.38 34.29 319.46 30.75 320.55 27.51 321.63 24.55 322.71 21.86 323.8 19.43 324.88 17.25 325.97 15.31 327.06 13.62 328.14 12.16 329.23 10.94 330.31 9.94 331.39 9.16 332.48 8.61 333.56 8.28 334.65 8.17 335.74 8.28 336.82 8.61 337.9 9.16 338.99 9.94 340.07 10.94 341.16 12.16 342.25 13.62 343.33 15.31 344.42 17.25 345.5 19.43 346.58 21.86 347.67 24.55 348.75 27.51 349.84 30.75 350.93 34.29 352.01 38.14 353.1 42.31 354.18 46.84 355.26 51.74 356.35 57.05 357.44 62.81 358.52 69.06 359.61 75.88 360.69 83.35 361.77 91.57 362.86 100.7 363.94 110.97 365.03 122.75 366.12 136.64 367.2 153.85 368.29 177.3 369.37 219 370.45 244.02 371.54 203.11 372.63 190.71 373.71 186.45 374.8 186.76 375.88 190.67 376.96 198.27 378.05 210.89 379.13 233.25 380.22 304.44 381.31 247.41 382.39 219.4 383.48 205.22 384.56 196.59 385.64 191.15 386.73 187.93 387.81 186.45 388.9 186.47 389.99 187.92 391.07 190.81 392.15 195.32 393.24 201.82 394.32 211.07 395.41 224.84 396.5 248.62 397.58 339.09 398.67 256.24 399.75 229.27 400.83 214.63 401.92 205.02 403 198.27 404.09 193.43 405.18 190.02 406.26 187.76 407.35 186.49 408.43 186.12 409.51 186.59 410.6 187.91 411.69 190.11 412.77 193.28 413.86 197.59 414.94 203.29 416.02 210.87 417.11 221.28 418.19 236.72 419.28 264.73 420.37 339.84 421.45 256.38 422.54 233.18 423.62 219.61 424.7 210.32 425.79 203.53 426.88 198.46 427.96 194.66 429.05 191.89 430.13 190 431.21 188.9 432.3 188.54"
     id="polyline122" />
  <g
     inkscape:groupmode="layer"
     id="layer1"
     inkscape:label="Layer 1">
    <text
       class="cls-2"
       id="text46"
       style="font-size:10px;font-family:ArialMT, Arial;fill:#262626"
       x="10.842775"
       y="360.14926">-200</text>
    <text
       class="cls-2"
       id="text48"
       style="font-size:10px;font-family:ArialMT, Arial;fill:#262626"
       x="65.092766"
       y="360.14926">-150</text>
    <text
       class="cls-2"
       id="text50"
       style="font-size:10px;font-family:ArialMT, Arial;fill:#262626"
       x="119.34277"
       y="360.14926">-100</text>
    <text
       class="cls-2"
       id="text52"
       style="font-size:10px;font-family:ArialMT, Arial;fill:#262626"
       x="176.09277"
       y="360.14926">-50</text>
    <text
       class="cls-2"
       id="text54"
       style="font-size:10px;font-family:ArialMT, Arial;fill:#262626"
       x="235.34277"
       y="360.14926">0</text>
    <text
       class="cls-2"
       id="text56"
       style="font-size:10px;font-family:ArialMT, Arial;fill:#262626"
       x="286.59277"
       y="360.14926">50</text>
    <text
       class="cls-2"
       id="text58"
       style="font-size:10px;font-family:ArialMT, Arial;fill:#262626"
       x="338.34277"
       y="360.14926">100</text>
    <text
       class="cls-2"
       id="text60"
       style="font-size:10px;font-family:ArialMT, Arial;fill:#262626"
       x="392.59277"
       y="360.14926">150</text>
    <text
       class="cls-2"
       id="text62"
       style="font-size:10px;font-family:ArialMT, Arial;fill:#262626"
       x="446.84277"
       y="360.14926">200</text>
    <text
       class="cls-2"
       id="text104"
       style="font-size:10px;font-family:ArialMT, Arial;fill:#262626"
       x="1.3427755"
       y="349.64926">-70</text>
    <text
       class="cls-2"
       id="text106"
       style="font-size:10px;font-family:ArialMT, Arial;fill:#262626"
       x="1.3427755"
       y="306.83923">-60</text>
    <text
       class="cls-2"
       id="text108"
       style="font-size:10px;font-family:ArialMT, Arial;fill:#262626"
       x="1.3427755"
       y="264.02924">-50</text>
    <text
       class="cls-2"
       id="text110"
       style="font-size:10px;font-family:ArialMT, Arial;fill:#262626"
       x="1.3427755"
       y="221.20924">-40</text>
    <text
       class="cls-2"
       id="text112"
       style="font-size:10px;font-family:ArialMT, Arial;fill:#262626"
       x="1.3427755"
       y="178.39923">-30</text>
    <text
       class="cls-2"
       id="text114"
       style="font-size:10px;font-family:ArialMT, Arial;fill:#262626"
       x="1.3427755"
       y="135.58923">-20</text>
    <text
       class="cls-2"
       id="text116"
       style="font-size:10px;font-family:ArialMT, Arial;fill:#262626"
       x="1.3427755"
       y="92.779243">-10</text>
    <text
       class="cls-2"
       id="text118"
       style="font-size:10px;font-family:ArialMT, Arial;fill:#262626"
       x="11.342775"
       y="49.95924">0</text>
    <text
       class="cls-2"
       id="text120"
       style="font-size:10px;font-family:ArialMT, Arial;fill:#262626"
       x="5.3427753"
       y="7.1492362">10</text>
    <text
       xml:space="preserve"
       style="font-size:16px;line-height:1.25;font-family:sans-serif"
       x="228.37924"
       y="381.27737"
       id="text2885"><tspan
         sodipodi:role="line"
         id="tspan2883"
         x="228.37924"
         y="381.27737">$dB$</tspan></text>
  </g>
</svg>
